%FSTAX23Y23*%
%MOIN*%
%SFA1B1*%

%IPPOS*%
%ADD32C,0.061020*%
%ADD33R,0.061020X0.061020*%
%ADD34C,0.060630*%
%ADD35R,0.060630X0.060630*%
%ADD62C,0.064960*%
%ADD63R,0.064960X0.064960*%
%ADD64C,0.055910*%
%LNcarduino-1*%
%LPD*%
G54D32*
X0096Y00173D03*
Y00273D03*
X0106Y00173D03*
Y00273D03*
X0116Y00173D03*
G54D33*
X0116Y00273D03*
G54D34*
X00987Y00545D03*
Y008D03*
X01164Y00545D03*
G54D35*
X01164Y008D03*
G54D62*
X03276Y00333D03*
Y00433D03*
Y00533D03*
Y00633D03*
Y00733D03*
Y00833D03*
Y00933D03*
Y01033D03*
Y01133D03*
Y01233D03*
Y01333D03*
Y01433D03*
Y01533D03*
Y01633D03*
Y01733D03*
X00076Y00333D03*
Y00433D03*
Y00533D03*
Y00633D03*
Y00733D03*
Y00833D03*
Y00933D03*
Y01033D03*
Y01133D03*
Y01233D03*
Y01333D03*
Y01433D03*
Y01533D03*
Y01633D03*
Y01733D03*
G54D63*
X03276Y01833D03*
X00076D03*
G54D64*
X01648Y00527D03*
X01737Y00633D03*
X01701Y0058D03*
X00899Y0022D03*
X01279Y00606D03*
X01195Y00872D03*
X01885Y00485D03*
X02456Y00174D03*
X01216Y00642D03*
X01245Y00954D03*
X01769Y017D03*
X01596Y00827D03*
X0164Y00879D03*
X03216Y00583D03*
X02121Y00247D03*
X01956Y00522D03*
X02376D03*
X01438Y00554D03*
X00844Y00152D03*
X01398Y00955D03*
X0174Y01153D03*
X0196D03*
X01916Y01809D03*
X0186Y01023D03*
X01152Y00669D03*
X0281Y00293D03*
X01401Y01333D03*
X0137Y01403D03*
X02183Y00236D03*
X022Y00073D03*
X0277Y00499D03*
X0152Y00703D03*
X0165Y0073D03*
X01413Y00143D03*
X011Y00713D03*
X0184Y00733D03*
X01813Y00797D03*
X0136Y01023D03*
X02512Y00533D03*
X0178Y00563D03*
X0161Y01033D03*
X004Y00413D03*
M02*