%FSTAX23Y23*%
%MOIN*%
%SFA1B1*%

%IPPOS*%
%ADD29C,0.010000*%
%ADD37C,0.009840*%
%ADD38C,0.023620*%
%ADD39C,0.003940*%
%ADD40C,0.007870*%
%ADD41C,0.005910*%
%LNcarduino-1*%
%LPD*%
G36*
X02401Y0178D02*
X02404Y01778D01*
X02407Y01776*
X02408Y01775*
X0241Y01773*
X02411Y01769*
X02411Y01765*
Y01764*
X02411Y01762*
X0241Y01757*
X02407Y01754*
X02407Y01753*
X02405Y01752*
X02401Y0175*
X02397Y0175*
X02396*
X02393Y0175*
X0239Y01751*
X02387Y01754*
X02386Y01754*
X02385Y01757*
X02384Y0176*
X02383Y01765*
Y01766*
X02384Y01769*
X02385Y01772*
X02387Y01775*
X02387Y01776*
X0239Y01778*
X02393Y0178*
X02397Y0178*
X02398*
X02401Y0178*
G37*
G36*
X01447Y01706D02*
X01511Y01613D01*
X01486*
X01432Y01692*
X01417Y01674*
Y01613*
X01396*
Y01774*
X01417*
Y01697*
X01418*
X01419Y01697*
X0142Y01699*
X01422Y01702*
X01424Y01705*
X01425Y01706*
X01426Y01708*
X01428Y01711*
X0143Y01714*
X0148Y01774*
X01506*
X01447Y01706*
G37*
G36*
X0198Y0178D02*
X01988Y01779D01*
X01996Y01777*
X01996*
X01998Y01777*
X02001Y01775*
X02005Y01774*
X02009Y01772*
X02004Y01756*
X02003Y01756*
X02001Y01757*
X01996Y01759*
X0199Y0176*
X0199*
X01989Y01761*
X01987*
X01985Y01762*
X01979Y01762*
X01967*
X01962Y01761*
X01955Y0176*
X01948Y01758*
X0194Y01754*
X01933Y0175*
X01926Y01744*
X01925Y01744*
X01923Y01741*
X0192Y01737*
X01917Y01732*
X01914Y01725*
X01911Y01717*
X01909Y01706*
X01908Y01696*
Y01695*
Y01694*
Y01691*
X01909Y01685*
X0191Y01678*
X01912Y01671*
X01915Y01663*
X01919Y01655*
X01924Y01648*
X01925Y01647*
X01927Y01645*
X01932Y01642*
X01936Y01639*
X01943Y01636*
X01951Y01633*
X0196Y01631*
X01971Y0163*
X01977*
X01983Y01631*
X01989Y01632*
X0199*
X01991Y01633*
X01995Y01634*
X02Y01636*
X02005Y01637*
X02009Y01621*
X02008Y0162*
X02005Y01619*
X01999Y01617*
X01992Y01615*
X01992*
X0199Y01615*
X01988*
X01985Y01614*
X01981Y01613*
X01977*
X01966Y01613*
X01963*
X01961Y01613*
X01954Y01614*
X01947Y01615*
X01938Y01618*
X01928Y01622*
X01918Y01627*
X01909Y01634*
X01908Y01635*
X01906Y01638*
X01902Y01643*
X01898Y01649*
X01894Y01658*
X0189Y01668*
X01888Y01681*
X01887Y01694*
Y01695*
Y01696*
Y01698*
X01887Y01701*
X01888Y01708*
X0189Y01717*
X01893Y01726*
X01896Y01736*
X01902Y01747*
X0191Y01756*
X01911Y01757*
X01914Y0176*
X0192Y01764*
X01926Y01768*
X01935Y01772*
X01946Y01777*
X01958Y01779*
X01971Y0178*
X01977*
X0198Y0178*
G37*
G36*
X02189D02*
X02196Y01779D01*
X02203Y01777*
X02204*
X02205Y01777*
X02209Y01775*
X02213Y01774*
X02218Y01772*
X02212Y01755*
X02212Y01756*
X02209Y01756*
X02205Y01758*
X022Y0176*
X02199*
X02198Y0176*
X02197Y01761*
X02195Y01762*
X02189Y01762*
X02181Y01763*
X02179*
X02176Y01762*
X02172Y01762*
X02164Y01759*
X02161Y01757*
X02158Y01754*
Y01754*
X02156Y01753*
X02154Y0175*
X02152Y01744*
X02151Y01741*
X0215Y01738*
Y01738*
Y01736*
X02151Y01734*
X02152Y01732*
X02154Y01726*
X02156Y01723*
X02158Y0172*
X02159*
X0216Y01719*
X02162Y01718*
X02164Y01716*
X02168Y01714*
X02172Y01712*
X02177Y01709*
X02183Y01707*
X02184Y01706*
X02186Y01706*
X0219Y01704*
X02194Y01702*
X02204Y01696*
X02209Y01692*
X02213Y01688*
X02214Y01687*
X02215Y01686*
X02217Y01684*
X02219Y0168*
X02221Y01676*
X02222Y01672*
X02224Y01666*
X02224Y0166*
Y01659*
Y01657*
X02224Y01653*
X02222Y01649*
X02221Y01643*
X02218Y01638*
X02215Y01632*
X0221Y01627*
X02209Y01626*
X02207Y01624*
X02204Y01622*
X022Y0162*
X02194Y01617*
X02186Y01615*
X02178Y01613*
X02168Y01613*
X02164*
X02161Y01613*
X02153Y01614*
X02144Y01616*
X02143*
X02142Y01616*
X0214Y01617*
X02137Y01618*
X02132Y0162*
X02126Y01623*
X02131Y01641*
X02132*
X02132Y0164*
X02136Y01638*
X02141Y01636*
X02148Y01633*
X02149*
X0215Y01632*
X02152Y01631*
X02155*
X02161Y0163*
X02169Y0163*
X02171*
X02174Y0163*
X02178Y01631*
X02186Y01633*
X0219Y01635*
X02194Y01637*
X02194Y01638*
X02195Y01639*
X02197Y0164*
X02198Y01643*
X02201Y01649*
X02202Y01654*
X02203Y01658*
Y01658*
Y0166*
X02202Y01662*
Y01664*
X022Y0167*
X02198Y01673*
X02195Y01676*
Y01677*
X02194Y01678*
X02192Y01679*
X0219Y01681*
X02187Y01683*
X02183Y01685*
X02178Y01688*
X02173Y0169*
X02172Y01691*
X0217Y01691*
X02166Y01693*
X02161Y01695*
X02151Y017*
X02146Y01704*
X02141Y01708*
X0214Y01708*
X02139Y01709*
X02137Y01712*
X02135Y01715*
X02133Y01719*
X02131Y01724*
X0213Y0173*
X02129Y01736*
Y01736*
Y01739*
X0213Y01742*
X02131Y01747*
X02133Y01752*
X02135Y01757*
X02139Y01763*
X02144Y01768*
X02144Y01768*
X02146Y01769*
X0215Y01772*
X02154Y01774*
X02159Y01776*
X02166Y01778*
X02173Y0178*
X02182Y0178*
X02186*
X02189Y0178*
G37*
G36*
X01281Y01613D02*
X01259D01*
X01237Y01681*
X01222Y01726*
X0122Y01732*
X01219Y01736*
X01218Y0174*
X01217Y01741*
Y01741*
X01216Y01747*
X01215Y01751*
X01214Y01754*
X01213Y01755*
Y01756*
X01213*
X01212Y0175*
X0121Y01746*
X01209Y01742*
X01209Y01742*
Y01741*
X01207Y01736*
X01206Y01731*
X01206Y01727*
X01205Y01727*
Y01726*
X01189Y01679*
X01167Y01613*
X01147*
X01201Y01774*
X01226*
X01281Y01613*
G37*
G36*
X01029Y01756D02*
X00979D01*
Y01612*
X00958*
Y01756*
X00909*
Y01774*
X01029*
Y01756*
G37*
G36*
X02401Y01644D02*
X02404Y01643D01*
X02407Y0164*
X02408Y0164*
X0241Y01637*
X02411Y01634*
X02411Y01629*
Y01628*
X02411Y01625*
X0241Y01622*
X02407Y01618*
X02407Y01618*
X02405Y01616*
X02401Y01615*
X02397Y01614*
X02396*
X02393Y01615*
X0239Y01616*
X02387Y01618*
X02386Y01619*
X02385Y01621*
X02384Y01625*
X02383Y01629*
Y0163*
Y0163*
X02384Y01633*
X02385Y01637*
X02387Y0164*
X02387Y01641*
X0239Y01643*
X02393Y01644*
X02397Y01645*
X02398*
X02401Y01644*
G37*
G36*
X01768Y01613D02*
X01746D01*
X01724Y01681*
X01709Y01726*
X01707Y01732*
X01705Y01736*
X01704Y0174*
X01704Y01741*
Y01741*
X01702Y01747*
X01701Y01751*
X01701Y01754*
X017Y01755*
Y01756*
X01699*
X01698Y0175*
X01697Y01746*
X01696Y01742*
X01696Y01742*
Y01741*
X01695Y01736*
X01693Y01731*
X01692Y01727*
X01692Y01727*
Y01726*
X01676Y01679*
X01655Y01613*
X01633*
X01688Y01774*
X01713*
X01768Y01613*
G37*
G36*
X01753Y01793D02*
X01649D01*
Y01811*
X01753*
Y01793*
G37*
G36*
X02407Y0193D02*
Y01861D01*
X02385*
Y0193*
X02334Y02023*
X02358*
X0238Y01979*
Y01978*
X02381Y01977*
X02382Y01975*
X02383Y01973*
X02386Y01967*
X02389Y01961*
Y01961*
X02389Y0196*
X02391Y01957*
X02393Y01951*
X02396Y01945*
X02397*
Y01946*
X02398Y01946*
X02399Y01951*
X02401Y01955*
X02404Y01961*
Y01962*
X02405Y01963*
X02407Y01967*
X0241Y01972*
X02413Y01979*
X02437Y02023*
X02461*
X02407Y0193*
G37*
G36*
X00996Y02024D02*
X01004Y02023D01*
X01005*
X01006Y02023*
X01008*
X0101Y02021*
X01015Y0202*
X0102Y02018*
X01015Y02001*
X01014Y02002*
X01011Y02003*
X01006Y02005*
X01Y02006*
X00999*
X00999Y02006*
X00997*
X00994Y02007*
X00988Y02008*
X00979Y02008*
X00975*
X00969Y02008*
X00962Y02006*
X00955Y02004*
X00946Y02001*
X00939Y01997*
X00931Y01991*
X00931Y0199*
X00929Y01988*
X00926Y01984*
X00923Y01979*
X0092Y01972*
X00917Y01963*
X00915Y01954*
X00914Y01943*
Y01942*
Y01942*
Y01938*
X00915Y01932*
X00917Y01925*
X00918Y01918*
X00921Y0191*
X00925Y01902*
X00931Y01895*
X00931Y01894*
X00934Y01892*
X00938Y01889*
X00943Y01886*
X0095Y01883*
X00958Y0188*
X00967Y01879*
X00977Y01878*
X00983*
X00988Y01879*
X00994Y01879*
X00995*
X00998Y0188*
X01002Y01881*
X01005Y01882*
Y0193*
X00971*
Y01948*
X01025*
Y01869*
X01024*
X01024Y01868*
X01022*
X0102Y01867*
X01017Y01867*
X01014Y01866*
X01005Y01864*
X01004*
X01002Y01863*
X01Y01862*
X00996*
X00991Y01862*
X00987Y01861*
X00975Y01861*
X00968*
X00964Y01861*
X00959Y01862*
X00954Y01862*
X00942Y01865*
X00941*
X00939Y01867*
X00936Y01868*
X00933Y01869*
X00924Y01874*
X00919Y01877*
X00915Y01882*
X00914Y01882*
X00913Y01883*
X00911Y01886*
X00909Y01889*
X00906Y01892*
X00903Y01897*
X009Y01902*
X00898Y01907*
Y01908*
X00897Y0191*
X00896Y01913*
X00895Y01918*
X00894Y01923*
X00893Y01928*
X00892Y01942*
Y01942*
Y01943*
Y01945*
X00893Y01948*
X00893Y01954*
X00895Y01963*
X00898Y01972*
X00902Y01982*
X00908Y01993*
X00916Y02002*
X00917Y02003*
X0092Y02005*
X00925Y02009*
X00933Y02014*
X00942Y02018*
X00953Y02022*
X00966Y02024*
X0098Y02026*
X00988*
X00996Y02024*
G37*
G36*
X01731D02*
X01739Y02023D01*
X0174*
X01741Y02023*
X01743*
X01745Y02021*
X0175Y0202*
X01755Y02018*
X01749Y02001*
X01748Y02002*
X01745Y02003*
X0174Y02005*
X01734Y02006*
X01734*
X01733Y02006*
X01731*
X01729Y02007*
X01722Y02008*
X01714Y02008*
X01709*
X01704Y02008*
X01697Y02006*
X01689Y02004*
X01681Y02001*
X01674Y01997*
X01666Y01991*
X01666Y0199*
X01663Y01988*
X01661Y01984*
X01657Y01979*
X01654Y01972*
X01651Y01963*
X01649Y01954*
X01648Y01943*
Y01942*
Y01942*
Y01938*
X0165Y01932*
X01651Y01925*
X01653Y01918*
X01656Y0191*
X0166Y01902*
X01666Y01895*
X01666Y01894*
X01669Y01892*
X01673Y01889*
X01678Y01886*
X01684Y01883*
X01692Y0188*
X01701Y01879*
X01711Y01878*
X01717*
X01723Y01879*
X01728Y01879*
X01729*
X01732Y0188*
X01736Y01881*
X01739Y01882*
Y0193*
X01706*
Y01948*
X01759*
Y01869*
X01758Y01868*
X01756*
X01755Y01867*
X01752Y01867*
X01748Y01866*
X01744Y01865*
X01739Y01864*
X01738*
X01737Y01863*
X01734Y01862*
X01731*
X01726Y01862*
X01721Y01861*
X0171Y01861*
X01703*
X01699Y01861*
X01693Y01862*
X01688Y01862*
X01676Y01865*
X01675*
X01674Y01867*
X01671Y01868*
X01667Y01869*
X01659Y01874*
X01654Y01877*
X01649Y01882*
X01648Y01882*
X01647Y01883*
X01645Y01886*
X01643Y01889*
X01641Y01892*
X01638Y01897*
X01635Y01902*
X01632Y01907*
Y01908*
X01631Y0191*
X0163Y01913*
X01629Y01918*
X01628Y01923*
X01627Y01928*
X01626Y01942*
Y01942*
Y01943*
Y01945*
X01627Y01948*
X01627Y01954*
X01629Y01963*
X01632Y01972*
X01636Y01982*
X01642Y01993*
X0165Y02002*
X01651Y02003*
X01654Y02005*
X0166Y02009*
X01667Y02014*
X01676Y02018*
X01687Y02022*
X017Y02024*
X01714Y02026*
X01723*
X01731Y02024*
G37*
G36*
X02151Y0188D02*
X0222D01*
Y01862*
X0213*
Y02024*
X02151*
Y0188*
G37*
G36*
X01446Y02024D02*
X01455Y02024D01*
X01459Y02023*
X01464Y02021*
X01464*
X01465Y02021*
X01468Y0202*
X0147Y02019*
X01476Y02016*
X01482Y02012*
X01483*
X01483Y02011*
X01486Y02008*
X01489Y02004*
X01492Y01998*
Y01997*
X01492Y01997*
X01494Y01993*
X01495Y01988*
X01495Y01981*
Y01981*
Y01979*
X01495Y01976*
X01494Y01972*
X01493Y01967*
X01492Y01963*
X01489Y01958*
X01486Y01954*
X01486Y01954*
X01485Y01952*
X01483Y01951*
X0148Y01949*
X01474Y01943*
X01465Y01939*
Y01939*
X01466*
X01467Y01938*
X01471Y01936*
X01475Y01933*
X0148Y01927*
Y01927*
X01481Y01926*
X01482Y01924*
X01483Y01921*
X01486Y01915*
X01489Y01906*
Y01906*
X01489Y01903*
X0149Y019*
X01491Y01897*
X01494Y01887*
X01495Y01878*
Y01877*
X01496Y01876*
X01497Y01874*
X01497Y01872*
X01499Y01867*
X015Y01864*
X01501Y01862*
X01479*
X01479Y01862*
X01478Y01865*
X01476Y01869*
X01476Y01872*
X01474Y01876*
Y01876*
X01474Y01877*
Y0188*
X01473Y01883*
X01472Y01886*
X01471Y01891*
X01469Y01901*
Y01901*
X01468Y01904*
X01467Y01907*
X01466Y0191*
X01462Y01918*
X01461Y01922*
X01458Y01925*
X01457Y01925*
X01456Y01926*
X01455Y01927*
X01452Y01928*
X01449Y0193*
X01446Y01931*
X01441Y01932*
X01417*
Y01862*
X01396*
Y02022*
X01397*
X01399Y02023*
X01401*
X01407Y02023*
X01414Y02024*
X01416*
X01419Y02024*
X01421*
X01428Y02025*
X01441*
X01446Y02024*
G37*
G36*
X01255Y02006D02*
X01188D01*
Y01955*
X01251*
Y01938*
X01188*
Y0188*
X01258*
Y01862*
X01167*
Y02024*
X01255*
Y02006*
G37*
G36*
X01989D02*
X01923D01*
Y01955*
X01985*
Y01938*
X01923*
Y0188*
X01992*
Y01862*
X01902*
Y02024*
X01989*
Y02006*
G37*
%LNcarduino-2*%
%LPC*%
G36*
X01443Y02009D02*
X01428D01*
X01424Y02008*
X01423*
X01422Y02008*
X01419*
X01417Y02007*
Y01948*
X01441*
X01444Y01949*
X01448Y01949*
X01456Y01952*
X01461Y01954*
X01464Y01956*
X01465Y01957*
X01466Y01958*
X01467Y0196*
X0147Y01962*
X01471Y01965*
X01473Y01969*
X01474Y01974*
X01474Y01979*
Y01979*
Y01981*
X01474Y01984*
X01473Y01988*
X01472Y01991*
X0147Y01995*
X01467Y01999*
X01464Y02002*
X01463Y02002*
X01462Y02003*
X01459Y02004*
X01456Y02005*
X01453Y02006*
X01449Y02008*
X01443Y02009*
G37*
%LNcarduino-3*%
%LPD*%
G54D29*
X01571Y00515D02*
X01564Y00522D01*
X01551*
X01545Y00515*
Y00489*
X01551Y00483*
X01564*
X01571Y00489*
X01584Y00483D02*
X01597D01*
X0159*
Y00522*
X01584Y00515*
X02872Y00911D02*
X02865Y00917D01*
X02852*
X02846Y00911*
Y00885*
X02852Y00878*
X02865*
X02872Y00885*
X02911Y00878D02*
X02885D01*
X02911Y00904*
Y00911*
X02905Y00917*
X02891*
X02885Y00911*
X02701Y00665D02*
X02695Y00672D01*
X02681*
X02675Y00665*
Y00639*
X02681Y00633*
X02695*
X02701Y00639*
X02714Y00665D02*
X02721Y00672D01*
X02734*
X02741Y00665*
Y00659*
X02734Y00652*
X02727*
X02734*
X02741Y00646*
Y00639*
X02734Y00633*
X02721*
X02714Y00639*
X02901Y00676D02*
X02895Y00682D01*
X02882*
X02875Y00676*
Y00649*
X02882Y00643*
X02895*
X02901Y00649*
X02934Y00643D02*
Y00682D01*
X02914Y00662*
X02941*
X02556Y0032D02*
X02549Y00327D01*
X02536*
X0253Y0032*
Y00294*
X02536Y00287*
X02549*
X02556Y00294*
X02595Y00327D02*
X02582Y0032D01*
X02569Y00307*
Y00294*
X02575Y00287*
X02589*
X02595Y00294*
Y00301*
X02589Y00307*
X02569*
X02576Y00585D02*
X02569Y00592D01*
X02556*
X0255Y00585*
Y00559*
X02556Y00553*
X02569*
X02576Y00559*
X02589Y00592D02*
X02615D01*
Y00585*
X02589Y00559*
Y00553*
X0046Y00772D02*
Y00733D01*
X00479*
X00486Y00739*
Y00765*
X00479Y00772*
X0046*
X00499Y00733D02*
X00512D01*
X00505*
Y00772*
X00499Y00765*
X0046Y00592D02*
Y00553D01*
X00479*
X00486Y00559*
Y00585*
X00479Y00592*
X0046*
X00525Y00553D02*
X00499D01*
X00525Y00579*
Y00585*
X00519Y00592*
X00505*
X00499Y00585*
X0046Y00952D02*
Y00913D01*
X00479*
X00486Y00919*
Y00945*
X00479Y00952*
X0046*
X00499Y00945D02*
X00505Y00952D01*
X00519*
X00525Y00945*
Y00939*
X00519Y00932*
X00512*
X00519*
X00525Y00926*
Y00919*
X00519Y00913*
X00505*
X00499Y00919*
X0046Y00432D02*
Y00393D01*
X00479*
X00486Y00399*
Y00425*
X00479Y00432*
X0046*
X00519Y00393D02*
Y00432D01*
X00499Y00412*
X00525*
X03233Y00133D02*
X03272D01*
Y00152*
X03266Y00159*
X0324*
X03233Y00152*
Y00133*
Y00198D02*
Y00172D01*
X03253*
X03246Y00185*
Y00192*
X03253Y00198*
X03266*
X03272Y00192*
Y00178*
X03266Y00172*
X01796Y00522D02*
X0177D01*
Y00502*
X01783*
X0177*
Y00483*
X01809D02*
X01822D01*
X01815*
Y00522*
X01809Y00515*
X00934Y00404D02*
X00921D01*
X00927*
Y00372*
X00921Y00365*
X00914*
X00908Y00372*
X00947Y00365D02*
X0096D01*
X00953*
Y00404*
X00947Y00398*
X01491Y00297D02*
X01478D01*
X01484*
Y00264*
X01478Y00258*
X01471*
X01465Y00264*
X0153Y00258D02*
X01504D01*
X0153Y00284*
Y0029*
X01524Y00297*
X0151*
X01504Y0029*
X0136Y00483D02*
Y00522D01*
X01379*
X01386Y00515*
Y00502*
X01379Y00496*
X0136*
X01373D02*
X01386Y00483D01*
X01399D02*
X01412D01*
X01405*
Y00522*
X01399Y00515*
X0216Y00593D02*
Y00632D01*
X02179*
X02186Y00625*
Y00612*
X02179Y00606*
X0216*
X02173D02*
X02186Y00593D01*
X02225D02*
X02199D01*
X02225Y00619*
Y00625*
X02219Y00632*
X02205*
X02199Y00625*
X0196Y00653D02*
X01999D01*
Y00633*
X01992Y00626*
X01979*
X01973Y00633*
Y00653*
Y00639D02*
X0196Y00626D01*
X01992Y00613D02*
X01999Y00607D01*
Y00593*
X01992Y00587*
X01986*
X01979Y00593*
Y006*
Y00593*
X01973Y00587*
X01966*
X0196Y00593*
Y00607*
X01966Y00613*
X00653Y00917D02*
Y00956D01*
X00673*
X00679Y0095*
Y00936*
X00673Y0093*
X00653*
X00666D02*
X00679Y00917D01*
X00712D02*
Y00956D01*
X00692Y00936*
X00719*
X00658Y00397D02*
Y00436D01*
X00678*
X00685Y0043*
Y00416*
X00678Y0041*
X00658*
X00671D02*
X00685Y00397D01*
X00724Y00436D02*
X00698D01*
Y00416*
X00711Y00423*
X00717*
X00724Y00416*
Y00403*
X00717Y00397*
X00704*
X00698Y00403*
X00659Y00737D02*
Y00776D01*
X00678*
X00685Y0077*
Y00757*
X00678Y0075*
X00659*
X00672D02*
X00685Y00737D01*
X00724Y00776D02*
X00711Y0077D01*
X00698Y00757*
Y00744*
X00705Y00737*
X00718*
X00724Y00744*
Y0075*
X00718Y00757*
X00698*
X00653Y00557D02*
Y00596D01*
X00673*
X00679Y0059*
Y00576*
X00673Y0057*
X00653*
X00666D02*
X00679Y00557D01*
X00692Y00596D02*
X00719D01*
Y0059*
X00692Y00563*
Y00557*
X00981Y00926D02*
X00974Y00932D01*
X00961*
X00955Y00926*
Y00919*
X00961Y00913*
X00974*
X00981Y00906*
Y009*
X00974Y00893*
X00961*
X00955Y009*
X00994Y00932D02*
Y00893D01*
X01007Y00906*
X0102Y00893*
Y00932*
X01033Y00893D02*
X01046D01*
X0104*
Y00932*
X01033Y00926*
X0128Y00992D02*
Y00959D01*
X01286Y00953*
X01299*
X01306Y00959*
Y00992*
X01319Y00953D02*
X01332D01*
X01325*
Y00992*
X01319Y00985*
X0265Y00427D02*
Y00394D01*
X02656Y00388*
X02669*
X02676Y00394*
Y00427*
X02715Y00388D02*
X02689D01*
X02715Y00414*
Y0042*
X02709Y00427*
X02695*
X02689Y0042*
X0201Y00542D02*
Y00509D01*
X02016Y00503*
X02029*
X02036Y00509*
Y00542*
X02049Y00535D02*
X02055Y00542D01*
X02069*
X02075Y00535*
Y00529*
X02069Y00522*
X02062*
X02069*
X02075Y00516*
Y00509*
X02069Y00503*
X02055*
X02049Y00509*
X02217Y0099D02*
X02243Y00951D01*
Y0099D02*
X02217Y00951D01*
X02257D02*
X0227D01*
X02263*
Y0099*
X02257Y00984*
X00535Y00352D02*
Y00313D01*
X00561*
X00574D02*
X00587D01*
X0058*
Y00352*
X00574Y00345*
X00607D02*
X00613Y00352D01*
X00626*
X00633Y00345*
Y00339*
X00626Y00332*
X0062*
X00626*
X00633Y00326*
Y00319*
X00626Y00313*
X00613*
X00607Y00319*
X00551Y00512D02*
X00577D01*
X00564*
Y00473*
X0059Y00512D02*
X00616Y00473D01*
Y00512D02*
X0059Y00473D01*
X00551Y00653D02*
Y00692D01*
X00571*
X00577Y00685*
Y00672*
X00571Y00666*
X00551*
X00564D02*
X00577Y00653D01*
X0059Y00692D02*
X00616Y00653D01*
Y00692D02*
X0059Y00653D01*
X00571Y00872D02*
X00557D01*
X00551Y00865*
Y00839*
X00557Y00833*
X00571*
X00577Y00839*
Y00865*
X00571Y00872*
X0059Y00833D02*
Y00872D01*
X00616Y00833*
Y00872*
X0017Y01852D02*
X00196D01*
X00183*
Y01813*
X00209Y01852D02*
X00235Y01813D01*
Y01852D02*
X00209Y01813D01*
X0017Y01713D02*
Y01752D01*
X00189*
X00196Y01745*
Y01732*
X00189Y01726*
X0017*
X00183D02*
X00196Y01713D01*
X00209Y01752D02*
X00235Y01713D01*
Y01752D02*
X00209Y01713D01*
X0017Y01613D02*
Y01652D01*
X00189*
X00196Y01645*
Y01632*
X00189Y01626*
X0017*
X00183D02*
X00196Y01613D01*
X00235Y01645D02*
X00229Y01652D01*
X00215*
X00209Y01645*
Y01639*
X00215Y01632*
X00229*
X00235Y01626*
Y01619*
X00229Y01613*
X00215*
X00209Y01619*
X00248Y01652D02*
X00274D01*
X00261*
Y01613*
X00196Y01545D02*
X00189Y01552D01*
X00176*
X0017Y01545*
Y01519*
X00176Y01513*
X00189*
X00196Y01519*
Y01532*
X00183*
X00209Y01513D02*
Y01552D01*
X00235Y01513*
Y01552*
X00248D02*
Y01513D01*
X00268*
X00274Y01519*
Y01545*
X00268Y01552*
X00248*
X0017Y01452D02*
Y01413D01*
X00189*
X00196Y01419*
Y01445*
X00189Y01452*
X0017*
X00235Y01413D02*
X00209D01*
X00235Y01439*
Y01445*
X00229Y01452*
X00215*
X00209Y01445*
X0017Y01352D02*
Y01313D01*
X00189*
X00196Y01319*
Y01345*
X00189Y01352*
X0017*
X00209Y01345D02*
X00215Y01352D01*
X00229*
X00235Y01345*
Y01339*
X00229Y01332*
X00222*
X00229*
X00235Y01326*
Y01319*
X00229Y01313*
X00215*
X00209Y01319*
X0017Y01252D02*
Y01213D01*
X00189*
X00196Y01219*
Y01245*
X00189Y01252*
X0017*
X00229Y01213D02*
Y01252D01*
X00209Y01232*
X00235*
X0017Y01152D02*
Y01113D01*
X00189*
X00196Y01119*
Y01145*
X00189Y01152*
X0017*
X00235D02*
X00209D01*
Y01132*
X00222Y01139*
X00229*
X00235Y01132*
Y01119*
X00229Y01113*
X00215*
X00209Y01119*
X0017Y01052D02*
Y01013D01*
X00189*
X00196Y01019*
Y01045*
X00189Y01052*
X0017*
X00235D02*
X00222Y01045D01*
X00209Y01032*
Y01019*
X00215Y01013*
X00229*
X00235Y01019*
Y01026*
X00229Y01032*
X00209*
X0017Y00952D02*
Y00913D01*
X00189*
X00196Y00919*
Y00945*
X00189Y00952*
X0017*
X00209D02*
X00235D01*
Y00945*
X00209Y00919*
Y00913*
X0017Y00852D02*
Y00813D01*
X00189*
X00196Y00819*
Y00845*
X00189Y00852*
X0017*
X00209Y00845D02*
X00215Y00852D01*
X00229*
X00235Y00845*
Y00839*
X00229Y00832*
X00235Y00826*
Y00819*
X00229Y00813*
X00215*
X00209Y00819*
Y00826*
X00215Y00832*
X00209Y00839*
Y00845*
X00215Y00832D02*
X00229D01*
X0017Y00752D02*
Y00713D01*
X00189*
X00196Y00719*
Y00745*
X00189Y00752*
X0017*
X00209Y00719D02*
X00215Y00713D01*
X00229*
X00235Y00719*
Y00745*
X00229Y00752*
X00215*
X00209Y00745*
Y00739*
X00215Y00732*
X00235*
X0017Y00652D02*
Y00613D01*
X00189*
X00196Y00619*
Y00645*
X00189Y00652*
X0017*
X00209Y00613D02*
X00222D01*
X00215*
Y00652*
X00209Y00645*
X00242D02*
X00248Y00652D01*
X00261*
X00268Y00645*
Y00619*
X00261Y00613*
X00248*
X00242Y00619*
Y00645*
X0017Y00552D02*
Y00513D01*
X00189*
X00196Y00519*
Y00545*
X00189Y00552*
X0017*
X00209Y00513D02*
X00222D01*
X00215*
Y00552*
X00209Y00545*
X00242Y00513D02*
X00255D01*
X00248*
Y00552*
X00242Y00545*
X0017Y00452D02*
Y00413D01*
X00189*
X00196Y00419*
Y00445*
X00189Y00452*
X0017*
X00209Y00413D02*
X00222D01*
X00215*
Y00452*
X00209Y00445*
X00268Y00413D02*
X00242D01*
X00268Y00439*
Y00445*
X00261Y00452*
X00248*
X00242Y00445*
X0017Y00313D02*
Y00352D01*
X00196Y00313*
Y00352*
X00235Y00345D02*
X00229Y00352D01*
X00215*
X00209Y00345*
Y00319*
X00215Y00313*
X00229*
X00235Y00319*
X031Y01852D02*
Y01826D01*
X03113Y01813*
X03126Y01826*
Y01852*
X03139D02*
X03152D01*
X03145*
Y01813*
X03139*
X03152*
X03172D02*
Y01852D01*
X03198Y01813*
Y01852*
X03126Y01745D02*
X03119Y01752D01*
X03106*
X031Y01745*
Y01719*
X03106Y01713*
X03119*
X03126Y01719*
Y01732*
X03113*
X03139Y01713D02*
Y01752D01*
X03165Y01713*
Y01752*
X03178D02*
Y01713D01*
X03198*
X03204Y01719*
Y01745*
X03198Y01752*
X03178*
X031Y01613D02*
Y01652D01*
X03119*
X03126Y01645*
Y01632*
X03119Y01626*
X031*
X03113D02*
X03126Y01613D01*
X03165Y01645D02*
X03159Y01652D01*
X03145*
X03139Y01645*
Y01639*
X03145Y01632*
X03159*
X03165Y01626*
Y01619*
X03159Y01613*
X03145*
X03139Y01619*
X03178Y01652D02*
X03204D01*
X03191*
Y01613*
X03126Y01552D02*
X031D01*
Y01532*
X03113Y01539*
X03119*
X03126Y01532*
Y01519*
X03119Y01513*
X03106*
X031Y01519*
X03139Y01552D02*
Y01526D01*
X03152Y01513*
X03165Y01526*
Y01552*
X031Y01413D02*
Y01439D01*
X03113Y01452*
X03126Y01439*
Y01413*
Y01432*
X031*
X03139Y01452D02*
X03165D01*
Y01445*
X03139Y01419*
Y01413*
X031Y01313D02*
Y01339D01*
X03113Y01352*
X03126Y01339*
Y01313*
Y01332*
X031*
X03165Y01352D02*
X03152Y01345D01*
X03139Y01332*
Y01319*
X03145Y01313*
X03159*
X03165Y01319*
Y01326*
X03159Y01332*
X03139*
X031Y01213D02*
Y01239D01*
X03113Y01252*
X03126Y01239*
Y01213*
Y01232*
X031*
X03165Y01252D02*
X03139D01*
Y01232*
X03152Y01239*
X03159*
X03165Y01232*
Y01219*
X03159Y01213*
X03145*
X03139Y01219*
X031Y01113D02*
Y01139D01*
X03113Y01152*
X03126Y01139*
Y01113*
Y01132*
X031*
X03159Y01113D02*
Y01152D01*
X03139Y01132*
X03165*
X031Y01013D02*
Y01039D01*
X03113Y01052*
X03126Y01039*
Y01013*
Y01032*
X031*
X03139Y01045D02*
X03145Y01052D01*
X03159*
X03165Y01045*
Y01039*
X03159Y01032*
X03152*
X03159*
X03165Y01026*
Y01019*
X03159Y01013*
X03145*
X03139Y01019*
X031Y00913D02*
Y00939D01*
X03113Y00952*
X03126Y00939*
Y00913*
Y00932*
X031*
X03165Y00913D02*
X03139D01*
X03165Y00939*
Y00945*
X03159Y00952*
X03145*
X03139Y00945*
X031Y00813D02*
Y00839D01*
X03113Y00852*
X03126Y00839*
Y00813*
Y00832*
X031*
X03139Y00813D02*
X03152D01*
X03145*
Y00852*
X03139Y00845*
X031Y00713D02*
Y00739D01*
X03113Y00752*
X03126Y00739*
Y00713*
Y00732*
X031*
X03139Y00745D02*
X03145Y00752D01*
X03159*
X03165Y00745*
Y00719*
X03159Y00713*
X03145*
X03139Y00719*
Y00745*
X031Y00613D02*
Y00639D01*
X03113Y00652*
X03126Y00639*
Y00613*
Y00632*
X031*
X03139Y00613D02*
Y00652D01*
X03159*
X03165Y00645*
Y00632*
X03159Y00626*
X03139*
X03152D02*
X03165Y00613D01*
X03204Y00652D02*
X03178D01*
Y00632*
X03191*
X03178*
Y00613*
X031Y00545D02*
X03106Y00552D01*
X03119*
X03126Y00545*
Y00539*
X03119Y00532*
X03113*
X03119*
X03126Y00526*
Y00519*
X03119Y00513*
X03106*
X031Y00519*
X03139Y00552D02*
Y00526D01*
X03152Y00513*
X03165Y00526*
Y00552*
X03178Y00545D02*
X03185Y00552D01*
X03198*
X03204Y00545*
Y00539*
X03198Y00532*
X03191*
X03198*
X03204Y00526*
Y00519*
X03198Y00513*
X03185*
X03178Y00519*
X031Y00452D02*
Y00413D01*
X03119*
X03126Y00419*
Y00445*
X03119Y00452*
X031*
X03139Y00413D02*
X03152D01*
X03145*
Y00452*
X03139Y00445*
X03172D02*
X03178Y00452D01*
X03191*
X03198Y00445*
Y00439*
X03191Y00432*
X03185*
X03191*
X03198Y00426*
Y00419*
X03191Y00413*
X03178*
X03172Y00419*
X031Y00313D02*
Y00352D01*
X03126Y00313*
Y00352*
X03165Y00345D02*
X03159Y00352D01*
X03145*
X03139Y00345*
Y00319*
X03145Y00313*
X03159*
X03165Y00319*
X0035Y01202D02*
X00365D01*
X0038Y01217*
Y01293*
X00335*
X0032Y01278*
Y01248*
X00335Y01233*
X0038*
X00455D02*
X00425D01*
X0041Y01248*
Y01278*
X00425Y01293*
X00455*
X0047Y01278*
Y01263*
X0041*
X00501Y01293D02*
Y01233D01*
Y01263*
X00516Y01278*
X00531Y01293*
X00546*
X00621Y01202D02*
X00636D01*
X00651Y01217*
Y01293*
X00606*
X00591Y01278*
Y01248*
X00606Y01233*
X00651*
X00727D02*
X00697D01*
X00682Y01248*
Y01278*
X00697Y01293*
X00727*
X00742Y01278*
Y01263*
X00682*
X00772Y01233D02*
X00802D01*
X00787*
Y01323*
X00772*
X00848Y01293D02*
Y01248D01*
X00863Y01233*
X00908*
Y01217*
X00893Y01202*
X00878*
X00908Y01233D02*
Y01293D01*
X00953Y01308D02*
Y01293D01*
X00938*
X00968*
X00953*
Y01248*
X00968Y01233*
X01029Y01293D02*
X01059D01*
X01074Y01278*
Y01233*
X01029*
X01014Y01248*
X01029Y01263*
X01074*
X01104Y01233D02*
Y01323D01*
Y01263D02*
X01149Y01293D01*
X01104Y01263D02*
X01149Y01233D01*
X0121Y01293D02*
X0124D01*
X01255Y01278*
Y01233*
X0121*
X01195Y01248*
X0121Y01263*
X01255*
X01345Y01293D02*
X013D01*
X01285Y01278*
Y01248*
X013Y01233*
X01345*
X01376D02*
X01421D01*
X01436Y01248*
X01421Y01263*
X01391*
X01376Y01278*
X01391Y01293*
X01436*
X01511Y01263D02*
Y01278D01*
X01496*
Y01263*
X01511*
X01526Y01278*
Y01308*
X01511Y01323*
X01481*
X01466Y01308*
Y01248*
X01481Y01233*
X01526*
X01587Y01202D02*
X01602D01*
X01617Y01217*
Y01293*
X01572*
X01557Y01278*
Y01248*
X01572Y01233*
X01617*
X01692D02*
X01662D01*
X01647Y01248*
Y01278*
X01662Y01293*
X01692*
X01708Y01278*
Y01263*
X01647*
X01738Y01293D02*
Y01233D01*
Y01263*
X01753Y01278*
X01768Y01293*
X01783*
X01858Y01202D02*
X01873D01*
X01889Y01217*
Y01293*
X01843*
X01828Y01278*
Y01248*
X01843Y01233*
X01889*
X01964D02*
X01934D01*
X01919Y01248*
Y01278*
X01934Y01293*
X01964*
X01979Y01278*
Y01263*
X01919*
X02009Y01233D02*
X02039D01*
X02024*
Y01323*
X02009*
X02085Y01293D02*
Y01248D01*
X021Y01233*
X02145*
Y01217*
X0213Y01202*
X02115*
X02145Y01233D02*
Y01293D01*
X0219Y01308D02*
Y01293D01*
X02175*
X02205*
X0219*
Y01248*
X02205Y01233*
X02266Y01293D02*
X02296D01*
X02311Y01278*
Y01233*
X02266*
X02251Y01248*
X02266Y01263*
X02311*
X02341Y01233D02*
Y01323D01*
Y01263D02*
X02386Y01293D01*
X02341Y01263D02*
X02386Y01233D01*
X02447Y01293D02*
X02477D01*
X02492Y01278*
Y01233*
X02447*
X02432Y01248*
X02447Y01263*
X02492*
X02583Y01293D02*
X02537D01*
X02522Y01278*
Y01248*
X02537Y01233*
X02583*
X02613D02*
X02658D01*
X02673Y01248*
X02658Y01263*
X02628*
X02613Y01278*
X02628Y01293*
X02673*
X02703Y01233D02*
Y01248D01*
X02718*
Y01233*
X02703*
X02839Y01293D02*
X02794D01*
X02779Y01278*
Y01248*
X02794Y01233*
X02839*
X02884D02*
X02914D01*
X0293Y01248*
Y01278*
X02914Y01293*
X02884*
X02869Y01278*
Y01248*
X02884Y01233*
X0296D02*
Y01293D01*
X02975*
X0299Y01278*
Y01233*
Y01278*
X03005Y01293*
X0302Y01278*
Y01233*
G54D37*
X01249Y00272D02*
D01*
X01249Y00272*
X01249Y00272*
X01249Y00273*
X01249Y00273*
X01249Y00273*
X01248Y00274*
X01248Y00274*
X01248Y00274*
X01248Y00274*
X01248Y00275*
X01247Y00275*
X01247Y00275*
X01247Y00275*
X01247Y00276*
X01246Y00276*
X01246Y00276*
X01246Y00276*
X01245Y00276*
X01245Y00276*
X01245Y00276*
X01244Y00276*
X01244Y00276*
X01244*
X01243Y00276*
X01243Y00276*
X01243Y00276*
X01242Y00276*
X01242Y00276*
X01242Y00276*
X01241Y00276*
X01241Y00276*
X01241Y00275*
X01241Y00275*
X0124Y00275*
X0124Y00275*
X0124Y00274*
X0124Y00274*
X0124Y00274*
X01239Y00274*
X01239Y00273*
X01239Y00273*
X01239Y00273*
X01239Y00272*
X01239Y00272*
X01239Y00272*
X01239Y00271*
X01239Y00271*
X01239Y0027*
X01239Y0027*
X01239Y0027*
X01239Y0027*
X0124Y00269*
X0124Y00269*
X0124Y00269*
X0124Y00268*
X0124Y00268*
X01241Y00268*
X01241Y00268*
X01241Y00267*
X01241Y00267*
X01242Y00267*
X01242Y00267*
X01242Y00267*
X01243Y00267*
X01243Y00267*
X01243Y00267*
X01244Y00267*
X01244*
X01244Y00267*
X01245Y00267*
X01245Y00267*
X01245Y00267*
X01246Y00267*
X01246Y00267*
X01246Y00267*
X01247Y00267*
X01247Y00268*
X01247Y00268*
X01247Y00268*
X01248Y00268*
X01248Y00269*
X01248Y00269*
X01248Y00269*
X01248Y0027*
X01249Y0027*
X01249Y0027*
X01249Y0027*
X01249Y00271*
X01249Y00271*
X01249Y00272*
X0285Y00838D02*
D01*
X0285Y00839*
X0285Y00839*
X0285Y00839*
X0285Y0084*
X0285Y0084*
X02849Y0084*
X02849Y00841*
X02849Y00841*
X02849Y00841*
X02849Y00842*
X02849Y00842*
X02848Y00842*
X02848Y00842*
X02848Y00843*
X02847Y00843*
X02847Y00843*
X02847Y00843*
X02846Y00843*
X02846Y00843*
X02846Y00843*
X02845Y00843*
X02845Y00843*
X02845*
X02844Y00843*
X02844Y00843*
X02844Y00843*
X02843Y00843*
X02843Y00843*
X02843Y00843*
X02843Y00843*
X02842Y00843*
X02842Y00842*
X02842Y00842*
X02841Y00842*
X02841Y00842*
X02841Y00841*
X02841Y00841*
X02841Y00841*
X0284Y0084*
X0284Y0084*
X0284Y0084*
X0284Y00839*
X0284Y00839*
X0284Y00839*
X0284Y00838*
X0284Y00838*
X0284Y00838*
X0284Y00837*
X0284Y00837*
X0284Y00837*
X0284Y00836*
X02841Y00836*
X02841Y00836*
X02841Y00836*
X02841Y00835*
X02841Y00835*
X02842Y00835*
X02842Y00835*
X02842Y00834*
X02843Y00834*
X02843Y00834*
X02843Y00834*
X02843Y00834*
X02844Y00834*
X02844Y00834*
X02844Y00834*
X02845Y00834*
X02845*
X02845Y00834*
X02846Y00834*
X02846Y00834*
X02846Y00834*
X02847Y00834*
X02847Y00834*
X02847Y00834*
X02848Y00834*
X02848Y00835*
X02848Y00835*
X02849Y00835*
X02849Y00835*
X02849Y00836*
X02849Y00836*
X02849Y00836*
X02849Y00836*
X0285Y00837*
X0285Y00837*
X0285Y00837*
X0285Y00838*
X0285Y00838*
X0285Y00838*
X01169Y00854D02*
D01*
X01169Y00854*
X01169Y00854*
X01169Y00855*
X01169Y00855*
X01169Y00855*
X01169Y00856*
X01169Y00856*
X01168Y00856*
X01168Y00856*
X01168Y00857*
X01168Y00857*
X01168Y00857*
X01167Y00857*
X01167Y00858*
X01167Y00858*
X01166Y00858*
X01166Y00858*
X01166Y00858*
X01166Y00858*
X01165Y00858*
X01165Y00858*
X01164Y00859*
X01164*
X01164Y00858*
X01163Y00858*
X01163Y00858*
X01163Y00858*
X01162Y00858*
X01162Y00858*
X01162Y00858*
X01162Y00858*
X01161Y00857*
X01161Y00857*
X01161Y00857*
X01161Y00857*
X0116Y00856*
X0116Y00856*
X0116Y00856*
X0116Y00856*
X0116Y00855*
X0116Y00855*
X0116Y00855*
X01159Y00854*
X01159Y00854*
X01159Y00854*
X01159Y00853*
X01159Y00853*
X0116Y00853*
X0116Y00852*
X0116Y00852*
X0116Y00852*
X0116Y00851*
X0116Y00851*
X0116Y00851*
X01161Y0085*
X01161Y0085*
X01161Y0085*
X01161Y0085*
X01162Y0085*
X01162Y00849*
X01162Y00849*
X01162Y00849*
X01163Y00849*
X01163Y00849*
X01163Y00849*
X01164Y00849*
X01164Y00849*
X01164*
X01165Y00849*
X01165Y00849*
X01166Y00849*
X01166Y00849*
X01166Y00849*
X01166Y00849*
X01167Y00849*
X01167Y0085*
X01167Y0085*
X01168Y0085*
X01168Y0085*
X01168Y0085*
X01168Y00851*
X01168Y00851*
X01169Y00851*
X01169Y00852*
X01169Y00852*
X01169Y00852*
X01169Y00853*
X01169Y00853*
X01169Y00853*
X01169Y00854*
X03042Y00223D02*
D01*
X03042Y00223*
X03042Y00223*
X03042Y00224*
X03042Y00224*
X03042Y00224*
X03042Y00225*
X03042Y00225*
X03042Y00225*
X03041Y00225*
X03041Y00226*
X03041Y00226*
X03041Y00226*
X0304Y00226*
X0304Y00227*
X0304Y00227*
X0304Y00227*
X03039Y00227*
X03039Y00227*
X03039Y00227*
X03038Y00227*
X03038Y00227*
X03038Y00227*
X03037*
X03037Y00227*
X03037Y00227*
X03036Y00227*
X03036Y00227*
X03036Y00227*
X03035Y00227*
X03035Y00227*
X03035Y00227*
X03034Y00226*
X03034Y00226*
X03034Y00226*
X03034Y00226*
X03033Y00225*
X03033Y00225*
X03033Y00225*
X03033Y00225*
X03033Y00224*
X03033Y00224*
X03033Y00224*
X03033Y00223*
X03033Y00223*
X03032Y00223*
X03033Y00222*
X03033Y00222*
X03033Y00221*
X03033Y00221*
X03033Y00221*
X03033Y0022*
X03033Y0022*
X03033Y0022*
X03033Y0022*
X03034Y00219*
X03034Y00219*
X03034Y00219*
X03034Y00219*
X03035Y00218*
X03035Y00218*
X03035Y00218*
X03036Y00218*
X03036Y00218*
X03036Y00218*
X03037Y00218*
X03037Y00218*
X03037Y00218*
X03038*
X03038Y00218*
X03038Y00218*
X03039Y00218*
X03039Y00218*
X03039Y00218*
X0304Y00218*
X0304Y00218*
X0304Y00218*
X0304Y00219*
X03041Y00219*
X03041Y00219*
X03041Y00219*
X03041Y0022*
X03042Y0022*
X03042Y0022*
X03042Y0022*
X03042Y00221*
X03042Y00221*
X03042Y00221*
X03042Y00222*
X03042Y00222*
X03042Y00223*
X01707Y00958D02*
D01*
X01707Y00958*
X01707Y00959*
X01707Y00959*
X01707Y00959*
X01707Y0096*
X01707Y0096*
X01707Y0096*
X01706Y0096*
X01706Y00961*
X01706Y00961*
X01706Y00961*
X01706Y00962*
X01705Y00962*
X01705Y00962*
X01705Y00962*
X01704Y00962*
X01704Y00962*
X01704Y00963*
X01703Y00963*
X01703Y00963*
X01703Y00963*
X01702Y00963*
X01702*
X01702Y00963*
X01701Y00963*
X01701Y00963*
X01701Y00963*
X017Y00962*
X017Y00962*
X017Y00962*
X01699Y00962*
X01699Y00962*
X01699Y00962*
X01699Y00961*
X01698Y00961*
X01698Y00961*
X01698Y0096*
X01698Y0096*
X01698Y0096*
X01698Y0096*
X01697Y00959*
X01697Y00959*
X01697Y00959*
X01697Y00958*
X01697Y00958*
X01697Y00958*
X01697Y00957*
X01697Y00957*
X01697Y00956*
X01698Y00956*
X01698Y00956*
X01698Y00956*
X01698Y00955*
X01698Y00955*
X01698Y00955*
X01699Y00954*
X01699Y00954*
X01699Y00954*
X01699Y00954*
X017Y00954*
X017Y00953*
X017Y00953*
X01701Y00953*
X01701Y00953*
X01701Y00953*
X01702Y00953*
X01702Y00953*
X01702*
X01703Y00953*
X01703Y00953*
X01703Y00953*
X01704Y00953*
X01704Y00953*
X01704Y00953*
X01705Y00954*
X01705Y00954*
X01705Y00954*
X01706Y00954*
X01706Y00954*
X01706Y00955*
X01706Y00955*
X01706Y00955*
X01707Y00956*
X01707Y00956*
X01707Y00956*
X01707Y00956*
X01707Y00957*
X01707Y00957*
X01707Y00958*
X01707Y00958*
X02996Y00407D02*
D01*
X02996Y00407*
X02996Y00407*
X02996Y00408*
X02996Y00408*
X02996Y00408*
X02996Y00409*
X02996Y00409*
X02996Y00409*
X02995Y0041*
X02995Y0041*
X02995Y0041*
X02995Y0041*
X02994Y00411*
X02994Y00411*
X02994Y00411*
X02994Y00411*
X02993Y00411*
X02993Y00411*
X02993Y00411*
X02992Y00412*
X02992Y00412*
X02992Y00412*
X02991*
X02991Y00412*
X02991Y00412*
X0299Y00411*
X0299Y00411*
X0299Y00411*
X02989Y00411*
X02989Y00411*
X02989Y00411*
X02988Y00411*
X02988Y0041*
X02988Y0041*
X02988Y0041*
X02987Y0041*
X02987Y00409*
X02987Y00409*
X02987Y00409*
X02987Y00408*
X02987Y00408*
X02987Y00408*
X02987Y00407*
X02986Y00407*
X02986Y00407*
X02986Y00406*
X02987Y00406*
X02987Y00406*
X02987Y00405*
X02987Y00405*
X02987Y00405*
X02987Y00404*
X02987Y00404*
X02987Y00404*
X02988Y00404*
X02988Y00403*
X02988Y00403*
X02988Y00403*
X02989Y00403*
X02989Y00402*
X02989Y00402*
X0299Y00402*
X0299Y00402*
X0299Y00402*
X02991Y00402*
X02991Y00402*
X02991Y00402*
X02992*
X02992Y00402*
X02992Y00402*
X02993Y00402*
X02993Y00402*
X02993Y00402*
X02994Y00402*
X02994Y00402*
X02994Y00403*
X02994Y00403*
X02995Y00403*
X02995Y00403*
X02995Y00404*
X02995Y00404*
X02996Y00404*
X02996Y00404*
X02996Y00405*
X02996Y00405*
X02996Y00405*
X02996Y00406*
X02996Y00406*
X02996Y00406*
X02996Y00407*
X02359Y00428D02*
D01*
X02359Y00429*
X02359Y00429*
X02359Y00429*
X02359Y0043*
X02359Y0043*
X02359Y0043*
X02359Y00431*
X02359Y00431*
X02358Y00431*
X02358Y00431*
X02358Y00432*
X02358Y00432*
X02357Y00432*
X02357Y00432*
X02357Y00433*
X02357Y00433*
X02356Y00433*
X02356Y00433*
X02356Y00433*
X02355Y00433*
X02355Y00433*
X02355Y00433*
X02354*
X02354Y00433*
X02354Y00433*
X02353Y00433*
X02353Y00433*
X02353Y00433*
X02352Y00433*
X02352Y00433*
X02352Y00432*
X02351Y00432*
X02351Y00432*
X02351Y00432*
X02351Y00431*
X0235Y00431*
X0235Y00431*
X0235Y00431*
X0235Y0043*
X0235Y0043*
X0235Y0043*
X0235Y00429*
X0235Y00429*
X02349Y00429*
X02349Y00428*
X02349Y00428*
X0235Y00428*
X0235Y00427*
X0235Y00427*
X0235Y00427*
X0235Y00426*
X0235Y00426*
X0235Y00426*
X0235Y00425*
X02351Y00425*
X02351Y00425*
X02351Y00425*
X02351Y00424*
X02352Y00424*
X02352Y00424*
X02352Y00424*
X02353Y00424*
X02353Y00424*
X02353Y00424*
X02354Y00423*
X02354Y00423*
X02354Y00423*
X02355*
X02355Y00423*
X02355Y00423*
X02356Y00424*
X02356Y00424*
X02356Y00424*
X02357Y00424*
X02357Y00424*
X02357Y00424*
X02357Y00424*
X02358Y00425*
X02358Y00425*
X02358Y00425*
X02358Y00425*
X02359Y00426*
X02359Y00426*
X02359Y00426*
X02359Y00427*
X02359Y00427*
X02359Y00427*
X02359Y00428*
X02359Y00428*
X02359Y00428*
G54D38*
X01648Y00869D02*
D01*
X01648Y0087*
X01648Y00871*
X01648Y00872*
X01648Y00873*
X01647Y00873*
X01647Y00874*
X01647Y00875*
X01646Y00876*
X01646Y00876*
X01645Y00877*
X01645Y00877*
X01644Y00878*
X01644Y00879*
X01643Y00879*
X01642Y00879*
X01641Y0088*
X01641Y0088*
X0164Y00881*
X01639Y00881*
X01638Y00881*
X01638Y00881*
X01637Y00881*
X01636*
X01635Y00881*
X01634Y00881*
X01633Y00881*
X01633Y00881*
X01632Y0088*
X01631Y0088*
X0163Y00879*
X0163Y00879*
X01629Y00879*
X01628Y00878*
X01628Y00877*
X01627Y00877*
X01627Y00876*
X01626Y00876*
X01626Y00875*
X01625Y00874*
X01625Y00873*
X01625Y00873*
X01625Y00872*
X01625Y00871*
X01624Y0087*
X01624Y00869*
X01624Y00868*
X01625Y00868*
X01625Y00867*
X01625Y00866*
X01625Y00865*
X01625Y00864*
X01626Y00864*
X01626Y00863*
X01627Y00862*
X01627Y00862*
X01628Y00861*
X01628Y0086*
X01629Y0086*
X0163Y00859*
X0163Y00859*
X01631Y00859*
X01632Y00858*
X01633Y00858*
X01633Y00858*
X01634Y00858*
X01635Y00858*
X01636Y00857*
X01637*
X01638Y00858*
X01638Y00858*
X01639Y00858*
X0164Y00858*
X01641Y00858*
X01641Y00859*
X01642Y00859*
X01643Y00859*
X01644Y0086*
X01644Y0086*
X01645Y00861*
X01645Y00862*
X01646Y00862*
X01646Y00863*
X01647Y00864*
X01647Y00864*
X01647Y00865*
X01648Y00866*
X01648Y00867*
X01648Y00868*
X01648Y00868*
X01648Y00869*
X02339Y00332D02*
D01*
X02339Y00333*
X02339Y00334*
X02338Y00334*
X02338Y00335*
X02338Y00336*
X02338Y00337*
X02337Y00337*
X02337Y00338*
X02336Y00339*
X02336Y00339*
X02335Y0034*
X02335Y00341*
X02334Y00341*
X02333Y00342*
X02333Y00342*
X02332Y00342*
X02331Y00343*
X0233Y00343*
X0233Y00343*
X02329Y00344*
X02328Y00344*
X02327Y00344*
X02326*
X02326Y00344*
X02325Y00344*
X02324Y00343*
X02323Y00343*
X02322Y00343*
X02322Y00342*
X02321Y00342*
X0232Y00342*
X0232Y00341*
X02319Y00341*
X02318Y0034*
X02318Y00339*
X02317Y00339*
X02317Y00338*
X02316Y00337*
X02316Y00337*
X02316Y00336*
X02315Y00335*
X02315Y00334*
X02315Y00334*
X02315Y00333*
X02315Y00332*
X02315Y00331*
X02315Y0033*
X02315Y00329*
X02315Y00329*
X02316Y00328*
X02316Y00327*
X02316Y00326*
X02317Y00326*
X02317Y00325*
X02318Y00324*
X02318Y00324*
X02319Y00323*
X0232Y00323*
X0232Y00322*
X02321Y00322*
X02322Y00321*
X02322Y00321*
X02323Y00321*
X02324Y0032*
X02325Y0032*
X02326Y0032*
X02326Y0032*
X02327*
X02328Y0032*
X02329Y0032*
X0233Y0032*
X0233Y00321*
X02331Y00321*
X02332Y00321*
X02333Y00322*
X02333Y00322*
X02334Y00323*
X02335Y00323*
X02335Y00324*
X02336Y00324*
X02336Y00325*
X02337Y00326*
X02337Y00326*
X02338Y00327*
X02338Y00328*
X02338Y00329*
X02338Y00329*
X02339Y0033*
X02339Y00331*
X02339Y00332*
G54D39*
X02106Y00988D02*
D01*
X02106Y00988*
X02106Y00988*
X02106Y00988*
X02106Y00988*
X02106Y00988*
X02106Y00988*
X02106Y00988*
X02106Y00989*
X02106Y00989*
X02106Y00989*
X02106Y00989*
X02106Y00989*
X02106Y00989*
X02106Y00989*
X02105Y00989*
X02105Y00989*
X02105Y00989*
X02105Y00989*
X02105Y00989*
X02105Y00989*
X02105Y00989*
X02105Y00989*
X02104*
X02104Y00989*
X02104Y00989*
X02104Y00989*
X02104Y00989*
X02104Y00989*
X02104Y00989*
X02104Y00989*
X02103Y00989*
X02103Y00989*
X02103Y00989*
X02103Y00989*
X02103Y00989*
X02103Y00989*
X02103Y00989*
X02103Y00988*
X02103Y00988*
X02103Y00988*
X02103Y00988*
X02103Y00988*
X02103Y00988*
X02103Y00988*
X02103Y00988*
X02103Y00987*
X02103Y00987*
X02103Y00987*
X02103Y00987*
X02103Y00987*
X02103Y00987*
X02103Y00987*
X02103Y00986*
X02103Y00986*
X02103Y00986*
X02103Y00986*
X02103Y00986*
X02103Y00986*
X02103Y00986*
X02104Y00986*
X02104Y00986*
X02104Y00986*
X02104Y00986*
X02104Y00986*
X02104Y00986*
X02104Y00986*
X02104Y00986*
X02105*
X02105Y00986*
X02105Y00986*
X02105Y00986*
X02105Y00986*
X02105Y00986*
X02105Y00986*
X02105Y00986*
X02106Y00986*
X02106Y00986*
X02106Y00986*
X02106Y00986*
X02106Y00986*
X02106Y00986*
X02106Y00986*
X02106Y00987*
X02106Y00987*
X02106Y00987*
X02106Y00987*
X02106Y00987*
X02106Y00987*
X02106Y00987*
X02106Y00988*
X00366Y00366D02*
D01*
X00366Y00367*
X00366Y00367*
X00366Y00367*
X00366Y00367*
X00366Y00367*
X00366Y00367*
X00366Y00367*
X00366Y00367*
X00366Y00368*
X00366Y00368*
X00366Y00368*
X00366Y00368*
X00366Y00368*
X00366Y00368*
X00365Y00368*
X00365Y00368*
X00365Y00368*
X00365Y00368*
X00365Y00368*
X00365Y00368*
X00365Y00368*
X00365Y00368*
X00364*
X00364Y00368*
X00364Y00368*
X00364Y00368*
X00364Y00368*
X00364Y00368*
X00364Y00368*
X00364Y00368*
X00363Y00368*
X00363Y00368*
X00363Y00368*
X00363Y00368*
X00363Y00368*
X00363Y00368*
X00363Y00367*
X00363Y00367*
X00363Y00367*
X00363Y00367*
X00363Y00367*
X00363Y00367*
X00363Y00367*
X00363Y00367*
X00363Y00366*
X00363Y00366*
X00363Y00366*
X00363Y00366*
X00363Y00366*
X00363Y00366*
X00363Y00366*
X00363Y00366*
X00363Y00365*
X00363Y00365*
X00363Y00365*
X00363Y00365*
X00363Y00365*
X00363Y00365*
X00363Y00365*
X00364Y00365*
X00364Y00365*
X00364Y00365*
X00364Y00365*
X00364Y00365*
X00364Y00364*
X00364Y00364*
X00364Y00364*
X00365*
X00365Y00364*
X00365Y00364*
X00365Y00365*
X00365Y00365*
X00365Y00365*
X00365Y00365*
X00365Y00365*
X00366Y00365*
X00366Y00365*
X00366Y00365*
X00366Y00365*
X00366Y00365*
X00366Y00365*
X00366Y00365*
X00366Y00366*
X00366Y00366*
X00366Y00366*
X00366Y00366*
X00366Y00366*
X00366Y00366*
X00366Y00366*
X00366Y00366*
Y00526D02*
D01*
X00366Y00527*
X00366Y00527*
X00366Y00527*
X00366Y00527*
X00366Y00527*
X00366Y00527*
X00366Y00527*
X00366Y00527*
X00366Y00528*
X00366Y00528*
X00366Y00528*
X00366Y00528*
X00366Y00528*
X00366Y00528*
X00365Y00528*
X00365Y00528*
X00365Y00528*
X00365Y00528*
X00365Y00528*
X00365Y00528*
X00365Y00528*
X00365Y00528*
X00364*
X00364Y00528*
X00364Y00528*
X00364Y00528*
X00364Y00528*
X00364Y00528*
X00364Y00528*
X00364Y00528*
X00363Y00528*
X00363Y00528*
X00363Y00528*
X00363Y00528*
X00363Y00528*
X00363Y00528*
X00363Y00527*
X00363Y00527*
X00363Y00527*
X00363Y00527*
X00363Y00527*
X00363Y00527*
X00363Y00527*
X00363Y00527*
X00363Y00526*
X00363Y00526*
X00363Y00526*
X00363Y00526*
X00363Y00526*
X00363Y00526*
X00363Y00526*
X00363Y00526*
X00363Y00525*
X00363Y00525*
X00363Y00525*
X00363Y00525*
X00363Y00525*
X00363Y00525*
X00363Y00525*
X00364Y00525*
X00364Y00525*
X00364Y00525*
X00364Y00525*
X00364Y00525*
X00364Y00524*
X00364Y00524*
X00364Y00524*
X00365*
X00365Y00524*
X00365Y00524*
X00365Y00525*
X00365Y00525*
X00365Y00525*
X00365Y00525*
X00365Y00525*
X00366Y00525*
X00366Y00525*
X00366Y00525*
X00366Y00525*
X00366Y00525*
X00366Y00525*
X00366Y00525*
X00366Y00526*
X00366Y00526*
X00366Y00526*
X00366Y00526*
X00366Y00526*
X00366Y00526*
X00366Y00526*
X00366Y00526*
Y00706D02*
D01*
X00366Y00707*
X00366Y00707*
X00366Y00707*
X00366Y00707*
X00366Y00707*
X00366Y00707*
X00366Y00707*
X00366Y00707*
X00366Y00708*
X00366Y00708*
X00366Y00708*
X00366Y00708*
X00366Y00708*
X00366Y00708*
X00365Y00708*
X00365Y00708*
X00365Y00708*
X00365Y00708*
X00365Y00708*
X00365Y00708*
X00365Y00708*
X00365Y00708*
X00364*
X00364Y00708*
X00364Y00708*
X00364Y00708*
X00364Y00708*
X00364Y00708*
X00364Y00708*
X00364Y00708*
X00363Y00708*
X00363Y00708*
X00363Y00708*
X00363Y00708*
X00363Y00708*
X00363Y00708*
X00363Y00707*
X00363Y00707*
X00363Y00707*
X00363Y00707*
X00363Y00707*
X00363Y00707*
X00363Y00707*
X00363Y00707*
X00363Y00706*
X00363Y00706*
X00363Y00706*
X00363Y00706*
X00363Y00706*
X00363Y00706*
X00363Y00706*
X00363Y00706*
X00363Y00705*
X00363Y00705*
X00363Y00705*
X00363Y00705*
X00363Y00705*
X00363Y00705*
X00363Y00705*
X00364Y00705*
X00364Y00705*
X00364Y00705*
X00364Y00705*
X00364Y00705*
X00364Y00704*
X00364Y00704*
X00364Y00704*
X00365*
X00365Y00704*
X00365Y00704*
X00365Y00705*
X00365Y00705*
X00365Y00705*
X00365Y00705*
X00365Y00705*
X00366Y00705*
X00366Y00705*
X00366Y00705*
X00366Y00705*
X00366Y00705*
X00366Y00705*
X00366Y00705*
X00366Y00706*
X00366Y00706*
X00366Y00706*
X00366Y00706*
X00366Y00706*
X00366Y00706*
X00366Y00706*
X00366Y00706*
Y00886D02*
D01*
X00366Y00887*
X00366Y00887*
X00366Y00887*
X00366Y00887*
X00366Y00887*
X00366Y00887*
X00366Y00887*
X00366Y00887*
X00366Y00888*
X00366Y00888*
X00366Y00888*
X00366Y00888*
X00366Y00888*
X00366Y00888*
X00365Y00888*
X00365Y00888*
X00365Y00888*
X00365Y00888*
X00365Y00888*
X00365Y00888*
X00365Y00888*
X00365Y00888*
X00364*
X00364Y00888*
X00364Y00888*
X00364Y00888*
X00364Y00888*
X00364Y00888*
X00364Y00888*
X00364Y00888*
X00363Y00888*
X00363Y00888*
X00363Y00888*
X00363Y00888*
X00363Y00888*
X00363Y00888*
X00363Y00887*
X00363Y00887*
X00363Y00887*
X00363Y00887*
X00363Y00887*
X00363Y00887*
X00363Y00887*
X00363Y00887*
X00363Y00886*
X00363Y00886*
X00363Y00886*
X00363Y00886*
X00363Y00886*
X00363Y00886*
X00363Y00886*
X00363Y00886*
X00363Y00885*
X00363Y00885*
X00363Y00885*
X00363Y00885*
X00363Y00885*
X00363Y00885*
X00363Y00885*
X00364Y00885*
X00364Y00885*
X00364Y00885*
X00364Y00885*
X00364Y00885*
X00364Y00884*
X00364Y00884*
X00364Y00884*
X00365*
X00365Y00884*
X00365Y00884*
X00365Y00885*
X00365Y00885*
X00365Y00885*
X00365Y00885*
X00365Y00885*
X00366Y00885*
X00366Y00885*
X00366Y00885*
X00366Y00885*
X00366Y00885*
X00366Y00885*
X00366Y00885*
X00366Y00886*
X00366Y00886*
X00366Y00886*
X00366Y00886*
X00366Y00886*
X00366Y00886*
X00366Y00886*
X00366Y00886*
X0157Y00245D02*
D01*
X0157Y00245*
X0157Y00245*
X0157Y00245*
X0157Y00245*
X0157Y00245*
X0157Y00246*
X0157Y00246*
X0157Y00246*
X0157Y00246*
X0157Y00246*
X0157Y00246*
X0157Y00246*
X0157Y00246*
X01569Y00246*
X01569Y00247*
X01569Y00247*
X01569Y00247*
X01569Y00247*
X01569Y00247*
X01569Y00247*
X01569Y00247*
X01568Y00247*
X01568*
X01568Y00247*
X01568Y00247*
X01568Y00247*
X01568Y00247*
X01568Y00247*
X01567Y00247*
X01567Y00247*
X01567Y00246*
X01567Y00246*
X01567Y00246*
X01567Y00246*
X01567Y00246*
X01567Y00246*
X01567Y00246*
X01567Y00246*
X01567Y00246*
X01566Y00245*
X01566Y00245*
X01566Y00245*
X01566Y00245*
X01566Y00245*
X01566Y00245*
X01566Y00245*
X01566Y00245*
X01566Y00244*
X01566Y00244*
X01566Y00244*
X01567Y00244*
X01567Y00244*
X01567Y00244*
X01567Y00244*
X01567Y00244*
X01567Y00243*
X01567Y00243*
X01567Y00243*
X01567Y00243*
X01567Y00243*
X01567Y00243*
X01568Y00243*
X01568Y00243*
X01568Y00243*
X01568Y00243*
X01568Y00243*
X01568Y00243*
X01568*
X01569Y00243*
X01569Y00243*
X01569Y00243*
X01569Y00243*
X01569Y00243*
X01569Y00243*
X01569Y00243*
X01569Y00243*
X0157Y00243*
X0157Y00243*
X0157Y00243*
X0157Y00244*
X0157Y00244*
X0157Y00244*
X0157Y00244*
X0157Y00244*
X0157Y00244*
X0157Y00244*
X0157Y00244*
X0157Y00245*
X0157Y00245*
X0157Y00245*
G54D40*
X03226Y00283D02*
X03326D01*
Y01808*
Y01883*
X03226D02*
X03326D01*
X03226Y00283D02*
Y01883D01*
X00026Y00283D02*
X00126D01*
Y01808*
Y01883*
X00026D02*
X00126D01*
X00026Y00283D02*
Y01883D01*
X0121Y00124D02*
Y00321D01*
X0091D02*
X0121D01*
X0091Y00124D02*
Y00321D01*
Y00124D02*
X0121D01*
X02871Y00713D02*
X0302D01*
X02871Y00832D02*
X0302D01*
X01036Y00555D02*
X01115D01*
X01036Y0079D02*
X01115D01*
X00958Y00594D02*
Y00751D01*
X01194Y00594D02*
Y00751D01*
X00709Y00354D02*
X00713D01*
X00709Y00311D02*
X00713D01*
X00703Y00874D02*
X00707D01*
X00703Y00831D02*
X00707D01*
X00703Y00514D02*
X00707D01*
X00703Y00471D02*
X00707D01*
X00709Y00694D02*
X00713D01*
X00709Y00651D02*
X00713D01*
X03052Y00213D02*
X03198D01*
X03057Y00093D02*
X03202D01*
X01443Y00676D02*
Y00909D01*
X01676Y00676D02*
Y00909D01*
X01443Y00676D02*
X01676D01*
X01443Y00909D02*
X01676D01*
X01878Y00591D02*
X01881D01*
X01878Y00634D02*
X01881D01*
X02078Y00591D02*
X02081D01*
X02078Y00634D02*
X02081D01*
X02728Y00237D02*
Y00348D01*
X02991Y00237D02*
Y00348D01*
X02728Y00237D02*
X02991D01*
X02728Y00348D02*
X02991D01*
X01953Y00371D02*
X02366D01*
X01953Y00214D02*
X02366D01*
Y00371*
X01953Y00214D02*
Y00371D01*
X01441Y00416D02*
Y0042D01*
X01398Y00416D02*
Y0042D01*
X01825Y00409D02*
Y00416D01*
X01774Y00409D02*
Y00416D01*
X01462Y00139D02*
Y0015D01*
Y-00018D02*
Y00056D01*
X01777Y-00018D02*
Y00056D01*
X01462Y-00018D02*
X01777D01*
Y00139D02*
Y0015D01*
G54D41*
X0154Y01123D02*
Y01223D01*
X0304Y01123D02*
Y01223D01*
X0154Y01143D02*
X0304D01*
X0154D02*
X0156Y01163D01*
X0154Y01143D02*
X0156Y01123D01*
X0302Y01163D02*
X0304Y01143D01*
X0302Y01123D02*
X0304Y01143D01*
X0144Y01123D02*
Y01223D01*
X0031Y01123D02*
Y01223D01*
Y01143D02*
X0144D01*
X0031D02*
X0033Y01163D01*
X0031Y01143D02*
X0033Y01123D01*
X0142Y01163D02*
X0144Y01143D01*
X0142Y01123D02*
X0144Y01143D01*
X0304Y01043D02*
Y01133D01*
X0031Y01043D02*
Y01123D01*
Y01063D02*
X0304D01*
X0031D02*
X0033Y01043D01*
X0031Y01063D02*
X0033Y01083D01*
X0302D02*
X0304Y01063D01*
X0302Y01043D02*
X0304Y01063D01*
X0154Y01303D02*
Y01413D01*
Y01393D02*
X0269D01*
Y01293D02*
Y01413D01*
X0154Y01393D02*
X0156Y01413D01*
X0154Y01393D02*
X0156Y01413D01*
X0154Y01393D02*
X0156Y01373D01*
X0267Y01413D02*
X0269Y01393D01*
X0267Y01373D02*
X0269Y01393D01*
X0222Y01178D02*
Y01163D01*
X02225Y01158*
X0223Y01163*
X02235Y01158*
X0224Y01163*
Y01178*
X02267Y01158D02*
X02256D01*
X02251Y01163*
Y01173*
X02256Y01178*
X02267*
X02272Y01173*
Y01168*
X02251*
X02282Y01189D02*
Y01158D01*
X02298*
X02303Y01163*
Y01168*
Y01173*
X02298Y01178*
X02282*
X0063Y01189D02*
Y01158D01*
X0065*
X00661D02*
X00671D01*
X00666*
Y01178*
X00661*
X00687Y01158D02*
Y01178D01*
X00703*
X00708Y01173*
Y01158*
X00719D02*
Y01189D01*
Y01168D02*
X00734Y01178D01*
X00719Y01168D02*
X00734Y01158D01*
X00766D02*
X00755D01*
X0075Y01163*
Y01173*
X00755Y01178*
X00766*
X00771Y01173*
Y01168*
X0075*
X00803Y01189D02*
Y01158D01*
X00787*
X00782Y01163*
Y01173*
X00787Y01178*
X00803*
X00813Y01189D02*
X00824D01*
X00818*
Y01158*
X00813*
X00824*
X00839D02*
Y01178D01*
X00855*
X0086Y01173*
Y01158*
X00902D02*
X00923Y01178D01*
X00986Y01189D02*
X00965D01*
Y01173*
X00976*
X00965*
Y01158*
X01002Y01178D02*
X01013D01*
X01018Y01173*
Y01158*
X01002*
X00997Y01163*
X01002Y01168*
X01018*
X01049Y01178D02*
X01034D01*
X01028Y01173*
Y01163*
X01034Y01158*
X01049*
X01076D02*
X01065D01*
X0106Y01163*
Y01173*
X01065Y01178*
X01076*
X01081Y01173*
Y01168*
X0106*
X01091Y01189D02*
Y01158D01*
X01107*
X01112Y01163*
Y01168*
Y01173*
X01107Y01178*
X01091*
X01128Y01158D02*
X01139D01*
X01144Y01163*
Y01173*
X01139Y01178*
X01128*
X01123Y01173*
Y01163*
X01128Y01158*
X0116D02*
X0117D01*
X01175Y01163*
Y01173*
X0117Y01178*
X0116*
X01154Y01173*
Y01163*
X0116Y01158*
X01186D02*
Y01189D01*
Y01168D02*
X01201Y01178D01*
X01186Y01168D02*
X01201Y01158D01*
X0153Y01078D02*
X0152D01*
X01515Y01083*
Y01093*
X0152Y01098*
X0153*
X01535Y01093*
Y01088*
X01515*
X01546Y01093D02*
X01567D01*
X01577Y01078D02*
Y01098D01*
X01583*
X01588Y01093*
Y01078*
Y01093*
X01593Y01098*
X01598Y01093*
Y01078*
X01614Y01098D02*
X01625D01*
X0163Y01093*
Y01078*
X01614*
X01609Y01083*
X01614Y01088*
X0163*
X0164Y01078D02*
X01651D01*
X01646*
Y01098*
X0164*
X01667Y01078D02*
X01677D01*
X01672*
Y01109*
X01667*
X0206Y01408D02*
Y01428D01*
X02065*
X0207Y01423*
Y01408*
Y01423*
X02075Y01428*
X0208Y01423*
Y01408*
X02107D02*
X02096D01*
X02091Y01413*
Y01423*
X02096Y01428*
X02107*
X02112Y01423*
Y01418*
X02091*
M02*