%FSTAX23Y23*%
%MOIN*%
%SFA1B1*%

%IPPOS*%
%ADD29C,0.010000*%
%ADD41C,0.005910*%
%LNcarduino-1*%
%LPD*%
G36*
X03008Y00168D02*
X03011Y00168D01*
X03014Y00166*
X03016Y00165*
X03017Y00165*
X03017Y00164*
X03018Y00164*
X03019Y00162*
X0302Y0016*
X03021Y00155*
X03022Y00153*
X03022Y00152*
Y00151*
Y0015*
X03022Y00147*
X03021Y00144*
X03021Y00142*
X0302Y00142*
X03018Y00139*
X03017Y00137*
X03015Y00136*
X03014Y00135*
X03011Y00134*
X03009Y00133*
X03006Y00133*
X03006*
X03002Y00133*
X03Y00134*
X02998Y00135*
X02997Y00135*
X02994Y00137*
X02993Y00139*
X02991Y00141*
X02991Y00141*
X0299Y00145*
X02989Y00148*
X02989Y0015*
Y0015*
Y00151*
X02989Y00154*
X0299Y00157*
X0299Y00159*
X02991Y0016*
X02993Y00163*
X02994Y00165*
X02996Y00166*
X02997Y00166*
X03Y00168*
X03003Y00168*
X03005Y00169*
X03006*
X03008Y00168*
G37*
G36*
X03135Y00128D02*
X03135Y00127D01*
X03136*
X03137Y00126*
X03138Y00125*
X03139Y00124*
Y00124*
X0314Y00122*
X0314Y00121*
Y0012*
Y00119*
Y00117*
X0314Y00116*
X03139Y00115*
Y00114*
X03138Y00113*
X03137Y00113*
X03137Y00112*
X03137*
X03135Y00111*
X03134Y00111*
X03132*
X0313Y00111*
X03129Y00111*
X03128Y00112*
X03127Y00112*
X03126Y00113*
X03125Y00114*
X03125Y00116*
Y00116*
X03127Y00116*
X03128Y00115*
X03128Y00114*
X03128Y00113*
X03129*
X0313Y00113*
X03131Y00113*
X03132*
X03134Y00113*
X03135*
X03137Y00114*
X03137Y00115*
Y00115*
X03138Y00118*
Y00119*
Y00119*
X03137Y00122*
X03137Y00122*
Y00123*
X03137Y00124*
X03136Y00125*
X03135Y00125*
X03135*
X03134Y00126*
X03133Y00126*
X03131*
X0313Y00126*
X03129Y00125*
X03128Y00123*
X03127Y00123*
Y00122*
X03125Y00123*
X03126Y00125*
X03126Y00126*
X03127Y00126*
X03127Y00127*
X03129Y00128*
X0313Y00128*
X03133*
X03135Y00128*
G37*
G36*
X03033Y00133D02*
X03029D01*
Y00168*
X03033*
Y00133*
G37*
G36*
X03132D02*
X03106D01*
Y00137*
X03127*
Y00149*
X03108*
Y00153*
X03127*
Y00164*
X03107*
Y00168*
X03132*
Y00133*
G37*
G36*
X03067Y00164D02*
X03055D01*
Y00133*
X03051*
Y00164*
X03039*
Y00168*
X03067*
Y00164*
G37*
G36*
X03Y00128D02*
X03001Y00127D01*
X03002*
X03003Y00126*
X03003Y00125*
X03004Y00124*
Y00124*
X03005Y00122*
X03005Y00121*
Y0012*
Y00119*
Y00117*
X03005Y00116*
X03005Y00115*
Y00114*
X03004Y00113*
X03003Y00113*
X03002Y00112*
X03002*
X03Y00111*
X02999Y00111*
X02997*
X02995Y00111*
X02994Y00111*
X02993Y00112*
X02993Y00112*
X02991Y00113*
X02991Y00114*
X0299Y00116*
Y00116*
X02992Y00116*
X02993Y00115*
X02993Y00114*
X02994Y00114*
X02994Y00113*
X02995Y00113*
X02996Y00113*
X02997*
X02999Y00113*
X03*
X03001Y00114*
X03002Y00114*
X03002Y00115*
Y00115*
X03003Y00116*
X03003Y00118*
Y00119*
Y00119*
X03003Y00122*
X03002Y00122*
Y00123*
X03002Y00124*
X03001Y00125*
X03001Y00125*
X03*
X02998Y00126*
X02997*
X02995Y00126*
X02994Y00125*
X02994Y00125*
X02993Y00123*
X02993Y00123*
Y00122*
X0299Y00123*
X02991Y00125*
X02992Y00126*
X02992Y00126*
X02993Y00127*
X02994Y00128*
X02996Y00128*
X02999*
X03Y00128*
G37*
G36*
X03156Y00111D02*
X03143D01*
Y00113*
X03153*
Y00118*
X03144*
Y0012*
X03153*
Y00126*
X03143*
Y00128*
X03156*
Y00111*
G37*
G36*
X03123Y00126D02*
X03117D01*
Y00111*
X03115*
Y00126*
X03109*
Y00128*
X03123*
Y00126*
G37*
G36*
X03169Y00111D02*
X03158D01*
Y00113*
X03167*
Y00128*
X03169*
Y00111*
G37*
G36*
X02738Y00162D02*
Y00161D01*
Y00159*
Y00156*
Y00155*
Y00154*
Y00148*
Y00143*
Y00141*
Y00139*
Y00138*
Y00137*
Y00131*
Y00128*
Y00125*
Y00123*
Y00122*
Y0012*
Y0012*
Y00117*
Y00116*
Y00114*
Y00114*
Y00113*
X02538*
Y00113*
Y00114*
Y00116*
Y00119*
Y0012*
Y0012*
Y00126*
Y00132*
Y00134*
Y00136*
Y00137*
Y00137*
Y00144*
Y00147*
Y00149*
Y00151*
Y00153*
Y00154*
Y00154*
Y00157*
Y00159*
Y0016*
Y00161*
Y00162*
X02738*
Y00162*
G37*
G36*
X03185Y00111D02*
X03172D01*
Y00113*
X03183*
Y00118*
X03173*
Y0012*
X03183*
Y00126*
X03173*
Y00128*
X03185*
Y00111*
G37*
G36*
X02164Y00206D02*
X02166Y00205D01*
X02167Y00203*
X02168Y00201*
X02169Y00199*
X02169Y00198*
Y00196*
Y00196*
X02169Y00192*
X02168Y0019*
X02166Y00188*
X02164Y00187*
X02163Y00186*
X02161Y00185*
X0216*
X02157Y00186*
X02155Y00187*
X02153Y00188*
X02152Y00189*
X02156Y00191*
X02157Y0019*
X02158Y00189*
X0216Y00189*
X0216*
X02162Y00189*
X02163Y0019*
X02164Y00192*
X02165Y00193*
Y00194*
Y00194*
X02152*
Y00198*
X02152Y00201*
X02154Y00203*
X02155Y00204*
X02157Y00205*
X02158Y00206*
X0216Y00206*
X02161*
X02164Y00206*
G37*
G36*
X02241Y00204D02*
X02242Y00205D01*
X02244Y00206*
X02245Y00206*
X02245*
X02248Y00206*
X0225Y00205*
X02251Y00204*
X02251Y00204*
X02251Y00203*
X02252Y00202*
X02252Y00199*
X02253Y00197*
Y00196*
Y00196*
Y00194*
X02252Y00192*
Y0019*
X02252Y0019*
X02251Y00189*
X02251Y00188*
X0225Y00186*
X02248Y00186*
X02246Y00185*
X02245*
X02244Y00186*
X02242Y00186*
X02241Y00187*
X02241Y00187*
Y00186*
X02236*
Y00214*
X02241*
Y00204*
G37*
G36*
X02227Y00186D02*
X02224D01*
X0222Y002*
X02215Y00186*
X02211*
X02205Y00206*
X02209*
X02213Y00192*
X02218Y00206*
X02221*
X02226Y00192*
X0223Y00206*
X02234*
X02227Y00186*
G37*
G36*
X02283Y00206D02*
X02285Y00205D01*
X02287Y00204*
X02287Y00204*
X02284Y00201*
X02283Y00202*
X02281Y00202*
X02278*
X02277Y00202*
X02276Y00201*
X02275Y002*
Y002*
Y00198*
X02281*
X02283Y00198*
X02285Y00197*
X02286Y00196*
X02287Y00195*
X02288Y00193*
Y00192*
Y00192*
X02287Y0019*
X02287Y00188*
X02286Y00187*
X02284Y00186*
X02281Y00185*
X0228*
X02278Y00186*
X02277Y00186*
X02276Y00187*
X02275Y00187*
Y00186*
X02271*
Y002*
X02271Y00202*
X02272Y00204*
X02274Y00205*
X02275Y00205*
X02277Y00206*
X02278Y00206*
X0228*
X02283Y00206*
G37*
G36*
X022D02*
X02202Y00205D01*
X02203Y00204*
X02203Y00204*
X022Y00201*
X02199Y00202*
X02198Y00202*
X02195*
X02194Y00202*
X02192Y00201*
X02192Y002*
Y002*
Y00198*
X02198*
X022Y00198*
X02202Y00197*
X02203Y00196*
X02204Y00195*
X02205Y00193*
Y00192*
Y00192*
X02204Y0019*
X02203Y00188*
X02202Y00187*
X02201Y00186*
X02198Y00185*
X02197*
X02195Y00186*
X02193Y00186*
X02192Y00187*
X02192Y00187*
Y00186*
X02188*
Y002*
X02188Y00202*
X02189Y00204*
X02191Y00205*
X02192Y00205*
X02194Y00206*
X02195Y00206*
X02196*
X022Y00206*
G37*
G36*
X03095Y00419D02*
X031Y00418D01*
X03101Y00417*
X03103Y00417*
X03104Y00416*
X03104*
X03105Y00415*
X03106Y00415*
X0311Y00412*
X03112Y00409*
X03114Y00406*
X03114Y00406*
Y00405*
X03224Y00215*
X03225Y00214*
Y00214*
X03225Y00213*
X03226Y00211*
X03227Y00211*
Y0021*
X03227Y0021*
X03227Y00208*
X03228Y00207*
Y00207*
X03228Y00203*
Y00199*
X03227Y00196*
X03227Y00193*
X03226Y0019*
X03225Y00188*
X03225Y00187*
X03224Y00187*
X03223Y00184*
X03222Y00184*
X03222Y00183*
X0322Y00181*
X03219Y00181*
X03219Y0018*
X03216Y00178*
X03213Y00176*
X03209Y00174*
X03206Y00174*
X03204Y00173*
X03201Y00173*
X02977*
X02976Y00173*
X02974*
X02973Y00174*
X02972Y00174*
X02971*
X02967Y00175*
X02964Y00177*
X02962Y0018*
X0296Y00181*
X02958Y00184*
X02957Y00185*
X02956Y00186*
X02955Y00187*
Y00187*
X02954Y00189*
X02954Y0019*
X02954Y0019*
Y00191*
X02953Y00192*
X02953Y00194*
X02952Y00195*
Y00195*
X02952Y00199*
Y00203*
X02952Y00206*
X02953Y00209*
X02954Y00212*
X02955Y00214*
X02955Y00215*
X02956Y00215*
X03066Y00406*
X03067Y00408*
X03068Y00409*
X03068Y00409*
X03069Y0041*
X03069Y00411*
X0307Y00412*
X03071Y00412*
X03074Y00415*
X03077Y00417*
X0308Y00418*
X03083Y00419*
X03086Y00419*
X03088Y0042*
X0309*
X03095Y00419*
G37*
G36*
X03194Y00164D02*
X03183D01*
Y00133*
X03178*
Y00164*
X03167*
Y00168*
X03194*
Y00164*
G37*
G36*
X03164D02*
X03153D01*
Y00133*
X03148*
Y00164*
X03137*
Y00168*
X03164*
Y00164*
G37*
G36*
X03224Y00133D02*
X03219D01*
X03216Y00144*
X03201*
X03197Y00133*
X03192*
X03206Y00168*
X03211*
X03224Y00133*
G37*
G36*
X03099D02*
X03095D01*
Y00161*
X03077Y00133*
X03072*
Y00168*
X03077*
Y00141*
X03095Y00168*
X03099*
Y00133*
G37*
G36*
X02983D02*
X02979D01*
Y00161*
X0296Y00133*
X02955*
Y00168*
X0296*
Y00141*
X02978Y00168*
X02983*
Y00133*
G37*
G36*
X0311Y00087D02*
X03108D01*
Y00105*
X0311*
Y00087*
G37*
G36*
X03088D02*
X03075D01*
Y00089*
X03085*
Y00095*
X03076*
Y00097*
X03085*
Y00102*
X03075*
Y00105*
X03088*
Y00087*
G37*
G36*
X03127Y00102D02*
X03121D01*
Y00087*
X03119*
Y00102*
X03113*
Y00105*
X03127*
Y00102*
G37*
G36*
X03182Y00087D02*
X0317D01*
Y00089*
X0318*
Y00095*
X0317*
Y00097*
X0318*
Y00102*
X0317*
Y00105*
X03182*
Y00087*
G37*
G36*
X03132D02*
X0313D01*
Y00105*
X03132*
Y00087*
G37*
G36*
X03065D02*
X03058D01*
X03056Y00087*
X03056*
X03054Y00088*
X03053Y00088*
X03053Y00089*
X03052Y0009*
X03051Y00092*
X03051Y00092*
X0305Y00095*
Y00096*
Y00096*
Y00098*
Y00099*
X03051Y001*
Y001*
X03052Y00102*
X03053Y00103*
X03053Y00103*
X03055Y00104*
X03055Y00104*
X03056*
X03057Y00105*
X03065*
Y00087*
G37*
G36*
X03195Y00105D02*
X03195Y00104D01*
X03196*
X03197Y00104*
X03197Y00103*
X03198Y00103*
Y00102*
X03199Y00101*
Y00101*
Y001*
X03198Y00099*
Y00098*
Y00098*
X03197Y00096*
X03197Y00096*
X03195Y00096*
X03194*
X03194Y00095*
X03193*
X03191Y00095*
X0319Y00094*
X0319*
X03189Y00094*
X03188Y00093*
X03188Y00092*
Y00092*
Y00091*
X03188Y0009*
X03189Y0009*
X0319Y00089*
X03192Y00089*
X03192*
X03194Y00089*
X03195*
X03196Y0009*
X03197Y00091*
X03197Y00092*
Y00093*
Y00093*
X032Y00093*
X03199Y00092*
X03199Y00091*
X03198Y0009*
Y0009*
X03197Y00088*
X03197Y00087*
X03196*
X03194Y00087*
X03192*
X0319Y00087*
X03189Y00087*
X03189*
X03187Y00089*
X03186Y00089*
X03186Y00091*
Y00092*
X03186Y00094*
X03186Y00095*
X03188Y00096*
X03188Y00096*
X03189*
X03191Y00097*
X03192Y00098*
X03192*
X03194Y00098*
X03195Y00098*
X03196Y00099*
X03197Y001*
Y001*
X03196Y00102*
X03196Y00102*
X03194Y00103*
X03193*
X03191Y00102*
X0319Y00102*
X0319*
X03189Y00101*
X03189Y00101*
X03188Y001*
Y00099*
X03186*
Y00101*
X03186Y00102*
X03187Y00102*
X03187Y00102*
X03189Y00104*
X03189Y00104*
X03189*
X03192Y00105*
X03193*
X03195Y00105*
G37*
G36*
X03145D02*
X03146Y00104D01*
X03146*
X03147Y00104*
X03147Y00103*
X03148Y00103*
Y00102*
X03149Y00102*
X03149Y00101*
Y00101*
Y001*
X03149Y00099*
X03148Y00098*
Y00098*
X03147Y00096*
X03146Y00096*
X03145Y00096*
X03144*
X03143Y00095*
X03143*
X03141Y00095*
X0314Y00094*
X0314*
X03138Y00094*
X03138Y00093*
X03138Y00092*
Y00092*
Y00091*
X03138Y0009*
X03139Y0009*
X0314Y00089*
X03141Y00089*
X03142*
X03144Y00089*
X03145*
X03146Y0009*
X03146Y0009*
X03147Y00091*
X03147Y00092*
Y00093*
Y00093*
X03149Y00093*
X03149Y00091*
X03149Y0009*
Y0009*
X03147Y00088*
X03146Y00087*
X03146*
X03145Y00087*
X03143Y00087*
X03142*
X0314Y00087*
X03139Y00087*
X03139*
X03137Y00089*
X03136Y00089*
X03135Y00091*
Y00092*
X03136Y00094*
X03136Y00095*
X03138Y00096*
X03138Y00096*
X03138*
X03141Y00097*
X03142Y00098*
X03142*
X03144Y00098*
X03145Y00098*
X03146Y00099*
X03147Y001*
Y001*
X03146Y00101*
X03146Y00102*
X03146Y00102*
X03145Y00102*
X03144Y00103*
X03143*
X0314Y00102*
X0314Y00102*
X0314*
X03139Y00101*
X03138Y00101*
X03138Y001*
Y00099*
X03136*
X03137Y00102*
X03137Y00102*
Y00102*
X03138Y00104*
X03139Y00104*
X03139*
X03141Y00105*
X03143*
X03145Y00105*
G37*
G36*
X0299Y00087D02*
X02977D01*
Y00089*
X02988*
Y00095*
X02978*
Y00097*
X02988*
Y00102*
X02977*
Y00105*
X0299*
Y00087*
G37*
G36*
X03047D02*
X03034D01*
Y00089*
X03045*
Y00095*
X03035*
Y00097*
X03045*
Y00102*
X03034*
Y00105*
X03047*
Y00087*
G37*
G36*
X03014D02*
X03012D01*
Y00105*
X03014*
Y00087*
G37*
G36*
X03055Y00126D02*
X0305D01*
Y00111*
X03047*
Y00126*
X03041*
Y00128*
X03055*
Y00126*
G37*
G36*
X03043Y00111D02*
X0304D01*
X03038Y00116*
X03031*
X03029Y00111*
X03026*
X03033Y00128*
X03036*
X03043Y00111*
G37*
G36*
X03067Y00128D02*
X03068D01*
X03068Y00127*
X03069Y00126*
X03069Y00126*
Y00126*
X0307Y00125*
X03071Y00124*
Y00124*
Y00123*
X0307Y00122*
X0307Y00122*
Y00121*
X03069Y0012*
X03068Y0012*
X03067Y00119*
X03066Y00119*
X03065Y00119*
X03065*
X03063Y00118*
X03062Y00118*
X03061Y00117*
X0306Y00117*
X0306Y00116*
X03059Y00116*
Y00115*
Y00114*
X0306Y00114*
X03061Y00113*
X03061Y00113*
X03066*
X03068Y00114*
X03068Y00114*
X03069Y00116*
Y00116*
Y00116*
X03071Y00116*
X03071Y00114*
X0307Y00113*
Y00113*
X03068Y00111*
X03068Y00111*
X03068*
X03065Y00111*
X03063*
X03061Y00111*
X0306*
X03059Y00112*
X03058Y00113*
X03057Y00114*
Y00115*
X03057Y00117*
X03058Y00118*
X03059Y00119*
X0306Y0012*
X0306*
X03061Y0012*
X03062Y0012*
X03063Y00121*
X03064*
X03066Y00121*
X03067Y00122*
X03068Y00122*
X03068Y00123*
Y00123*
X03068Y00124*
X03068Y00125*
X03067Y00125*
X03065Y00126*
X03063*
X03062Y00126*
X03061Y00125*
X0306Y00125*
X0306Y00124*
X0306Y00123*
Y00123*
X03058Y00123*
X03058Y00125*
X03059Y00126*
X0306Y00127*
X0306Y00128*
X03061*
X03063Y00128*
X03066*
X03067Y00128*
G37*
G36*
X03107Y00111D02*
X03104D01*
Y00118*
X03101*
X031Y00118*
X03099Y00117*
X03099*
X03099Y00117*
X03098Y00117*
Y00116*
X03098Y00116*
X03097Y00115*
X03097Y00114*
X03096Y00114*
X03094Y00111*
X03092*
X03095Y00115*
X03096Y00117*
X03096Y00117*
X03097Y00118*
X03098Y00118*
X03096Y00119*
X03095Y00119*
X03094Y0012*
X03094Y0012*
X03093Y00121*
X03093Y00122*
Y00123*
Y00123*
X03093Y00125*
X03093Y00125*
Y00126*
X03095Y00127*
X03095Y00128*
X03096*
X03097Y00128*
X03107*
Y00111*
G37*
G36*
X03084Y00128D02*
X03086Y00127D01*
X03087Y00126*
X03088Y00126*
X03089Y00123*
X03089Y00121*
X0309Y0012*
Y00119*
Y00119*
Y00117*
X03089Y00116*
X03089Y00115*
Y00114*
X03088Y00113*
X03087Y00113*
X03086Y00112*
X03086*
X03084Y00111*
X03083Y00111*
X0308*
X03078Y00111*
X03078Y00111*
X03077*
X03075Y00113*
X03075Y00114*
X03074Y00114*
X03074Y00116*
X03073Y00117*
Y00119*
Y00119*
Y00121*
X03074Y00123*
X03074Y00123*
X03074Y00124*
X03076Y00126*
X03077Y00126*
X03077Y00127*
X03079Y00128*
X0308Y00128*
X03081*
X03084Y00128*
G37*
G36*
X03028Y00126D02*
X03022D01*
Y00111*
X0302*
Y00126*
X03014*
Y00128*
X03028*
Y00126*
G37*
G36*
X03026Y00087D02*
X03023D01*
X03017Y00105*
X03019*
X03024Y00092*
X03024Y0009*
Y00089*
Y00089*
X03025Y0009*
X03025Y00091*
X03026Y00092*
Y00092*
X0303Y00105*
X03033*
X03026Y00087*
G37*
G36*
X03003Y00105D02*
X03004Y00104D01*
X03004Y00104*
X03006Y00103*
X03006Y00102*
X03007Y00101*
Y00101*
X03008Y00099*
X03008Y00098*
Y00096*
Y00096*
Y00094*
X03008Y00093*
X03008Y00092*
Y00091*
X03006Y00089*
X03005Y00088*
X03005Y00088*
X03003Y00087*
X03002Y00087*
X03*
X02998Y00087*
X02997Y00087*
X02996Y00088*
X02996Y00088*
X02994Y0009*
X02994Y00091*
X02993Y00092*
Y00093*
X02995Y00093*
X02996Y00092*
X02996Y0009*
X02997Y0009*
X02997Y0009*
X02998Y00089*
X02999Y00089*
X03*
X03002Y00089*
X03002Y00089*
X03003Y0009*
X03003*
X03005Y00091*
X03005Y00092*
Y00092*
X03006Y00095*
Y00096*
Y00096*
X03006Y00098*
X03005Y00099*
Y00099*
X03005Y00101*
X03004Y00101*
X03004Y00102*
X03003*
X03001Y00103*
X03*
X02998Y00102*
X02997Y00102*
X02997*
X02996Y00101*
X02996Y00101*
X02996Y001*
Y00099*
X02993Y001*
X02994Y00101*
X02995Y00102*
X02995Y00103*
X02996Y00104*
X02997Y00104*
X02999Y00105*
X03002*
X03003Y00105*
G37*
G36*
X03099Y00087D02*
X03096D01*
X0309Y00105*
X03092*
X03097Y00092*
X03098Y0009*
Y00089*
Y00089*
X03098Y0009*
X03098Y00091*
X03099Y00092*
X03103Y00105*
X03106*
X03099Y00087*
G37*
G36*
X03011Y00111D02*
X03009D01*
Y00128*
X03011*
Y00111*
G37*
G36*
X03166Y00087D02*
X03164D01*
Y00101*
X03155Y00087*
X03153*
Y00105*
X03155*
Y00091*
X03164Y00105*
X03166*
Y00087*
G37*
G36*
X02183Y00186D02*
X02179D01*
Y00198*
Y00199*
X02178Y00201*
X02177Y00202*
X02176Y00202*
X02175*
X02174Y00202*
X02173Y00202*
X02173Y00201*
Y00201*
X02169Y00205*
X02171Y00205*
X02172Y00206*
X02173*
X02176Y00206*
X02178Y00205*
X02179Y00204*
X02179Y00204*
Y00206*
X02183*
Y00186*
G37*
G36*
X02141Y00238D02*
X02143Y00237D01*
X02145Y00235*
X02146Y00234*
X02146Y00232*
X02147Y0023*
Y00229*
Y00229*
X02146Y00225*
X02145Y00222*
X02144Y0022*
X02142Y00219*
X02141Y00219*
X02139Y00218*
X02138*
X02135Y00218*
X02132Y0022*
X02131Y00221*
X0213Y00221*
X02133Y00224*
X02135Y00223*
X02136Y00222*
X02137Y00222*
X02138*
X02139Y00222*
X0214Y00222*
X02142Y00224*
X02143Y00226*
Y00226*
Y00227*
X0213*
Y00231*
X0213Y00233*
X02131Y00235*
X02133Y00237*
X02134Y00238*
X02136Y00238*
X02137Y00239*
X02139*
X02141Y00238*
G37*
G36*
X02239Y00393D02*
Y00393D01*
Y00392*
X02243Y00373*
Y00372*
X02244Y00372*
X02244*
X02257Y00366*
X02259*
X02275Y00378*
X02276Y00378*
X02276Y00377*
X0229Y00364*
Y00363*
Y00363*
Y00363*
X02279Y00346*
Y00346*
Y00345*
Y00345*
X02284Y00331*
X02285Y00331*
X02286Y0033*
X02286*
X02305Y00327*
X02305*
X02305Y00327*
Y00327*
Y00326*
Y00307*
Y00306*
X02305Y00306*
X02305*
X02286Y00302*
X02286Y00301*
Y00301*
X0228Y00287*
Y00286*
Y00286*
Y00286*
Y00285*
X0229Y0027*
Y0027*
Y00269*
Y00269*
X02276Y00255*
X02275Y00255*
X02275*
X02275Y00255*
X0226Y00265*
X02259*
X02252Y00262*
X02251Y00262*
X02251*
X02237Y00295*
Y00296*
X02238Y00297*
X02239Y00297*
Y00298*
X0224*
X0224Y00298*
X02241Y00298*
X02244Y00301*
X02246Y00304*
X02248Y00306*
X02249Y00309*
X0225Y00312*
X0225Y00314*
Y00316*
Y00316*
X0225Y00319*
X02249Y00322*
X02248Y00325*
X02247Y00327*
X02246Y00329*
X02245Y0033*
X02244Y00331*
X02244Y00331*
X02241Y00334*
X02239Y00335*
X02236Y00336*
X02234Y00337*
X02232Y00337*
X0223Y00338*
X02229*
X02226Y00337*
X02223Y00337*
X0222Y00336*
X02218Y00335*
X02216Y00333*
X02215Y00333*
X02214Y00332*
X02214Y00331*
X02211Y00329*
X0221Y00326*
X02209Y00324*
X02208Y00321*
X02208Y00319*
X02207Y00318*
Y00316*
Y00316*
X02208Y00312*
X02209Y00308*
X02211Y00305*
X02212Y00303*
X02214Y00301*
X02216Y003*
X02217Y00299*
X02217Y00298*
X02218Y00298*
X02218Y00298*
Y00297*
X0222Y00297*
X0222Y00295*
Y00295*
X02206Y00262*
X02206Y00262*
X02205*
X02199Y00265*
X02198*
X02183Y00255*
X02182Y00255*
X02182*
X02181Y00255*
X02167Y00269*
Y00269*
Y0027*
X02178Y00285*
Y00286*
Y00286*
Y00286*
Y00287*
X02172Y00301*
X02172Y00302*
X02171*
X02153Y00306*
X02152Y00306*
X02152Y00306*
Y00307*
Y00326*
Y00327*
X02152Y00327*
X02153*
X02172Y0033*
X02172Y00331*
X02173Y00331*
Y00331*
X02179Y00345*
Y00345*
Y00346*
X02167Y00363*
Y00363*
Y00364*
Y00364*
X02181Y00377*
X02182Y00378*
X02183*
X02199Y00366*
X022*
X02214Y00372*
X02214Y00372*
X02214Y00372*
Y00373*
X02218Y00392*
Y00393*
X02218Y00393*
X02239*
X02239Y00393*
G37*
G36*
X02282Y00238D02*
X02284Y00237D01*
X02286Y00235*
X02287Y00234*
X02287Y00232*
X02288Y0023*
Y00229*
Y00229*
X02287Y00225*
X02286Y00222*
X02285Y0022*
X02283Y00219*
X02281Y00219*
X0228Y00218*
X02278*
X02275Y00218*
X02273Y0022*
X02272Y00221*
X02271Y00221*
X02274Y00224*
X02276Y00223*
X02277Y00222*
X02278Y00222*
X02279*
X02281Y00222*
X02282Y00222*
X02283Y00224*
X02284Y00226*
Y00226*
Y00227*
X02271*
Y00231*
X02271Y00233*
X02272Y00235*
X02274Y00237*
X02275Y00238*
X02277Y00238*
X02278Y00239*
X0228*
X02282Y00238*
G37*
G36*
X02321D02*
X02324Y00238D01*
X02325Y00237*
X02325Y00237*
X02326Y00234*
X02327Y00232*
X02327Y00229*
Y00229*
Y00229*
X02327Y00225*
X02326Y00223*
X02326Y00221*
X02325Y00221*
X02323Y00219*
X02321Y00218*
X0232Y00218*
X02319*
X02316Y00218*
X02314Y00219*
X02313Y0022*
X02313Y00221*
X02312Y00222*
X02311Y00223*
X02311Y00225*
X02311Y00228*
Y00228*
Y00229*
X02311Y00232*
X02312Y00235*
X02312Y00236*
X02313Y00237*
X02314Y00238*
X02316Y00238*
X02318Y00239*
X02319*
X02321Y00238*
G37*
G36*
X02233D02*
X02235Y00238D01*
X02236Y00237*
X02237Y00236*
X02238Y00234*
Y00233*
Y00233*
X02238Y00231*
X02237Y0023*
X02235Y00228*
X02233Y00227*
X02233Y00227*
X02229*
X02227Y00226*
X02226Y00225*
X02226Y00225*
Y00224*
Y00223*
X02227Y00223*
X02228Y00222*
X02229Y00222*
X0223*
X02233Y00222*
X02235Y00223*
X02236Y00224*
X02237Y00224*
X02239Y00222*
X02236Y00219*
X02233Y00218*
X02231Y00218*
X0223*
X02227Y00218*
X02226Y00219*
X02224Y0022*
X02223Y00221*
X02222Y00222*
X02222Y00223*
Y00224*
Y00224*
X02222Y00226*
X02223Y00228*
X02225Y00229*
X02227Y0023*
X02227Y00231*
X02228*
X02232Y00231*
X02233Y00231*
X02234Y00232*
X02234Y00232*
Y00233*
X02233Y00234*
X02232Y00235*
X02231Y00235*
X0223*
X02229Y00235*
X02227Y00234*
X02226Y00234*
X02225Y00233*
X02223Y00236*
X02225Y00238*
X02227Y00238*
X0223Y00239*
X0223*
X02233Y00238*
G37*
G36*
X02214D02*
X02216Y00238D01*
X02217Y00237*
X02218Y00237*
X02219Y00234*
X02219Y00232*
X0222Y00229*
Y00229*
Y00229*
X02219Y00225*
X02218Y00223*
X02218Y00221*
X02218Y00221*
X02215Y00219*
X02213Y00218*
X02212Y00218*
X02211*
X02208Y00218*
X02206Y00219*
X02205Y0022*
X02205Y00221*
X02204Y00222*
X02203Y00223*
X02203Y00225*
X02203Y00228*
Y00228*
Y00229*
X02203Y00232*
X02204Y00235*
X02205Y00236*
X02205Y00237*
X02207Y00238*
X02209Y00238*
X0221Y00239*
X02211*
X02214Y00238*
G37*
G36*
X02751Y00439D02*
X02689Y00375D01*
X02687Y00357*
X02683Y00315*
X0268Y00285*
X02747Y00217*
X02742Y00212*
X0268Y00276*
X02676Y00237*
X02674*
Y00222*
X0266*
Y00237*
X02617*
X02616Y00234*
X02614Y00231*
X02611Y00228*
X02607Y00225*
X02602Y00224*
X02598Y00223*
X02593Y00223*
X0259Y00224*
X02586Y00226*
X02583Y00228*
X0258Y00231*
X02578Y00234*
X02576Y00238*
X02575Y00242*
X02575Y00245*
X02575Y00249*
X02575Y00252*
X02576Y00255*
X02578Y00258*
X0258Y0026*
X02582Y00262*
X02585Y00264*
X02588Y00266*
X02587Y00269*
X02533Y00213*
X02528Y00217*
X02587Y00277*
X02582Y0033*
X02579Y00369*
X02561*
Y00393*
X02566*
X02522Y00439*
X02526Y00443*
X02568Y004*
Y00403*
X02567Y00404*
X02566Y00405*
X02565Y00406*
X02564Y00407*
X02563Y00409*
X02563Y0041*
Y00412*
Y00414*
X02563Y00416*
X02565Y00418*
X02567Y0042*
X02569Y00421*
X02572Y00421*
X02574Y00421*
X02576Y0042*
X02578Y00419*
X02579Y00418*
X02581Y00419*
X02584Y00421*
X02587Y00423*
X02592Y00424*
X02597Y00426*
X02602Y00427*
X02607Y00428*
X02612Y00429*
Y00434*
X02647*
Y00429*
X0265*
X02654Y00429*
X02659Y00428*
X02663Y00427*
Y0043*
X02678*
Y00423*
X0268Y00423*
X02683Y00421*
X02685Y0042*
X02687Y00418*
X0269Y00416*
X02691Y00415*
X02692Y00414*
X02693Y00412*
X02692Y0041*
X02701*
Y00399*
X02691*
X0269Y00384*
X02746Y00443*
X02751Y00439*
G37*
G36*
X02266Y00186D02*
X02262D01*
Y00198*
Y00199*
X02262Y00201*
X0226Y00202*
X02259Y00202*
X02259*
X02257Y00202*
X02257Y00202*
X02256Y00201*
X02256Y00201*
X02253Y00205*
X02254Y00205*
X02256Y00206*
X02257*
X02259Y00206*
X02261Y00205*
X02262Y00204*
X02262Y00204*
Y00206*
X02266*
Y00186*
G37*
G36*
X02158Y00238D02*
X02161Y00237D01*
X02162Y00235*
X02163Y00234*
X02164Y00232*
X02164Y0023*
Y00229*
Y00229*
X02164Y00225*
X02163Y00222*
X02161Y0022*
X0216Y00219*
X02158Y00219*
X02157Y00218*
X02155*
X02152Y00219*
X0215Y0022*
X02148Y00221*
X02148Y00222*
X02151Y00224*
X02152Y00223*
X02154Y00222*
X02155Y00222*
X02155*
X02157Y00222*
X02158Y00223*
X0216Y00225*
X0216Y00228*
Y00228*
Y00229*
X0216Y00231*
X0216Y00232*
X02159Y00234*
X02158Y00234*
X02156Y00235*
X02155*
X02154Y00235*
X02152Y00234*
X02151Y00233*
X02151Y00233*
X02148Y00235*
X02151Y00237*
X02153Y00238*
X02155Y00239*
X02155*
X02158Y00238*
G37*
G36*
X02199Y00225D02*
X02199Y00223D01*
X02198Y00221*
X02197Y0022*
X02195Y00219*
X02193Y00218*
X02192*
X0219Y00218*
X02188Y00219*
X02187Y0022*
X02187Y0022*
Y00218*
X02183*
Y00239*
X02187*
Y00227*
Y00225*
X02188Y00224*
X02189Y00223*
X0219Y00222*
X02191*
X02192Y00222*
X02193Y00223*
X02194Y00225*
X02195Y00226*
Y00226*
Y00227*
Y00239*
X02199*
Y00225*
G37*
G36*
X02307Y00186D02*
X02303D01*
Y00198*
X02303Y00199*
X02302Y00201*
X02301Y00202*
X023Y00202*
X02298*
X02297Y00202*
X02295Y002*
X02295Y00199*
Y00198*
Y00198*
Y00186*
X02291*
Y00199*
X02291Y00201*
X02292Y00203*
X02293Y00204*
X02294Y00205*
X02296Y00206*
X02298*
X023Y00206*
X02302Y00205*
X02303Y00204*
X02303Y00204*
Y0022*
X02301Y00219*
X02299Y00218*
X02298Y00218*
X02298*
X02296Y00218*
X02294Y00219*
X02292Y0022*
X02292Y00221*
X02292Y00222*
X02291Y00223*
X02291Y00225*
Y00228*
Y00228*
Y00229*
Y00232*
X02291Y00235*
X02292Y00236*
X02292Y00237*
X02294Y00238*
X02296Y00238*
X02297Y00239*
X02298*
X023Y00238*
X02302Y00238*
X02303Y00237*
X02303Y00237*
Y00239*
X02307*
Y00186*
G37*
G36*
X02268Y00218D02*
X02263D01*
Y00231*
X02263Y00232*
X02262Y00233*
X02261Y00235*
X0226Y00235*
X02257*
X02257Y00234*
X02255Y00233*
X02255Y00231*
Y00231*
Y00231*
Y00218*
X02251*
Y00232*
X02251Y00234*
X02252Y00236*
X02253Y00237*
X02254Y00238*
X02256Y00239*
X02257*
X0226Y00238*
X02262Y00238*
X02263Y00237*
X02263Y00237*
Y00239*
X02268*
Y00218*
G37*
G36*
X02178D02*
X02174D01*
Y00231*
X02173Y00232*
X02173Y00233*
X02172Y00235*
X0217Y00235*
X0217*
X02169Y00235*
X02168Y00234*
X02168Y00234*
X02167Y00234*
X02164Y00237*
X02166Y00238*
X02167Y00239*
X02168*
X02171Y00238*
X02173Y00238*
X02173Y00237*
X02174Y00237*
Y00239*
X02178*
Y00218*
G37*
%LNcarduino-2*%
%LPC*%
G36*
X03006Y00165D02*
X03005D01*
X03003Y00165*
X03001Y00164*
X03Y00163*
X02999Y00163*
X02997Y00162*
X02996Y0016*
X02996Y00159*
X02995Y00158*
X02994Y00156*
X02994Y00153*
Y00151*
Y00151*
Y00151*
X02994Y00146*
X02995Y00143*
X02997Y00141*
X02997Y0014*
X03Y00138*
X03003Y00137*
X03005Y00137*
X03006*
X03009Y00137*
X03012Y00139*
X03013Y0014*
X03014Y0014*
X03016Y00143*
X03017Y00147*
Y00148*
X03017Y00149*
Y0015*
Y0015*
Y00153*
X03017Y00156*
X03016Y00157*
X03015Y00159*
X03014Y00161*
X03014Y00162*
X03011Y00163*
X03008Y00165*
X03006Y00165*
G37*
G36*
X02162Y00202D02*
X0216D01*
X02158Y00202*
X02157Y002*
X02156Y00199*
Y00198*
Y00198*
X02165*
X02165Y00199*
X02164Y00201*
X02163Y00202*
X02162Y00202*
G37*
G36*
X02245D02*
X02244D01*
X02243Y00202*
X02242Y00201*
X02241Y00199*
X02241Y00197*
Y00196*
Y00196*
Y00194*
X02241Y00192*
X02242Y00191*
X02242Y0019*
X02244Y00189*
X02244*
X02245Y0019*
X02247Y0019*
X02248Y00193*
X02248Y00195*
Y00196*
Y00196*
X02248Y00198*
X02248Y002*
X02247Y00201*
X02246Y00202*
X02245Y00202*
G37*
G36*
X02281Y00194D02*
X02275D01*
Y00193*
Y00192*
X02276Y0019*
X02278Y00189*
X02279Y00189*
X0228*
X02282Y00189*
X02283Y0019*
X02284Y00192*
Y00192*
X02283Y00193*
X02282Y00194*
X02281Y00194*
G37*
G36*
X02197D02*
X02192D01*
Y00193*
X02192Y00192*
X02193Y0019*
X02194Y00189*
X02196Y00189*
X02197*
X02199Y00189*
X022Y0019*
X022Y00192*
Y00192*
X022Y00193*
X02199Y00194*
X02197Y00194*
G37*
G36*
X03039Y00328D02*
X03018Y00292D01*
X0302Y0029*
X0302Y00289*
X03021Y00289*
X03022Y00287*
X03024Y00285*
X03025Y00284*
X03025Y00283*
X03026Y00281*
X03027Y00278*
X03028Y00276*
X03029Y00276*
Y00276*
X0303Y00272*
X03031Y0027*
X03032Y00269*
X03032Y00268*
X03033Y00267*
X03033Y00266*
X03034Y00266*
X03036Y00264*
X03036Y00264*
X03036Y00263*
X0304Y0026*
X03044Y00257*
X03046Y00255*
X03049Y00253*
X03051Y00252*
X03053Y00251*
X03053Y00251*
X03054*
X03133Y00297*
X03131Y00298*
X0313Y00299*
X03129Y003*
X03129Y003*
X03126Y00302*
X03125Y00303*
X03123Y00304*
X03123Y00304*
X03122Y00305*
X0312Y00306*
X0312Y00306*
X03117Y00308*
X03116Y00309*
X03114Y00309*
X03114Y0031*
X03111Y00312*
X03108Y00314*
X03105Y00316*
X03103Y00317*
X03101Y00318*
X03099Y00318*
X03099Y00319*
X03098*
X03093Y0032*
X03087Y00321*
X03076*
X03071Y0032*
X03064*
X03059Y00321*
X03056Y00321*
X03054Y00322*
X03053Y00322*
X03052Y00322*
X03052*
X03039Y00328*
G37*
G36*
X03106Y00267D02*
X03099Y00263D01*
X03099Y00261*
X031Y00259*
Y00258*
Y00258*
X03099Y00256*
X03099Y00255*
X03099Y00253*
Y00253*
X03098Y00252*
X03097Y0025*
X03096Y00249*
X03096Y00248*
Y00247*
X03098Y00245*
X03101Y00243*
X03102Y00241*
X03102Y00241*
X03103Y0024*
X03103Y0024*
X03104Y0024*
Y00239*
X03105Y00241*
X03106Y00243*
X03106Y00244*
X03107Y00245*
X03107Y00246*
Y00246*
X03108Y00247*
Y00248*
X03108Y00249*
X03108Y00251*
Y00253*
Y00253*
Y00254*
Y00255*
Y00257*
Y00259*
Y00259*
Y0026*
Y00261*
X03108Y00263*
X03108Y00264*
Y00264*
X03107Y00266*
X03106Y00267*
Y00267*
G37*
G36*
X03096Y00261D02*
X03086Y00255D01*
X03088Y00254*
X0309Y00252*
X03092Y00251*
X03092Y0025*
X03093*
X03094Y00253*
X03095Y00253*
X03095Y00254*
X03095Y00255*
Y00255*
X03096Y00257*
Y00258*
Y00258*
Y0026*
Y00261*
Y00261*
G37*
G36*
X0309Y00401D02*
X0309D01*
Y00401*
X03086Y004*
X03083Y00399*
X0308Y00398*
X0308Y00397*
X0308*
X03078Y00396*
X03078Y00396*
Y00395*
X03077Y00394*
X03077Y00394*
Y00393*
X03077*
X03041Y00331*
X03053Y00326*
X03057Y00325*
X0306Y00324*
X03062*
X03063Y00324*
X03068*
X03072Y00324*
X03073*
X03074Y00325*
X03088*
X03092Y00324*
X03094Y00324*
X03096Y00323*
X03098Y00323*
X03099Y00322*
X03099*
X03102Y00321*
X03105Y0032*
X03111Y00316*
X03113Y00315*
X03115Y00314*
X03116Y00313*
X03117Y00313*
X03118Y00312*
X0312Y00311*
X03121Y0031*
X03122Y0031*
X03123Y00309*
X03123Y00309*
X03124*
X03125Y00308*
X03125Y00307*
X03128Y00306*
X03129Y00304*
X03131Y00304*
X03131Y00303*
X03134Y00301*
X03135Y003*
X03136Y00299*
X03136Y00298*
X03152Y00308*
X03103Y00393*
X03102Y00395*
X031Y00397*
X03099Y00398*
X03099Y00398*
X03098Y00399*
X03098Y00399*
X03095Y004*
X03092Y00401*
X0309Y00401*
G37*
G36*
X03081Y00223D02*
X0308Y00222D01*
X03079Y00222*
X03077*
X03077Y00221*
X03077*
X03075Y00219*
Y00218*
Y00217*
Y00216*
Y00216*
X03076Y00215*
X03076Y00214*
Y00214*
X03077*
X03078Y00213*
X03079Y00213*
X0308*
X03082Y00213*
X03083Y00214*
X03084Y00214*
X03084Y00214*
X03085*
X03083Y00217*
X03083Y00219*
X03082Y00221*
Y00221*
X03081Y00223*
Y00223*
G37*
G36*
X03082Y00253D02*
X03067Y00244D01*
X03069Y00243*
X03071Y00241*
X03072Y0024*
X03072Y0024*
X03073*
X03075Y00238*
X03077Y00237*
X03077Y00237*
X03078*
X0308Y00234*
X03081Y00232*
X03083Y00231*
X03083Y0023*
Y0023*
X03084Y00228*
X03084Y00227*
X03085Y00226*
Y00226*
Y00225*
X03085Y00225*
Y00224*
X03087Y00225*
X03089*
X0309Y00225*
X0309Y00226*
X03095*
X03098Y00225*
X03098*
X03099Y00225*
X03101*
X03101Y00225*
X03101Y00224*
X03102*
X03104Y00223*
X03106Y00222*
X03107Y00222*
X03107Y00221*
X03108Y0022*
X03108Y00219*
X03108Y00219*
Y00219*
X03108Y00219*
X03108Y00222*
X03107Y00226*
X03105Y00229*
X03104Y00232*
X03102Y00234*
X03101Y00237*
X031Y00238*
X03099Y00238*
X03096Y00241*
X03093Y00244*
X03091Y00246*
X03091Y00246*
X0309*
X03087Y00249*
X03084Y00251*
X03083Y00253*
X03082Y00253*
G37*
G36*
X03136Y0022D02*
X03132D01*
X03131Y0022*
X03129Y00219*
X03128Y00217*
X03128Y00217*
Y00216*
X03127Y00216*
Y00215*
X03127Y00215*
X03126Y00214*
X03125Y00213*
X03125Y00212*
Y00211*
Y00211*
Y0021*
Y0021*
Y0021*
Y00209*
Y00208*
Y00208*
Y00207*
Y00207*
X03125Y00207*
X03127*
X03129Y00207*
X0313Y00208*
X03131Y00209*
X03131Y00209*
X03132Y0021*
X03133Y00212*
X03134Y00215*
X03135Y00216*
X03135Y00218*
X03136Y00219*
Y00219*
X03136Y0022*
X03136Y0022*
G37*
G36*
X03016Y00288D02*
X02972Y00213D01*
X02971Y0021*
X0297Y00208*
X0297Y00207*
Y00206*
Y00206*
Y00205*
Y00205*
Y00203*
Y00202*
X0305Y00248*
X03047Y0025*
X03044Y00252*
X03039Y00255*
X03036Y00257*
X03035Y00259*
X03034Y0026*
X03033Y0026*
X03032Y00262*
X03031Y00263*
X03031Y00263*
X03029Y00265*
X03029Y00266*
Y00266*
X03027Y00268*
X03026Y00271*
X03025Y00273*
X03025Y00274*
Y00274*
X03024Y00277*
X03023Y00279*
X03022Y0028*
X03022Y00281*
X0302Y00283*
X03019Y00285*
X03018Y00286*
X03018Y00286*
X03017Y00288*
X03016Y00288*
G37*
G36*
X03158Y00297D02*
X03144Y00289D01*
X03145Y00285*
X03146Y00282*
X03147Y0028*
X03148Y00279*
X03148Y00278*
Y00278*
X0315Y00274*
X0315Y00272*
X03151Y0027*
Y0027*
X03152Y00268*
Y00266*
X03151Y00261*
X0315Y00259*
X0315Y00258*
X0315Y00256*
Y00256*
X03149Y00255*
X03149Y00253*
Y00253*
Y00252*
X03149*
Y00252*
X03148Y00249*
X03147Y00246*
Y00244*
X03147Y00243*
Y00243*
Y00242*
X03147Y0024*
X03146Y00238*
X03146Y00236*
X03146Y00235*
X03145Y00233*
Y00232*
X03144Y0023*
X03144Y00228*
X03143Y00226*
X03143Y00225*
Y00225*
X03142Y00223*
X03141Y00222*
X0314Y0022*
X0314Y0022*
Y00219*
Y00219*
X0314Y00219*
Y00218*
Y00218*
X03138Y00215*
X03138Y00213*
X03137Y00211*
X03136Y00209*
X03135Y00208*
X03135Y00207*
X03134Y00207*
X03132Y00204*
X03129Y00203*
X03128Y00202*
X03126*
X03124Y00203*
X03123Y00203*
X03123*
X0312Y00205*
X0312Y00205*
X03119Y00205*
X03118Y00207*
X03117Y00208*
X03115Y00211*
X03114Y00214*
Y00214*
Y00214*
Y00216*
X03115Y00218*
X03116Y00222*
X03116Y00225*
X03117Y00226*
X03117Y00228*
Y00228*
X03116Y00227*
X03115Y00227*
X03115*
X03113Y00226*
X03112Y00225*
X03112Y00225*
X03112Y00222*
X03113Y0022*
Y00219*
Y00219*
Y00218*
Y00218*
Y00217*
X03112Y00215*
X03112Y00212*
X0311Y00208*
X0311Y00207*
X03109Y00206*
X03108Y00206*
Y00205*
X03107Y00204*
X03105Y00204*
X03104Y00203*
X03099*
X03096Y00204*
X03096Y00204*
X03095*
X03094Y00205*
X03093Y00205*
X03092Y00206*
X03092*
X0309Y00208*
X03089Y0021*
X03087Y00211*
X03087Y00211*
X03085Y0021*
X03083Y00209*
X03081Y00209*
X0308*
X03078Y00209*
X03075Y0021*
X03074Y00211*
X03074Y00211*
X03073Y00212*
X03072Y00213*
X03072Y00213*
X03072Y00214*
X03071Y00215*
Y00215*
X03071Y00217*
X03071Y00219*
X03072Y0022*
Y0022*
X0307*
X03066Y00221*
X03064Y00222*
X03063Y00223*
X03062Y00223*
X03062Y00224*
X03062Y00224*
X03061Y00226*
X03061Y00228*
Y00229*
Y00229*
Y00231*
X03062Y00232*
X03062Y00234*
X03062Y00234*
X03063Y00234*
X03063Y00235*
X03065Y00237*
X03066Y00238*
X03067Y00238*
X03067Y00239*
X03066Y0024*
X03064Y00241*
X03063Y00242*
X03063Y00242*
X02977Y00192*
X02978Y00191*
X02979Y00191*
X02981Y0019*
X02982*
X02982Y0019*
X02985*
Y00189*
X03194*
X03197Y0019*
X03198Y0019*
X03202Y00192*
X03204Y00193*
X03204Y00193*
X03205*
X03206Y00195*
X03206Y00195*
X03207Y00196*
X03207Y00197*
X03208*
X03209Y00201*
X0321Y00204*
Y00206*
X03209Y00207*
Y00207*
Y00208*
X03209Y0021*
X03209Y0021*
Y0021*
X03208Y00211*
X03208Y00211*
Y00212*
Y00212*
X03158Y00297*
G37*
G36*
X03094Y00224D02*
X03091D01*
X03089Y00223*
X03087Y00223*
X03086Y00222*
X03086Y00222*
X03086Y0022*
X03087Y00218*
X03089Y00216*
X03089Y00216*
Y00215*
X03092Y00213*
X03093Y00211*
X03094Y0021*
X03094Y0021*
X03096Y00209*
X03096Y00208*
X03097Y00208*
X03098Y00207*
X03103*
X03104Y00208*
X03105Y00208*
X03105Y00208*
X03107Y0021*
X03108Y00212*
X03108Y00213*
Y00214*
X03108Y00216*
Y00216*
X03107Y00218*
X03106Y00219*
X03106Y0022*
X03104Y00221*
X03103Y00222*
X03102Y00222*
X03101*
X031Y00223*
X03099*
X03099Y00223*
X03099*
X03098Y00223*
X03096*
X03094Y00224*
G37*
G36*
X03071Y00236D02*
X0307D01*
X03069Y00235*
X03068Y00234*
X03066Y00233*
X03066Y00232*
Y00232*
Y00232*
X03066*
X03065Y00231*
X03065Y00231*
Y0023*
Y00229*
Y00229*
Y00228*
X03065Y00227*
X03066Y00226*
Y00226*
Y00225*
X03067Y00225*
X03068Y00225*
X0307*
X03073Y00225*
X03075Y00225*
X03077Y00226*
X03077*
X03079Y00226*
X0308Y00227*
X0308*
Y00227*
X0308Y00228*
Y00228*
X03078Y0023*
X03077Y00232*
X03075Y00233*
X03075Y00233*
X03074Y00234*
X03072Y00235*
X03071Y00236*
X03071Y00236*
G37*
G36*
X03116Y00273D02*
X0311Y00269D01*
X03111Y00267*
X03112Y00265*
Y00265*
X03112Y00263*
Y00262*
Y0026*
Y0026*
Y00258*
X03113Y00257*
Y00256*
Y00255*
Y00254*
Y00253*
X03112Y0025*
Y00249*
X03112Y00247*
Y00247*
X03111Y00246*
X03111Y00245*
Y00245*
X03111Y00244*
X0311Y00243*
Y00243*
X03109Y0024*
X03108Y00238*
X03107Y00237*
X03106Y00236*
X03108Y00233*
X03109Y00231*
X0311Y00229*
X0311Y00229*
X03112Y00229*
X03112Y0023*
X03113*
X03114Y00231*
X03115Y00232*
X03115Y00232*
X03116Y00233*
X03116Y00233*
X03117*
X03117Y00234*
X03118Y00234*
X03119Y00234*
X03119*
Y00235*
X03119Y00235*
Y00236*
Y00238*
X03119Y00241*
X03119Y00243*
Y00243*
Y00244*
Y00246*
X03119Y00249*
X0312Y00251*
X0312Y00252*
Y00252*
X03122Y00256*
X03122Y00259*
Y0026*
Y00261*
X03121Y00262*
X0312Y00264*
X0312Y00265*
X03119Y00265*
X03117Y00268*
X03116Y00271*
X03116Y00272*
Y00273*
G37*
G36*
X0314Y00287D02*
X0312Y00275D01*
X0312Y00273*
X03121Y0027*
X03122Y00268*
X03123Y00268*
Y00268*
X03125Y00265*
X03125Y00263*
X03126Y00262*
Y00261*
Y00258*
X03125Y00255*
X03125Y00253*
X03125Y00252*
X03124Y00251*
Y00251*
X03123Y00247*
X03123Y00246*
Y00244*
Y00244*
X03123Y00241*
X03123Y00238*
X03123Y00236*
Y00236*
Y00235*
Y00235*
Y00234*
Y00234*
Y00233*
X03123Y00232*
X03122Y00231*
Y00231*
X03122Y00229*
X03122Y00229*
Y00228*
X0312Y00225*
X0312Y00222*
X03119Y00219*
Y00217*
X03119Y00216*
Y00216*
Y00215*
X03119Y00212*
X0312Y0021*
X03122Y00209*
X03122Y00208*
X03122Y00208*
X03123Y00208*
Y00209*
Y0021*
Y00211*
X03123Y00212*
X03124Y00214*
X03124Y00215*
X03125Y00216*
X03125Y00216*
X03126Y00217*
X03127Y00219*
X03128Y0022*
X0313Y00221*
X03131Y00222*
X03133Y00223*
X03135*
X03136Y00222*
X03137*
X03137Y00224*
X03138Y00225*
X03138Y00226*
X03139Y00227*
X0314Y00229*
X03141Y00232*
X03141Y00233*
X03141Y00234*
X03142Y00237*
X03143Y00239*
X03143Y00242*
Y00242*
Y00243*
X03144Y00247*
X03144Y0025*
X03145Y00252*
Y00253*
Y00253*
X03145Y00255*
X03146Y00256*
X03146Y00257*
Y00257*
X03147Y0026*
X03147Y00262*
X03147Y00265*
Y00266*
Y00267*
Y00268*
Y00269*
X03147Y00271*
X03146Y00273*
X03145Y00275*
X03144Y00276*
Y00276*
X03142Y0028*
X03141Y00284*
X0314Y00286*
Y00287*
G37*
G36*
X03209Y00165D02*
X03208Y00162D01*
X03207Y0016*
X03206Y00158*
X03206Y00157*
X03203Y00148*
X03214*
X0321Y00158*
X0321Y0016*
X03209Y00162*
X03209Y00164*
Y00165*
G37*
G36*
X03062Y00102D02*
X03056D01*
X03056Y00102*
X03056*
X03055Y00102*
X03054Y00101*
X03053Y00101*
Y001*
X03053Y00099*
X03053Y00098*
Y00096*
Y00096*
Y00094*
X03053Y00093*
Y00093*
X03054Y00091*
X03054Y0009*
X03055Y0009*
X03056*
X03057Y00089*
X03062*
Y00102*
G37*
G36*
X03035Y00126D02*
X03034Y00124D01*
X03034Y00123*
Y00122*
X03032Y00117*
X03038*
X03036Y00123*
X03035Y00125*
X03035Y00126*
Y00126*
G37*
G36*
X03104Y00126D02*
X03098D01*
X03097Y00125*
X03096Y00125*
X03095Y00124*
Y00123*
Y00123*
Y00122*
X03096Y00122*
X03096Y00121*
X03097Y0012*
X03097*
X03099Y0012*
X03104*
Y00126*
G37*
G36*
X03083Y00126D02*
X03081D01*
X03079Y00126*
X03079Y00125*
X03078*
X03077Y00125*
X03077Y00124*
X03076Y00123*
Y00123*
X03075Y0012*
Y00119*
Y00119*
X03076Y00117*
X03076Y00115*
X03077Y00114*
X03077Y00114*
X03078Y00113*
X0308Y00113*
X03081Y00113*
X03081*
X03083Y00113*
X03085Y00113*
X03086Y00114*
X03086*
X03087Y00115*
X03087Y00117*
X03087Y00119*
Y00119*
X03087Y00122*
X03087Y00123*
X03086Y00124*
X03086Y00125*
X03084Y00125*
X03083Y00126*
G37*
G36*
X02139Y00235D02*
X02137D01*
X02136Y00234*
X02135Y00233*
X02134Y00231*
Y00231*
Y00231*
X02143*
X02142Y00232*
X02142Y00233*
X0214Y00235*
X02139Y00235*
G37*
G36*
X0228D02*
X02278D01*
X02277Y00234*
X02275Y00233*
X02275Y00231*
Y00231*
Y00231*
X02284*
X02283Y00232*
X02283Y00233*
X02281Y00235*
X0228Y00235*
G37*
G36*
X02319D02*
X02319D01*
X02317Y00235*
X02317Y00234*
X02316Y00234*
Y00233*
X02315Y00232*
X02315Y00231*
Y00229*
Y00229*
Y00226*
X02315Y00225*
X02315Y00224*
X02316Y00223*
X02317Y00223*
X02317Y00222*
X02318Y00222*
X02319*
X0232Y00222*
X02321Y00223*
X02322Y00223*
Y00223*
X02323Y00225*
X02323Y00227*
Y00228*
Y00229*
X02323Y00231*
X02323Y00232*
X02322Y00233*
Y00233*
X02321Y00234*
X0232Y00235*
X02319Y00235*
G37*
G36*
X02211D02*
X02211D01*
X0221Y00235*
X02209Y00234*
X02208Y00234*
X02208Y00233*
X02207Y00232*
X02207Y00231*
Y00229*
Y00229*
Y00226*
X02207Y00225*
X02208Y00224*
X02208Y00223*
X02209Y00223*
X0221Y00222*
X02211Y00222*
X02211*
X02212Y00222*
X02214Y00223*
X02214Y00223*
Y00223*
X02215Y00225*
X02215Y00227*
Y00228*
Y00229*
X02215Y00231*
X02215Y00232*
X02214Y00233*
X02214Y00234*
X02212Y00235*
X02211Y00235*
G37*
G36*
X02599Y00256D02*
X02597D01*
X02593Y00256*
X02591Y00255*
X02588Y00253*
X02587Y00251*
X02587Y00249*
X02586Y00247*
Y00246*
Y00246*
X02586Y00242*
X02588Y00239*
X02589Y00237*
X02591Y00236*
X02593Y00235*
X02595Y00235*
X02597Y00234*
X02597*
X02601Y00235*
X02603Y00236*
X02605Y00238*
X02606Y0024*
X02607Y00242*
X02608Y00244*
Y00245*
Y00246*
X02608Y00249*
X02606Y00252*
X02605Y00254*
X02602Y00255*
X026Y00256*
X02599Y00256*
G37*
G36*
X02637Y0032D02*
X02593Y00275D01*
X02594Y00267*
X02597Y00268*
X026Y00267*
X02604Y00266*
X02608Y00264*
X02611Y00262*
X02614Y0026*
X02616Y00256*
X02618Y00252*
X02619Y00247*
X02619Y00244*
X02671*
X02674Y00282*
X02637Y0032*
G37*
G36*
X02586Y00372D02*
Y00369D01*
X02585*
X02593Y00284*
X02632Y00325*
X02607Y00351*
X02602*
Y00357*
X02586Y00372*
G37*
G36*
X02678Y00416D02*
Y0041D01*
X02686*
Y00411*
X02684Y00413*
X02682Y00414*
X02678Y00416*
G37*
G36*
X02572Y00415D02*
X02572D01*
X0257Y00415*
X02569Y00414*
X02569Y00412*
Y00412*
X02569Y0041*
X0257Y00409*
X02572Y00409*
X02572*
X02574Y00409*
X02575Y0041*
X02575Y00411*
Y00412*
X02575Y00414*
X02573Y00415*
X02572Y00415*
G37*
G36*
X02672Y00424D02*
X02669D01*
Y00416*
X02672*
Y00424*
G37*
G36*
X0264Y00428D02*
X02618D01*
Y00424*
X0264*
Y00428*
G37*
G36*
X02647Y00423D02*
Y00418D01*
X02612*
Y00422*
X02604Y00421*
X02598Y00419*
X02592Y00418*
X02588Y00416*
X02584Y00414*
X02582Y00412*
Y0041*
X02663*
Y00421*
X02658Y00421*
X02653Y00422*
X02647Y00423*
G37*
G36*
X02682Y00367D02*
X02641Y00325D01*
X02675Y00291*
X02682Y00367*
G37*
G36*
X02685Y00399D02*
X02583D01*
X02583Y00393*
X02586*
Y00381*
X02602Y00366*
X02647*
Y00351*
X02616*
X02637Y0033*
X02683Y00377*
X02685Y00399*
G37*
G36*
X0258Y00387D02*
X02568D01*
Y00375*
X0258*
Y00387*
G37*
G36*
X02641Y0036D02*
X02608D01*
Y00357*
X02641*
Y0036*
G37*
G36*
X02668Y00237D02*
X02666D01*
Y00228*
X02668*
Y00237*
G37*
G36*
X023Y00235D02*
X02299D01*
X02298Y00235*
X02297Y00234*
X02295Y00232*
X02295Y0023*
Y00229*
Y00229*
Y00226*
X02296Y00225*
X02296Y00223*
X02297Y00223*
X02298Y00222*
X02299*
X02301Y00222*
X02301Y00223*
X02303Y00225*
X02303Y00228*
Y00228*
Y00229*
X02303Y00231*
X02302Y00232*
X02302Y00234*
X02301Y00234*
X023Y00235*
G37*
%LNcarduino-3*%
%LPD*%
G36*
X02599Y00252D02*
X02601Y00252D01*
X02602Y0025*
X02603Y00249*
X02604Y00247*
Y00246*
Y00246*
X02604Y00243*
X02603Y00241*
X02602Y0024*
X026Y00239*
X02598Y00238*
X02597*
X02594Y00238*
X02593Y00239*
X02591Y0024*
X0259Y00242*
X0259Y00244*
Y00245*
Y00246*
X0259Y00248*
X02591Y0025*
X02592Y00251*
X02593Y00252*
X02596Y00253*
X02597*
X02599Y00252*
G37*
%LNcarduino-4*%
%LPC*%
G36*
X02597Y00247D02*
X02596D01*
X02596Y00246*
Y00246*
Y00246*
Y00245*
X02596Y00244*
X02597*
X02598Y00245*
X02598Y00245*
Y00246*
X02598Y00246*
X02597Y00247*
G37*
%LNcarduino-5*%
%LPD*%
G54D29*
X03116Y01976D02*
X03135Y01996D01*
X03175*
X03195Y01976*
Y01897*
X03175Y01878*
X03135*
X03116Y01897*
X03057Y01956D02*
X03017D01*
X02998Y01937*
Y01878*
X03057*
X03076Y01897*
X03057Y01917*
X02998*
X02958Y01956D02*
Y01878D01*
Y01917*
X02939Y01937*
X02919Y01956*
X02899*
X02762Y01996D02*
Y01878D01*
X02821*
X0284Y01897*
Y01937*
X02821Y01956*
X02762*
X02722D02*
Y01897D01*
X02703Y01878*
X02644*
Y01956*
X02604Y01878D02*
X02565D01*
X02584*
Y01956*
X02604*
X02506Y01878D02*
Y01956D01*
X02447*
X02427Y01937*
Y01878*
X02368D02*
X02329D01*
X02309Y01897*
Y01937*
X02329Y01956*
X02368*
X02388Y01937*
Y01897*
X02368Y01878*
G54D41*
X03194Y01777D02*
Y01798D01*
X03183Y01808*
X03173Y01798*
Y01777*
Y01792*
X03194*
X03162Y01777D02*
Y01798D01*
X03146*
X03141Y01792*
Y01777*
X03099D02*
Y01798D01*
X03089Y01808*
X03078Y01798*
Y01777*
Y01792*
X03099*
X03068Y01798D02*
Y01777D01*
Y01787*
X03062Y01792*
X03057Y01798*
X03052*
X03015Y01808D02*
Y01777D01*
X03031*
X03036Y01782*
Y01792*
X03031Y01798*
X03015*
X03005D02*
Y01782D01*
X02999Y01777*
X02984*
Y01798*
X02973Y01777D02*
X02963D01*
X02968*
Y01798*
X02973*
X02947Y01777D02*
Y01798D01*
X02931*
X02926Y01792*
Y01777*
X0291D02*
X029D01*
X02894Y01782*
Y01792*
X029Y01798*
X0291*
X02915Y01792*
Y01782*
X0291Y01777*
X02853D02*
Y01808D01*
X02832Y01777*
Y01808*
X02816Y01798D02*
X02805D01*
X028Y01792*
Y01777*
X02816*
X02821Y01782*
X02816Y01787*
X028*
X0279Y01777D02*
Y01798D01*
X02774*
X02769Y01792*
Y01777*
X02753D02*
X02742D01*
X02737Y01782*
Y01792*
X02742Y01798*
X02753*
X02758Y01792*
Y01782*
X02753Y01777*
X02674Y01798D02*
X0269D01*
X02695Y01792*
Y01782*
X0269Y01777*
X02674*
X02658D02*
X02648D01*
X02643Y01782*
Y01792*
X02648Y01798*
X02658*
X02664Y01792*
Y01782*
X02658Y01777*
X02632D02*
Y01798D01*
X02627*
X02622Y01792*
Y01777*
Y01792*
X02616Y01798*
X02611Y01792*
Y01777*
X02601Y01766D02*
Y01798D01*
X02585*
X0258Y01792*
Y01782*
X02585Y01777*
X02601*
X02564Y01798D02*
X02553D01*
X02548Y01792*
Y01777*
X02564*
X02569Y01782*
X02564Y01787*
X02548*
X02532Y01803D02*
Y01798D01*
X02538*
X02527*
X02532*
Y01782*
X02527Y01777*
X02511D02*
X02501D01*
X02506*
Y01798*
X02511*
X02485Y01808D02*
Y01777D01*
X02469*
X02464Y01782*
Y01787*
Y01792*
X02469Y01798*
X02485*
X02454Y01777D02*
X02443D01*
X02448*
Y01808*
X02454*
X02412Y01777D02*
X02422D01*
X02427Y01782*
Y01792*
X02422Y01798*
X02412*
X02406Y01792*
Y01787*
X02427*
X02364Y01808D02*
Y01777D01*
X02349*
X02343Y01782*
Y01787*
Y01792*
X02349Y01798*
X02364*
X02333D02*
Y01782D01*
X02328Y01777*
X02312*
Y01798*
X02301Y01777D02*
X02286D01*
X02281Y01782*
X02286Y01787*
X02296*
X02301Y01792*
X02296Y01798*
X02281*
X0227Y01777D02*
X0226D01*
X02265*
Y01798*
X0227*
X02244Y01777D02*
Y01798D01*
X02228*
X02223Y01792*
Y01777*
X02197D02*
X02207D01*
X02212Y01782*
Y01792*
X02207Y01798*
X02197*
X02191Y01792*
Y01787*
X02212*
X02181Y01777D02*
X02165D01*
X0216Y01782*
X02165Y01787*
X02176*
X02181Y01792*
X02176Y01798*
X0216*
X02149Y01777D02*
X02134D01*
X02128Y01782*
X02134Y01787*
X02144*
X02149Y01792*
X02144Y01798*
X02128*
X02065D02*
X02081D01*
X02086Y01792*
Y01782*
X02081Y01777*
X02065*
X0205Y01798D02*
X02039D01*
X02034Y01792*
Y01777*
X0205*
X02055Y01782*
X0205Y01787*
X02034*
X02023Y01798D02*
Y01777D01*
Y01787*
X02018Y01792*
X02013Y01798*
X02008*
X01971Y01808D02*
Y01777D01*
X01987*
X01992Y01782*
Y01792*
X01987Y01798*
X01971*
X0196Y01777D02*
Y01782D01*
X01955*
Y01777*
X0196*
X03194Y01746D02*
Y01714D01*
Y0173*
X03173*
Y01746*
Y01714*
X03157Y01735D02*
X03146D01*
X03141Y0173*
Y01714*
X03157*
X03162Y01719*
X03157Y01725*
X03141*
X03131Y01735D02*
Y01714D01*
Y01725*
X03125Y0173*
X0312Y01735*
X03115*
X03078Y01746D02*
Y01714D01*
X03094*
X03099Y01719*
Y0173*
X03094Y01735*
X03078*
X03068D02*
Y01719D01*
X03062Y01714*
X03057Y01719*
X03052Y01714*
X03047Y01719*
Y01735*
X03031D02*
X0302D01*
X03015Y0173*
Y01714*
X03031*
X03036Y01719*
X03031Y01725*
X03015*
X03005Y01735D02*
Y01714D01*
Y01725*
X02999Y0173*
X02994Y01735*
X02989*
X02957Y01714D02*
X02968D01*
X02973Y01719*
Y0173*
X02968Y01735*
X02957*
X02952Y0173*
Y01725*
X02973*
X0291Y01735D02*
X029Y01714D01*
X02889Y01735*
X02863Y01714D02*
X02873D01*
X02879Y01719*
Y0173*
X02873Y01735*
X02863*
X02858Y0173*
Y01725*
X02879*
X02847Y01735D02*
Y01714D01*
Y01725*
X02842Y0173*
X02837Y01735*
X02832*
X02816Y01714D02*
X028D01*
X02795Y01719*
X028Y01725*
X02811*
X02816Y0173*
X02811Y01735*
X02795*
X02784Y01714D02*
X02774D01*
X02779*
Y01735*
X02784*
X02753Y01714D02*
X02742D01*
X02737Y01719*
Y0173*
X02742Y01735*
X02753*
X02758Y0173*
Y01719*
X02753Y01714*
X02727D02*
Y01735D01*
X02711*
X02706Y0173*
Y01714*
X02664D02*
Y01746D01*
X02648*
X02643Y0174*
Y0173*
X02648Y01725*
X02664*
X02653D02*
X02643Y01714D01*
X02632D02*
X02622D01*
X02627*
Y01746*
X02632Y0174*
X02601Y01709D02*
X02595Y01714D01*
Y01719*
X02601*
Y01714*
X02595*
X02601Y01709*
X02606Y01704*
X02543Y01714D02*
Y01735D01*
X02532Y01746*
X02522Y01735*
Y01714*
Y0173*
X02543*
X02511Y01735D02*
Y01719D01*
X02506Y01714*
X0249*
Y01735*
X02469Y01704D02*
X02464D01*
X02459Y01709*
Y01735*
X02475*
X0248Y0173*
Y01719*
X02475Y01714*
X02459*
X02448Y01735D02*
Y01719D01*
X02443Y01714*
X02427*
Y01735*
X02417Y01714D02*
X02401D01*
X02396Y01719*
X02401Y01725*
X02412*
X02417Y0173*
X02412Y01735*
X02396*
X0238Y0174D02*
Y01735D01*
X02385*
X02375*
X0238*
Y01719*
X02375Y01714*
X02307D02*
X02328D01*
X02307Y01735*
Y0174*
X02312Y01746*
X02322*
X02328Y0174*
X02296D02*
X02291Y01746D01*
X02281*
X02275Y0174*
Y01719*
X02281Y01714*
X02291*
X02296Y01719*
Y0174*
X02265Y01714D02*
X02254D01*
X0226*
Y01746*
X02265Y0174*
X02239D02*
X02233Y01746D01*
X02223*
X02218Y0174*
Y01735*
X02223Y0173*
X02218Y01725*
Y01719*
X02223Y01714*
X02233*
X02239Y01719*
Y01725*
X02233Y0173*
X02239Y01735*
Y0174*
X02233Y0173D02*
X02223D01*
X02207Y01714D02*
Y01719D01*
X02202*
Y01714*
X02207*
X02149Y01746D02*
X02128D01*
X02139*
Y01714*
X02118Y01746D02*
Y01714D01*
Y0173*
X02113Y01735*
X02102*
X02097Y0173*
Y01714*
X02086D02*
X02076D01*
X02081*
Y01735*
X02086*
X0206Y01714D02*
X02044D01*
X02039Y01719*
X02044Y01725*
X02055*
X0206Y0173*
X02055Y01735*
X02039*
X01997Y01714D02*
X01987D01*
X01992*
Y01735*
X01997*
X01971Y01714D02*
X01955D01*
X0195Y01719*
X01955Y01725*
X01966*
X01971Y0173*
X01966Y01735*
X0195*
X01903D02*
X01892D01*
X01887Y0173*
Y01714*
X01903*
X01908Y01719*
X01903Y01725*
X01887*
X03188Y01652D02*
Y01678D01*
Y01667*
X03194*
X03183*
X03188*
Y01678*
X03183Y01683*
X03167Y01673D02*
Y01657D01*
X03162Y01652*
X03146*
Y01673*
X03136Y01652D02*
X03125D01*
X03131*
Y01683*
X03136*
X0311Y01652D02*
X03099D01*
X03104*
Y01683*
X0311*
X03083Y01673D02*
Y01657D01*
X03078Y01652*
X03062*
Y01646*
X03068Y01641*
X03073*
X03062Y01652D02*
Y01673D01*
X03015Y01652D02*
Y01678D01*
Y01667*
X0302*
X0301*
X03015*
Y01678*
X0301Y01683*
X02994Y01673D02*
Y01657D01*
X02989Y01652*
X02973*
Y01673*
X02963Y01652D02*
Y01673D01*
X02947*
X02942Y01667*
Y01652*
X0291Y01673D02*
X02926D01*
X02931Y01667*
Y01657*
X02926Y01652*
X0291*
X02894Y01678D02*
Y01673D01*
X029*
X02889*
X02894*
Y01657*
X02889Y01652*
X02873D02*
X02863D01*
X02868*
Y01673*
X02873*
X02842Y01652D02*
X02832D01*
X02826Y01657*
Y01667*
X02832Y01673*
X02842*
X02847Y01667*
Y01657*
X02842Y01652*
X02816D02*
Y01673D01*
X028*
X02795Y01667*
Y01652*
X02779Y01673D02*
X02769D01*
X02763Y01667*
Y01652*
X02779*
X02784Y01657*
X02779Y01662*
X02763*
X02753Y01652D02*
X02742D01*
X02748*
Y01683*
X02753*
X02695Y01652D02*
Y01673D01*
X0269*
X02685Y01667*
Y01652*
Y01667*
X02679Y01673*
X02674Y01667*
Y01652*
X02664D02*
X02653D01*
X02658*
Y01673*
X02664*
X02616D02*
X02632D01*
X02637Y01667*
Y01657*
X02632Y01652*
X02616*
X02606Y01673D02*
Y01652D01*
Y01662*
X02601Y01667*
X02595Y01673*
X0259*
X02569Y01652D02*
X02559D01*
X02553Y01657*
Y01667*
X02559Y01673*
X02569*
X02574Y01667*
Y01657*
X02569Y01652*
X02522Y01673D02*
X02538D01*
X02543Y01667*
Y01657*
X02538Y01652*
X02522*
X02506D02*
X02496D01*
X0249Y01657*
Y01667*
X02496Y01673*
X02506*
X02511Y01667*
Y01657*
X02506Y01652*
X0248D02*
Y01673D01*
X02464*
X02459Y01667*
Y01652*
X02443Y01678D02*
Y01673D01*
X02448*
X02438*
X02443*
Y01657*
X02438Y01652*
X02422Y01673D02*
Y01652D01*
Y01662*
X02417Y01667*
X02412Y01673*
X02406*
X02385Y01652D02*
X02375D01*
X0237Y01657*
Y01667*
X02375Y01673*
X02385*
X02391Y01667*
Y01657*
X02385Y01652*
X02359D02*
X02349D01*
X02354*
Y01683*
X02359*
X02333Y01652D02*
X02322D01*
X02328*
Y01683*
X02333*
X02291Y01652D02*
X02301D01*
X02307Y01657*
Y01667*
X02301Y01673*
X02291*
X02286Y01667*
Y01662*
X02307*
X02275Y01673D02*
Y01652D01*
Y01662*
X0227Y01667*
X02265Y01673*
X0226*
X02212Y01641D02*
Y01673D01*
X02197*
X02191Y01667*
Y01657*
X02197Y01652*
X02212*
X02181Y01673D02*
Y01652D01*
Y01662*
X02176Y01667*
X0217Y01673*
X02165*
X02144Y01652D02*
X02134D01*
X02128Y01657*
Y01667*
X02134Y01673*
X02144*
X02149Y01667*
Y01657*
X02144Y01652*
X02113Y01678D02*
Y01673D01*
X02118*
X02107*
X02113*
Y01657*
X02107Y01652*
X02086D02*
X02076D01*
X02071Y01657*
Y01667*
X02076Y01673*
X02086*
X02092Y01667*
Y01657*
X02086Y01652*
X02055Y01678D02*
Y01673D01*
X0206*
X0205*
X02055*
Y01657*
X0205Y01652*
X02034Y01673D02*
Y01657D01*
X02029Y01652*
X02013*
Y01646*
X02018Y01641*
X02023*
X02013Y01652D02*
Y01673D01*
X02002Y01641D02*
Y01673D01*
X01987*
X01981Y01667*
Y01657*
X01987Y01652*
X02002*
X01971D02*
X0196D01*
X01966*
Y01673*
X01971*
X01945Y01652D02*
Y01673D01*
X01929*
X01924Y01667*
Y01652*
X01903Y01641D02*
X01897D01*
X01892Y01646*
Y01673*
X01908*
X01913Y01667*
Y01657*
X01908Y01652*
X01892*
X03194Y01621D02*
Y01589D01*
X03178*
X03173Y01594*
Y016*
Y01605*
X03178Y0161*
X03194*
X03157Y01589D02*
X03146D01*
X03141Y01594*
Y01605*
X03146Y0161*
X03157*
X03162Y01605*
Y01594*
X03157Y01589*
X03125Y0161D02*
X03115D01*
X0311Y01605*
Y01589*
X03125*
X03131Y01594*
X03125Y016*
X0311*
X03099Y0161D02*
Y01589D01*
Y016*
X03094Y01605*
X03089Y0161*
X03083*
X03047Y01621D02*
Y01589D01*
X03062*
X03068Y01594*
Y01605*
X03062Y0161*
X03047*
X03036Y01589D02*
Y01594D01*
X03031*
Y01589*
X03036*
X02957Y01615D02*
X02963Y01621D01*
X02973*
X02978Y01615*
Y0161*
X02973Y01605*
X02963*
X02957Y016*
Y01594*
X02963Y01589*
X02973*
X02978Y01594*
X02931Y01589D02*
X02942D01*
X02947Y01594*
Y01605*
X02942Y0161*
X02931*
X02926Y01605*
Y016*
X02947*
X029Y01589D02*
X0291D01*
X02915Y01594*
Y01605*
X0291Y0161*
X029*
X02894Y01605*
Y016*
X02915*
X02832Y0161D02*
X02847D01*
X02853Y01605*
Y01594*
X02847Y01589*
X02832*
X02816Y0161D02*
X02805D01*
X028Y01605*
Y01589*
X02816*
X02821Y01594*
X02816Y016*
X028*
X0279Y0161D02*
Y01589D01*
Y016*
X02784Y01605*
X02779Y0161*
X02774*
X02737Y01621D02*
Y01589D01*
X02753*
X02758Y01594*
Y01605*
X02753Y0161*
X02737*
X02727D02*
Y01594D01*
X02721Y01589*
X02706*
Y0161*
X02695Y01589D02*
X02685D01*
X0269*
Y0161*
X02695*
X02669Y01589D02*
Y0161D01*
X02653*
X02648Y01605*
Y01589*
X02632D02*
X02622D01*
X02616Y01594*
Y01605*
X02622Y0161*
X02632*
X02637Y01605*
Y01594*
X02632Y01589*
X02606D02*
Y01594D01*
X02601*
Y01589*
X02606*
X02569Y01579D02*
X02564D01*
X02559Y01584*
Y0161*
X02574*
X0258Y01605*
Y01594*
X02574Y01589*
X02559*
X02532D02*
X02543D01*
X02548Y01594*
Y01605*
X02543Y0161*
X02532*
X02527Y01605*
Y016*
X02548*
X02517Y0161D02*
Y01589D01*
Y016*
X02511Y01605*
X02506Y0161*
X02501*
X02475Y01579D02*
X02469D01*
X02464Y01584*
Y0161*
X0248*
X02485Y01605*
Y01594*
X0248Y01589*
X02464*
X02438D02*
X02448D01*
X02454Y01594*
Y01605*
X02448Y0161*
X02438*
X02433Y01605*
Y016*
X02454*
X02422Y01589D02*
X02412D01*
X02417*
Y01621*
X02422*
X02396Y0161D02*
Y01594D01*
X02391Y01589*
X02375*
Y01584*
X0238Y01579*
X02385*
X02375Y01589D02*
Y0161D01*
X02359Y01615D02*
Y0161D01*
X02364*
X02354*
X02359*
Y01594*
X02354Y01589*
X02333Y0161D02*
X02322D01*
X02317Y01605*
Y01589*
X02333*
X02338Y01594*
X02333Y016*
X02317*
X02307Y01589D02*
Y01621D01*
Y016D02*
X02291Y0161D01*
X02307Y016D02*
X02291Y01589D01*
X0227Y0161D02*
X0226D01*
X02254Y01605*
Y01589*
X0227*
X02275Y01594*
X0227Y016*
X02254*
X02223Y0161D02*
X02239D01*
X02244Y01605*
Y01594*
X02239Y01589*
X02223*
X02212D02*
X02197D01*
X02191Y01594*
X02197Y016*
X02207*
X02212Y01605*
X02207Y0161*
X02191*
X02181Y01589D02*
Y01594D01*
X02176*
Y01589*
X02181*
X02134Y0161D02*
X02149D01*
X02155Y01605*
Y01594*
X02149Y01589*
X02134*
X02118D02*
X02107D01*
X02102Y01594*
Y01605*
X02107Y0161*
X02118*
X02123Y01605*
Y01594*
X02118Y01589*
X02092D02*
Y0161D01*
X02086*
X02081Y01605*
Y01589*
Y01605*
X02076Y0161*
X02071Y01605*
Y01589*
X02023D02*
Y01615D01*
Y01605*
X02029*
X02018*
X02023*
Y01615*
X02018Y01621*
X01997Y01589D02*
X01987D01*
X01981Y01594*
Y01605*
X01987Y0161*
X01997*
X02002Y01605*
Y01594*
X01997Y01589*
X01971Y0161D02*
Y01589D01*
Y016*
X01966Y01605*
X0196Y0161*
X01955*
X03194Y01527D02*
Y01548D01*
X03188*
X03183Y01542*
Y01527*
Y01542*
X03178Y01548*
X03173Y01542*
Y01527*
X03157D02*
X03146D01*
X03141Y01532*
Y01542*
X03146Y01548*
X03157*
X03162Y01542*
Y01532*
X03157Y01527*
X03131Y01548D02*
Y01527D01*
Y01537*
X03125Y01542*
X0312Y01548*
X03115*
X03083Y01527D02*
X03094D01*
X03099Y01532*
Y01542*
X03094Y01548*
X03083*
X03078Y01542*
Y01537*
X03099*
X03036Y01527D02*
X03026D01*
X03031*
Y01548*
X03036*
X0301Y01527D02*
Y01548D01*
X02994*
X02989Y01542*
Y01527*
X02973D02*
Y01553D01*
Y01542*
X02978*
X02968*
X02973*
Y01553*
X02968Y01558*
X02947Y01527D02*
X02936D01*
X02931Y01532*
Y01542*
X02936Y01548*
X02947*
X02952Y01542*
Y01532*
X02947Y01527*
X02921Y01548D02*
Y01527D01*
Y01537*
X02915Y01542*
X0291Y01548*
X02905*
X02889Y01527D02*
Y01548D01*
X02884*
X02879Y01542*
Y01527*
Y01542*
X02873Y01548*
X02868Y01542*
Y01527*
X02853Y01548D02*
X02842D01*
X02837Y01542*
Y01527*
X02853*
X02858Y01532*
X02853Y01537*
X02837*
X02821Y01553D02*
Y01548D01*
X02826*
X02816*
X02821*
Y01532*
X02816Y01527*
X028D02*
X0279D01*
X02795*
Y01548*
X028*
X02769Y01527D02*
X02758D01*
X02753Y01532*
Y01542*
X02758Y01548*
X02769*
X02774Y01542*
Y01532*
X02769Y01527*
X02742D02*
Y01548D01*
X02727*
X02721Y01542*
Y01527*
X02706Y01521D02*
X027Y01527D01*
Y01532*
X02706*
Y01527*
X027*
X02706Y01521*
X02711Y01516*
X02648Y01548D02*
Y01527D01*
Y01537*
X02643Y01542*
X02637Y01548*
X02632*
X02601Y01527D02*
X02611D01*
X02616Y01532*
Y01542*
X02611Y01548*
X02601*
X02595Y01542*
Y01537*
X02616*
X02564Y01516D02*
Y01548D01*
X0258*
X02585Y01542*
Y01532*
X0258Y01527*
X02564*
X02553Y01548D02*
Y01532D01*
X02548Y01527*
X02532*
Y01548*
X02522Y01527D02*
X02511D01*
X02517*
Y01548*
X02522*
X02496D02*
Y01527D01*
Y01537*
X0249Y01542*
X02485Y01548*
X0248*
X02448Y01527D02*
X02459D01*
X02464Y01532*
Y01542*
X02459Y01548*
X02448*
X02443Y01542*
Y01537*
X02464*
X02412Y01558D02*
Y01527D01*
X02427*
X02433Y01532*
Y01542*
X02427Y01548*
X02412*
X0237Y01516D02*
Y01548D01*
X02354*
X02349Y01542*
Y01532*
X02354Y01527*
X0237*
X02333Y01548D02*
X02322D01*
X02317Y01542*
Y01527*
X02333*
X02338Y01532*
X02333Y01537*
X02317*
X02307Y01548D02*
Y01527D01*
Y01537*
X02301Y01542*
X02296Y01548*
X02291*
X0227Y01553D02*
Y01548D01*
X02275*
X02265*
X0227*
Y01532*
X02265Y01527*
X02249D02*
X02233D01*
X02228Y01532*
X02233Y01537*
X02244*
X02249Y01542*
X02244Y01548*
X02228*
X02181D02*
X0217D01*
X02165Y01542*
Y01527*
X02181*
X02186Y01532*
X02181Y01537*
X02165*
X02155Y01527D02*
Y01548D01*
X02139*
X02134Y01542*
Y01527*
X02102Y01558D02*
Y01527D01*
X02118*
X02123Y01532*
Y01542*
X02118Y01548*
X02102*
X0206Y01527D02*
X0205D01*
X02055*
Y01548*
X0206*
X02034Y01527D02*
Y01548D01*
X02018*
X02013Y01542*
Y01527*
X02002D02*
X01987D01*
X01981Y01532*
X01987Y01537*
X01997*
X02002Y01542*
X01997Y01548*
X01981*
X01966Y01553D02*
Y01548D01*
X01971*
X0196*
X01966*
Y01532*
X0196Y01527*
X01945Y01548D02*
Y01527D01*
Y01537*
X01939Y01542*
X01934Y01548*
X01929*
X01913D02*
Y01532D01*
X01908Y01527*
X01892*
Y01548*
X01861D02*
X01876D01*
X01882Y01542*
Y01532*
X01876Y01527*
X01861*
X0185Y01542D02*
X01829D01*
X03188Y01491D02*
Y01485D01*
X03194*
X03183*
X03188*
Y0147*
X03183Y01464*
X03167D02*
X03157D01*
X03162*
Y01485*
X03167*
X03136Y01464D02*
X03125D01*
X0312Y0147*
Y0148*
X03125Y01485*
X03136*
X03141Y0148*
Y0147*
X03136Y01464*
X0311D02*
Y01485D01*
X03094*
X03089Y0148*
Y01464*
X03078D02*
X03062D01*
X03057Y0147*
X03062Y01475*
X03073*
X03078Y0148*
X03073Y01485*
X03057*
X03047Y01464D02*
Y0147D01*
X03041*
Y01464*
X03047*
M02*