G04 Layer_Physical_Order=1*
G04 Layer_Color=255*
%FSLAX25Y25*%
%MOIN*%
G70*
G01*
G75*
%ADD10R,0.01575X0.05905*%
%ADD11R,0.06299X0.05512*%
%ADD12R,0.05709X0.05118*%
%ADD13R,0.07480X0.07480*%
%ADD14R,0.05905X0.03937*%
%ADD15R,0.05118X0.03543*%
%ADD16R,0.05709X0.04528*%
%ADD17O,0.01378X0.08268*%
%ADD18R,0.03937X0.09449*%
%ADD19R,0.12992X0.09449*%
%ADD20R,0.05118X0.05118*%
%ADD21R,0.03543X0.05118*%
%ADD22R,0.06890X0.07677*%
%ADD23O,0.02165X0.06496*%
%ADD24O,0.06496X0.02165*%
%ADD25R,0.04528X0.05709*%
%ADD26R,0.07677X0.08858*%
%ADD27R,0.03000X0.05000*%
%ADD28R,0.10512X0.10000*%
%ADD29C,0.01000*%
%ADD30C,0.01968*%
%ADD31C,0.00787*%
%ADD32R,0.06063X0.06063*%
%ADD33C,0.06063*%
%ADD34R,0.06102X0.06102*%
%ADD35C,0.06102*%
%ADD36R,0.05905X0.05905*%
%ADD37C,0.05905*%
%ADD38C,0.05000*%
D10*
X170079Y20999D02*
D03*
X172638D02*
D03*
X175197D02*
D03*
X180315D02*
D03*
D11*
X162599Y20113D02*
D03*
X187795D02*
D03*
D12*
X161713Y10468D02*
D03*
X188681D02*
D03*
D13*
X170473D02*
D03*
X179921D02*
D03*
D14*
X203300Y6498D02*
D03*
Y13782D02*
D03*
D15*
X139000Y13445D02*
D03*
Y6555D02*
D03*
D16*
X149500Y13443D02*
D03*
Y6357D02*
D03*
X269503Y36868D02*
D03*
Y29781D02*
D03*
X269500Y8000D02*
D03*
Y15087D02*
D03*
D17*
X218500Y7500D02*
D03*
X221059D02*
D03*
X223618D02*
D03*
X226177D02*
D03*
X228736D02*
D03*
X231295D02*
D03*
X233854D02*
D03*
X236413D02*
D03*
X238972D02*
D03*
X241531D02*
D03*
X244090D02*
D03*
X246650D02*
D03*
X249209D02*
D03*
X251767D02*
D03*
X218500Y34665D02*
D03*
X221059D02*
D03*
X223618D02*
D03*
X226177D02*
D03*
X228736D02*
D03*
X231295D02*
D03*
X233854D02*
D03*
X236413D02*
D03*
X238972D02*
D03*
X241531D02*
D03*
X244090D02*
D03*
X246650D02*
D03*
X249209D02*
D03*
X251767D02*
D03*
D18*
X307858Y30285D02*
D03*
X298803D02*
D03*
X289748D02*
D03*
D19*
X298803Y7451D02*
D03*
D20*
X51131Y61800D02*
D03*
X42469D02*
D03*
X51131Y43800D02*
D03*
X42469D02*
D03*
X51131Y25800D02*
D03*
X42469D02*
D03*
X51131Y9800D02*
D03*
X42469D02*
D03*
D21*
X212745Y50300D02*
D03*
X205855D02*
D03*
X205510Y60700D02*
D03*
X212400D02*
D03*
X76576Y43800D02*
D03*
X69686D02*
D03*
X76575Y25800D02*
D03*
X69686D02*
D03*
X76575Y61800D02*
D03*
X69686D02*
D03*
X76576Y9800D02*
D03*
X69686D02*
D03*
D22*
X254372Y68743D02*
D03*
Y49057D02*
D03*
X230828Y68743D02*
D03*
Y49057D02*
D03*
D23*
X186624Y67716D02*
D03*
X183474D02*
D03*
X180324D02*
D03*
X177175D02*
D03*
X174025D02*
D03*
X170876D02*
D03*
X167726D02*
D03*
X164576D02*
D03*
Y34646D02*
D03*
X167726D02*
D03*
X170876D02*
D03*
X174025D02*
D03*
X177175D02*
D03*
X180324D02*
D03*
X183474D02*
D03*
X186624D02*
D03*
D24*
X159065Y62205D02*
D03*
Y59055D02*
D03*
Y55905D02*
D03*
Y52756D02*
D03*
Y49606D02*
D03*
Y46457D02*
D03*
Y43307D02*
D03*
Y40157D02*
D03*
X192135D02*
D03*
Y43307D02*
D03*
Y46457D02*
D03*
Y49606D02*
D03*
Y52756D02*
D03*
Y55905D02*
D03*
Y59055D02*
D03*
Y62205D02*
D03*
D25*
X283260Y46868D02*
D03*
X290347D02*
D03*
X302803D02*
D03*
X309890D02*
D03*
D26*
X273976Y66868D02*
D03*
X284803D02*
D03*
X301976D02*
D03*
X312803D02*
D03*
D27*
X335600Y8700D02*
D03*
D28*
X326309D02*
D03*
D29*
X233854Y11118D02*
X233903D01*
X273458Y26518D02*
Y35543D01*
X272132Y36868D02*
X273458Y35543D01*
X269503Y36868D02*
X272132D01*
X251767Y34665D02*
Y40233D01*
X250000Y42000D02*
X251767Y40233D01*
X244500Y42000D02*
X250000D01*
X243000Y43500D02*
X244500Y42000D01*
X243000Y43500D02*
Y57000D01*
X239300Y60700D02*
X243000Y57000D01*
X212400Y60700D02*
X239300D01*
X241531Y34665D02*
Y40469D01*
X240000Y42000D02*
X241531Y40469D01*
X221045Y42000D02*
X240000D01*
X212745Y50300D02*
X221045Y42000D01*
X200003Y52318D02*
X205855D01*
X159903Y62205D02*
Y100918D01*
X118000Y123500D02*
X137321D01*
X159903Y100918D01*
X205500Y60710D02*
Y137000D01*
Y60710D02*
X205510Y60700D01*
X51131Y25800D02*
Y43800D01*
X298803Y30285D02*
Y36518D01*
X302803Y40518D01*
Y46868D01*
X244090Y7500D02*
X246650D01*
X307858Y30285D02*
Y37518D01*
X309890Y39549D01*
Y46868D01*
Y55318D02*
X312803Y58231D01*
Y66868D01*
X289748Y30285D02*
Y46269D01*
X226177Y2318D02*
X226277Y2218D01*
X233754D01*
X233854Y2318D01*
Y7500D01*
Y2318D02*
X233954Y2218D01*
X243990D01*
X244090Y2318D01*
Y7500D01*
X283260Y51268D02*
X284810Y52818D01*
X308340D01*
X309890Y51268D01*
Y46868D02*
Y51268D01*
X42469Y23175D02*
Y25800D01*
Y23175D02*
X45103Y20541D01*
X56390D01*
X61167Y25318D01*
X69686D02*
Y25800D01*
X335600Y168100D02*
X340200Y172700D01*
X335600Y8700D02*
Y168100D01*
X123445Y6555D02*
X139000D01*
X188681Y5290D02*
X191753Y2218D01*
X226077D01*
X226177Y2318D01*
Y7500D01*
X161603Y6357D02*
X161713Y6466D01*
X289748Y3123D02*
X291253Y1618D01*
X334700D01*
X335600Y2518D01*
Y8700D01*
X177175Y63768D02*
Y67716D01*
X175925Y62518D02*
X177175Y63768D01*
X172125Y62518D02*
X175925D01*
X170876Y63768D02*
X172125Y62518D01*
X170876Y63768D02*
Y67716D01*
X102200Y17800D02*
X102803Y18403D01*
Y37718D01*
X135103Y72700D02*
X155047Y52756D01*
X159065D01*
X6103Y148603D02*
X10200Y152700D01*
X6103Y39118D02*
Y148603D01*
Y39118D02*
X7503Y37718D01*
X16203D01*
X82282D02*
X102200Y17800D01*
X298803Y7451D02*
Y18218D01*
Y30285D01*
X325059Y92518D02*
X326309Y91268D01*
X275226Y92518D02*
X325059D01*
X273976Y91268D02*
X275226Y92518D01*
X273976Y66868D02*
Y91268D01*
X102200Y7800D02*
X107951Y2049D01*
X141134D01*
X145442Y6357D01*
X149500D01*
X186624Y34646D02*
Y34718D01*
X265503Y18563D02*
X273458Y26518D01*
X265503Y11818D02*
Y18563D01*
Y11818D02*
X265603Y11718D01*
X276503D01*
X283260Y18474D01*
X236413Y28407D02*
Y34665D01*
X233903Y25897D02*
X236413Y28407D01*
X233854Y7500D02*
Y11118D01*
X192135Y59055D02*
X197303D01*
X198603Y60355D01*
Y81718D01*
Y53718D02*
X200003Y52318D01*
X205855Y50300D02*
Y52318D01*
X205510Y56818D02*
Y60700D01*
Y56818D02*
X209752Y52576D01*
Y46718D02*
Y52576D01*
X209652Y46618D02*
X209752Y46718D01*
X201554Y46618D02*
X209652D01*
X196503Y51669D02*
X201554Y46618D01*
X196503Y51669D02*
Y55805D01*
X196403Y55905D02*
X196503Y55805D01*
X192135Y55905D02*
X196403D01*
X192135Y62205D02*
X195003D01*
X192135Y43307D02*
X196403D01*
X261253Y66868D02*
X273976D01*
X259803Y65418D02*
X261253Y66868D01*
X259803Y49157D02*
Y65418D01*
X259703Y49057D02*
X259803Y49157D01*
X254372Y49057D02*
X259703D01*
X149500Y13443D02*
X152703D01*
X152803Y13543D01*
Y27518D01*
X154803Y29518D01*
X158753D01*
X160753Y27518D01*
X170403D01*
X167726Y30990D02*
Y34646D01*
X166253Y29518D02*
X167726Y30990D01*
X161603Y29518D02*
X166253D01*
X160003Y31118D02*
X161603Y29518D01*
X151203Y27039D02*
Y31018D01*
X145103Y20939D02*
X151203Y27039D01*
X145103Y9368D02*
Y20939D01*
X142291Y6555D02*
X145103Y9368D01*
X139000Y6555D02*
X142291D01*
X147378Y30343D02*
X149753Y32718D01*
X164576D02*
Y34646D01*
X217603Y55118D02*
X223663Y49057D01*
X230828D01*
X174153Y49789D02*
Y57618D01*
X180324Y63789D01*
Y67716D01*
X154803Y55905D02*
X159065D01*
X153116Y57592D02*
X154803Y55905D01*
X153116Y57592D02*
Y68005D01*
X159065Y62205D02*
X159903D01*
X188703Y72065D02*
X191403Y69365D01*
X208439Y13782D02*
X209903Y12318D01*
X203300Y13782D02*
X208439D01*
X183474Y40288D02*
X183903Y40718D01*
X183474Y34646D02*
Y40288D01*
X170503Y27818D02*
X174025Y31340D01*
X249209Y28218D02*
Y34665D01*
Y28218D02*
X258303Y19123D01*
Y14618D02*
Y19123D01*
Y14618D02*
X264921Y8000D01*
X269500D01*
X76575Y25800D02*
Y25818D01*
X258703Y5618D02*
Y11268D01*
X256653Y13318D02*
X258703Y11268D01*
X239072Y13318D02*
X256653D01*
X238972Y13218D02*
X239072Y13318D01*
X238972Y7500D02*
Y13218D01*
X265190Y29781D02*
X269503D01*
X263803Y31168D02*
X265190Y29781D01*
X212400Y58818D02*
Y60700D01*
X143710Y52700D02*
X149953Y46457D01*
X159065D01*
X180269Y37394D02*
Y50368D01*
X180324Y34646D02*
Y37394D01*
X340200Y82700D02*
X344303Y78597D01*
Y16218D02*
Y78597D01*
X192135Y40157D02*
X194203D01*
X172638Y20999D02*
Y24818D01*
X216253Y15895D02*
X218932D01*
X221059Y13768D01*
Y7500D02*
Y13768D01*
X218500Y7500D02*
Y12594D01*
X216799Y14295D02*
X218500Y12594D01*
X213080Y14295D02*
X216799D01*
X175197Y20999D02*
Y24298D01*
X312803Y66868D02*
Y88418D01*
X51131Y61800D02*
X54813Y58118D01*
X76476D01*
X76575Y58218D01*
Y61800D01*
X97118Y2718D02*
X102200Y7800D01*
X49551Y2718D02*
X97118D01*
X42469Y9800D02*
X49551Y2718D01*
X169936Y24061D02*
X170079Y20999D01*
X158260Y24061D02*
X169936D01*
X156403Y25918D02*
X158260Y24061D01*
X196903Y8898D02*
Y16918D01*
Y8898D02*
X199303Y6498D01*
X203300D01*
X51131Y9800D02*
X54913Y6018D01*
X77131Y6118D01*
X236413Y14878D02*
X238753Y17218D01*
X236413Y7500D02*
Y14878D01*
X164576Y34646D02*
Y44410D01*
X261903Y27931D02*
X263753Y29781D01*
X261903Y17118D02*
Y27931D01*
X218603Y19518D02*
X223618Y14503D01*
Y7500D02*
Y14503D01*
X231295Y7500D02*
Y13726D01*
X118049Y3649D02*
X122200Y7800D01*
X109418Y3649D02*
X118049D01*
X108049Y5018D02*
X109418Y3649D01*
X108049Y5018D02*
Y61272D01*
X103053Y66268D02*
X108049Y61272D01*
X69686Y61800D02*
Y65018D01*
X70936Y66268D01*
X78253D02*
X79503Y65018D01*
Y58118D02*
Y65018D01*
X70203Y48818D02*
X79503Y58118D01*
X56149Y48818D02*
X70203D01*
X51131Y43800D02*
X56149Y48818D01*
X244090Y26331D02*
X253303Y17118D01*
X244090Y26331D02*
Y34665D01*
X340200Y142700D02*
X344303Y146803D01*
Y176718D01*
X192135Y46457D02*
X196214D01*
X201548Y44361D02*
X205010D01*
X196303Y49606D02*
X201548Y44361D01*
X192135Y49606D02*
X196303D01*
X170876Y34646D02*
Y38390D01*
X186624Y61759D02*
Y67716D01*
X158303Y67804D02*
Y82518D01*
X154716Y64218D02*
X158303Y67804D01*
X154716Y61268D02*
Y64218D01*
Y61268D02*
X156929Y59055D01*
X159065D01*
X112103Y66718D02*
X136803D01*
X153915Y49606D01*
X159065D01*
X112200Y7800D02*
X117103Y12703D01*
Y43518D01*
X121403Y47818D01*
X138803D01*
X143314Y43307D01*
X159065D01*
X144093Y40157D02*
X159065D01*
X246650Y7500D02*
X246950Y2018D01*
X274153D01*
X283260Y11124D01*
X221203Y68743D02*
X230828D01*
X99905Y61358D02*
X106403Y54860D01*
Y12003D02*
Y54860D01*
X102200Y7800D02*
X106403Y12003D01*
X177175Y34646D02*
X177275Y30218D01*
X38803Y58134D02*
X42469Y61800D01*
X38803Y13466D02*
Y58134D01*
Y13466D02*
X42469Y9800D01*
Y61800D02*
Y110431D01*
X10200Y142700D02*
X42469Y110431D01*
X135903Y13445D02*
X139000D01*
X135749Y13599D02*
X135903Y13445D01*
X135749Y13599D02*
Y33388D01*
X125495Y43642D02*
X135749Y33388D01*
X269500Y15087D02*
X273403D01*
X275058Y16741D01*
Y38163D01*
X263403Y49818D02*
X275058Y38163D01*
X42469Y43800D02*
X47003Y39266D01*
X47103Y22141D01*
X54613D01*
X70241Y37769D01*
X70936Y66268D02*
X78253D01*
X103053D01*
X326309Y8700D02*
Y91268D01*
X180269Y37394D02*
X180324D01*
X174025Y31140D02*
Y31340D01*
Y34646D01*
X198603Y53718D02*
Y60355D01*
Y81718D02*
Y91200D01*
X195003Y62205D02*
Y79918D01*
X283260Y11124D02*
Y18474D01*
Y46868D01*
Y51268D01*
X309890D02*
Y55318D01*
X289748Y3123D02*
Y14818D01*
Y30285D01*
X83000Y6500D02*
Y22871D01*
X80053Y25818D02*
X83000Y22871D01*
X183615Y52756D02*
X192135D01*
X177753Y56118D02*
X180253D01*
X183615Y52756D01*
X185000Y59500D02*
Y60135D01*
X186624Y61759D01*
X177175Y34646D02*
X177600Y35071D01*
X174153Y49789D02*
X177600Y46343D01*
Y35071D02*
Y46343D01*
X174000Y41515D02*
Y42000D01*
X170876Y38390D02*
X174000Y41515D01*
X170876Y45140D02*
Y63768D01*
X167726Y34646D02*
Y41991D01*
X170876Y45140D01*
X164576Y44410D02*
X167000Y46834D01*
Y47000D01*
X263753Y29781D02*
X265190D01*
X216521Y27000D02*
X224500D01*
X223395Y23400D02*
X226177Y20617D01*
X216921Y23400D02*
X223395D01*
X210103Y30218D02*
X216921Y23400D01*
X233903Y11118D02*
Y25897D01*
X77131Y41818D02*
X90203D01*
X226177Y7500D02*
Y20617D01*
X230000Y15021D02*
Y15500D01*
Y15021D02*
X231295Y13726D01*
X177275Y30218D02*
X210103D01*
X194203Y34706D02*
X197009Y31900D01*
X186624Y34718D02*
X190603D01*
X170403Y27518D02*
X174025Y31140D01*
X196214Y46457D02*
X202171Y40500D01*
X203000D01*
X199400Y35600D02*
X199500Y35500D01*
X199400Y35600D02*
Y40310D01*
X197009Y31900D02*
X211621D01*
X196403Y43307D02*
X199400Y40310D01*
X205010Y44361D02*
X208871Y40500D01*
X210500D01*
X326309Y91268D02*
Y171309D01*
X65459Y16000D02*
X70241Y11218D01*
X63500Y16000D02*
X65459D01*
X289748Y46269D02*
X290347Y46868D01*
X298803Y7451D02*
X325059D01*
X326309Y8700D01*
X183474Y67716D02*
Y70618D01*
X184921Y72065D01*
X188703D01*
X167726Y67716D02*
Y77140D01*
X180324Y67716D02*
Y72676D01*
X174025Y67716D02*
Y73025D01*
X175000Y74000D01*
X179000D01*
X180324Y72676D01*
X211621Y31900D02*
X216521Y27000D01*
X194203Y34706D02*
Y40157D01*
X283260Y51268D02*
Y65324D01*
X284803Y66868D01*
X326309Y171309D02*
X332500Y177500D01*
X343521D01*
X344303Y176718D01*
X122200Y17800D02*
X130000Y10000D01*
X142085D01*
X143000Y10915D01*
Y39065D01*
X144093Y40157D01*
X122200Y7800D02*
X123445Y6555D01*
X152100Y31118D02*
X160003D01*
X152000Y31018D02*
X152100Y31118D01*
X151203Y31018D02*
X152000D01*
X149500Y6357D02*
X161603D01*
X172638Y24818D02*
X175320Y27500D01*
X204648D01*
X216253Y15895D01*
X77131Y41818D02*
Y43800D01*
X70241Y9800D02*
Y11218D01*
X149753Y32718D02*
X164576D01*
X76575Y25818D02*
X80053D01*
X77131Y6118D02*
Y9800D01*
X61167Y25318D02*
X69686D01*
X70241Y37769D02*
Y43800D01*
X175197Y24298D02*
X176399Y25500D01*
X201874D01*
X213080Y14295D01*
X142500Y147303D02*
Y170500D01*
Y147303D02*
X198603Y91200D01*
X111500Y168821D02*
Y169500D01*
Y168821D02*
X198603Y81718D01*
X154321Y86500D02*
X158303Y82518D01*
X153500Y86500D02*
X154321D01*
X167726Y77140D02*
X174585Y84000D01*
X179000D01*
X161713Y19228D02*
X162599Y20113D01*
X187795D02*
X188681Y19228D01*
X180315Y20999D02*
X181201Y20113D01*
X179921Y10468D02*
X188681D01*
Y5290D02*
Y10468D01*
X170473D02*
X179921D01*
X161713D02*
X170473D01*
X161713Y6466D02*
Y10468D01*
D30*
X181201Y20113D02*
X187795D01*
X188681Y10468D02*
Y19228D01*
X161713Y10468D02*
Y19228D01*
D31*
X3Y-32D02*
X350397D01*
X3D02*
Y200755D01*
X350397D01*
Y-32D02*
Y200755D01*
D32*
X124995Y43642D02*
D03*
D33*
X99405D02*
D03*
X124995Y61358D02*
D03*
X99405D02*
D03*
D34*
X122200Y17800D02*
D03*
D35*
Y7800D02*
D03*
X112200Y17800D02*
D03*
Y7800D02*
D03*
X102200Y17800D02*
D03*
Y7800D02*
D03*
D36*
X10200Y172700D02*
D03*
X340200D02*
D03*
D37*
X10200Y162700D02*
D03*
Y152700D02*
D03*
Y142700D02*
D03*
Y132700D02*
D03*
Y122700D02*
D03*
Y112700D02*
D03*
Y102700D02*
D03*
Y92700D02*
D03*
Y82700D02*
D03*
Y72700D02*
D03*
Y62700D02*
D03*
Y52700D02*
D03*
Y42700D02*
D03*
Y32700D02*
D03*
Y22700D02*
D03*
X340200Y162700D02*
D03*
Y152700D02*
D03*
Y142700D02*
D03*
Y132700D02*
D03*
Y122700D02*
D03*
Y112700D02*
D03*
Y102700D02*
D03*
Y92700D02*
D03*
Y82700D02*
D03*
Y72700D02*
D03*
Y62700D02*
D03*
Y52700D02*
D03*
Y42700D02*
D03*
Y32700D02*
D03*
Y22700D02*
D03*
D38*
X118000Y123500D02*
D03*
X205500Y137000D02*
D03*
X102803Y37718D02*
D03*
X135103Y72700D02*
D03*
X16203Y37718D02*
D03*
X82282D02*
D03*
X190603Y34718D02*
D03*
X195003Y79918D02*
D03*
X147378Y30343D02*
D03*
X217603Y55118D02*
D03*
X177753Y56118D02*
D03*
X153116Y68005D02*
D03*
X191403Y69365D02*
D03*
X289748Y14818D02*
D03*
X209903Y12318D02*
D03*
X183903Y40718D02*
D03*
X170503Y27818D02*
D03*
X258703Y5618D02*
D03*
X263803Y31168D02*
D03*
X143710Y52700D02*
D03*
X180269Y50368D02*
D03*
X344303Y16218D02*
D03*
X312803Y88418D02*
D03*
X156403Y25918D02*
D03*
X196903Y16918D02*
D03*
X90203Y41818D02*
D03*
X238753Y17218D02*
D03*
X261903Y17118D02*
D03*
X218603Y19518D02*
D03*
X253303Y17118D02*
D03*
X298803Y18218D02*
D03*
X112103Y66718D02*
D03*
X221203Y68743D02*
D03*
X263403Y49818D02*
D03*
X83000Y6500D02*
D03*
X185000Y59500D02*
D03*
X174000Y42000D02*
D03*
X167000Y47000D02*
D03*
X224500Y27000D02*
D03*
X230000Y15500D02*
D03*
X203000Y40500D02*
D03*
X199500Y35500D02*
D03*
X210500Y40500D02*
D03*
X63500Y16000D02*
D03*
X142500Y170500D02*
D03*
X111500Y169500D02*
D03*
X153500Y86500D02*
D03*
X179000Y84000D02*
D03*
M02*
