G04 Layer_Color=16711935*
%FSLAX25Y25*%
%MOIN*%
G70*
G01*
G75*
%ADD31C,0.00787*%
%ADD32R,0.06063X0.06063*%
%ADD33C,0.06063*%
%ADD34R,0.06102X0.06102*%
%ADD35C,0.06102*%
%ADD63R,0.06496X0.06496*%
%ADD64C,0.06496*%
%ADD65C,0.05591*%
D31*
X3Y-32D02*
X350397D01*
X3D02*
Y200755D01*
X350397D01*
Y-32D02*
Y200755D01*
D32*
X124995Y43642D02*
D03*
D33*
X99405D02*
D03*
X124995Y61358D02*
D03*
X99405D02*
D03*
D34*
X122200Y17800D02*
D03*
D35*
Y7800D02*
D03*
X112200Y17800D02*
D03*
Y7800D02*
D03*
X102200Y17800D02*
D03*
Y7800D02*
D03*
D63*
X10200Y172700D02*
D03*
X340200D02*
D03*
D64*
X10200Y162700D02*
D03*
Y152700D02*
D03*
Y142700D02*
D03*
Y132700D02*
D03*
Y122700D02*
D03*
Y112700D02*
D03*
Y102700D02*
D03*
Y92700D02*
D03*
Y82700D02*
D03*
Y72700D02*
D03*
Y62700D02*
D03*
Y52700D02*
D03*
Y42700D02*
D03*
Y32700D02*
D03*
Y22700D02*
D03*
X340200Y162700D02*
D03*
Y152700D02*
D03*
Y142700D02*
D03*
Y132700D02*
D03*
Y122700D02*
D03*
Y112700D02*
D03*
Y102700D02*
D03*
Y92700D02*
D03*
Y82700D02*
D03*
Y72700D02*
D03*
Y62700D02*
D03*
Y52700D02*
D03*
Y42700D02*
D03*
Y32700D02*
D03*
Y22700D02*
D03*
D65*
X118000Y123500D02*
D03*
X205500Y137000D02*
D03*
X102803Y37718D02*
D03*
X135103Y72700D02*
D03*
X16203Y37718D02*
D03*
X82282D02*
D03*
X190603Y34718D02*
D03*
X195003Y79918D02*
D03*
X147378Y30343D02*
D03*
X217603Y55118D02*
D03*
X177753Y56118D02*
D03*
X153116Y68005D02*
D03*
X191403Y69365D02*
D03*
X289748Y14818D02*
D03*
X209903Y12318D02*
D03*
X183903Y40718D02*
D03*
X170503Y27818D02*
D03*
X258703Y5618D02*
D03*
X263803Y31168D02*
D03*
X143710Y52700D02*
D03*
X180269Y50368D02*
D03*
X344303Y16218D02*
D03*
X312803Y88418D02*
D03*
X156403Y25918D02*
D03*
X196903Y16918D02*
D03*
X90203Y41818D02*
D03*
X238753Y17218D02*
D03*
X261903Y17118D02*
D03*
X218603Y19518D02*
D03*
X253303Y17118D02*
D03*
X298803Y18218D02*
D03*
X112103Y66718D02*
D03*
X221203Y68743D02*
D03*
X263403Y49818D02*
D03*
X83000Y6500D02*
D03*
X185000Y59500D02*
D03*
X174000Y42000D02*
D03*
X167000Y47000D02*
D03*
X224500Y27000D02*
D03*
X230000Y15500D02*
D03*
X203000Y40500D02*
D03*
X199500Y35500D02*
D03*
X210500Y40500D02*
D03*
X63500Y16000D02*
D03*
X142500Y170500D02*
D03*
X111500Y169500D02*
D03*
X153500Y86500D02*
D03*
X179000Y84000D02*
D03*
M02*
