G04 Layer_Color=32768*
%FSLAX25Y25*%
%MOIN*%
G70*
G01*
G75*
%ADD31C,0.00787*%
%ADD39C,0.00394*%
%ADD69C,0.00197*%
D31*
X95979Y39724D02*
X128420D01*
X95979D02*
Y65276D01*
X128420D01*
Y39724D02*
Y65276D01*
X96412Y1973D02*
X127987D01*
X96412D02*
Y23627D01*
X127987D01*
Y1973D02*
Y23627D01*
X3Y-32D02*
X350397D01*
X3D02*
Y200755D01*
X350397D01*
Y-32D02*
Y200755D01*
D39*
X173229Y20999D02*
X177166D01*
X175197Y19031D02*
Y22968D01*
X203300Y8172D02*
Y12109D01*
X201331Y10140D02*
X205269D01*
X137031Y10000D02*
X140968D01*
X139000Y8032D02*
Y11969D01*
X149500Y7931D02*
Y11868D01*
X147531Y9900D02*
X151468D01*
X233165Y21082D02*
X237102D01*
X235134Y19114D02*
Y23051D01*
X269503Y31356D02*
Y35293D01*
X267535Y33324D02*
X271472D01*
X298803Y16899D02*
Y20836D01*
X296835Y18868D02*
X300772D01*
X46800Y59832D02*
Y63769D01*
X44831Y61800D02*
X48768D01*
X46800Y41831D02*
Y45768D01*
X44831Y43800D02*
X48768D01*
X46800Y23832D02*
Y27768D01*
X44831Y25800D02*
X48768D01*
X46800Y7831D02*
Y11768D01*
X44831Y9800D02*
X48768D01*
X209300Y48331D02*
Y52268D01*
X207332Y50300D02*
X211269D01*
X208955Y58731D02*
Y62668D01*
X206986Y60700D02*
X210924D01*
X240632Y58900D02*
X244569D01*
X242600Y56932D02*
Y60869D01*
X175600Y49213D02*
Y53150D01*
X173631Y51181D02*
X177568D01*
X284835Y46868D02*
X288772D01*
X286803Y44899D02*
Y48836D01*
X277421Y66868D02*
X281358D01*
X279390Y64899D02*
Y68836D01*
X333100Y6731D02*
Y10668D01*
X331131Y8700D02*
X335068D01*
X304378Y46868D02*
X308315D01*
X306347Y44899D02*
Y48836D01*
X269500Y9575D02*
Y13512D01*
X267532Y11543D02*
X271469D01*
X73131Y41831D02*
Y45768D01*
X71162Y43800D02*
X75099D01*
X73131Y23832D02*
Y27768D01*
X71162Y25800D02*
X75099D01*
X73131Y59832D02*
Y63769D01*
X71162Y61800D02*
X75099D01*
X73131Y7831D02*
Y11768D01*
X71162Y9800D02*
X75099D01*
X108367Y52500D02*
X116033D01*
X112200Y48667D02*
Y56333D01*
X110231Y12800D02*
X114168D01*
X112200Y10831D02*
Y14768D01*
X305421Y66868D02*
X309358D01*
X307390Y64899D02*
Y68836D01*
D69*
X158465Y24050D02*
X191929D01*
X158465Y-1540D02*
X191929D01*
Y24050D01*
X158465Y-1540D02*
Y24050D01*
X199363Y3447D02*
X207237D01*
X199363Y16833D02*
X207237D01*
X199363Y3447D02*
Y16833D01*
X207237Y3447D02*
Y16833D01*
X142346Y3898D02*
Y16102D01*
X135653Y3898D02*
Y16102D01*
X142346D01*
X135653Y3898D02*
X142346D01*
X145563Y16790D02*
X153437D01*
X145563Y3010D02*
X153437D01*
Y16790D01*
X145563Y3010D02*
Y16790D01*
X213480Y2382D02*
Y39783D01*
X256787Y2382D02*
Y39783D01*
X213480Y2382D02*
X256787D01*
X213480Y39783D02*
X256787D01*
X265566Y40214D02*
X273440D01*
X265566Y26435D02*
X273440D01*
Y40214D01*
X265566Y26435D02*
Y40214D01*
X284630Y35994D02*
X312976D01*
X284630Y1742D02*
X312976D01*
Y35994D01*
X284630Y1742D02*
Y35994D01*
X39320Y58650D02*
X54280D01*
X39320Y64950D02*
X54280D01*
Y58650D02*
Y64950D01*
X39320Y58650D02*
Y64950D01*
Y40650D02*
X54280D01*
X39320Y46949D02*
X54280D01*
Y40650D02*
Y46949D01*
X39320Y40650D02*
Y46949D01*
Y22650D02*
X54280D01*
X39320Y28949D02*
X54280D01*
Y22650D02*
Y28949D01*
X39320Y22650D02*
Y28949D01*
Y6650D02*
X54280D01*
X39320Y12949D02*
X54280D01*
Y6650D02*
Y12949D01*
X39320Y6650D02*
Y12949D01*
X203198Y46953D02*
X215402D01*
X203198Y53646D02*
X215402D01*
Y46953D02*
Y53646D01*
X203198Y46953D02*
Y53646D01*
X202853Y64046D02*
X215057D01*
X202853Y57354D02*
X215057D01*
X202853D02*
Y64046D01*
X215057Y57354D02*
Y64046D01*
X258600Y44400D02*
Y73400D01*
X226600Y44400D02*
Y73400D01*
Y44400D02*
X258600D01*
X226600Y73400D02*
X258600D01*
X154930Y71851D02*
X196269D01*
X154930Y30512D02*
X196269D01*
Y71851D01*
X154930Y30512D02*
Y71851D01*
X279913Y42931D02*
Y50805D01*
X293693Y42931D02*
Y50805D01*
X279913D02*
X293693D01*
X279913Y42931D02*
X293693D01*
X269153Y59978D02*
Y73757D01*
X289626Y59978D02*
Y73757D01*
X269153D02*
X289626D01*
X269153Y59978D02*
X289626D01*
X320100Y1700D02*
X338600D01*
X320100Y15700D02*
X338600D01*
Y1700D02*
Y15700D01*
X320100Y1700D02*
Y15700D01*
X299457Y42931D02*
Y50805D01*
X313236Y42931D02*
Y50805D01*
X299457D02*
X313236D01*
X299457Y42931D02*
X313236D01*
X265563Y4654D02*
X273437D01*
X265563Y18433D02*
X273437D01*
X265563Y4654D02*
Y18433D01*
X273437Y4654D02*
Y18433D01*
X67028Y40453D02*
X79233D01*
X67028Y47146D02*
X79233D01*
Y40453D02*
Y47146D01*
X67028Y40453D02*
Y47146D01*
Y22454D02*
X79233D01*
X67028Y29146D02*
X79233D01*
Y22454D02*
Y29146D01*
X67028Y22454D02*
Y29146D01*
Y58454D02*
X79233D01*
X67028Y65146D02*
X79233D01*
Y58454D02*
Y65146D01*
X67028Y58454D02*
Y65146D01*
Y6453D02*
X79233D01*
X67028Y13146D02*
X79233D01*
Y6453D02*
Y13146D01*
X67028Y6453D02*
Y13146D01*
X297153Y59978D02*
Y73757D01*
X317626Y59978D02*
Y73757D01*
X297153D02*
X317626D01*
X297153Y59978D02*
X317626D01*
M02*
