G04 Layer_Color=32896*
%FSLAX25Y25*%
%MOIN*%
G70*
G01*
G75*
%ADD31C,0.00787*%
%ADD42C,0.00591*%
%ADD66C,0.01575*%
%ADD67R,0.04500X1.29000*%
G36*
X301928Y16600D02*
X302254Y16545D01*
X302797Y16328D01*
X303015Y16165D01*
X303178Y16056D01*
X303232Y16002D01*
X303287Y15947D01*
X303504Y15676D01*
X303667Y15349D01*
X303830Y14697D01*
X303885Y14425D01*
X303939Y14208D01*
Y14045D01*
Y13990D01*
X303885Y13501D01*
X303776Y13121D01*
X303721Y12849D01*
X303667Y12740D01*
X303395Y12305D01*
X303123Y12033D01*
X302906Y11870D01*
X302797Y11816D01*
X302362Y11598D01*
X301982Y11490D01*
X301656Y11435D01*
X301547D01*
X301058Y11490D01*
X300677Y11598D01*
X300406Y11707D01*
X300297Y11762D01*
X299916Y12033D01*
X299644Y12360D01*
X299481Y12577D01*
X299427Y12686D01*
X299210Y13175D01*
X299155Y13610D01*
X299101Y13936D01*
Y13990D01*
Y14045D01*
X299155Y14588D01*
X299210Y15023D01*
X299318Y15295D01*
X299373Y15404D01*
X299644Y15784D01*
X299916Y16110D01*
X300134Y16274D01*
X300242Y16328D01*
X300677Y16545D01*
X301112Y16600D01*
X301438Y16654D01*
X301547D01*
X301928Y16600D01*
D02*
G37*
G36*
X320247Y10674D02*
X320356Y10620D01*
X320410D01*
X320627Y10457D01*
X320736Y10294D01*
X320845Y10185D01*
Y10131D01*
X320954Y9913D01*
X321008Y9696D01*
Y9533D01*
Y9478D01*
Y9207D01*
X320954Y8989D01*
X320899Y8826D01*
Y8772D01*
X320791Y8609D01*
X320627Y8500D01*
X320573Y8391D01*
X320519D01*
X320301Y8283D01*
X320084Y8228D01*
X319812D01*
X319595Y8283D01*
X319377Y8337D01*
X319214Y8391D01*
X319160Y8446D01*
X318997Y8554D01*
X318888Y8772D01*
X318779Y8935D01*
Y8989D01*
X319105Y9044D01*
X319214Y8826D01*
X319268Y8717D01*
X319323Y8609D01*
X319377D01*
X319540Y8554D01*
X319703Y8500D01*
X319866D01*
X320138Y8554D01*
X320301D01*
X320519Y8772D01*
X320573Y8826D01*
Y8880D01*
X320682Y9261D01*
Y9424D01*
Y9478D01*
X320627Y9805D01*
X320573Y9913D01*
Y9968D01*
X320519Y10131D01*
X320410Y10239D01*
X320356Y10348D01*
X320301D01*
X320138Y10403D01*
X319975Y10457D01*
X319649D01*
X319540Y10403D01*
X319431Y10348D01*
X319214Y10076D01*
X319160Y9968D01*
Y9913D01*
X318834Y10022D01*
X318942Y10239D01*
X319051Y10403D01*
X319105Y10511D01*
X319160Y10566D01*
X319377Y10674D01*
X319595Y10729D01*
X320029D01*
X320247Y10674D01*
D02*
G37*
G36*
X305570Y11544D02*
X304917D01*
Y16600D01*
X305570D01*
Y11544D01*
D02*
G37*
G36*
X319812D02*
X316061D01*
Y12088D01*
X319160D01*
Y13827D01*
X316387D01*
Y14425D01*
X319160D01*
Y16002D01*
X316170D01*
Y16600D01*
X319812D01*
Y11544D01*
D02*
G37*
G36*
X310408Y16002D02*
X308723D01*
Y11544D01*
X308070D01*
Y16002D01*
X306385D01*
Y16600D01*
X310408D01*
Y16002D01*
D02*
G37*
G36*
X300732Y10674D02*
X300895Y10620D01*
X300949D01*
X301112Y10457D01*
X301221Y10294D01*
X301330Y10185D01*
Y10131D01*
X301438Y9913D01*
X301493Y9696D01*
Y9533D01*
Y9478D01*
Y9207D01*
X301438Y8989D01*
X301384Y8826D01*
Y8772D01*
X301275Y8609D01*
X301112Y8500D01*
X301058Y8391D01*
X301004D01*
X300786Y8283D01*
X300569Y8228D01*
X300297D01*
X300025Y8283D01*
X299808Y8337D01*
X299699Y8391D01*
X299644Y8446D01*
X299481Y8554D01*
X299373Y8772D01*
X299264Y8935D01*
Y8989D01*
X299590Y9044D01*
X299644Y8880D01*
X299753Y8717D01*
X299808Y8663D01*
X299862Y8609D01*
X300025Y8554D01*
X300188Y8500D01*
X300351D01*
X300623Y8554D01*
X300786D01*
X300895Y8663D01*
X301004Y8772D01*
X301058Y8826D01*
Y8880D01*
X301112Y9044D01*
X301167Y9261D01*
Y9424D01*
Y9478D01*
X301112Y9805D01*
X301058Y9913D01*
Y9968D01*
X301004Y10131D01*
X300895Y10239D01*
X300840Y10348D01*
X300786D01*
X300460Y10457D01*
X300297D01*
X300025Y10403D01*
X299916Y10348D01*
X299808Y10239D01*
X299699Y10076D01*
X299644Y9968D01*
Y9913D01*
X299318Y10022D01*
X299427Y10239D01*
X299536Y10403D01*
X299590Y10511D01*
X299644Y10566D01*
X299862Y10674D01*
X300079Y10729D01*
X300514D01*
X300732Y10674D01*
D02*
G37*
G36*
X323291Y8228D02*
X321389D01*
Y8500D01*
X322911D01*
Y9315D01*
X321552D01*
Y9642D01*
X322911D01*
Y10403D01*
X321443D01*
Y10729D01*
X323291D01*
Y8228D01*
D02*
G37*
G36*
X318562Y10403D02*
X317746D01*
Y8228D01*
X317366D01*
Y10403D01*
X316550D01*
Y10729D01*
X318562D01*
Y10403D01*
D02*
G37*
G36*
X325248Y8228D02*
X323672D01*
Y8500D01*
X324922D01*
Y10729D01*
X325248D01*
Y8228D01*
D02*
G37*
G36*
X262680Y15676D02*
Y15567D01*
Y15186D01*
Y14751D01*
Y14643D01*
Y14588D01*
Y13719D01*
Y12903D01*
Y12577D01*
Y12305D01*
Y12142D01*
Y12088D01*
Y11109D01*
Y10674D01*
Y10348D01*
Y10022D01*
Y9805D01*
Y9642D01*
Y9587D01*
Y9207D01*
Y8935D01*
Y8772D01*
Y8663D01*
Y8500D01*
X233760D01*
Y8554D01*
Y8663D01*
Y9044D01*
Y9424D01*
Y9533D01*
Y9587D01*
Y10457D01*
Y11272D01*
Y11598D01*
Y11870D01*
Y12033D01*
Y12088D01*
Y13066D01*
Y13501D01*
Y13827D01*
Y14153D01*
Y14371D01*
Y14534D01*
Y14588D01*
Y14969D01*
Y15241D01*
Y15458D01*
Y15567D01*
Y15730D01*
X262680D01*
Y15676D01*
D02*
G37*
G36*
X327586Y8228D02*
X325683D01*
Y8500D01*
X327259D01*
Y9315D01*
X325846D01*
Y9642D01*
X327259D01*
Y10403D01*
X325792D01*
Y10729D01*
X327586D01*
Y8228D01*
D02*
G37*
G36*
X179455Y22036D02*
X179781Y21873D01*
X179998Y21601D01*
X180107Y21383D01*
X180216Y21112D01*
X180270Y20840D01*
Y20677D01*
Y20622D01*
X180216Y20079D01*
X180052Y19698D01*
X179835Y19426D01*
X179563Y19263D01*
X179346Y19155D01*
X179128Y19046D01*
X178911D01*
X178476Y19100D01*
X178150Y19318D01*
X177932Y19481D01*
X177824Y19535D01*
X178313Y19916D01*
X178530Y19752D01*
X178693Y19644D01*
X178911Y19589D01*
X178965D01*
X179183Y19644D01*
X179346Y19698D01*
X179563Y19970D01*
X179672Y20242D01*
Y20296D01*
Y20350D01*
X177769D01*
Y20894D01*
X177824Y21275D01*
X177987Y21601D01*
X178204Y21818D01*
X178422Y21927D01*
X178639Y22036D01*
X178857Y22090D01*
X179074D01*
X179455Y22036D01*
D02*
G37*
G36*
X190598Y21764D02*
X190870Y21981D01*
X191088Y22036D01*
X191251Y22090D01*
X191305D01*
X191685Y22036D01*
X191957Y21927D01*
X192066Y21818D01*
X192120Y21764D01*
X192175Y21655D01*
X192229Y21492D01*
X192283Y21112D01*
X192338Y20785D01*
Y20677D01*
Y20622D01*
Y20296D01*
X192283Y20024D01*
Y19807D01*
X192229Y19698D01*
X192175Y19535D01*
X192120Y19481D01*
X191903Y19209D01*
X191631Y19100D01*
X191414Y19046D01*
X191305D01*
X191033Y19100D01*
X190816Y19209D01*
X190653Y19318D01*
X190598Y19372D01*
Y19100D01*
X189946D01*
Y23286D01*
X190598D01*
Y21764D01*
D02*
G37*
G36*
X188696Y19100D02*
X188152D01*
X187554Y21220D01*
X186847Y19100D01*
X186304D01*
X185380Y22090D01*
X186032D01*
X186576Y20024D01*
X187282Y22090D01*
X187717D01*
X188424Y20024D01*
X189022Y22090D01*
X189620D01*
X188696Y19100D01*
D02*
G37*
G36*
X196741Y22036D02*
X197067Y21927D01*
X197285Y21764D01*
X197339Y21710D01*
X196850Y21329D01*
X196687Y21438D01*
X196469Y21546D01*
X196034D01*
X195926Y21492D01*
X195708Y21383D01*
X195654Y21220D01*
Y21166D01*
Y20894D01*
X196469D01*
X196795Y20840D01*
X197013Y20785D01*
X197230Y20622D01*
X197339Y20459D01*
X197448Y20187D01*
Y20079D01*
Y20024D01*
X197393Y19698D01*
X197285Y19481D01*
X197122Y19263D01*
X196904Y19155D01*
X196524Y19046D01*
X196361D01*
X196034Y19100D01*
X195817Y19209D01*
X195708Y19318D01*
X195654Y19372D01*
Y19100D01*
X195001D01*
Y21166D01*
X195056Y21492D01*
X195219Y21710D01*
X195436Y21873D01*
X195654Y21981D01*
X195871Y22036D01*
X196089Y22090D01*
X196306D01*
X196741Y22036D01*
D02*
G37*
G36*
X184673D02*
X184945Y21927D01*
X185108Y21764D01*
X185162Y21710D01*
X184727Y21329D01*
X184619Y21438D01*
X184401Y21546D01*
X183966D01*
X183803Y21492D01*
X183586Y21383D01*
X183531Y21220D01*
Y21166D01*
Y20894D01*
X184401D01*
X184727Y20840D01*
X184945Y20785D01*
X185162Y20622D01*
X185271Y20459D01*
X185380Y20187D01*
Y20079D01*
Y20024D01*
X185325Y19698D01*
X185217Y19481D01*
X185054Y19263D01*
X184836Y19155D01*
X184456Y19046D01*
X184293D01*
X183966Y19100D01*
X183695Y19209D01*
X183586Y19318D01*
X183531Y19372D01*
Y19100D01*
X182988D01*
Y21166D01*
X183042Y21492D01*
X183151Y21710D01*
X183368Y21873D01*
X183586Y21981D01*
X183803Y22036D01*
X184021Y22090D01*
X184184D01*
X184673Y22036D01*
D02*
G37*
G36*
X314539Y52912D02*
X315191Y52749D01*
X315409Y52640D01*
X315626Y52586D01*
X315735Y52477D01*
X315789D01*
X316007Y52368D01*
X316116Y52314D01*
X316605Y51879D01*
X316985Y51444D01*
X317203Y51118D01*
X317312Y51010D01*
Y50955D01*
X333239Y23340D01*
X333293Y23286D01*
Y23232D01*
X333402Y23014D01*
X333511Y22851D01*
X333565Y22742D01*
Y22688D01*
X333619Y22579D01*
X333674Y22362D01*
X333728Y22199D01*
Y22144D01*
X333783Y21601D01*
Y21057D01*
X333674Y20568D01*
X333565Y20133D01*
X333456Y19752D01*
X333348Y19481D01*
X333293Y19318D01*
X333239Y19263D01*
X333021Y18937D01*
X332967Y18828D01*
X332913Y18774D01*
X332641Y18502D01*
X332532Y18394D01*
X332478Y18339D01*
X331989Y17959D01*
X331554Y17687D01*
X331065Y17469D01*
X330630Y17361D01*
X330249Y17306D01*
X329923Y17252D01*
X297416D01*
X297253Y17306D01*
X296981D01*
X296763Y17361D01*
X296600Y17415D01*
X296546D01*
X296002Y17632D01*
X295567Y17904D01*
X295187Y18230D01*
X294861Y18502D01*
X294589Y18828D01*
X294426Y19046D01*
X294317Y19209D01*
X294263Y19263D01*
Y19318D01*
X294100Y19535D01*
X294045Y19698D01*
X293991Y19807D01*
Y19861D01*
X293937Y20079D01*
X293882Y20296D01*
X293828Y20405D01*
Y20459D01*
X293719Y21057D01*
Y21601D01*
X293828Y22090D01*
X293937Y22525D01*
X294045Y22905D01*
X294209Y23177D01*
X294263Y23340D01*
X294317Y23395D01*
X310245Y51010D01*
X310462Y51336D01*
X310517Y51444D01*
X310571Y51499D01*
X310680Y51662D01*
X310788Y51771D01*
X310897Y51879D01*
X310951Y51934D01*
X311386Y52314D01*
X311876Y52586D01*
X312365Y52749D01*
X312800Y52912D01*
X313180Y52966D01*
X313452Y53021D01*
X313724D01*
X314539Y52912D01*
D02*
G37*
G36*
X328890Y16002D02*
X327205D01*
Y11544D01*
X326553D01*
Y16002D01*
X324868D01*
Y16600D01*
X328890D01*
Y16002D01*
D02*
G37*
G36*
X324541D02*
X322856D01*
Y11544D01*
X322204D01*
Y16002D01*
X320519D01*
Y16600D01*
X324541D01*
Y16002D01*
D02*
G37*
G36*
X333239Y11544D02*
X332532D01*
X331989Y13066D01*
X329869D01*
X329271Y11544D01*
X328510D01*
X330575Y16600D01*
X331282D01*
X333239Y11544D01*
D02*
G37*
G36*
X315137D02*
X314485D01*
Y15512D01*
X311821Y11544D01*
X311169D01*
Y16600D01*
X311821D01*
Y12631D01*
X314430Y16600D01*
X315137D01*
Y11544D01*
D02*
G37*
G36*
X298231D02*
X297633D01*
Y15512D01*
X294970Y11544D01*
X294263D01*
Y16600D01*
X294915D01*
Y12631D01*
X297579Y16600D01*
X298231D01*
Y11544D01*
D02*
G37*
G36*
X316714Y4803D02*
X316387D01*
Y7358D01*
X316714D01*
Y4803D01*
D02*
G37*
G36*
X313452D02*
X311549D01*
Y5130D01*
X313071D01*
Y5945D01*
X311712D01*
Y6271D01*
X313071D01*
Y7032D01*
X311604D01*
Y7358D01*
X313452D01*
Y4803D01*
D02*
G37*
G36*
X319105Y7032D02*
X318290D01*
Y4803D01*
X317964D01*
Y7032D01*
X317094D01*
Y7358D01*
X319105D01*
Y7032D01*
D02*
G37*
G36*
X327151Y4803D02*
X325302D01*
Y5130D01*
X326824D01*
Y5945D01*
X325411D01*
Y6271D01*
X326824D01*
Y7032D01*
X325357D01*
Y7358D01*
X327151D01*
Y4803D01*
D02*
G37*
G36*
X319866D02*
X319540D01*
Y7358D01*
X319866D01*
Y4803D01*
D02*
G37*
G36*
X310082D02*
X309157D01*
X308886Y4858D01*
X308777D01*
X308559Y4912D01*
X308451Y4967D01*
X308342Y5075D01*
X308233Y5184D01*
X308125Y5456D01*
X308070Y5565D01*
X308016Y5945D01*
Y6054D01*
Y6108D01*
Y6326D01*
Y6543D01*
X308070Y6652D01*
Y6706D01*
X308288Y7032D01*
X308342Y7087D01*
X308396Y7141D01*
X308668Y7250D01*
X308723Y7304D01*
X308777D01*
X309049Y7358D01*
X310082D01*
Y4803D01*
D02*
G37*
G36*
X328944Y7358D02*
X329053Y7304D01*
X329108D01*
X329271Y7250D01*
X329325Y7141D01*
X329434Y7087D01*
Y7032D01*
X329542Y6815D01*
Y6761D01*
Y6706D01*
X329488Y6489D01*
Y6434D01*
Y6380D01*
X329325Y6163D01*
X329216Y6108D01*
X329053Y6054D01*
X328890D01*
X328781Y5999D01*
X328727D01*
X328401Y5891D01*
X328292Y5836D01*
X328238D01*
X328075Y5782D01*
X328020Y5728D01*
X327966Y5565D01*
Y5510D01*
Y5347D01*
X328020Y5293D01*
X328184Y5184D01*
X328238Y5130D01*
X328510Y5075D01*
X328618D01*
X328890Y5130D01*
X328999D01*
X329162Y5293D01*
X329216Y5347D01*
X329325Y5565D01*
Y5619D01*
Y5673D01*
X329651Y5619D01*
X329597Y5456D01*
X329542Y5347D01*
X329488Y5238D01*
Y5184D01*
X329271Y4967D01*
X329216Y4858D01*
X329162D01*
X328781Y4749D01*
X328564D01*
X328238Y4803D01*
X328129Y4858D01*
X328075D01*
X327803Y5021D01*
X327749Y5130D01*
X327640Y5401D01*
Y5510D01*
X327694Y5782D01*
X327749Y5891D01*
X327966Y6108D01*
X328020Y6163D01*
X328075D01*
X328401Y6271D01*
X328564Y6326D01*
X328618D01*
X328890Y6380D01*
X329053Y6434D01*
X329162Y6489D01*
X329216Y6652D01*
Y6706D01*
X329162Y6924D01*
X329108Y6978D01*
X328836Y7087D01*
X328673D01*
X328347Y7032D01*
X328292Y6978D01*
X328238D01*
X328129Y6869D01*
X328075Y6761D01*
X328020Y6652D01*
Y6597D01*
X327694D01*
Y6761D01*
X327749Y6924D01*
X327803Y6978D01*
X327857Y7032D01*
X328075Y7250D01*
X328129Y7304D01*
X328184D01*
X328510Y7413D01*
X328673D01*
X328944Y7358D01*
D02*
G37*
G36*
X321715D02*
X321823Y7304D01*
X321878D01*
X321986Y7250D01*
X322095Y7141D01*
X322149Y7087D01*
Y7032D01*
X322258Y6924D01*
X322313Y6815D01*
Y6761D01*
Y6706D01*
X322258Y6489D01*
X322204Y6434D01*
Y6380D01*
X322041Y6163D01*
X321932Y6108D01*
X321769Y6054D01*
X321606D01*
X321497Y5999D01*
X321443D01*
X321117Y5891D01*
X321062Y5836D01*
X321008D01*
X320791Y5782D01*
X320736Y5728D01*
X320682Y5565D01*
Y5510D01*
Y5347D01*
X320736Y5293D01*
X320899Y5184D01*
X320954Y5130D01*
X321225Y5075D01*
X321334D01*
X321606Y5130D01*
X321715D01*
X321823Y5238D01*
X321932Y5293D01*
X321986Y5347D01*
X322041Y5565D01*
Y5619D01*
Y5673D01*
X322367Y5619D01*
X322313Y5347D01*
X322258Y5238D01*
Y5184D01*
X321986Y4967D01*
X321932Y4858D01*
X321878D01*
X321715Y4803D01*
X321497Y4749D01*
X321280D01*
X320954Y4803D01*
X320899Y4858D01*
X320845D01*
X320573Y5021D01*
X320464Y5130D01*
X320356Y5401D01*
Y5510D01*
X320410Y5782D01*
X320464Y5891D01*
X320682Y6108D01*
X320736Y6163D01*
X320791D01*
X321171Y6271D01*
X321280Y6326D01*
X321334D01*
X321606Y6380D01*
X321769Y6434D01*
X321878Y6489D01*
X321986Y6652D01*
Y6706D01*
X321932Y6815D01*
X321878Y6924D01*
X321823Y6978D01*
X321715Y7032D01*
X321552Y7087D01*
X321389D01*
X321062Y7032D01*
X321008Y6978D01*
X320954D01*
X320845Y6869D01*
X320791Y6761D01*
X320736Y6652D01*
Y6597D01*
X320464D01*
X320519Y6924D01*
X320573Y6978D01*
Y7032D01*
X320791Y7250D01*
X320845Y7304D01*
X320899D01*
X321225Y7413D01*
X321389D01*
X321715Y7358D01*
D02*
G37*
G36*
X299264Y4803D02*
X297361D01*
Y5130D01*
X298938D01*
Y5945D01*
X297524D01*
Y6271D01*
X298938D01*
Y7032D01*
X297416D01*
Y7358D01*
X299264D01*
Y4803D01*
D02*
G37*
G36*
X307527D02*
X305624D01*
Y5130D01*
X307201D01*
Y5945D01*
X305787D01*
Y6271D01*
X307201D01*
Y7032D01*
X305678D01*
Y7358D01*
X307527D01*
Y4803D01*
D02*
G37*
G36*
X302743D02*
X302417D01*
Y7358D01*
X302743D01*
Y4803D01*
D02*
G37*
G36*
X308723Y10403D02*
X307907D01*
Y8228D01*
X307581D01*
Y10403D01*
X306711D01*
Y10729D01*
X308723D01*
Y10403D01*
D02*
G37*
G36*
X306929Y8228D02*
X306548D01*
X306276Y8935D01*
X305244D01*
X304917Y8228D01*
X304537D01*
X305570Y10729D01*
X305950D01*
X306929Y8228D01*
D02*
G37*
G36*
X310462Y10674D02*
X310517D01*
X310625Y10566D01*
X310734Y10511D01*
X310788Y10457D01*
Y10403D01*
X310897Y10294D01*
X310951Y10185D01*
Y10131D01*
Y10076D01*
X310897Y9859D01*
X310843Y9805D01*
Y9750D01*
X310680Y9587D01*
X310571Y9533D01*
X310408Y9478D01*
X310245Y9424D01*
X310136Y9370D01*
X310082D01*
X309864Y9315D01*
X309701Y9261D01*
X309592Y9207D01*
X309429Y9098D01*
X309375Y9044D01*
X309321Y8935D01*
Y8880D01*
Y8717D01*
X309375Y8663D01*
X309538Y8554D01*
X309592Y8500D01*
X310353D01*
X310571Y8663D01*
X310625Y8717D01*
X310680Y8935D01*
Y8989D01*
Y9044D01*
X311006Y8989D01*
X310951Y8663D01*
X310897Y8609D01*
Y8554D01*
X310625Y8337D01*
X310571Y8283D01*
X310517D01*
X310136Y8228D01*
X309918D01*
X309592Y8283D01*
X309429D01*
X309212Y8446D01*
X309103Y8500D01*
X308994Y8772D01*
Y8880D01*
X309049Y9152D01*
X309103Y9261D01*
X309321Y9478D01*
X309375Y9533D01*
X309429D01*
X309592Y9587D01*
X309755Y9642D01*
X309918Y9696D01*
X309973D01*
X310245Y9750D01*
X310408Y9805D01*
X310517Y9859D01*
X310625Y10022D01*
Y10076D01*
X310571Y10185D01*
X310517Y10294D01*
X310462Y10348D01*
X310190Y10457D01*
X309810D01*
X309701Y10403D01*
X309592Y10348D01*
X309484Y10239D01*
X309429Y10131D01*
X309375Y10022D01*
Y9968D01*
X309103Y10022D01*
X309157Y10294D01*
X309212Y10403D01*
X309429Y10620D01*
X309484Y10674D01*
X309538D01*
X309864Y10729D01*
X310353D01*
X310462Y10674D01*
D02*
G37*
G36*
X316224Y8228D02*
X315844D01*
Y9315D01*
X315300D01*
X315191Y9261D01*
X315137Y9207D01*
X315083D01*
X315028Y9152D01*
X314974Y9098D01*
Y9044D01*
X314920Y8989D01*
X314811Y8880D01*
X314757Y8772D01*
X314702Y8717D01*
X314376Y8228D01*
X313996D01*
X314430Y8880D01*
X314648Y9152D01*
X314702Y9207D01*
X314811Y9261D01*
X314865Y9315D01*
X314648Y9370D01*
X314485Y9478D01*
X314376Y9533D01*
X314322Y9587D01*
X314213Y9750D01*
X314159Y9859D01*
Y9968D01*
Y10022D01*
X314213Y10294D01*
X314267Y10348D01*
Y10403D01*
X314485Y10620D01*
X314539Y10674D01*
X314594D01*
X314757Y10729D01*
X316224D01*
Y8228D01*
D02*
G37*
G36*
X312908Y10674D02*
X313180Y10566D01*
X313398Y10457D01*
X313452Y10403D01*
X313615Y10076D01*
X313669Y9750D01*
X313724Y9533D01*
Y9478D01*
Y9424D01*
Y9152D01*
X313669Y8935D01*
X313615Y8826D01*
Y8772D01*
X313506Y8609D01*
X313343Y8500D01*
X313234Y8391D01*
X313180D01*
X312963Y8283D01*
X312745Y8228D01*
X312310D01*
X312093Y8283D01*
X311984Y8337D01*
X311930D01*
X311604Y8609D01*
X311549Y8717D01*
X311495Y8772D01*
X311386Y8989D01*
X311332Y9207D01*
Y9370D01*
Y9424D01*
Y9696D01*
X311386Y9968D01*
X311441Y10076D01*
X311495Y10131D01*
X311767Y10457D01*
X311876Y10511D01*
X311930Y10566D01*
X312147Y10674D01*
X312310Y10729D01*
X312528D01*
X312908Y10674D01*
D02*
G37*
G36*
X304754Y10403D02*
X303885D01*
Y8228D01*
X303558D01*
Y10403D01*
X302743D01*
Y10729D01*
X304754D01*
Y10403D01*
D02*
G37*
G36*
X304428Y4803D02*
X304102D01*
X303123Y7358D01*
X303450D01*
X304156Y5510D01*
X304265Y5238D01*
Y5130D01*
Y5075D01*
X304319Y5184D01*
X304374Y5347D01*
X304428Y5456D01*
Y5510D01*
X305081Y7358D01*
X305461D01*
X304428Y4803D01*
D02*
G37*
G36*
X301167Y7358D02*
X301275Y7304D01*
X301330Y7250D01*
X301547Y7087D01*
X301656Y6924D01*
X301764Y6815D01*
Y6761D01*
X301873Y6543D01*
X301928Y6326D01*
Y6163D01*
Y6108D01*
Y5836D01*
X301873Y5619D01*
X301819Y5456D01*
Y5401D01*
X301547Y5075D01*
X301438Y4967D01*
X301384Y4912D01*
X301167Y4803D01*
X300949Y4749D01*
X300732D01*
X300460Y4803D01*
X300242Y4858D01*
X300134Y4912D01*
X300079Y4967D01*
X299916Y5184D01*
X299808Y5401D01*
X299699Y5565D01*
Y5619D01*
X300025Y5673D01*
X300134Y5456D01*
X300188Y5293D01*
X300242Y5238D01*
X300297Y5184D01*
X300460Y5075D01*
X300623Y5021D01*
X300786D01*
X300949Y5075D01*
X301058Y5130D01*
X301167Y5184D01*
X301221D01*
X301438Y5401D01*
X301493Y5456D01*
Y5510D01*
X301601Y5891D01*
Y6054D01*
Y6108D01*
X301547Y6434D01*
X301493Y6543D01*
Y6597D01*
X301438Y6761D01*
X301330Y6869D01*
X301275Y6978D01*
X301221D01*
X300895Y7087D01*
X300732D01*
X300406Y7032D01*
X300351Y6978D01*
X300297D01*
X300188Y6869D01*
X300134Y6761D01*
X300079Y6652D01*
Y6597D01*
X299753Y6652D01*
X299862Y6869D01*
X299971Y7032D01*
X300025Y7141D01*
X300079Y7195D01*
X300297Y7304D01*
X300514Y7413D01*
X300949D01*
X301167Y7358D01*
D02*
G37*
G36*
X315083Y4803D02*
X314702D01*
X313724Y7358D01*
X314050D01*
X314757Y5510D01*
X314865Y5238D01*
Y5130D01*
Y5075D01*
X314920Y5293D01*
X314974Y5401D01*
X315028Y5510D01*
X315681Y7358D01*
X316061D01*
X315083Y4803D01*
D02*
G37*
G36*
X302362Y8228D02*
X301982D01*
Y10729D01*
X302362D01*
Y8228D01*
D02*
G37*
G36*
X324813Y4803D02*
X324487D01*
Y6815D01*
X323182Y4803D01*
X322856D01*
Y7358D01*
X323128D01*
Y5347D01*
X324487Y7358D01*
X324813D01*
Y4803D01*
D02*
G37*
G36*
X182281Y19100D02*
X181683D01*
Y20894D01*
Y21112D01*
X181575Y21275D01*
X181412Y21492D01*
X181248Y21546D01*
X181140D01*
X180977Y21492D01*
X180868Y21438D01*
X180759Y21383D01*
Y21329D01*
X180270Y21873D01*
X180487Y21981D01*
X180650Y22090D01*
X180868D01*
X181248Y22036D01*
X181466Y21927D01*
X181629Y21818D01*
X181683Y21764D01*
Y22090D01*
X182281D01*
Y19100D01*
D02*
G37*
G36*
X176193Y26765D02*
X176519Y26602D01*
X176736Y26330D01*
X176845Y26113D01*
X176954Y25841D01*
X177008Y25569D01*
Y25406D01*
Y25352D01*
X176954Y24808D01*
X176791Y24428D01*
X176573Y24156D01*
X176356Y23993D01*
X176139Y23884D01*
X175921Y23775D01*
X175704D01*
X175269Y23830D01*
X174888Y24047D01*
X174671Y24210D01*
X174617Y24264D01*
X175051Y24645D01*
X175269Y24482D01*
X175432Y24373D01*
X175649Y24319D01*
X175704D01*
X175921Y24373D01*
X176084Y24428D01*
X176302Y24699D01*
X176410Y24971D01*
Y25025D01*
Y25080D01*
X174508D01*
Y25623D01*
X174562Y26004D01*
X174725Y26330D01*
X174943Y26548D01*
X175160Y26656D01*
X175378Y26765D01*
X175595Y26819D01*
X175812D01*
X176193Y26765D01*
D02*
G37*
G36*
X190435Y49161D02*
Y49107D01*
Y49053D01*
X190979Y46226D01*
Y46117D01*
X191033Y46063D01*
X191088D01*
X192990Y45302D01*
X193208D01*
X195545Y46987D01*
X195708Y46933D01*
X195763Y46878D01*
X197774Y44976D01*
Y44867D01*
Y44813D01*
Y44758D01*
X196197Y42366D01*
Y42312D01*
Y42258D01*
Y42203D01*
X196958Y40246D01*
X197067Y40137D01*
X197122Y40083D01*
X197176D01*
X199894Y39648D01*
X199948D01*
X200003Y39594D01*
Y39540D01*
Y39485D01*
Y36658D01*
Y36550D01*
X199948Y36495D01*
X199894D01*
X197230Y35952D01*
X197122Y35897D01*
Y35843D01*
X196252Y33777D01*
Y33723D01*
Y33669D01*
Y33614D01*
Y33560D01*
X197774Y31331D01*
Y31277D01*
Y31223D01*
Y31168D01*
X195763Y29157D01*
X195654Y29102D01*
X195599D01*
X195545Y29157D01*
X193425Y30624D01*
X193208D01*
X192283Y30135D01*
X192120Y30190D01*
X192066D01*
X190109Y34973D01*
Y35136D01*
X190163Y35191D01*
X190435Y35300D01*
Y35354D01*
X190490D01*
X190544Y35408D01*
X190598Y35463D01*
X191088Y35789D01*
X191414Y36224D01*
X191685Y36604D01*
X191849Y37039D01*
X191957Y37420D01*
X192012Y37746D01*
Y37963D01*
Y38017D01*
X191957Y38507D01*
X191849Y38942D01*
X191740Y39322D01*
X191522Y39648D01*
X191359Y39866D01*
X191251Y40083D01*
X191142Y40192D01*
X191088Y40246D01*
X190707Y40572D01*
X190381Y40790D01*
X190000Y40953D01*
X189674Y41062D01*
X189348Y41116D01*
X189131Y41170D01*
X188913D01*
X188424Y41116D01*
X187989Y41007D01*
X187609Y40899D01*
X187282Y40736D01*
X187011Y40518D01*
X186847Y40409D01*
X186739Y40301D01*
X186684Y40246D01*
X186358Y39866D01*
X186141Y39485D01*
X185978Y39159D01*
X185869Y38778D01*
X185815Y38507D01*
X185760Y38235D01*
Y38072D01*
Y38017D01*
X185815Y37420D01*
X185978Y36876D01*
X186249Y36441D01*
X186467Y36115D01*
X186739Y35789D01*
X187011Y35626D01*
X187174Y35517D01*
X187228Y35463D01*
X187282Y35408D01*
X187337Y35354D01*
Y35300D01*
X187609Y35191D01*
X187663Y35028D01*
Y34973D01*
X185652Y30190D01*
X185597Y30135D01*
X185488D01*
X184564Y30624D01*
X184401D01*
X182227Y29157D01*
X182118Y29102D01*
X182064D01*
X182009Y29157D01*
X179998Y31168D01*
Y31223D01*
Y31331D01*
X181520Y33560D01*
Y33614D01*
Y33669D01*
Y33723D01*
Y33777D01*
X180650Y35843D01*
X180596Y35952D01*
X180542D01*
X177878Y36495D01*
X177824Y36550D01*
X177769Y36604D01*
Y36658D01*
Y39485D01*
Y39594D01*
X177824Y39648D01*
X177878D01*
X180596Y40083D01*
X180705Y40137D01*
X180759Y40192D01*
Y40246D01*
X181629Y42203D01*
Y42258D01*
Y42366D01*
X179998Y44758D01*
Y44813D01*
Y44921D01*
Y44976D01*
X182009Y46878D01*
X182118Y46987D01*
X182227D01*
X184564Y45302D01*
X184782D01*
X186684Y46063D01*
X186739Y46117D01*
X186793Y46172D01*
Y46226D01*
X187337Y49053D01*
Y49161D01*
X187391Y49216D01*
X190381D01*
X190435Y49161D01*
D02*
G37*
G36*
X196632Y26765D02*
X196958Y26602D01*
X197176Y26330D01*
X197285Y26113D01*
X197393Y25841D01*
X197448Y25569D01*
Y25406D01*
Y25352D01*
X197393Y24808D01*
X197230Y24428D01*
X197013Y24156D01*
X196741Y23993D01*
X196524Y23884D01*
X196306Y23775D01*
X196089D01*
X195654Y23830D01*
X195328Y24047D01*
X195110Y24210D01*
X195001Y24264D01*
X195491Y24645D01*
X195708Y24482D01*
X195926Y24373D01*
X196089Y24319D01*
X196197D01*
X196415Y24373D01*
X196578Y24428D01*
X196741Y24699D01*
X196850Y24971D01*
Y25025D01*
Y25080D01*
X194947D01*
Y25623D01*
X195001Y26004D01*
X195165Y26330D01*
X195382Y26548D01*
X195599Y26656D01*
X195817Y26765D01*
X196034Y26819D01*
X196252D01*
X196632Y26765D01*
D02*
G37*
G36*
X202340D02*
X202666Y26656D01*
X202829Y26548D01*
X202884Y26493D01*
X203047Y26113D01*
X203101Y25787D01*
X203155Y25460D01*
Y25406D01*
Y25352D01*
X203101Y24862D01*
X202992Y24482D01*
X202938Y24264D01*
X202884Y24210D01*
X202557Y23938D01*
X202286Y23830D01*
X202068Y23775D01*
X201960D01*
X201579Y23830D01*
X201307Y23993D01*
X201144Y24156D01*
X201090Y24210D01*
X200981Y24319D01*
X200872Y24482D01*
X200818Y24862D01*
X200764Y25188D01*
Y25297D01*
Y25352D01*
X200818Y25895D01*
X200927Y26221D01*
X201035Y26439D01*
X201090Y26493D01*
X201307Y26711D01*
X201579Y26765D01*
X201851Y26819D01*
X201960D01*
X202340Y26765D01*
D02*
G37*
G36*
X189511D02*
X189783Y26711D01*
X189946Y26548D01*
X190055Y26384D01*
X190218Y26113D01*
Y26004D01*
Y25950D01*
X190163Y25678D01*
X190109Y25515D01*
X189783Y25243D01*
X189511Y25134D01*
X189457Y25080D01*
X188913D01*
X188641Y24971D01*
X188533Y24808D01*
X188478Y24754D01*
Y24699D01*
Y24591D01*
X188587Y24482D01*
X188750Y24373D01*
X188968Y24319D01*
X189076D01*
X189457Y24373D01*
X189783Y24536D01*
X190000Y24645D01*
X190055Y24699D01*
X190435Y24319D01*
X190000Y23993D01*
X189566Y23830D01*
X189239Y23775D01*
X189131D01*
X188696Y23830D01*
X188424Y23938D01*
X188207Y24047D01*
X188043Y24264D01*
X187935Y24428D01*
X187880Y24536D01*
Y24645D01*
Y24699D01*
X187935Y24971D01*
X187989Y25188D01*
X188315Y25460D01*
X188587Y25569D01*
X188696Y25623D01*
X188750D01*
X189294Y25678D01*
X189511Y25732D01*
X189620Y25841D01*
X189674Y25895D01*
Y25950D01*
X189566Y26167D01*
X189402Y26221D01*
X189239Y26276D01*
X189131D01*
X188913Y26221D01*
X188641Y26167D01*
X188424Y26058D01*
X188370Y26004D01*
X187989Y26384D01*
X188370Y26656D01*
X188696Y26765D01*
X189022Y26819D01*
X189131D01*
X189511Y26765D01*
D02*
G37*
G36*
X186684D02*
X187011Y26656D01*
X187228Y26548D01*
X187282Y26493D01*
X187445Y26167D01*
X187500Y25787D01*
X187554Y25460D01*
Y25406D01*
Y25352D01*
X187500Y24808D01*
X187391Y24482D01*
X187337Y24264D01*
X187282Y24210D01*
X186956Y23938D01*
X186630Y23830D01*
X186413Y23775D01*
X186304D01*
X185923Y23830D01*
X185652Y23993D01*
X185488Y24156D01*
X185434Y24210D01*
X185325Y24319D01*
X185217Y24482D01*
X185162Y24862D01*
X185108Y25188D01*
Y25297D01*
Y25352D01*
X185162Y25895D01*
X185271Y26221D01*
X185380Y26439D01*
X185434Y26493D01*
X185706Y26711D01*
X185978Y26765D01*
X186195Y26819D01*
X186304D01*
X186684Y26765D01*
D02*
G37*
G36*
X264582Y55793D02*
X255613Y46498D01*
X255395Y43943D01*
X254798Y37854D01*
X254363Y33451D01*
X263984Y23612D01*
X263278Y22960D01*
X254308Y32255D01*
X253765Y26548D01*
X253493D01*
Y24428D01*
X251482D01*
Y26548D01*
X245230D01*
X245013Y26113D01*
X244741Y25732D01*
X244306Y25243D01*
X243708Y24862D01*
X243056Y24645D01*
X242403Y24536D01*
X241751Y24591D01*
X241262Y24699D01*
X240718Y24917D01*
X240229Y25243D01*
X239848Y25623D01*
X239468Y26113D01*
X239196Y26711D01*
X239087Y27254D01*
X239033Y27743D01*
X239087Y28287D01*
X239142Y28722D01*
X239305Y29102D01*
X239522Y29537D01*
X239794Y29918D01*
X240175Y30244D01*
X240555Y30516D01*
X240936Y30733D01*
X240881Y31168D01*
X232999Y23014D01*
X232347Y23666D01*
X240827Y32418D01*
X240120Y40083D01*
X239685Y45628D01*
X237130D01*
Y49216D01*
X237783D01*
X231368Y55793D01*
X232021Y56445D01*
X238055Y50194D01*
Y50629D01*
X237946Y50738D01*
X237783Y50846D01*
X237620Y51010D01*
X237457Y51227D01*
X237348Y51444D01*
X237294Y51662D01*
Y51934D01*
Y52260D01*
X237402Y52477D01*
X237620Y52803D01*
X237892Y53075D01*
X238272Y53238D01*
X238598Y53293D01*
X238979Y53238D01*
X239305Y53075D01*
X239577Y52912D01*
X239685Y52749D01*
X239957Y52966D01*
X240338Y53238D01*
X240827Y53510D01*
X241534Y53728D01*
X242240Y53945D01*
X243001Y54108D01*
X243762Y54271D01*
X244415Y54325D01*
Y55141D01*
X249470D01*
Y54434D01*
X249905D01*
X250503Y54380D01*
X251210Y54271D01*
X251862Y54162D01*
Y54597D01*
X254091D01*
Y53564D01*
X254363Y53456D01*
X254689Y53293D01*
X255069Y53021D01*
X255395Y52803D01*
X255722Y52532D01*
X255885Y52368D01*
X256048Y52205D01*
X256156Y51988D01*
X256102Y51608D01*
X257352D01*
Y49977D01*
X255939D01*
X255722Y47911D01*
X263930Y56445D01*
X264582Y55793D01*
D02*
G37*
G36*
X194349Y19100D02*
X193751D01*
Y20894D01*
Y21112D01*
X193642Y21275D01*
X193479Y21492D01*
X193316Y21546D01*
X193208D01*
X193044Y21492D01*
X192936Y21438D01*
X192827Y21383D01*
X192773Y21329D01*
X192338Y21873D01*
X192555Y21981D01*
X192773Y22090D01*
X192990D01*
X193316Y22036D01*
X193534Y21927D01*
X193697Y21818D01*
X193751Y21764D01*
Y22090D01*
X194349D01*
Y19100D01*
D02*
G37*
G36*
X178693Y26765D02*
X179020Y26602D01*
X179237Y26330D01*
X179400Y26113D01*
X179509Y25841D01*
X179563Y25569D01*
Y25406D01*
Y25352D01*
X179509Y24808D01*
X179346Y24428D01*
X179128Y24156D01*
X178911Y23993D01*
X178693Y23884D01*
X178476Y23775D01*
X178259D01*
X177824Y23884D01*
X177443Y24047D01*
X177226Y24210D01*
X177171Y24319D01*
X177606Y24699D01*
X177824Y24536D01*
X178041Y24428D01*
X178204Y24373D01*
X178259D01*
X178476Y24428D01*
X178639Y24536D01*
X178857Y24862D01*
X178965Y25188D01*
Y25297D01*
Y25352D01*
X178911Y25678D01*
X178857Y25895D01*
X178748Y26058D01*
X178585Y26167D01*
X178367Y26276D01*
X178259D01*
X177987Y26221D01*
X177769Y26113D01*
X177661Y26004D01*
X177606Y25950D01*
X177171Y26330D01*
X177552Y26602D01*
X177878Y26765D01*
X178150Y26819D01*
X178259D01*
X178693Y26765D01*
D02*
G37*
G36*
X184564Y24808D02*
X184510Y24482D01*
X184401Y24210D01*
X184238Y24047D01*
X184021Y23884D01*
X183695Y23775D01*
X183531D01*
X183260Y23830D01*
X183042Y23938D01*
X182879Y24047D01*
X182825Y24101D01*
Y23830D01*
X182227D01*
Y26819D01*
X182825D01*
Y25080D01*
Y24862D01*
X182934Y24699D01*
X183097Y24482D01*
X183260Y24373D01*
X183368D01*
X183586Y24428D01*
X183695Y24482D01*
X183912Y24754D01*
X183966Y24971D01*
Y25025D01*
Y25080D01*
Y26819D01*
X184564D01*
Y24808D01*
D02*
G37*
G36*
X200220Y19100D02*
X199676D01*
Y20894D01*
X199622Y21112D01*
X199568Y21275D01*
X199350Y21492D01*
X199187Y21546D01*
X198861D01*
X198752Y21438D01*
X198535Y21220D01*
X198480Y21003D01*
Y20948D01*
Y20894D01*
Y19100D01*
X197883D01*
Y21057D01*
X197937Y21383D01*
X198046Y21655D01*
X198209Y21818D01*
X198372Y21981D01*
X198698Y22090D01*
X198861D01*
X199242Y22036D01*
X199513Y21927D01*
X199622Y21818D01*
X199676Y21764D01*
Y24101D01*
X199350Y23938D01*
X199079Y23830D01*
X198915Y23775D01*
X198861D01*
X198589Y23830D01*
X198317Y23993D01*
X198100Y24156D01*
X198046Y24210D01*
X197991Y24319D01*
X197937Y24482D01*
X197883Y24862D01*
Y25188D01*
Y25297D01*
Y25352D01*
Y25895D01*
X197937Y26221D01*
X197991Y26439D01*
X198046Y26493D01*
X198317Y26711D01*
X198589Y26765D01*
X198807Y26819D01*
X198861D01*
X199187Y26765D01*
X199459Y26656D01*
X199622Y26548D01*
X199676Y26493D01*
Y26819D01*
X200220D01*
Y19100D01*
D02*
G37*
G36*
X194512Y23830D02*
X193860D01*
Y25623D01*
X193806Y25841D01*
X193751Y26004D01*
X193534Y26221D01*
X193371Y26276D01*
X193044D01*
X192936Y26167D01*
X192718Y25950D01*
X192664Y25732D01*
Y25678D01*
Y25623D01*
Y23830D01*
X192066D01*
Y25787D01*
X192120Y26113D01*
X192229Y26384D01*
X192392Y26548D01*
X192555Y26711D01*
X192881Y26819D01*
X193044D01*
X193425Y26765D01*
X193697Y26656D01*
X193806Y26548D01*
X193860Y26493D01*
Y26819D01*
X194512D01*
Y23830D01*
D02*
G37*
G36*
X181520D02*
X180922D01*
Y25623D01*
X180868Y25841D01*
X180814Y26004D01*
X180596Y26221D01*
X180433Y26276D01*
X180324D01*
X180216Y26221D01*
X180107Y26167D01*
X180052Y26113D01*
X179998Y26058D01*
X179509Y26602D01*
X179726Y26711D01*
X179944Y26819D01*
X180107D01*
X180487Y26765D01*
X180759Y26656D01*
X180868Y26548D01*
X180922Y26493D01*
Y26819D01*
X181520D01*
Y23830D01*
D02*
G37*
%LPC*%
G36*
X301601Y16110D02*
X301493D01*
X301167Y16056D01*
X300895Y16002D01*
X300677Y15893D01*
X300623Y15839D01*
X300351Y15621D01*
X300134Y15404D01*
X300079Y15186D01*
X300025Y15132D01*
X299916Y14751D01*
X299808Y14425D01*
Y14153D01*
Y14099D01*
Y14045D01*
X299862Y13392D01*
X300025Y12903D01*
X300242Y12631D01*
X300297Y12523D01*
X300677Y12251D01*
X301112Y12088D01*
X301438Y12033D01*
X301547D01*
X302036Y12088D01*
X302417Y12305D01*
X302634Y12468D01*
X302743Y12523D01*
X303015Y12957D01*
X303178Y13447D01*
Y13664D01*
X303232Y13827D01*
Y13936D01*
Y13990D01*
Y14371D01*
X303178Y14751D01*
X303069Y15023D01*
X302960Y15241D01*
X302797Y15512D01*
X302743Y15621D01*
X302362Y15893D01*
X301928Y16056D01*
X301601Y16110D01*
D02*
G37*
G36*
X179183Y21546D02*
X178857D01*
X178693Y21438D01*
X178476Y21220D01*
X178367Y21003D01*
Y20948D01*
Y20894D01*
X179672D01*
X179618Y21112D01*
X179563Y21275D01*
X179346Y21492D01*
X179183Y21546D01*
D02*
G37*
G36*
X191196D02*
X191088D01*
X190925Y21492D01*
X190816Y21383D01*
X190653Y21112D01*
X190598Y20785D01*
Y20677D01*
Y20622D01*
Y20296D01*
X190653Y20079D01*
X190761Y19861D01*
X190816Y19752D01*
X191033Y19644D01*
X191088D01*
X191305Y19698D01*
X191468Y19807D01*
X191631Y20133D01*
X191740Y20459D01*
Y20568D01*
Y20622D01*
X191685Y20948D01*
X191631Y21166D01*
X191522Y21329D01*
X191414Y21438D01*
X191196Y21546D01*
D02*
G37*
G36*
X196415Y20350D02*
X195654D01*
Y20133D01*
Y19970D01*
X195763Y19807D01*
X195980Y19644D01*
X196197Y19589D01*
X196306D01*
X196632Y19644D01*
X196795Y19807D01*
X196850Y19970D01*
Y20024D01*
X196795Y20242D01*
X196578Y20296D01*
X196415Y20350D01*
D02*
G37*
G36*
X184347D02*
X183531D01*
Y20133D01*
X183586Y19970D01*
X183640Y19807D01*
X183858Y19644D01*
X184130Y19589D01*
X184238D01*
X184564Y19644D01*
X184727Y19807D01*
X184782Y19970D01*
Y20024D01*
X184673Y20242D01*
X184510Y20296D01*
X184347Y20350D01*
D02*
G37*
G36*
X306331Y39703D02*
X303341Y34484D01*
X303613Y34212D01*
X303667Y34158D01*
X303721Y34104D01*
X303939Y33832D01*
X304156Y33560D01*
X304319Y33342D01*
X304374Y33234D01*
X304537Y32908D01*
X304700Y32527D01*
X304809Y32255D01*
X304863Y32201D01*
Y32147D01*
X305081Y31657D01*
X305244Y31331D01*
X305298Y31168D01*
X305352Y31114D01*
X305515Y30842D01*
X305570Y30788D01*
X305624Y30733D01*
X305896Y30461D01*
X305950Y30407D01*
X306005Y30353D01*
X306548Y29864D01*
X307037Y29429D01*
X307418Y29157D01*
X307799Y28885D01*
X308125Y28722D01*
X308342Y28613D01*
X308451Y28559D01*
X308505D01*
X319975Y35191D01*
X319758Y35408D01*
X319540Y35517D01*
X319431Y35626D01*
X319377Y35680D01*
X319051Y35952D01*
X318779Y36115D01*
X318616Y36224D01*
X318562Y36278D01*
X318344Y36441D01*
X318181Y36550D01*
X318073Y36604D01*
X317692Y36822D01*
X317475Y36985D01*
X317312Y37039D01*
X317257Y37093D01*
X316768Y37420D01*
X316333Y37691D01*
X315952Y37963D01*
X315626Y38126D01*
X315354Y38235D01*
X315137Y38344D01*
X315028Y38398D01*
X314974D01*
X314159Y38561D01*
X313343Y38670D01*
X311712D01*
X311060Y38615D01*
X309973D01*
X309321Y38670D01*
X308777Y38778D01*
X308559Y38833D01*
X308396Y38887D01*
X308288Y38942D01*
X308233D01*
X306331Y39703D01*
D02*
G37*
G36*
X316116Y30896D02*
X315083Y30298D01*
X315137Y30027D01*
X315191Y29809D01*
Y29646D01*
Y29592D01*
X315137Y29320D01*
X315083Y29102D01*
X315028Y28939D01*
Y28885D01*
X314974Y28776D01*
X314811Y28450D01*
X314702Y28233D01*
X314594Y28124D01*
Y28070D01*
X314974Y27743D01*
X315300Y27417D01*
X315518Y27200D01*
X315572Y27145D01*
X315626Y27037D01*
X315681Y26982D01*
X315735Y26928D01*
Y26874D01*
X315898Y27200D01*
X316061Y27472D01*
X316116Y27635D01*
X316170Y27689D01*
X316279Y27852D01*
Y27907D01*
X316333Y28070D01*
Y28124D01*
X316387Y28341D01*
X316442Y28613D01*
Y28831D01*
Y28939D01*
Y28994D01*
Y29102D01*
Y29429D01*
Y29700D01*
Y29809D01*
Y29864D01*
Y30081D01*
X316387Y30298D01*
X316333Y30407D01*
Y30461D01*
X316224Y30788D01*
X316116Y30842D01*
Y30896D01*
D02*
G37*
G36*
X314594Y30027D02*
X313126Y29211D01*
X313452Y28994D01*
X313778Y28722D01*
X314050Y28559D01*
X314104Y28450D01*
X314159D01*
X314376Y28831D01*
X314430Y28939D01*
X314485Y28994D01*
X314539Y29102D01*
Y29157D01*
X314594Y29483D01*
Y29537D01*
Y29592D01*
Y29864D01*
Y29972D01*
Y30027D01*
D02*
G37*
G36*
X313832Y50357D02*
X313724D01*
Y50303D01*
X313126Y50194D01*
X312691Y50031D01*
X312365Y49868D01*
X312310Y49759D01*
X312256D01*
X312093Y49596D01*
X312039Y49542D01*
Y49487D01*
X311930Y49324D01*
X311876Y49270D01*
Y49216D01*
X311821D01*
X306657Y40246D01*
X308451Y39485D01*
X308994Y39322D01*
X309484Y39213D01*
X309701D01*
X309864Y39159D01*
X310625D01*
X311169Y39213D01*
X311332D01*
X311495Y39268D01*
X313506D01*
X313996Y39213D01*
X314376Y39105D01*
X314702Y39050D01*
X314920Y38996D01*
X315083Y38942D01*
X315137D01*
X315572Y38778D01*
X316007Y38561D01*
X316768Y38072D01*
X317148Y37854D01*
X317420Y37691D01*
X317583Y37583D01*
X317638Y37528D01*
X317801Y37420D01*
X318073Y37256D01*
X318236Y37148D01*
X318344Y37093D01*
X318562Y36985D01*
X318616Y36930D01*
X318671D01*
X318834Y36822D01*
X318888Y36767D01*
X319214Y36550D01*
X319486Y36332D01*
X319703Y36224D01*
X319758Y36169D01*
X320084Y35897D01*
X320301Y35680D01*
X320410Y35517D01*
X320464Y35463D01*
X322802Y36822D01*
X315681Y49216D01*
X315463Y49487D01*
X315246Y49759D01*
X315083Y49868D01*
X315028Y49922D01*
X314920Y49977D01*
X314865Y50031D01*
X314430Y50248D01*
X314104Y50303D01*
X313832Y50357D01*
D02*
G37*
G36*
X312528Y24536D02*
X312256Y24373D01*
X312147Y24319D01*
X311930D01*
X311876Y24264D01*
X311821D01*
X311658Y23993D01*
Y23775D01*
Y23612D01*
Y23558D01*
Y23449D01*
X311712Y23395D01*
X311767Y23286D01*
Y23232D01*
X311821D01*
X311984Y23123D01*
X312147Y23068D01*
X312365D01*
X312636Y23123D01*
X312800Y23177D01*
X312908Y23232D01*
X312963Y23286D01*
X313017D01*
X312800Y23666D01*
X312691Y23993D01*
X312582Y24210D01*
Y24264D01*
X312528Y24482D01*
Y24536D01*
D02*
G37*
G36*
X312582Y28885D02*
X310408Y27580D01*
X310680Y27417D01*
X310951Y27200D01*
X311169Y27037D01*
X311223Y26982D01*
X311278D01*
X311604Y26765D01*
X311821Y26602D01*
X311930Y26493D01*
X311984D01*
X312310Y26167D01*
X312528Y25841D01*
X312691Y25623D01*
X312745Y25569D01*
Y25515D01*
X312854Y25297D01*
X312963Y25080D01*
X313017Y25025D01*
Y24971D01*
Y24808D01*
X313071Y24754D01*
Y24699D01*
X313398Y24808D01*
X313561D01*
X313778Y24862D01*
X313832Y24917D01*
X314539D01*
X314865Y24862D01*
X314974D01*
X315083Y24808D01*
X315300D01*
X315354Y24754D01*
X315409Y24699D01*
X315463D01*
X315789Y24591D01*
X316061Y24428D01*
X316224Y24319D01*
X316279Y24264D01*
X316387Y24047D01*
X316435Y23999D01*
X316442Y23938D01*
Y23993D01*
X316435Y23999D01*
X316387Y24428D01*
X316224Y24971D01*
X316007Y25406D01*
X315789Y25841D01*
X315572Y26167D01*
X315354Y26493D01*
X315191Y26656D01*
X315137Y26711D01*
X314702Y27200D01*
X314267Y27580D01*
X313941Y27798D01*
X313887Y27907D01*
X313832D01*
X313343Y28287D01*
X312963Y28613D01*
X312691Y28831D01*
X312582Y28885D01*
D02*
G37*
G36*
X320410Y24156D02*
X319921D01*
X319758Y24047D01*
X319486Y23884D01*
X319268Y23666D01*
X319214Y23612D01*
Y23558D01*
X319160Y23449D01*
Y23395D01*
X319105Y23340D01*
X319051Y23286D01*
X318888Y23014D01*
X318834Y22905D01*
Y22851D01*
Y22797D01*
Y22688D01*
Y22634D01*
Y22579D01*
Y22470D01*
Y22416D01*
Y22362D01*
Y22253D01*
Y22199D01*
X318888Y22144D01*
X319105D01*
X319377Y22199D01*
X319595Y22362D01*
X319703Y22470D01*
X319758Y22525D01*
X319866Y22688D01*
X319975Y22905D01*
X320193Y23340D01*
X320247Y23558D01*
X320356Y23775D01*
X320410Y23884D01*
Y23938D01*
X320464Y24101D01*
X320410Y24156D01*
D02*
G37*
G36*
X303015Y33941D02*
X296709Y23014D01*
X296546Y22688D01*
X296437Y22416D01*
X296383Y22199D01*
Y22090D01*
Y22036D01*
Y21927D01*
Y21873D01*
Y21655D01*
Y21546D01*
X307907Y28178D01*
X307472Y28396D01*
X307092Y28668D01*
X306331Y29211D01*
X306005Y29483D01*
X305787Y29700D01*
X305624Y29864D01*
X305570Y29918D01*
X305298Y30190D01*
X305244Y30298D01*
X305189Y30353D01*
X304972Y30679D01*
X304863Y30733D01*
Y30788D01*
X304646Y31114D01*
X304483Y31494D01*
X304374Y31820D01*
X304319Y31875D01*
Y31929D01*
X304156Y32364D01*
X303993Y32690D01*
X303939Y32853D01*
X303885Y32908D01*
X303667Y33288D01*
X303450Y33506D01*
X303341Y33669D01*
X303287Y33723D01*
X303123Y33886D01*
X303015Y33941D01*
D02*
G37*
G36*
X323672Y35300D02*
X321660Y34104D01*
X321769Y33560D01*
X321932Y33071D01*
X322041Y32799D01*
X322149Y32636D01*
X322204Y32527D01*
Y32473D01*
X322421Y31984D01*
X322530Y31603D01*
X322639Y31386D01*
Y31331D01*
X322693Y31059D01*
Y30788D01*
X322584Y30081D01*
X322530Y29809D01*
X322476Y29537D01*
X322421Y29374D01*
Y29320D01*
X322367Y29102D01*
X322313Y28885D01*
Y28831D01*
Y28776D01*
X322258D01*
Y28722D01*
X322149Y28341D01*
X322095Y27852D01*
Y27635D01*
X322041Y27472D01*
Y27363D01*
Y27309D01*
X321986Y26928D01*
X321932Y26656D01*
X321878Y26384D01*
X321823Y26221D01*
X321769Y25950D01*
Y25895D01*
X321660Y25569D01*
X321552Y25243D01*
X321443Y24917D01*
X321389Y24862D01*
Y24808D01*
X321280Y24591D01*
X321171Y24373D01*
X321062Y24156D01*
X321008Y24047D01*
Y23993D01*
Y23938D01*
X320954Y23884D01*
Y23830D01*
Y23775D01*
X320791Y23340D01*
X320682Y23014D01*
X320519Y22742D01*
X320410Y22525D01*
X320356Y22362D01*
X320247Y22253D01*
X320193Y22144D01*
X319866Y21818D01*
X319486Y21655D01*
X319268Y21546D01*
X318942D01*
X318725Y21601D01*
X318616Y21655D01*
X318562D01*
X318181Y21873D01*
X318073Y21927D01*
X318018Y21981D01*
X317801Y22199D01*
X317638Y22416D01*
X317420Y22851D01*
X317312Y23177D01*
Y23232D01*
Y23286D01*
Y23503D01*
X317366Y23775D01*
X317475Y24428D01*
X317583Y24754D01*
X317638Y25025D01*
X317692Y25188D01*
Y25243D01*
X317475Y25134D01*
X317420Y25080D01*
X317366D01*
X317148Y24917D01*
X316985Y24808D01*
X316931Y24754D01*
X316985Y24428D01*
X317040Y24156D01*
Y23938D01*
Y23884D01*
Y23830D01*
Y23775D01*
Y23721D01*
X316985Y23340D01*
X316931Y22960D01*
X316714Y22416D01*
X316605Y22253D01*
X316550Y22090D01*
X316442Y22036D01*
Y21981D01*
X316224Y21818D01*
X315952Y21710D01*
X315735Y21655D01*
X315028D01*
X314702Y21764D01*
X314594Y21818D01*
X314539D01*
X314322Y21927D01*
X314159Y21981D01*
X314104Y22090D01*
X314050D01*
X313778Y22307D01*
X313561Y22579D01*
X313398Y22797D01*
X313343Y22851D01*
X313017Y22634D01*
X312691Y22525D01*
X312473Y22470D01*
X312365D01*
X311984Y22525D01*
X311658Y22634D01*
X311441Y22797D01*
X311386Y22851D01*
X311332Y22905D01*
X311223Y23068D01*
X311169Y23123D01*
X311114Y23286D01*
X311060Y23340D01*
Y23395D01*
X311006Y23666D01*
X311060Y23938D01*
X311114Y24101D01*
Y24156D01*
X310843D01*
X310353Y24210D01*
X310027Y24373D01*
X309810Y24482D01*
X309755Y24536D01*
X309701Y24645D01*
X309647Y24699D01*
X309592Y24971D01*
X309538Y25188D01*
Y25352D01*
Y25406D01*
Y25678D01*
X309647Y25895D01*
X309701Y26058D01*
X309755Y26113D01*
X309810Y26167D01*
X309864Y26221D01*
X310136Y26493D01*
X310299Y26711D01*
X310408Y26765D01*
X310462Y26819D01*
X310245Y26982D01*
X310027Y27145D01*
X309918Y27254D01*
X309864Y27309D01*
X297361Y20079D01*
X297524Y19916D01*
X297742Y19861D01*
X297905Y19752D01*
X298068D01*
X298177Y19698D01*
X298557D01*
Y19644D01*
X328890D01*
X329216Y19698D01*
X329488Y19752D01*
X329977Y19970D01*
X330304Y20133D01*
X330358Y20242D01*
X330412D01*
X330575Y20459D01*
X330630Y20514D01*
X330738Y20677D01*
X330793Y20785D01*
X330847D01*
X331065Y21329D01*
X331119Y21818D01*
Y22036D01*
X331065Y22144D01*
Y22253D01*
Y22307D01*
X331010Y22579D01*
X330956Y22634D01*
Y22688D01*
X330902Y22797D01*
X330847Y22851D01*
Y22905D01*
Y22960D01*
X323672Y35300D01*
D02*
G37*
G36*
X314376Y24645D02*
X313887D01*
X313561Y24536D01*
X313343Y24482D01*
X313180Y24428D01*
X313126Y24373D01*
X313234Y24101D01*
X313398Y23775D01*
X313615Y23503D01*
X313669Y23449D01*
Y23395D01*
X313996Y23014D01*
X314213Y22742D01*
X314322Y22634D01*
X314376Y22579D01*
X314594Y22470D01*
X314702Y22362D01*
X314757Y22307D01*
X314974Y22253D01*
X315626D01*
X315844Y22307D01*
X315952Y22362D01*
X316007Y22416D01*
X316224Y22634D01*
X316333Y22905D01*
X316442Y23123D01*
Y23177D01*
X316333Y23449D01*
Y23503D01*
X316170Y23775D01*
X316116Y23938D01*
X316061Y24047D01*
X315844Y24210D01*
X315626Y24319D01*
X315463Y24428D01*
X315300D01*
X315246Y24482D01*
X315137D01*
X315083Y24536D01*
X315028D01*
X314865Y24591D01*
X314594D01*
X314376Y24645D01*
D02*
G37*
G36*
X311006Y26439D02*
X310897D01*
X310788Y26330D01*
X310571Y26167D01*
X310353Y25950D01*
X310299Y25895D01*
Y25841D01*
Y25787D01*
X310245D01*
X310190Y25732D01*
X310136Y25623D01*
Y25515D01*
Y25460D01*
Y25406D01*
Y25297D01*
X310190Y25134D01*
X310245Y24971D01*
Y24917D01*
Y24862D01*
X310408Y24808D01*
X310571Y24754D01*
X310843D01*
X311278Y24808D01*
X311604Y24862D01*
X311821Y24917D01*
X311930D01*
X312202Y25025D01*
X312256Y25080D01*
X312310D01*
Y25134D01*
X312256Y25188D01*
Y25243D01*
X312039Y25569D01*
X311821Y25787D01*
X311658Y25950D01*
X311604Y26004D01*
X311441Y26167D01*
X311223Y26276D01*
X311060Y26384D01*
X311006Y26439D01*
D02*
G37*
G36*
X317529Y31712D02*
X316605Y31223D01*
X316822Y30842D01*
X316931Y30679D01*
Y30624D01*
X316985Y30353D01*
Y30135D01*
Y29918D01*
Y29864D01*
Y29537D01*
X317040Y29429D01*
Y29374D01*
Y29102D01*
Y28994D01*
Y28939D01*
X316985Y28504D01*
Y28233D01*
X316931Y28015D01*
Y27961D01*
X316877Y27798D01*
X316822Y27743D01*
Y27689D01*
X316768Y27580D01*
X316714Y27472D01*
Y27417D01*
X316550Y27037D01*
X316333Y26711D01*
X316170Y26493D01*
X316116Y26384D01*
X316387Y26004D01*
X316550Y25678D01*
X316659Y25460D01*
X316714Y25352D01*
X316931Y25460D01*
X316985Y25569D01*
X317040D01*
X317257Y25678D01*
X317366Y25787D01*
X317420Y25841D01*
X317529Y25950D01*
X317583Y26004D01*
X317638D01*
X317746Y26058D01*
X317855Y26113D01*
X317909Y26167D01*
X317964D01*
Y26221D01*
X318018Y26276D01*
Y26384D01*
Y26765D01*
X317964Y27145D01*
X317909Y27363D01*
Y27472D01*
Y27635D01*
Y27798D01*
X318018Y28233D01*
X318127Y28613D01*
X318181Y28722D01*
Y28776D01*
X318344Y29320D01*
X318399Y29700D01*
Y29918D01*
Y29972D01*
X318290Y30190D01*
X318181Y30407D01*
X318073Y30624D01*
X318018Y30679D01*
X317746Y31114D01*
X317583Y31440D01*
X317529Y31657D01*
Y31712D01*
D02*
G37*
G36*
X321062Y33777D02*
X318073Y32038D01*
X318127Y31712D01*
X318290Y31386D01*
X318453Y31114D01*
X318507Y31059D01*
Y31005D01*
X318779Y30624D01*
X318888Y30353D01*
X318997Y30135D01*
Y30081D01*
Y29646D01*
X318888Y29157D01*
X318834Y28939D01*
X318779Y28722D01*
X318725Y28613D01*
Y28559D01*
X318562Y28070D01*
X318507Y27798D01*
Y27635D01*
Y27580D01*
X318562Y27145D01*
X318616Y26711D01*
X318562Y26439D01*
Y26384D01*
Y26330D01*
Y26221D01*
Y26167D01*
Y26058D01*
Y26004D01*
X318507Y25841D01*
X318453Y25732D01*
Y25678D01*
X318399Y25460D01*
X318344Y25352D01*
Y25297D01*
X318181Y24754D01*
X318073Y24319D01*
X317964Y23993D01*
Y23721D01*
X317909Y23558D01*
Y23449D01*
Y23340D01*
X317964Y22960D01*
X318127Y22688D01*
X318344Y22470D01*
X318399Y22416D01*
X318453Y22362D01*
X318507Y22307D01*
Y22470D01*
Y22579D01*
Y22851D01*
X318562Y22905D01*
X318671Y23286D01*
X318725Y23395D01*
X318779Y23449D01*
X318888Y23558D01*
X318942Y23666D01*
X319105Y23938D01*
X319323Y24156D01*
X319540Y24264D01*
X319703Y24373D01*
X320029Y24482D01*
X320356D01*
X320410Y24428D01*
X320573D01*
X320627Y24645D01*
X320736Y24862D01*
X320791Y25025D01*
X320845Y25080D01*
X321008Y25460D01*
X321117Y25787D01*
X321171Y26004D01*
X321225Y26058D01*
X321334Y26493D01*
X321389Y26874D01*
X321443Y27254D01*
Y27309D01*
Y27363D01*
X321552Y28015D01*
X321660Y28504D01*
X321715Y28776D01*
Y28885D01*
Y28939D01*
X321769Y29102D01*
X321823Y29265D01*
X321878Y29429D01*
Y29483D01*
X321986Y29918D01*
X322041Y30244D01*
X322095Y30570D01*
Y30788D01*
Y30951D01*
Y31059D01*
Y31168D01*
X321986Y31440D01*
X321878Y31766D01*
X321715Y32092D01*
X321660Y32147D01*
Y32201D01*
X321334Y32853D01*
X321171Y33342D01*
X321062Y33669D01*
Y33777D01*
D02*
G37*
G36*
X330956Y16056D02*
X330847Y15676D01*
X330738Y15349D01*
X330630Y15132D01*
X330575Y15023D01*
X330086Y13610D01*
X331771D01*
X331228Y15078D01*
X331119Y15458D01*
X331010Y15730D01*
X330956Y15947D01*
Y16056D01*
D02*
G37*
G36*
X309755Y7032D02*
X308886D01*
X308831Y6978D01*
X308777D01*
X308668Y6924D01*
X308559Y6815D01*
X308451Y6761D01*
Y6706D01*
X308396Y6543D01*
X308342Y6326D01*
Y6163D01*
Y6108D01*
Y5782D01*
X308396Y5673D01*
Y5619D01*
X308559Y5401D01*
X308614Y5293D01*
X308723Y5184D01*
X308831D01*
X308940Y5130D01*
X309755D01*
Y7032D01*
D02*
G37*
G36*
X305787Y10457D02*
X305678Y10131D01*
X305624Y9968D01*
Y9913D01*
X305352Y9207D01*
X306222D01*
X305896Y9968D01*
X305841Y10294D01*
X305787Y10403D01*
Y10457D01*
D02*
G37*
G36*
X315844Y10403D02*
X314865D01*
X314757Y10348D01*
X314648Y10294D01*
X314539Y10131D01*
Y10076D01*
Y10022D01*
Y9859D01*
X314594Y9805D01*
X314702Y9696D01*
X314757Y9642D01*
X314811D01*
X315028Y9587D01*
X315844D01*
Y10403D01*
D02*
G37*
G36*
X312745Y10457D02*
X312528D01*
X312202Y10403D01*
X312147Y10348D01*
X312093D01*
X311930Y10239D01*
X311821Y10131D01*
X311767Y10022D01*
Y9968D01*
X311658Y9642D01*
Y9478D01*
Y9424D01*
X311712Y9098D01*
X311767Y8880D01*
X311876Y8772D01*
X311930Y8717D01*
X312093Y8609D01*
X312310Y8554D01*
X312473Y8500D01*
X312528D01*
X312800Y8554D01*
X313017Y8609D01*
X313126Y8663D01*
X313180D01*
X313289Y8880D01*
X313343Y9152D01*
X313398Y9370D01*
Y9424D01*
X313343Y9805D01*
X313289Y10022D01*
X313234Y10185D01*
X313180Y10239D01*
X312963Y10348D01*
X312745Y10457D01*
D02*
G37*
G36*
X175921Y26276D02*
X175649D01*
X175486Y26167D01*
X175269Y25950D01*
X175160Y25732D01*
Y25678D01*
Y25623D01*
X176410D01*
X176356Y25841D01*
X176302Y26004D01*
X176084Y26221D01*
X175921Y26276D01*
D02*
G37*
G36*
X196361D02*
X196034D01*
X195871Y26167D01*
X195654Y25950D01*
X195545Y25732D01*
Y25678D01*
Y25623D01*
X196850D01*
X196795Y25841D01*
X196741Y26004D01*
X196524Y26221D01*
X196361Y26276D01*
D02*
G37*
G36*
X202014D02*
X201960D01*
X201742Y26221D01*
X201633Y26167D01*
X201525Y26058D01*
Y26004D01*
X201416Y25841D01*
X201362Y25623D01*
Y25460D01*
Y25352D01*
Y25025D01*
X201416Y24754D01*
X201470Y24645D01*
X201525Y24591D01*
X201633Y24482D01*
X201742Y24428D01*
X201905Y24373D01*
X201960D01*
X202177Y24428D01*
X202340Y24482D01*
X202449Y24536D01*
Y24591D01*
X202557Y24862D01*
X202612Y25080D01*
Y25297D01*
Y25352D01*
X202557Y25623D01*
X202503Y25841D01*
X202449Y25950D01*
Y26004D01*
X202340Y26167D01*
X202177Y26221D01*
X202014Y26276D01*
D02*
G37*
G36*
X186358D02*
X186304D01*
X186141Y26221D01*
X185978Y26167D01*
X185923Y26058D01*
X185869Y26004D01*
X185760Y25841D01*
X185706Y25623D01*
Y25460D01*
Y25352D01*
Y25025D01*
X185760Y24754D01*
X185815Y24645D01*
X185869Y24591D01*
X185978Y24482D01*
X186141Y24428D01*
X186249Y24373D01*
X186304D01*
X186521Y24428D01*
X186684Y24482D01*
X186793Y24536D01*
Y24591D01*
X186902Y24808D01*
X186956Y25080D01*
Y25243D01*
Y25352D01*
X186902Y25678D01*
X186847Y25895D01*
X186793Y26004D01*
X186684Y26167D01*
X186521Y26221D01*
X186358Y26276D01*
D02*
G37*
G36*
X242512Y29374D02*
X242295D01*
X241751Y29320D01*
X241371Y29157D01*
X241044Y28885D01*
X240881Y28613D01*
X240773Y28287D01*
X240664Y28070D01*
Y27852D01*
Y27798D01*
X240718Y27254D01*
X240936Y26874D01*
X241153Y26548D01*
X241479Y26384D01*
X241751Y26276D01*
X242023Y26221D01*
X242240Y26167D01*
X242295D01*
X242838Y26221D01*
X243219Y26439D01*
X243491Y26711D01*
X243654Y26982D01*
X243762Y27309D01*
X243871Y27526D01*
Y27743D01*
Y27798D01*
X243817Y28341D01*
X243599Y28722D01*
X243382Y28994D01*
X243056Y29157D01*
X242784Y29320D01*
X242512Y29374D01*
D02*
G37*
G36*
X248057Y38615D02*
X241751Y32092D01*
X241860Y30951D01*
X242295Y31005D01*
X242784Y30951D01*
X243327Y30788D01*
X243871Y30516D01*
X244360Y30244D01*
X244741Y29864D01*
X245067Y29320D01*
X245339Y28722D01*
X245502Y28015D01*
X245448Y27526D01*
X252949D01*
X253438Y33071D01*
X248057Y38615D01*
D02*
G37*
G36*
X240718Y46172D02*
Y45628D01*
X240610D01*
X241642Y33342D01*
X247405Y39268D01*
X243708Y43127D01*
X242947D01*
Y43888D01*
X240718Y46172D01*
D02*
G37*
G36*
X254091Y52532D02*
Y51608D01*
X255178D01*
Y51771D01*
X254906Y52042D01*
X254580Y52260D01*
X254091Y52532D01*
D02*
G37*
G36*
X238707Y52368D02*
X238653D01*
X238381Y52314D01*
X238272Y52151D01*
X238218Y51934D01*
Y51879D01*
X238272Y51608D01*
X238435Y51499D01*
X238598Y51444D01*
X238653D01*
X238924Y51499D01*
X239087Y51662D01*
X239142Y51825D01*
Y51879D01*
X239087Y52151D01*
X238870Y52314D01*
X238707Y52368D01*
D02*
G37*
G36*
X253167Y53673D02*
X252786D01*
Y52477D01*
X253167D01*
Y53673D01*
D02*
G37*
G36*
X248546Y54217D02*
X245285D01*
Y53673D01*
X248546D01*
Y54217D01*
D02*
G37*
G36*
X249470Y53456D02*
Y52749D01*
X244415D01*
Y53347D01*
X243327Y53238D01*
X242403Y52966D01*
X241588Y52749D01*
X240990Y52477D01*
X240446Y52151D01*
X240120Y51879D01*
Y51608D01*
X251862D01*
Y53184D01*
X251155Y53293D01*
X250394Y53401D01*
X249470Y53456D01*
D02*
G37*
G36*
X254634Y45410D02*
X248709Y39268D01*
X253547Y34321D01*
X254634Y45410D01*
D02*
G37*
G36*
X255015Y49977D02*
X240229D01*
X240283Y49216D01*
X240718D01*
Y47476D01*
X242947Y45247D01*
X249579D01*
Y43127D01*
X245013D01*
X248057Y39974D01*
X254743Y46878D01*
X255015Y49977D01*
D02*
G37*
G36*
X239794Y48292D02*
X238055D01*
Y46552D01*
X239794D01*
Y48292D01*
D02*
G37*
G36*
X248655Y44323D02*
X243925D01*
Y43997D01*
X248655D01*
Y44323D01*
D02*
G37*
G36*
X252569Y26602D02*
X252351D01*
Y25297D01*
X252569D01*
Y26602D01*
D02*
G37*
%LPD*%
G36*
X242621Y28776D02*
X242893Y28668D01*
X243056Y28504D01*
X243219Y28341D01*
X243327Y27961D01*
Y27852D01*
Y27798D01*
X243273Y27417D01*
X243164Y27145D01*
X243001Y26982D01*
X242784Y26874D01*
X242458Y26711D01*
X242295D01*
X241914Y26765D01*
X241642Y26874D01*
X241479Y27037D01*
X241316Y27254D01*
X241208Y27635D01*
Y27743D01*
Y27798D01*
X241262Y28124D01*
X241371Y28396D01*
X241534Y28559D01*
X241751Y28722D01*
X242132Y28831D01*
X242295D01*
X242621Y28776D01*
D02*
G37*
%LPC*%
G36*
X242349Y27961D02*
X242186D01*
X242132Y27907D01*
Y27852D01*
Y27798D01*
Y27689D01*
X242186Y27635D01*
X242295D01*
X242403Y27689D01*
X242458Y27743D01*
Y27798D01*
X242403Y27907D01*
X242349Y27961D01*
D02*
G37*
G36*
X199187Y26276D02*
X199079D01*
X198861Y26221D01*
X198752Y26113D01*
X198535Y25841D01*
X198480Y25515D01*
Y25406D01*
Y25352D01*
Y25025D01*
X198589Y24808D01*
X198644Y24591D01*
X198752Y24482D01*
X198970Y24373D01*
X199079D01*
X199296Y24428D01*
X199405Y24536D01*
X199622Y24862D01*
X199676Y25188D01*
Y25297D01*
Y25352D01*
X199622Y25678D01*
X199568Y25895D01*
X199459Y26058D01*
X199350Y26167D01*
X199187Y26276D01*
D02*
G37*
%LPD*%
D31*
X3Y-32D02*
X350397D01*
X3D02*
Y200755D01*
X350397D01*
Y-32D02*
Y200755D01*
D42*
X330984Y162720D02*
Y165344D01*
X329672Y166656D01*
X328360Y165344D01*
Y162720D01*
Y164688D01*
X330984D01*
X327048Y165344D02*
Y162720D01*
Y164032D01*
X326393Y164688D01*
X325737Y165344D01*
X325081D01*
X320489Y166656D02*
Y162720D01*
X322457D01*
X323113Y163376D01*
Y164688D01*
X322457Y165344D01*
X320489D01*
X319177D02*
Y163376D01*
X318521Y162720D01*
X316553D01*
Y165344D01*
X315241Y162720D02*
X313929D01*
X314585D01*
Y165344D01*
X315241D01*
X311962Y162720D02*
Y165344D01*
X309994D01*
X309338Y164688D01*
Y162720D01*
X307370D02*
X306058D01*
X305402Y163376D01*
Y164688D01*
X306058Y165344D01*
X307370D01*
X308026Y164688D01*
Y163376D01*
X307370Y162720D01*
X300154D02*
Y166656D01*
X297531Y162720D01*
Y166656D01*
X295563Y165344D02*
X294251D01*
X293595Y164688D01*
Y162720D01*
X295563D01*
X296219Y163376D01*
X295563Y164032D01*
X293595D01*
X292283Y162720D02*
Y165344D01*
X290315D01*
X289659Y164688D01*
Y162720D01*
X287691D02*
X286379D01*
X285723Y163376D01*
Y164688D01*
X286379Y165344D01*
X287691D01*
X288347Y164688D01*
Y163376D01*
X287691Y162720D01*
X277852Y165344D02*
X279820D01*
X280476Y164688D01*
Y163376D01*
X279820Y162720D01*
X277852D01*
X275884D02*
X274572D01*
X273916Y163376D01*
Y164688D01*
X274572Y165344D01*
X275884D01*
X276540Y164688D01*
Y163376D01*
X275884Y162720D01*
X272604D02*
Y165344D01*
X271948D01*
X271292Y164688D01*
Y162720D01*
Y164688D01*
X270636Y165344D01*
X269980Y164688D01*
Y162720D01*
X268668Y161408D02*
Y165344D01*
X266701D01*
X266045Y164688D01*
Y163376D01*
X266701Y162720D01*
X268668D01*
X264077Y165344D02*
X262765D01*
X262109Y164688D01*
Y162720D01*
X264077D01*
X264733Y163376D01*
X264077Y164032D01*
X262109D01*
X260141Y166000D02*
Y165344D01*
X260797D01*
X259485D01*
X260141D01*
Y163376D01*
X259485Y162720D01*
X257517D02*
X256205D01*
X256861D01*
Y165344D01*
X257517D01*
X254237Y166656D02*
Y162720D01*
X252270D01*
X251613Y163376D01*
Y164032D01*
Y164688D01*
X252270Y165344D01*
X254237D01*
X250302Y162720D02*
X248990D01*
X249646D01*
Y166656D01*
X250302D01*
X245054Y162720D02*
X246366D01*
X247022Y163376D01*
Y164688D01*
X246366Y165344D01*
X245054D01*
X244398Y164688D01*
Y164032D01*
X247022D01*
X239150Y166656D02*
Y162720D01*
X237182D01*
X236526Y163376D01*
Y164032D01*
Y164688D01*
X237182Y165344D01*
X239150D01*
X235215D02*
Y163376D01*
X234559Y162720D01*
X232591D01*
Y165344D01*
X231279Y162720D02*
X229311D01*
X228655Y163376D01*
X229311Y164032D01*
X230623D01*
X231279Y164688D01*
X230623Y165344D01*
X228655D01*
X227343Y162720D02*
X226031D01*
X226687D01*
Y165344D01*
X227343D01*
X224063Y162720D02*
Y165344D01*
X222095D01*
X221440Y164688D01*
Y162720D01*
X218160D02*
X219472D01*
X220128Y163376D01*
Y164688D01*
X219472Y165344D01*
X218160D01*
X217504Y164688D01*
Y164032D01*
X220128D01*
X216192Y162720D02*
X214224D01*
X213568Y163376D01*
X214224Y164032D01*
X215536D01*
X216192Y164688D01*
X215536Y165344D01*
X213568D01*
X212256Y162720D02*
X210288D01*
X209632Y163376D01*
X210288Y164032D01*
X211600D01*
X212256Y164688D01*
X211600Y165344D01*
X209632D01*
X201761D02*
X203729D01*
X204385Y164688D01*
Y163376D01*
X203729Y162720D01*
X201761D01*
X199793Y165344D02*
X198481D01*
X197825Y164688D01*
Y162720D01*
X199793D01*
X200449Y163376D01*
X199793Y164032D01*
X197825D01*
X196513Y165344D02*
Y162720D01*
Y164032D01*
X195857Y164688D01*
X195201Y165344D01*
X194545D01*
X189954Y166656D02*
Y162720D01*
X191921D01*
X192577Y163376D01*
Y164688D01*
X191921Y165344D01*
X189954D01*
X188642Y162720D02*
Y163376D01*
X187986D01*
Y162720D01*
X188642D01*
X330984Y159204D02*
Y155268D01*
Y157236D01*
X328360D01*
Y159204D01*
Y155268D01*
X326393Y157892D02*
X325081D01*
X324425Y157236D01*
Y155268D01*
X326393D01*
X327048Y155924D01*
X326393Y156580D01*
X324425D01*
X323113Y157892D02*
Y155268D01*
Y156580D01*
X322457Y157236D01*
X321801Y157892D01*
X321145D01*
X316553Y159204D02*
Y155268D01*
X318521D01*
X319177Y155924D01*
Y157236D01*
X318521Y157892D01*
X316553D01*
X315241D02*
Y155924D01*
X314585Y155268D01*
X313929Y155924D01*
X313273Y155268D01*
X312617Y155924D01*
Y157892D01*
X310650D02*
X309338D01*
X308682Y157236D01*
Y155268D01*
X310650D01*
X311306Y155924D01*
X310650Y156580D01*
X308682D01*
X307370Y157892D02*
Y155268D01*
Y156580D01*
X306714Y157236D01*
X306058Y157892D01*
X305402D01*
X301466Y155268D02*
X302778D01*
X303434Y155924D01*
Y157236D01*
X302778Y157892D01*
X301466D01*
X300810Y157236D01*
Y156580D01*
X303434D01*
X295563Y157892D02*
X294251Y155268D01*
X292939Y157892D01*
X289659Y155268D02*
X290971D01*
X291627Y155924D01*
Y157236D01*
X290971Y157892D01*
X289659D01*
X289003Y157236D01*
Y156580D01*
X291627D01*
X287691Y157892D02*
Y155268D01*
Y156580D01*
X287035Y157236D01*
X286379Y157892D01*
X285723D01*
X283755Y155268D02*
X281787D01*
X281132Y155924D01*
X281787Y156580D01*
X283099D01*
X283755Y157236D01*
X283099Y157892D01*
X281132D01*
X279820Y155268D02*
X278508D01*
X279164D01*
Y157892D01*
X279820D01*
X275884Y155268D02*
X274572D01*
X273916Y155924D01*
Y157236D01*
X274572Y157892D01*
X275884D01*
X276540Y157236D01*
Y155924D01*
X275884Y155268D01*
X272604D02*
Y157892D01*
X270636D01*
X269980Y157236D01*
Y155268D01*
X264733D02*
Y159204D01*
X262765D01*
X262109Y158548D01*
Y157236D01*
X262765Y156580D01*
X264733D01*
X263421D02*
X262109Y155268D01*
X258173D02*
X260797D01*
X258173Y157892D01*
Y158548D01*
X258829Y159204D01*
X260141D01*
X260797Y158548D01*
X256205Y154612D02*
X255549Y155268D01*
Y155924D01*
X256205D01*
Y155268D01*
X255549D01*
X256205Y154612D01*
X256861Y153956D01*
X248990Y159204D02*
Y155268D01*
X247022D01*
X246366Y155924D01*
Y158548D01*
X247022Y159204D01*
X248990D01*
X242430D02*
X245054D01*
Y155268D01*
X242430D01*
X245054Y157236D02*
X243742D01*
X238494Y158548D02*
X239150Y159204D01*
X240462D01*
X241118Y158548D01*
Y155924D01*
X240462Y155268D01*
X239150D01*
X238494Y155924D01*
X230623Y155268D02*
X233247D01*
X230623Y157892D01*
Y158548D01*
X231279Y159204D01*
X232591D01*
X233247Y158548D01*
X229311D02*
X228655Y159204D01*
X227343D01*
X226687Y158548D01*
Y155924D01*
X227343Y155268D01*
X228655D01*
X229311Y155924D01*
Y158548D01*
X225375Y155268D02*
X224063D01*
X224719D01*
Y159204D01*
X225375Y158548D01*
X222095D02*
X221440Y159204D01*
X220128D01*
X219472Y158548D01*
Y157892D01*
X220128Y157236D01*
X219472Y156580D01*
Y155924D01*
X220128Y155268D01*
X221440D01*
X222095Y155924D01*
Y156580D01*
X221440Y157236D01*
X222095Y157892D01*
Y158548D01*
X221440Y157236D02*
X220128D01*
X218160Y155268D02*
Y155924D01*
X217504D01*
Y155268D01*
X218160D01*
X330984Y146923D02*
X328360D01*
X329672D01*
Y142988D01*
X327048Y146923D02*
Y142988D01*
Y144956D01*
X326393Y145611D01*
X325081D01*
X324425Y144956D01*
Y142988D01*
X323113D02*
X321801D01*
X322457D01*
Y145611D01*
X323113D01*
X319833Y142988D02*
X317865D01*
X317209Y143644D01*
X317865Y144299D01*
X319177D01*
X319833Y144956D01*
X319177Y145611D01*
X317209D01*
X311962Y142988D02*
X310650D01*
X311306D01*
Y145611D01*
X311962D01*
X308682Y142988D02*
X306714D01*
X306058Y143644D01*
X306714Y144299D01*
X308026D01*
X308682Y144956D01*
X308026Y145611D01*
X306058D01*
X300154D02*
X298842D01*
X298186Y144956D01*
Y142988D01*
X300154D01*
X300810Y143644D01*
X300154Y144299D01*
X298186D01*
X292283Y142988D02*
Y146267D01*
Y144956D01*
X292939D01*
X291627D01*
X292283D01*
Y146267D01*
X291627Y146923D01*
X289659Y145611D02*
Y143644D01*
X289003Y142988D01*
X287035D01*
Y145611D01*
X285723Y142988D02*
X284411D01*
X285067D01*
Y146923D01*
X285723D01*
X282443Y142988D02*
X281132D01*
X281787D01*
Y146923D01*
X282443D01*
X279164Y145611D02*
Y143644D01*
X278508Y142988D01*
X276540D01*
Y142332D01*
X277196Y141676D01*
X277852D01*
X276540Y142988D02*
Y145611D01*
X270636Y142988D02*
Y146267D01*
Y144956D01*
X271292D01*
X269980D01*
X270636D01*
Y146267D01*
X269980Y146923D01*
X268012Y145611D02*
Y143644D01*
X267356Y142988D01*
X265389D01*
Y145611D01*
X264077Y142988D02*
Y145611D01*
X262109D01*
X261453Y144956D01*
Y142988D01*
X257517Y145611D02*
X259485D01*
X260141Y144956D01*
Y143644D01*
X259485Y142988D01*
X257517D01*
X255549Y146267D02*
Y145611D01*
X256205D01*
X254893D01*
X255549D01*
Y143644D01*
X254893Y142988D01*
X252925D02*
X251613D01*
X252270D01*
Y145611D01*
X252925D01*
X248990Y142988D02*
X247678D01*
X247022Y143644D01*
Y144956D01*
X247678Y145611D01*
X248990D01*
X249646Y144956D01*
Y143644D01*
X248990Y142988D01*
X245710D02*
Y145611D01*
X243742D01*
X243086Y144956D01*
Y142988D01*
X241118Y145611D02*
X239806D01*
X239150Y144956D01*
Y142988D01*
X241118D01*
X241774Y143644D01*
X241118Y144299D01*
X239150D01*
X237838Y142988D02*
X236526D01*
X237182D01*
Y146923D01*
X237838D01*
X226687Y142988D02*
Y145611D01*
X226031D01*
X225375Y144956D01*
Y142988D01*
Y144956D01*
X224719Y145611D01*
X224063Y144956D01*
Y142988D01*
X222751D02*
X221440D01*
X222095D01*
Y145611D01*
X222751D01*
X216848D02*
X218816D01*
X219472Y144956D01*
Y143644D01*
X218816Y142988D01*
X216848D01*
X215536Y145611D02*
Y142988D01*
Y144299D01*
X214880Y144956D01*
X214224Y145611D01*
X213568D01*
X210944Y142988D02*
X209632D01*
X208976Y143644D01*
Y144956D01*
X209632Y145611D01*
X210944D01*
X211600Y144956D01*
Y143644D01*
X210944Y142988D01*
X207664Y144956D02*
X205041D01*
X328360Y138159D02*
X330328D01*
X330984Y137503D01*
Y136191D01*
X330328Y135536D01*
X328360D01*
X326393D02*
X325081D01*
X324425Y136191D01*
Y137503D01*
X325081Y138159D01*
X326393D01*
X327048Y137503D01*
Y136191D01*
X326393Y135536D01*
X323113D02*
Y138159D01*
X321145D01*
X320489Y137503D01*
Y135536D01*
X318521Y138815D02*
Y138159D01*
X319177D01*
X317865D01*
X318521D01*
Y136191D01*
X317865Y135536D01*
X315897Y138159D02*
Y135536D01*
Y136847D01*
X315241Y137503D01*
X314585Y138159D01*
X313929D01*
X311306Y135536D02*
X309994D01*
X309338Y136191D01*
Y137503D01*
X309994Y138159D01*
X311306D01*
X311962Y137503D01*
Y136191D01*
X311306Y135536D01*
X308026D02*
X306714D01*
X307370D01*
Y139471D01*
X308026D01*
X304746Y135536D02*
X303434D01*
X304090D01*
Y139471D01*
X304746D01*
X299498Y135536D02*
X300810D01*
X301466Y136191D01*
Y137503D01*
X300810Y138159D01*
X299498D01*
X298842Y137503D01*
Y136847D01*
X301466D01*
X297531Y138159D02*
Y135536D01*
Y136847D01*
X296874Y137503D01*
X296219Y138159D01*
X295563D01*
X289659Y134224D02*
Y138159D01*
X287691D01*
X287035Y137503D01*
Y136191D01*
X287691Y135536D01*
X289659D01*
X285723Y138159D02*
Y135536D01*
Y136847D01*
X285067Y137503D01*
X284411Y138159D01*
X283755D01*
X281132Y135536D02*
X279820D01*
X279164Y136191D01*
Y137503D01*
X279820Y138159D01*
X281132D01*
X281787Y137503D01*
Y136191D01*
X281132Y135536D01*
X277196Y138815D02*
Y138159D01*
X277852D01*
X276540D01*
X277196D01*
Y136191D01*
X276540Y135536D01*
X273916D02*
X272604D01*
X271948Y136191D01*
Y137503D01*
X272604Y138159D01*
X273916D01*
X274572Y137503D01*
Y136191D01*
X273916Y135536D01*
X269980Y138815D02*
Y138159D01*
X270636D01*
X269324D01*
X269980D01*
Y136191D01*
X269324Y135536D01*
X267356Y138159D02*
Y136191D01*
X266701Y135536D01*
X264733D01*
Y134880D01*
X265389Y134224D01*
X266045D01*
X264733Y135536D02*
Y138159D01*
X263421Y134224D02*
Y138159D01*
X261453D01*
X260797Y137503D01*
Y136191D01*
X261453Y135536D01*
X263421D01*
X259485D02*
X258173D01*
X258829D01*
Y138159D01*
X259485D01*
X256205Y135536D02*
Y138159D01*
X254237D01*
X253581Y137503D01*
Y135536D01*
X250958Y134224D02*
X250302D01*
X249646Y134880D01*
Y138159D01*
X251613D01*
X252270Y137503D01*
Y136191D01*
X251613Y135536D01*
X249646D01*
X244398Y139471D02*
Y135536D01*
X242430D01*
X241774Y136191D01*
Y136847D01*
Y137503D01*
X242430Y138159D01*
X244398D01*
X239806Y135536D02*
X238494D01*
X237838Y136191D01*
Y137503D01*
X238494Y138159D01*
X239806D01*
X240462Y137503D01*
Y136191D01*
X239806Y135536D01*
X235871Y138159D02*
X234559D01*
X233903Y137503D01*
Y135536D01*
X235871D01*
X236526Y136191D01*
X235871Y136847D01*
X233903D01*
X232591Y138159D02*
Y135536D01*
Y136847D01*
X231935Y137503D01*
X231279Y138159D01*
X230623D01*
X226031Y139471D02*
Y135536D01*
X227999D01*
X228655Y136191D01*
Y137503D01*
X227999Y138159D01*
X226031D01*
X224719Y135536D02*
Y136191D01*
X224063D01*
Y135536D01*
X224719D01*
X217504Y139471D02*
X214880D01*
X216192D01*
Y135536D01*
X213568Y139471D02*
Y135536D01*
Y137503D01*
X212912Y138159D01*
X211600D01*
X210944Y137503D01*
Y135536D01*
X209632D02*
X208320D01*
X208976D01*
Y138159D01*
X209632D01*
X206352Y135536D02*
X204385D01*
X203729Y136191D01*
X204385Y136847D01*
X205697D01*
X206352Y137503D01*
X205697Y138159D01*
X203729D01*
X328360Y132019D02*
Y128083D01*
X330328D01*
X330984Y128739D01*
Y130051D01*
X330328Y130707D01*
X328360D01*
X325081Y128083D02*
X326393D01*
X327048Y128739D01*
Y130051D01*
X326393Y130707D01*
X325081D01*
X324425Y130051D01*
Y129395D01*
X327048D01*
X323113Y130707D02*
X321801Y128083D01*
X320489Y130707D01*
X319177Y128083D02*
X317865D01*
X318521D01*
Y130707D01*
X319177D01*
X313273D02*
X315241D01*
X315897Y130051D01*
Y128739D01*
X315241Y128083D01*
X313273D01*
X309994D02*
X311306D01*
X311962Y128739D01*
Y130051D01*
X311306Y130707D01*
X309994D01*
X309338Y130051D01*
Y129395D01*
X311962D01*
X307370Y127427D02*
X306714Y128083D01*
Y128739D01*
X307370D01*
Y128083D01*
X306714D01*
X307370Y127427D01*
X308026Y126771D01*
X299498Y130707D02*
X298186D01*
X297531Y130051D01*
Y128083D01*
X299498D01*
X300154Y128739D01*
X299498Y129395D01*
X297531D01*
X295563Y128083D02*
Y131363D01*
Y130051D01*
X296219D01*
X294907D01*
X295563D01*
Y131363D01*
X294907Y132019D01*
X292283Y131363D02*
Y130707D01*
X292939D01*
X291627D01*
X292283D01*
Y128739D01*
X291627Y128083D01*
X287691D02*
X289003D01*
X289659Y128739D01*
Y130051D01*
X289003Y130707D01*
X287691D01*
X287035Y130051D01*
Y129395D01*
X289659D01*
X285723Y130707D02*
Y128083D01*
Y129395D01*
X285067Y130051D01*
X284411Y130707D01*
X283755D01*
X277852Y132019D02*
Y128083D01*
X275884D01*
X275228Y128739D01*
Y129395D01*
Y130051D01*
X275884Y130707D01*
X277852D01*
X271948Y128083D02*
X273260D01*
X273916Y128739D01*
Y130051D01*
X273260Y130707D01*
X271948D01*
X271292Y130051D01*
Y129395D01*
X273916D01*
X269980Y128083D02*
X268668D01*
X269324D01*
Y130707D01*
X269980D01*
X266701Y128083D02*
Y130707D01*
X264733D01*
X264077Y130051D01*
Y128083D01*
X261453Y126771D02*
X260797D01*
X260141Y127427D01*
Y130707D01*
X262109D01*
X262765Y130051D01*
Y128739D01*
X262109Y128083D01*
X260141D01*
X254237D02*
Y131363D01*
Y130051D01*
X254893D01*
X253581D01*
X254237D01*
Y131363D01*
X253581Y132019D01*
X251613Y128083D02*
X250302D01*
X250958D01*
Y130707D01*
X251613D01*
X247678Y131363D02*
Y130707D01*
X248334D01*
X247022D01*
X247678D01*
Y128739D01*
X247022Y128083D01*
X244398Y131363D02*
Y130707D01*
X245054D01*
X243742D01*
X244398D01*
Y128739D01*
X243742Y128083D01*
X239806D02*
X241118D01*
X241774Y128739D01*
Y130051D01*
X241118Y130707D01*
X239806D01*
X239150Y130051D01*
Y129395D01*
X241774D01*
X235215Y132019D02*
Y128083D01*
X237182D01*
X237838Y128739D01*
Y130051D01*
X237182Y130707D01*
X235215D01*
X229967D02*
Y128739D01*
X229311Y128083D01*
X228655Y128739D01*
X227999Y128083D01*
X227343Y128739D01*
Y130707D01*
X226031Y128083D02*
X224719D01*
X225375D01*
Y130707D01*
X226031D01*
X222095Y131363D02*
Y130707D01*
X222751D01*
X221440D01*
X222095D01*
Y128739D01*
X221440Y128083D01*
X219472Y132019D02*
Y128083D01*
Y130051D01*
X218816Y130707D01*
X217504D01*
X216848Y130051D01*
Y128083D01*
X208976Y130707D02*
X210944D01*
X211600Y130051D01*
Y128739D01*
X210944Y128083D01*
X208976D01*
X207009D02*
X205697D01*
X205041Y128739D01*
Y130051D01*
X205697Y130707D01*
X207009D01*
X207664Y130051D01*
Y128739D01*
X207009Y128083D01*
X203729D02*
Y130707D01*
X203073D01*
X202417Y130051D01*
Y128083D01*
Y130051D01*
X201761Y130707D01*
X201105Y130051D01*
Y128083D01*
X199793Y126771D02*
Y130707D01*
X197825D01*
X197169Y130051D01*
Y128739D01*
X197825Y128083D01*
X199793D01*
X195201D02*
X193889D01*
X193233Y128739D01*
Y130051D01*
X193889Y130707D01*
X195201D01*
X195857Y130051D01*
Y128739D01*
X195201Y128083D01*
X191921Y130051D02*
X189298D01*
X330984Y120631D02*
Y123255D01*
X329016D01*
X328360Y122599D01*
Y120631D01*
X325081D02*
X326393D01*
X327048Y121287D01*
Y122599D01*
X326393Y123255D01*
X325081D01*
X324425Y122599D01*
Y121943D01*
X327048D01*
X323113Y120631D02*
Y123255D01*
X321145D01*
X320489Y122599D01*
Y120631D01*
X318521Y123911D02*
Y123255D01*
X319177D01*
X317865D01*
X318521D01*
Y121287D01*
X317865Y120631D01*
X315897D02*
X313929D01*
X313273Y121287D01*
X313929Y121943D01*
X315241D01*
X315897Y122599D01*
X315241Y123255D01*
X313273D01*
X311306Y119975D02*
X310650Y120631D01*
Y121287D01*
X311306D01*
Y120631D01*
X310650D01*
X311306Y119975D01*
X311962Y119319D01*
X304090Y120631D02*
X302778D01*
X303434D01*
Y123255D01*
X304090D01*
X300810Y120631D02*
X298842D01*
X298186Y121287D01*
X298842Y121943D01*
X300154D01*
X300810Y122599D01*
X300154Y123255D01*
X298186D01*
X287035Y120631D02*
X288347D01*
X289003Y121287D01*
Y122599D01*
X288347Y123255D01*
X287035D01*
X286379Y122599D01*
Y121943D01*
X289003D01*
X285067Y120631D02*
X283099D01*
X282443Y121287D01*
X283099Y121943D01*
X284411D01*
X285067Y122599D01*
X284411Y123255D01*
X282443D01*
X281132Y120631D02*
X279164D01*
X278508Y121287D01*
X279164Y121943D01*
X280476D01*
X281132Y122599D01*
X280476Y123255D01*
X278508D01*
X275228Y120631D02*
X276540D01*
X277196Y121287D01*
Y122599D01*
X276540Y123255D01*
X275228D01*
X274572Y122599D01*
Y121943D01*
X277196D01*
X273260Y120631D02*
Y123255D01*
X271292D01*
X270636Y122599D01*
Y120631D01*
X268668Y123911D02*
Y123255D01*
X269324D01*
X268012D01*
X268668D01*
Y121287D01*
X268012Y120631D01*
X266045D02*
X264733D01*
X265389D01*
Y123255D01*
X266045D01*
X262109D02*
X260797D01*
X260141Y122599D01*
Y120631D01*
X262109D01*
X262765Y121287D01*
X262109Y121943D01*
X260141D01*
X258829Y120631D02*
X257517D01*
X258173D01*
Y124567D01*
X258829D01*
X255549Y120631D02*
X254237D01*
X254893D01*
Y124567D01*
X255549D01*
X252270Y123255D02*
Y121287D01*
X251613Y120631D01*
X249646D01*
Y119975D01*
X250302Y119319D01*
X250958D01*
X249646Y120631D02*
Y123255D01*
X243742D02*
X242430D01*
X241774Y122599D01*
Y120631D01*
X243742D01*
X244398Y121287D01*
X243742Y121943D01*
X241774D01*
X236526Y120631D02*
X234559D01*
X233903Y121287D01*
X234559Y121943D01*
X235871D01*
X236526Y122599D01*
X235871Y123255D01*
X233903D01*
X232591Y120631D02*
Y123255D01*
X231935D01*
X231279Y122599D01*
Y120631D01*
Y122599D01*
X230623Y123255D01*
X229967Y122599D01*
Y120631D01*
X227999Y123255D02*
X226687D01*
X226031Y122599D01*
Y120631D01*
X227999D01*
X228655Y121287D01*
X227999Y121943D01*
X226031D01*
X224719Y120631D02*
X223407D01*
X224063D01*
Y124567D01*
X224719D01*
X221440Y120631D02*
X220128D01*
X220784D01*
Y124567D01*
X221440D01*
X328360Y115803D02*
X330328D01*
X330984Y115147D01*
Y113835D01*
X330328Y113179D01*
X328360D01*
X326393D02*
X325081D01*
X324425Y113835D01*
Y115147D01*
X325081Y115803D01*
X326393D01*
X327048Y115147D01*
Y113835D01*
X326393Y113179D01*
X323113D02*
Y115803D01*
X322457D01*
X321801Y115147D01*
Y113179D01*
Y115147D01*
X321145Y115803D01*
X320489Y115147D01*
Y113179D01*
X319177Y111867D02*
Y115803D01*
X317209D01*
X316553Y115147D01*
Y113835D01*
X317209Y113179D01*
X319177D01*
X315241Y115803D02*
Y113835D01*
X314585Y113179D01*
X312617D01*
Y115803D01*
X310650Y116459D02*
Y115803D01*
X311306D01*
X309994D01*
X310650D01*
Y113835D01*
X309994Y113179D01*
X306058D02*
X307370D01*
X308026Y113835D01*
Y115147D01*
X307370Y115803D01*
X306058D01*
X305402Y115147D01*
Y114491D01*
X308026D01*
X304090Y115803D02*
Y113179D01*
Y114491D01*
X303434Y115147D01*
X302778Y115803D01*
X302122D01*
X295563Y116459D02*
Y115803D01*
X296219D01*
X294907D01*
X295563D01*
Y113835D01*
X294907Y113179D01*
X292939Y117115D02*
Y113179D01*
Y115147D01*
X292283Y115803D01*
X290971D01*
X290315Y115147D01*
Y113179D01*
X288347Y115803D02*
X287035D01*
X286379Y115147D01*
Y113179D01*
X288347D01*
X289003Y113835D01*
X288347Y114491D01*
X286379D01*
X284411Y116459D02*
Y115803D01*
X285067D01*
X283755D01*
X284411D01*
Y113835D01*
X283755Y113179D01*
X275228Y115803D02*
X277196D01*
X277852Y115147D01*
Y113835D01*
X277196Y113179D01*
X275228D01*
X273260Y115803D02*
X271948D01*
X271292Y115147D01*
Y113179D01*
X273260D01*
X273916Y113835D01*
X273260Y114491D01*
X271292D01*
X269980Y113179D02*
Y115803D01*
X268012D01*
X267356Y115147D01*
Y113179D01*
X262109Y117115D02*
Y113179D01*
X260141D01*
X259485Y113835D01*
Y114491D01*
Y115147D01*
X260141Y115803D01*
X262109D01*
X256205Y113179D02*
X257517D01*
X258173Y113835D01*
Y115147D01*
X257517Y115803D01*
X256205D01*
X255549Y115147D01*
Y114491D01*
X258173D01*
X250302Y115803D02*
Y113835D01*
X249646Y113179D01*
X247678D01*
Y115803D01*
X246366Y113179D02*
X244398D01*
X243742Y113835D01*
X244398Y114491D01*
X245710D01*
X246366Y115147D01*
X245710Y115803D01*
X243742D01*
X240462Y113179D02*
X241774D01*
X242430Y113835D01*
Y115147D01*
X241774Y115803D01*
X240462D01*
X239806Y115147D01*
Y114491D01*
X242430D01*
X235871Y117115D02*
Y113179D01*
X237838D01*
X238494Y113835D01*
Y115147D01*
X237838Y115803D01*
X235871D01*
X229967Y113179D02*
Y116459D01*
Y115147D01*
X230623D01*
X229311D01*
X229967D01*
Y116459D01*
X229311Y117115D01*
X226687Y113179D02*
X225375D01*
X224719Y113835D01*
Y115147D01*
X225375Y115803D01*
X226687D01*
X227343Y115147D01*
Y113835D01*
X226687Y113179D01*
X223407Y115803D02*
Y113179D01*
Y114491D01*
X222751Y115147D01*
X222095Y115803D01*
X221440D01*
X215536Y113179D02*
Y115803D01*
X214880D01*
X214224Y115147D01*
Y113179D01*
Y115147D01*
X213568Y115803D01*
X212912Y115147D01*
Y113179D01*
X210944Y115803D02*
X209632D01*
X208976Y115147D01*
Y113179D01*
X210944D01*
X211600Y113835D01*
X210944Y114491D01*
X208976D01*
X207664Y113179D02*
Y115803D01*
X205697D01*
X205041Y115147D01*
Y113179D01*
X203729Y115803D02*
Y113835D01*
X203073Y113179D01*
X201105D01*
Y112523D01*
X201761Y111867D01*
X202417D01*
X201105Y113179D02*
Y115803D01*
X330984Y105727D02*
X329672D01*
X330328D01*
Y108351D01*
X330984D01*
X327705Y105727D02*
Y108351D01*
X325737D01*
X325081Y107695D01*
Y105727D01*
X323113Y109007D02*
Y108351D01*
X323769D01*
X322457D01*
X323113D01*
Y106383D01*
X322457Y105727D01*
X318521D02*
X319833D01*
X320489Y106383D01*
Y107695D01*
X319833Y108351D01*
X318521D01*
X317865Y107695D01*
Y107039D01*
X320489D01*
X316553Y108351D02*
Y105727D01*
Y107039D01*
X315897Y107695D01*
X315241Y108351D01*
X314585D01*
X310650Y105727D02*
X311962D01*
X312617Y106383D01*
Y107695D01*
X311962Y108351D01*
X310650D01*
X309994Y107695D01*
Y107039D01*
X312617D01*
X308682Y105727D02*
X306714D01*
X306058Y106383D01*
X306714Y107039D01*
X308026D01*
X308682Y107695D01*
X308026Y108351D01*
X306058D01*
X304090Y109007D02*
Y108351D01*
X304746D01*
X303434D01*
X304090D01*
Y106383D01*
X303434Y105727D01*
X301466D02*
X300154D01*
X300810D01*
Y108351D01*
X301466D01*
X298186Y105727D02*
Y108351D01*
X296219D01*
X295563Y107695D01*
Y105727D01*
X292939Y104415D02*
X292283D01*
X291627Y105071D01*
Y108351D01*
X293595D01*
X294251Y107695D01*
Y106383D01*
X293595Y105727D01*
X291627D01*
X284411D02*
X285723D01*
X286379Y106383D01*
Y107695D01*
X285723Y108351D01*
X284411D01*
X283755Y107695D01*
Y107039D01*
X286379D01*
X282443Y105727D02*
Y108351D01*
X280476D01*
X279820Y107695D01*
Y105727D01*
X277196Y104415D02*
X276540D01*
X275884Y105071D01*
Y108351D01*
X277852D01*
X278508Y107695D01*
Y106383D01*
X277852Y105727D01*
X275884D01*
X274572D02*
X273260D01*
X273916D01*
Y108351D01*
X274572D01*
X271292Y105727D02*
Y108351D01*
X269324D01*
X268668Y107695D01*
Y105727D01*
X265389D02*
X266701D01*
X267356Y106383D01*
Y107695D01*
X266701Y108351D01*
X265389D01*
X264733Y107695D01*
Y107039D01*
X267356D01*
X261453Y105727D02*
X262765D01*
X263421Y106383D01*
Y107695D01*
X262765Y108351D01*
X261453D01*
X260797Y107695D01*
Y107039D01*
X263421D01*
X259485Y108351D02*
Y105727D01*
Y107039D01*
X258829Y107695D01*
X258173Y108351D01*
X257517D01*
X255549Y105727D02*
X254237D01*
X254893D01*
Y108351D01*
X255549D01*
X252270Y105727D02*
Y108351D01*
X250302D01*
X249646Y107695D01*
Y105727D01*
X247022Y104415D02*
X246366D01*
X245710Y105071D01*
Y108351D01*
X247678D01*
X248334Y107695D01*
Y106383D01*
X247678Y105727D01*
X245710D01*
X236526Y104415D02*
Y108351D01*
X234559D01*
X233903Y107695D01*
Y106383D01*
X234559Y105727D01*
X236526D01*
X232591Y108351D02*
Y105727D01*
Y107039D01*
X231935Y107695D01*
X231279Y108351D01*
X230623D01*
X227999Y105727D02*
X226687D01*
X226031Y106383D01*
Y107695D01*
X226687Y108351D01*
X227999D01*
X228655Y107695D01*
Y106383D01*
X227999Y105727D01*
X224719Y104415D02*
X224063D01*
X223407Y105071D01*
Y108351D01*
X218816Y105727D02*
X220128D01*
X220784Y106383D01*
Y107695D01*
X220128Y108351D01*
X218816D01*
X218160Y107695D01*
Y107039D01*
X220784D01*
X214224Y108351D02*
X216192D01*
X216848Y107695D01*
Y106383D01*
X216192Y105727D01*
X214224D01*
X212256Y109007D02*
Y108351D01*
X212912D01*
X211600D01*
X212256D01*
Y106383D01*
X211600Y105727D01*
X209632D02*
X207664D01*
X207009Y106383D01*
X207664Y107039D01*
X208976D01*
X209632Y107695D01*
X208976Y108351D01*
X207009D01*
X205697Y105727D02*
Y106383D01*
X205041D01*
Y105727D01*
X205697D01*
X330984Y98275D02*
Y102211D01*
X329016D01*
X328360Y101555D01*
Y100243D01*
X329016Y99587D01*
X330984D01*
X327048Y98275D02*
X325737D01*
X326393D01*
Y102211D01*
X327048D01*
X321801Y98275D02*
X323113D01*
X323769Y98931D01*
Y100243D01*
X323113Y100899D01*
X321801D01*
X321145Y100243D01*
Y99587D01*
X323769D01*
X319177Y100899D02*
X317865D01*
X317209Y100243D01*
Y98275D01*
X319177D01*
X319833Y98931D01*
X319177Y99587D01*
X317209D01*
X315897Y98275D02*
X313929D01*
X313273Y98931D01*
X313929Y99587D01*
X315241D01*
X315897Y100243D01*
X315241Y100899D01*
X313273D01*
X309994Y98275D02*
X311306D01*
X311962Y98931D01*
Y100243D01*
X311306Y100899D01*
X309994D01*
X309338Y100243D01*
Y99587D01*
X311962D01*
X304090Y100899D02*
X302778Y98275D01*
X301466Y100899D01*
X300154Y98275D02*
X298842D01*
X299498D01*
Y100899D01*
X300154D01*
X296874Y98275D02*
X294907D01*
X294251Y98931D01*
X294907Y99587D01*
X296219D01*
X296874Y100243D01*
X296219Y100899D01*
X294251D01*
X292939Y98275D02*
X291627D01*
X292283D01*
Y100899D01*
X292939D01*
X289003Y101555D02*
Y100899D01*
X289659D01*
X288347D01*
X289003D01*
Y98931D01*
X288347Y98275D01*
X275884Y100899D02*
X277852D01*
X278508Y100243D01*
Y98931D01*
X277852Y98275D01*
X275884D01*
X273916Y100899D02*
X272604D01*
X271948Y100243D01*
Y98275D01*
X273916D01*
X274572Y98931D01*
X273916Y99587D01*
X271948D01*
X270636Y100899D02*
Y98275D01*
Y99587D01*
X269980Y100243D01*
X269324Y100899D01*
X268668D01*
X264077Y102211D02*
Y98275D01*
X266045D01*
X266701Y98931D01*
Y100243D01*
X266045Y100899D01*
X264077D01*
X262765D02*
Y98931D01*
X262109Y98275D01*
X260141D01*
Y100899D01*
X258829Y98275D02*
X257517D01*
X258173D01*
Y100899D01*
X258829D01*
X255549Y98275D02*
Y100899D01*
X253581D01*
X252925Y100243D01*
Y98275D01*
X250958D02*
X249646D01*
X248990Y98931D01*
Y100243D01*
X249646Y100899D01*
X250958D01*
X251613Y100243D01*
Y98931D01*
X250958Y98275D01*
X247678D02*
Y98931D01*
X247022D01*
Y98275D01*
X247678D01*
X243086Y96963D02*
X242430D01*
X241774Y97619D01*
Y100899D01*
X243742D01*
X244398Y100243D01*
Y98931D01*
X243742Y98275D01*
X241774D01*
X238494D02*
X239806D01*
X240462Y98931D01*
Y100243D01*
X239806Y100899D01*
X238494D01*
X237838Y100243D01*
Y99587D01*
X240462D01*
X236526Y100899D02*
Y98275D01*
Y99587D01*
X235871Y100243D01*
X235215Y100899D01*
X234559D01*
X231279Y96963D02*
X230623D01*
X229967Y97619D01*
Y100899D01*
X231935D01*
X232591Y100243D01*
Y98931D01*
X231935Y98275D01*
X229967D01*
X226687D02*
X227999D01*
X228655Y98931D01*
Y100243D01*
X227999Y100899D01*
X226687D01*
X226031Y100243D01*
Y99587D01*
X228655D01*
X224719Y98275D02*
X223407D01*
X224063D01*
Y102211D01*
X224719D01*
X221440Y100899D02*
Y98931D01*
X220784Y98275D01*
X218816D01*
Y97619D01*
X219472Y96963D01*
X220128D01*
X218816Y98275D02*
Y100899D01*
X216848Y101555D02*
Y100899D01*
X217504D01*
X216192D01*
X216848D01*
Y98931D01*
X216192Y98275D01*
X213568Y100899D02*
X212256D01*
X211600Y100243D01*
Y98275D01*
X213568D01*
X214224Y98931D01*
X213568Y99587D01*
X211600D01*
X210288Y98275D02*
Y102211D01*
Y99587D02*
X208320Y100899D01*
X210288Y99587D02*
X208320Y98275D01*
X205697Y100899D02*
X204385D01*
X203729Y100243D01*
Y98275D01*
X205697D01*
X206352Y98931D01*
X205697Y99587D01*
X203729D01*
X199793Y100899D02*
X201761D01*
X202417Y100243D01*
Y98931D01*
X201761Y98275D01*
X199793D01*
X198481D02*
X196513D01*
X195857Y98931D01*
X196513Y99587D01*
X197825D01*
X198481Y100243D01*
X197825Y100899D01*
X195857D01*
X194545Y98275D02*
Y98931D01*
X193889D01*
Y98275D01*
X194545D01*
X188642Y100899D02*
X190610D01*
X191265Y100243D01*
Y98931D01*
X190610Y98275D01*
X188642D01*
X186674D02*
X185362D01*
X184706Y98931D01*
Y100243D01*
X185362Y100899D01*
X186674D01*
X187330Y100243D01*
Y98931D01*
X186674Y98275D01*
X183394D02*
Y100899D01*
X182738D01*
X182082Y100243D01*
Y98275D01*
Y100243D01*
X181426Y100899D01*
X180770Y100243D01*
Y98275D01*
X330328Y90823D02*
Y94103D01*
Y92791D01*
X330984D01*
X329672D01*
X330328D01*
Y94103D01*
X329672Y94759D01*
X327048Y90823D02*
X325737D01*
X325081Y91479D01*
Y92791D01*
X325737Y93447D01*
X327048D01*
X327705Y92791D01*
Y91479D01*
X327048Y90823D01*
X323769Y93447D02*
Y90823D01*
Y92135D01*
X323113Y92791D01*
X322457Y93447D01*
X321801D01*
X315897Y90823D02*
Y93447D01*
X315241D01*
X314585Y92791D01*
Y90823D01*
Y92791D01*
X313929Y93447D01*
X313273Y92791D01*
Y90823D01*
X311306D02*
X309994D01*
X309338Y91479D01*
Y92791D01*
X309994Y93447D01*
X311306D01*
X311962Y92791D01*
Y91479D01*
X311306Y90823D01*
X308026Y93447D02*
Y90823D01*
Y92135D01*
X307370Y92791D01*
X306714Y93447D01*
X306058D01*
X302122Y90823D02*
X303434D01*
X304090Y91479D01*
Y92791D01*
X303434Y93447D01*
X302122D01*
X301466Y92791D01*
Y92135D01*
X304090D01*
X296219Y90823D02*
X294907D01*
X295563D01*
Y93447D01*
X296219D01*
X292939Y90823D02*
Y93447D01*
X290971D01*
X290315Y92791D01*
Y90823D01*
X288347D02*
Y94103D01*
Y92791D01*
X289003D01*
X287691D01*
X288347D01*
Y94103D01*
X287691Y94759D01*
X285067Y90823D02*
X283755D01*
X283099Y91479D01*
Y92791D01*
X283755Y93447D01*
X285067D01*
X285723Y92791D01*
Y91479D01*
X285067Y90823D01*
X281787Y93447D02*
Y90823D01*
Y92135D01*
X281132Y92791D01*
X280476Y93447D01*
X279820D01*
X277852Y90823D02*
Y93447D01*
X277196D01*
X276540Y92791D01*
Y90823D01*
Y92791D01*
X275884Y93447D01*
X275228Y92791D01*
Y90823D01*
X273260Y93447D02*
X271948D01*
X271292Y92791D01*
Y90823D01*
X273260D01*
X273916Y91479D01*
X273260Y92135D01*
X271292D01*
X269324Y94103D02*
Y93447D01*
X269980D01*
X268668D01*
X269324D01*
Y91479D01*
X268668Y90823D01*
X266701D02*
X265389D01*
X266045D01*
Y93447D01*
X266701D01*
X262765Y90823D02*
X261453D01*
X260797Y91479D01*
Y92791D01*
X261453Y93447D01*
X262765D01*
X263421Y92791D01*
Y91479D01*
X262765Y90823D01*
X259485D02*
Y93447D01*
X257517D01*
X256861Y92791D01*
Y90823D01*
X254893Y90167D02*
X254237Y90823D01*
Y91479D01*
X254893D01*
Y90823D01*
X254237D01*
X254893Y90167D01*
X255549Y89511D01*
X247678Y93447D02*
Y90823D01*
Y92135D01*
X247022Y92791D01*
X246366Y93447D01*
X245710D01*
X241774Y90823D02*
X243086D01*
X243742Y91479D01*
Y92791D01*
X243086Y93447D01*
X241774D01*
X241118Y92791D01*
Y92135D01*
X243742D01*
X237182Y89511D02*
Y93447D01*
X239150D01*
X239806Y92791D01*
Y91479D01*
X239150Y90823D01*
X237182D01*
X235871Y93447D02*
Y91479D01*
X235215Y90823D01*
X233247D01*
Y93447D01*
X231935Y90823D02*
X230623D01*
X231279D01*
Y93447D01*
X231935D01*
X228655D02*
Y90823D01*
Y92135D01*
X227999Y92791D01*
X227343Y93447D01*
X226687D01*
X222751Y90823D02*
X224063D01*
X224719Y91479D01*
Y92791D01*
X224063Y93447D01*
X222751D01*
X222095Y92791D01*
Y92135D01*
X224719D01*
X218160Y94759D02*
Y90823D01*
X220128D01*
X220784Y91479D01*
Y92791D01*
X220128Y93447D01*
X218160D01*
X212912Y89511D02*
Y93447D01*
X210944D01*
X210288Y92791D01*
Y91479D01*
X210944Y90823D01*
X212912D01*
X208320Y93447D02*
X207009D01*
X206352Y92791D01*
Y90823D01*
X208320D01*
X208976Y91479D01*
X208320Y92135D01*
X206352D01*
X205041Y93447D02*
Y90823D01*
Y92135D01*
X204385Y92791D01*
X203729Y93447D01*
X203073D01*
X200449Y94103D02*
Y93447D01*
X201105D01*
X199793D01*
X200449D01*
Y91479D01*
X199793Y90823D01*
X197825D02*
X195857D01*
X195201Y91479D01*
X195857Y92135D01*
X197169D01*
X197825Y92791D01*
X197169Y93447D01*
X195201D01*
X330328Y85995D02*
X329016D01*
X328360Y85339D01*
Y83371D01*
X330328D01*
X330984Y84027D01*
X330328Y84683D01*
X328360D01*
X327048Y83371D02*
Y85995D01*
X325081D01*
X324425Y85339D01*
Y83371D01*
X320489Y87307D02*
Y83371D01*
X322457D01*
X323113Y84027D01*
Y85339D01*
X322457Y85995D01*
X320489D01*
X314585D02*
X313273D01*
X312617Y85339D01*
Y83371D01*
X314585D01*
X315241Y84027D01*
X314585Y84683D01*
X312617D01*
X311306Y83371D02*
X309338D01*
X308682Y84027D01*
X309338Y84683D01*
X310650D01*
X311306Y85339D01*
X310650Y85995D01*
X308682D01*
X307370Y83371D02*
X305402D01*
X304746Y84027D01*
X305402Y84683D01*
X306714D01*
X307370Y85339D01*
X306714Y85995D01*
X304746D01*
X301466Y83371D02*
X302778D01*
X303434Y84027D01*
Y85339D01*
X302778Y85995D01*
X301466D01*
X300810Y85339D01*
Y84683D01*
X303434D01*
X299498Y83371D02*
Y85995D01*
X298842D01*
X298186Y85339D01*
Y83371D01*
Y85339D01*
X297531Y85995D01*
X296874Y85339D01*
Y83371D01*
X295563Y87307D02*
Y83371D01*
X293595D01*
X292939Y84027D01*
Y84683D01*
Y85339D01*
X293595Y85995D01*
X295563D01*
X291627Y83371D02*
X290315D01*
X290971D01*
Y87307D01*
X291627D01*
X288347Y85995D02*
Y84027D01*
X287691Y83371D01*
X285723D01*
Y82715D01*
X286379Y82059D01*
X287035D01*
X285723Y83371D02*
Y85995D01*
X280476Y83371D02*
X279164D01*
X279820D01*
Y85995D01*
X280476D01*
X277196Y83371D02*
Y85995D01*
X275228D01*
X274572Y85339D01*
Y83371D01*
X273260D02*
X271292D01*
X270636Y84027D01*
X271292Y84683D01*
X272604D01*
X273260Y85339D01*
X272604Y85995D01*
X270636D01*
X268668Y86651D02*
Y85995D01*
X269324D01*
X268012D01*
X268668D01*
Y84027D01*
X268012Y83371D01*
X266045Y85995D02*
Y83371D01*
Y84683D01*
X265389Y85339D01*
X264733Y85995D01*
X264077D01*
X262109D02*
Y84027D01*
X261453Y83371D01*
X259485D01*
Y85995D01*
X255549D02*
X257517D01*
X258173Y85339D01*
Y84027D01*
X257517Y83371D01*
X255549D01*
X253581Y86651D02*
Y85995D01*
X254237D01*
X252925D01*
X253581D01*
Y84027D01*
X252925Y83371D01*
X250958D02*
X249646D01*
X250302D01*
Y85995D01*
X250958D01*
X247022Y83371D02*
X245710D01*
X245054Y84027D01*
Y85339D01*
X245710Y85995D01*
X247022D01*
X247678Y85339D01*
Y84027D01*
X247022Y83371D01*
X243742D02*
Y85995D01*
X241774D01*
X241118Y85339D01*
Y83371D01*
X239806D02*
X237838D01*
X237182Y84027D01*
X237838Y84683D01*
X239150D01*
X239806Y85339D01*
X239150Y85995D01*
X237182D01*
X235871Y83371D02*
Y84027D01*
X235215D01*
Y83371D01*
X235871D01*
X154910Y162720D02*
Y165344D01*
X153598Y166656D01*
X152286Y165344D01*
Y162720D01*
Y164688D01*
X154910D01*
X150974Y162720D02*
X149006D01*
X148350Y163376D01*
X149006Y164032D01*
X150318D01*
X150974Y164688D01*
X150318Y165344D01*
X148350D01*
X147038Y162720D02*
X145070D01*
X144414Y163376D01*
X145070Y164032D01*
X146382D01*
X147038Y164688D01*
X146382Y165344D01*
X144414D01*
X142446Y162720D02*
X141134D01*
X140478Y163376D01*
Y164688D01*
X141134Y165344D01*
X142446D01*
X143102Y164688D01*
Y163376D01*
X142446Y162720D01*
X136543Y165344D02*
X138511D01*
X139166Y164688D01*
Y163376D01*
X138511Y162720D01*
X136543D01*
X135231D02*
X133919D01*
X134575D01*
Y165344D01*
X135231D01*
X131295D02*
X129983D01*
X129327Y164688D01*
Y162720D01*
X131295D01*
X131951Y163376D01*
X131295Y164032D01*
X129327D01*
X127359Y166000D02*
Y165344D01*
X128015D01*
X126703D01*
X127359D01*
Y163376D01*
X126703Y162720D01*
X122768D02*
X124080D01*
X124735Y163376D01*
Y164688D01*
X124080Y165344D01*
X122768D01*
X122112Y164688D01*
Y164032D01*
X124735D01*
X116864Y162720D02*
Y166656D01*
X114896D01*
X114240Y166000D01*
Y164688D01*
X114896Y164032D01*
X116864D01*
X112928Y165344D02*
Y162720D01*
Y164032D01*
X112272Y164688D01*
X111616Y165344D01*
X110960D01*
X108336Y162720D02*
X107025D01*
X106369Y163376D01*
Y164688D01*
X107025Y165344D01*
X108336D01*
X108993Y164688D01*
Y163376D01*
X108336Y162720D01*
X104401D02*
Y166000D01*
Y164688D01*
X105057D01*
X103745D01*
X104401D01*
Y166000D01*
X103745Y166656D01*
X99809Y162720D02*
X101121D01*
X101777Y163376D01*
Y164688D01*
X101121Y165344D01*
X99809D01*
X99153Y164688D01*
Y164032D01*
X101777D01*
X97841Y162720D02*
X95873D01*
X95217Y163376D01*
X95873Y164032D01*
X97185D01*
X97841Y164688D01*
X97185Y165344D01*
X95217D01*
X93906Y162720D02*
X91938D01*
X91282Y163376D01*
X91938Y164032D01*
X93249D01*
X93906Y164688D01*
X93249Y165344D01*
X91282D01*
X89314Y162720D02*
X88002D01*
X87346Y163376D01*
Y164688D01*
X88002Y165344D01*
X89314D01*
X89970Y164688D01*
Y163376D01*
X89314Y162720D01*
X86034Y165344D02*
Y162720D01*
Y164032D01*
X85378Y164688D01*
X84722Y165344D01*
X84066D01*
X78162Y162720D02*
X76851D01*
X77507D01*
Y165344D01*
X78162D01*
X74883Y162720D02*
Y165344D01*
X72915D01*
X72259Y164688D01*
Y162720D01*
X67011D02*
Y166656D01*
X65699Y165344D01*
X64388Y166656D01*
Y162720D01*
X61108D02*
X62420D01*
X63076Y163376D01*
Y164688D01*
X62420Y165344D01*
X61108D01*
X60452Y164688D01*
Y164032D01*
X63076D01*
X56516Y165344D02*
X58484D01*
X59140Y164688D01*
Y163376D01*
X58484Y162720D01*
X56516D01*
X55204Y166656D02*
Y162720D01*
Y164688D01*
X54548Y165344D01*
X53236D01*
X52580Y164688D01*
Y162720D01*
X50612Y165344D02*
X49301D01*
X48645Y164688D01*
Y162720D01*
X50612D01*
X51268Y163376D01*
X50612Y164032D01*
X48645D01*
X46677Y166000D02*
Y165344D01*
X47333D01*
X46021D01*
X46677D01*
Y163376D01*
X46021Y162720D01*
X44053Y165344D02*
Y162720D01*
Y164032D01*
X43397Y164688D01*
X42741Y165344D01*
X42085D01*
X39461Y162720D02*
X38149D01*
X37493Y163376D01*
Y164688D01*
X38149Y165344D01*
X39461D01*
X40117Y164688D01*
Y163376D01*
X39461Y162720D01*
X36181D02*
Y165344D01*
X34214D01*
X33558Y164688D01*
Y162720D01*
X32246D02*
X30934D01*
X31590D01*
Y165344D01*
X32246D01*
X26342D02*
X28310D01*
X28966Y164688D01*
Y163376D01*
X28310Y162720D01*
X26342D01*
X25030D02*
X23062D01*
X22406Y163376D01*
X23062Y164032D01*
X24374D01*
X25030Y164688D01*
X24374Y165344D01*
X22406D01*
X152286Y153719D02*
X152942Y154375D01*
X154253D01*
X154910Y153719D01*
Y153063D01*
X154253Y152408D01*
X152942D01*
X152286Y151752D01*
Y151096D01*
X152942Y150440D01*
X154253D01*
X154910Y151096D01*
X150974Y150440D02*
X149662D01*
X150318D01*
Y154375D01*
X150974D01*
X147038Y150440D02*
X145726D01*
X145070Y151096D01*
Y152408D01*
X145726Y153063D01*
X147038D01*
X147694Y152408D01*
Y151096D01*
X147038Y150440D01*
X143758Y153063D02*
X142446Y150440D01*
X141134Y153063D01*
X139166D02*
X137855D01*
X137199Y152408D01*
Y150440D01*
X139166D01*
X139822Y151096D01*
X139166Y151752D01*
X137199D01*
X135887Y150440D02*
Y154375D01*
Y151752D02*
X133919Y153063D01*
X135887Y151752D02*
X133919Y150440D01*
X128015Y154375D02*
Y151096D01*
X127359Y150440D01*
X126047D01*
X125391Y151096D01*
Y154375D01*
X124080Y150440D02*
Y153063D01*
X122112D01*
X121456Y152408D01*
Y150440D01*
X120144D02*
X118832D01*
X119488D01*
Y153063D01*
X120144D01*
X116864D02*
X115552Y150440D01*
X114240Y153063D01*
X110960Y150440D02*
X112272D01*
X112928Y151096D01*
Y152408D01*
X112272Y153063D01*
X110960D01*
X110304Y152408D01*
Y151752D01*
X112928D01*
X108993Y153063D02*
Y150440D01*
Y151752D01*
X108336Y152408D01*
X107681Y153063D01*
X107025D01*
X105057Y150440D02*
X103089D01*
X102433Y151096D01*
X103089Y151752D01*
X104401D01*
X105057Y152408D01*
X104401Y153063D01*
X102433D01*
X101121Y150440D02*
X99809D01*
X100465D01*
Y153063D01*
X101121D01*
X97185Y153719D02*
Y153063D01*
X97841D01*
X96529D01*
X97185D01*
Y151096D01*
X96529Y150440D01*
X94561Y153063D02*
Y151096D01*
X93906Y150440D01*
X91938D01*
Y149784D01*
X92594Y149128D01*
X93249D01*
X91938Y150440D02*
Y153063D01*
X86034Y150440D02*
X84722D01*
X84066Y151096D01*
Y152408D01*
X84722Y153063D01*
X86034D01*
X86690Y152408D01*
Y151096D01*
X86034Y150440D01*
X82098D02*
Y153719D01*
Y152408D01*
X82754D01*
X81442D01*
X82098D01*
Y153719D01*
X81442Y154375D01*
X75539D02*
X72915D01*
X74227D01*
Y150440D01*
X69635D02*
X70947D01*
X71603Y151096D01*
Y152408D01*
X70947Y153063D01*
X69635D01*
X68979Y152408D01*
Y151752D01*
X71603D01*
X65043Y153063D02*
X67011D01*
X67667Y152408D01*
Y151096D01*
X67011Y150440D01*
X65043D01*
X63731Y154375D02*
Y150440D01*
Y152408D01*
X63076Y153063D01*
X61764D01*
X61108Y152408D01*
Y150440D01*
X59796D02*
Y153063D01*
X57828D01*
X57172Y152408D01*
Y150440D01*
X55204D02*
X53892D01*
X53236Y151096D01*
Y152408D01*
X53892Y153063D01*
X55204D01*
X55860Y152408D01*
Y151096D01*
X55204Y150440D01*
X51924D02*
X50612D01*
X51268D01*
Y154375D01*
X51924D01*
X47989Y150440D02*
X46677D01*
X46021Y151096D01*
Y152408D01*
X46677Y153063D01*
X47989D01*
X48645Y152408D01*
Y151096D01*
X47989Y150440D01*
X43397Y149128D02*
X42741D01*
X42085Y149784D01*
Y153063D01*
X44053D01*
X44709Y152408D01*
Y151096D01*
X44053Y150440D01*
X42085D01*
X40773Y153063D02*
Y151096D01*
X40117Y150440D01*
X38149D01*
Y149784D01*
X38805Y149128D01*
X39461D01*
X38149Y150440D02*
Y153063D01*
X152286Y146923D02*
X154910D01*
Y144956D01*
X153598D01*
X154910D01*
Y142988D01*
X150318Y145611D02*
X149006D01*
X148350Y144956D01*
Y142988D01*
X150318D01*
X150974Y143644D01*
X150318Y144299D01*
X148350D01*
X144414Y145611D02*
X146382D01*
X147038Y144956D01*
Y143644D01*
X146382Y142988D01*
X144414D01*
X143102Y145611D02*
Y143644D01*
X142446Y142988D01*
X140478D01*
Y145611D01*
X139166Y142988D02*
X137855D01*
X138511D01*
Y146923D01*
X139166D01*
X135231Y146267D02*
Y145611D01*
X135887D01*
X134575D01*
X135231D01*
Y143644D01*
X134575Y142988D01*
X132607Y145611D02*
Y143644D01*
X131951Y142988D01*
X129983D01*
Y142332D01*
X130639Y141676D01*
X131295D01*
X129983Y142988D02*
Y145611D01*
X124080Y142988D02*
X122768D01*
X122112Y143644D01*
Y144956D01*
X122768Y145611D01*
X124080D01*
X124735Y144956D01*
Y143644D01*
X124080Y142988D01*
X120144D02*
Y146267D01*
Y144956D01*
X120800D01*
X119488D01*
X120144D01*
Y146267D01*
X119488Y146923D01*
X113584Y142988D02*
Y146923D01*
X112272Y145611D01*
X110960Y146923D01*
Y142988D01*
X107681D02*
X108993D01*
X109649Y143644D01*
Y144956D01*
X108993Y145611D01*
X107681D01*
X107025Y144956D01*
Y144299D01*
X109649D01*
X103089Y145611D02*
X105057D01*
X105713Y144956D01*
Y143644D01*
X105057Y142988D01*
X103089D01*
X101777Y146923D02*
Y142988D01*
Y144956D01*
X101121Y145611D01*
X99809D01*
X99153Y144956D01*
Y142988D01*
X97185Y145611D02*
X95873D01*
X95217Y144956D01*
Y142988D01*
X97185D01*
X97841Y143644D01*
X97185Y144299D01*
X95217D01*
X93906Y142988D02*
Y145611D01*
X91938D01*
X91282Y144956D01*
Y142988D01*
X89970D02*
X88658D01*
X89314D01*
Y145611D01*
X89970D01*
X84066D02*
X86034D01*
X86690Y144956D01*
Y143644D01*
X86034Y142988D01*
X84066D01*
X82098Y145611D02*
X80786D01*
X80130Y144956D01*
Y142988D01*
X82098D01*
X82754Y143644D01*
X82098Y144299D01*
X80130D01*
X78819Y142988D02*
X77507D01*
X78162D01*
Y146923D01*
X78819D01*
X68979D02*
X71603D01*
Y142988D01*
X68979D01*
X71603Y144956D02*
X70291D01*
X67667Y142988D02*
Y145611D01*
X65699D01*
X65043Y144956D01*
Y142988D01*
X62420Y141676D02*
X61764D01*
X61108Y142332D01*
Y145611D01*
X63076D01*
X63731Y144956D01*
Y143644D01*
X63076Y142988D01*
X61108D01*
X59796D02*
X58484D01*
X59140D01*
Y145611D01*
X59796D01*
X56516Y142988D02*
Y145611D01*
X54548D01*
X53892Y144956D01*
Y142988D01*
X50612D02*
X51924D01*
X52580Y143644D01*
Y144956D01*
X51924Y145611D01*
X50612D01*
X49956Y144956D01*
Y144299D01*
X52580D01*
X46677Y142988D02*
X47989D01*
X48645Y143644D01*
Y144956D01*
X47989Y145611D01*
X46677D01*
X46021Y144956D01*
Y144299D01*
X48645D01*
X44709Y145611D02*
Y142988D01*
Y144299D01*
X44053Y144956D01*
X43397Y145611D01*
X42741D01*
X40773Y142988D02*
X39461D01*
X40117D01*
Y145611D01*
X40773D01*
X37493Y142988D02*
Y145611D01*
X35525D01*
X34869Y144956D01*
Y142988D01*
X32246Y141676D02*
X31590D01*
X30934Y142332D01*
Y145611D01*
X32901D01*
X33558Y144956D01*
Y143644D01*
X32901Y142988D01*
X30934D01*
X154910Y139471D02*
X153598D01*
X154253D01*
Y135536D01*
X154910D01*
X153598D01*
X151630D02*
Y138159D01*
X149662D01*
X149006Y137503D01*
Y135536D01*
X147694D02*
X145726D01*
X145070Y136191D01*
X145726Y136847D01*
X147038D01*
X147694Y137503D01*
X147038Y138159D01*
X145070D01*
X143102Y138815D02*
Y138159D01*
X143758D01*
X142446D01*
X143102D01*
Y136191D01*
X142446Y135536D01*
X140478D02*
X139166D01*
X139822D01*
Y138159D01*
X140478D01*
X136543Y138815D02*
Y138159D01*
X137199D01*
X135887D01*
X136543D01*
Y136191D01*
X135887Y135536D01*
X133919Y138159D02*
Y136191D01*
X133263Y135536D01*
X131295D01*
Y138159D01*
X129327Y138815D02*
Y138159D01*
X129983D01*
X128671D01*
X129327D01*
Y136191D01*
X128671Y135536D01*
X124735D02*
X126047D01*
X126703Y136191D01*
Y137503D01*
X126047Y138159D01*
X124735D01*
X124080Y137503D01*
Y136847D01*
X126703D01*
X118176Y135536D02*
X116864D01*
X116208Y136191D01*
Y137503D01*
X116864Y138159D01*
X118176D01*
X118832Y137503D01*
Y136191D01*
X118176Y135536D01*
X114240D02*
Y138815D01*
Y137503D01*
X114896D01*
X113584D01*
X114240D01*
Y138815D01*
X113584Y139471D01*
X107681Y135536D02*
Y138159D01*
X106369Y139471D01*
X105057Y138159D01*
Y135536D01*
Y137503D01*
X107681D01*
X103745Y138159D02*
Y136191D01*
X103089Y135536D01*
X101121D01*
Y138159D01*
X99153Y138815D02*
Y138159D01*
X99809D01*
X98497D01*
X99153D01*
Y136191D01*
X98497Y135536D01*
X95873D02*
X94561D01*
X93906Y136191D01*
Y137503D01*
X94561Y138159D01*
X95873D01*
X96529Y137503D01*
Y136191D01*
X95873Y135536D01*
X92594D02*
Y138159D01*
X91938D01*
X91282Y137503D01*
Y135536D01*
Y137503D01*
X90626Y138159D01*
X89970Y137503D01*
Y135536D01*
X88002Y138159D02*
X86690D01*
X86034Y137503D01*
Y135536D01*
X88002D01*
X88658Y136191D01*
X88002Y136847D01*
X86034D01*
X84066Y138815D02*
Y138159D01*
X84722D01*
X83410D01*
X84066D01*
Y136191D01*
X83410Y135536D01*
X81442D02*
X80130D01*
X80786D01*
Y138159D01*
X81442D01*
X77507Y135536D02*
X76195D01*
X75539Y136191D01*
Y137503D01*
X76195Y138159D01*
X77507D01*
X78163Y137503D01*
Y136191D01*
X77507Y135536D01*
X74227D02*
Y138159D01*
X72259D01*
X71603Y137503D01*
Y135536D01*
X69635Y134880D02*
X68979Y135536D01*
Y136191D01*
X69635D01*
Y135536D01*
X68979D01*
X69635Y134880D01*
X70291Y134224D01*
X62420Y135536D02*
Y139471D01*
X61108Y138159D01*
X59796Y139471D01*
Y135536D01*
X56516D02*
X57828D01*
X58484Y136191D01*
Y137503D01*
X57828Y138159D01*
X56516D01*
X55860Y137503D01*
Y136847D01*
X58484D01*
X53892Y138159D02*
X52580D01*
X51924Y137503D01*
Y135536D01*
X53892D01*
X54548Y136191D01*
X53892Y136847D01*
X51924D01*
X50612Y135536D02*
X48645D01*
X47989Y136191D01*
X48645Y136847D01*
X49956D01*
X50612Y137503D01*
X49956Y138159D01*
X47989D01*
X46677D02*
Y136191D01*
X46021Y135536D01*
X44053D01*
Y138159D01*
X42741D02*
Y135536D01*
Y136847D01*
X42085Y137503D01*
X41429Y138159D01*
X40773D01*
X36837Y135536D02*
X38149D01*
X38805Y136191D01*
Y137503D01*
X38149Y138159D01*
X36837D01*
X36181Y137503D01*
Y136847D01*
X38805D01*
X34869Y135536D02*
Y138159D01*
X34214D01*
X33558Y137503D01*
Y135536D01*
Y137503D01*
X32901Y138159D01*
X32246Y137503D01*
Y135536D01*
X28966D02*
X30278D01*
X30934Y136191D01*
Y137503D01*
X30278Y138159D01*
X28966D01*
X28310Y137503D01*
Y136847D01*
X30934D01*
X26998Y135536D02*
Y138159D01*
X25030D01*
X24374Y137503D01*
Y135536D01*
X22406Y138815D02*
Y138159D01*
X23062D01*
X21750D01*
X22406D01*
Y136191D01*
X21750Y135536D01*
X154253Y132019D02*
X152942D01*
X152286Y131363D01*
Y129395D01*
X154253D01*
X154910Y130051D01*
X154253Y130707D01*
X152286D01*
X150974Y129395D02*
Y132019D01*
X149006D01*
X148350Y131363D01*
Y129395D01*
X144414Y133331D02*
Y129395D01*
X146382D01*
X147038Y130051D01*
Y131363D01*
X146382Y132019D01*
X144414D01*
X139166Y129395D02*
Y132019D01*
X137855Y133331D01*
X136543Y132019D01*
Y129395D01*
Y131363D01*
X139166D01*
X135231Y128083D02*
Y132019D01*
X133263D01*
X132607Y131363D01*
Y130051D01*
X133263Y129395D01*
X135231D01*
X131295Y128083D02*
Y132019D01*
X129327D01*
X128671Y131363D01*
Y130051D01*
X129327Y129395D01*
X131295D01*
X127359D02*
X126047D01*
X126703D01*
Y133331D01*
X127359D01*
X124080Y129395D02*
X122768D01*
X123424D01*
Y132019D01*
X124080D01*
X118832Y129395D02*
X120144D01*
X120800Y130051D01*
Y131363D01*
X120144Y132019D01*
X118832D01*
X118176Y131363D01*
Y130707D01*
X120800D01*
X114240Y133331D02*
Y129395D01*
X116208D01*
X116864Y130051D01*
Y131363D01*
X116208Y132019D01*
X114240D01*
X108993Y133331D02*
X107681D01*
X108336D01*
Y129395D01*
X108993D01*
X107681D01*
X105713D02*
Y132019D01*
X103745D01*
X103089Y131363D01*
Y129395D01*
X101121D02*
Y132675D01*
Y131363D01*
X101777D01*
X100465D01*
X101121D01*
Y132675D01*
X100465Y133331D01*
X97841Y129395D02*
X96529D01*
X95873Y130051D01*
Y131363D01*
X96529Y132019D01*
X97841D01*
X98497Y131363D01*
Y130051D01*
X97841Y129395D01*
X94561Y132019D02*
Y129395D01*
Y130707D01*
X93906Y131363D01*
X93249Y132019D01*
X92594D01*
X90626Y129395D02*
Y132019D01*
X89970D01*
X89314Y131363D01*
Y129395D01*
Y131363D01*
X88658Y132019D01*
X88002Y131363D01*
Y129395D01*
X86034Y132019D02*
X84722D01*
X84066Y131363D01*
Y129395D01*
X86034D01*
X86690Y130051D01*
X86034Y130707D01*
X84066D01*
X82098Y132675D02*
Y132019D01*
X82754D01*
X81442D01*
X82098D01*
Y130051D01*
X81442Y129395D01*
X79475D02*
X78162D01*
X78819D01*
Y132019D01*
X79475D01*
X73571D02*
X75539D01*
X76195Y131363D01*
Y130051D01*
X75539Y129395D01*
X73571D01*
X72259D02*
X70291D01*
X69635Y130051D01*
X70291Y130707D01*
X71603D01*
X72259Y131363D01*
X71603Y132019D01*
X69635D01*
X154910Y118427D02*
Y116459D01*
X154253Y115803D01*
X153598Y116459D01*
X152942Y115803D01*
X152286Y116459D01*
Y118427D01*
X149006Y115803D02*
X150318D01*
X150974Y116459D01*
Y117771D01*
X150318Y118427D01*
X149006D01*
X148350Y117771D01*
Y117115D01*
X150974D01*
X147038Y119739D02*
Y115803D01*
X145070D01*
X144414Y116459D01*
Y117115D01*
Y117771D01*
X145070Y118427D01*
X147038D01*
X143102D02*
X142446D01*
Y117771D01*
X143102D01*
Y118427D01*
Y116459D02*
X142446D01*
Y115803D01*
X143102D01*
Y116459D01*
X131951Y119739D02*
Y115803D01*
Y117771D01*
X131295Y118427D01*
X129983D01*
X129327Y117771D01*
Y115803D01*
X127359Y119083D02*
Y118427D01*
X128015D01*
X126703D01*
X127359D01*
Y116459D01*
X126703Y115803D01*
X124080Y119083D02*
Y118427D01*
X124735D01*
X123424D01*
X124080D01*
Y116459D01*
X123424Y115803D01*
X121456Y114491D02*
Y118427D01*
X119488D01*
X118832Y117771D01*
Y116459D01*
X119488Y115803D01*
X121456D01*
X117520Y118427D02*
X116864D01*
Y117771D01*
X117520D01*
Y118427D01*
Y116459D02*
X116864D01*
Y115803D01*
X117520D01*
Y116459D01*
X114240Y115803D02*
X111616Y118427D01*
X110304Y115803D02*
X107681Y118427D01*
X106369D02*
Y116459D01*
X105713Y115803D01*
X105057Y116459D01*
X104401Y115803D01*
X103745Y116459D01*
Y118427D01*
X102433D02*
Y116459D01*
X101777Y115803D01*
X101121Y116459D01*
X100465Y115803D01*
X99809Y116459D01*
Y118427D01*
X98497D02*
Y116459D01*
X97841Y115803D01*
X97185Y116459D01*
X96529Y115803D01*
X95873Y116459D01*
Y118427D01*
X94561Y115803D02*
Y116459D01*
X93906D01*
Y115803D01*
X94561D01*
X89970Y114491D02*
X89314D01*
X88658Y115147D01*
Y118427D01*
X90626D01*
X91282Y117771D01*
Y116459D01*
X90626Y115803D01*
X88658D01*
X85378D02*
X86690D01*
X87346Y116459D01*
Y117771D01*
X86690Y118427D01*
X85378D01*
X84722Y117771D01*
Y117115D01*
X87346D01*
X83410Y118427D02*
Y115803D01*
Y117115D01*
X82754Y117771D01*
X82098Y118427D01*
X81442D01*
X78162Y114491D02*
X77507D01*
X76851Y115147D01*
Y118427D01*
X78819D01*
X79475Y117771D01*
Y116459D01*
X78819Y115803D01*
X76851D01*
X73571D02*
X74883D01*
X75539Y116459D01*
Y117771D01*
X74883Y118427D01*
X73571D01*
X72915Y117771D01*
Y117115D01*
X75539D01*
X71603Y115803D02*
X70291D01*
X70947D01*
Y119739D01*
X71603D01*
X68323Y118427D02*
Y116459D01*
X67667Y115803D01*
X65699D01*
Y115147D01*
X66355Y114491D01*
X67011D01*
X65699Y115803D02*
Y118427D01*
X63731Y119083D02*
Y118427D01*
X64388D01*
X63076D01*
X63731D01*
Y116459D01*
X63076Y115803D01*
X60452Y118427D02*
X59140D01*
X58484Y117771D01*
Y115803D01*
X60452D01*
X61108Y116459D01*
X60452Y117115D01*
X58484D01*
X57172Y115803D02*
Y119739D01*
Y117115D02*
X55204Y118427D01*
X57172Y117115D02*
X55204Y115803D01*
X52580Y118427D02*
X51268D01*
X50612Y117771D01*
Y115803D01*
X52580D01*
X53236Y116459D01*
X52580Y117115D01*
X50612D01*
X46677Y118427D02*
X48645D01*
X49301Y117771D01*
Y116459D01*
X48645Y115803D01*
X46677D01*
X45365D02*
X43397D01*
X42741Y116459D01*
X43397Y117115D01*
X44709D01*
X45365Y117771D01*
X44709Y118427D01*
X42741D01*
X41429Y115803D02*
Y116459D01*
X40773D01*
Y115803D01*
X41429D01*
X35525Y118427D02*
X37493D01*
X38149Y117771D01*
Y116459D01*
X37493Y115803D01*
X35525D01*
X33558D02*
X32246D01*
X31590Y116459D01*
Y117771D01*
X32246Y118427D01*
X33558D01*
X34214Y117771D01*
Y116459D01*
X33558Y115803D01*
X30278D02*
Y118427D01*
X29622D01*
X28966Y117771D01*
Y115803D01*
Y117771D01*
X28310Y118427D01*
X27654Y117771D01*
Y115803D01*
X154910Y108351D02*
Y110975D01*
X154253D01*
X153598Y110319D01*
Y108351D01*
Y110319D01*
X152942Y110975D01*
X152286Y110319D01*
Y108351D01*
X150318Y110975D02*
X149006D01*
X148350Y110319D01*
Y108351D01*
X150318D01*
X150974Y109007D01*
X150318Y109663D01*
X148350D01*
X147038Y108351D02*
X145726D01*
X146382D01*
Y110975D01*
X147038D01*
X143758Y108351D02*
X142446D01*
X143102D01*
Y112287D01*
X143758D01*
X140478Y110975D02*
X139822D01*
Y110319D01*
X140478D01*
Y110975D01*
Y109007D02*
X139822D01*
Y108351D01*
X140478D01*
Y109007D01*
X131951Y107039D02*
X131295D01*
X130639Y107695D01*
Y110975D01*
X132607D01*
X133263Y110319D01*
Y109007D01*
X132607Y108351D01*
X130639D01*
X127359D02*
X128671D01*
X129327Y109007D01*
Y110319D01*
X128671Y110975D01*
X127359D01*
X126703Y110319D01*
Y109663D01*
X129327D01*
X125391Y110975D02*
Y108351D01*
Y109663D01*
X124735Y110319D01*
X124080Y110975D01*
X123424D01*
X120144Y107039D02*
X119488D01*
X118832Y107695D01*
Y110975D01*
X120800D01*
X121456Y110319D01*
Y109007D01*
X120800Y108351D01*
X118832D01*
X115552D02*
X116864D01*
X117520Y109007D01*
Y110319D01*
X116864Y110975D01*
X115552D01*
X114896Y110319D01*
Y109663D01*
X117520D01*
X113584Y108351D02*
X112272D01*
X112928D01*
Y112287D01*
X113584D01*
X110304Y110975D02*
Y109007D01*
X109649Y108351D01*
X107681D01*
Y107695D01*
X108337Y107039D01*
X108993D01*
X107681Y108351D02*
Y110975D01*
X105713Y111631D02*
Y110975D01*
X106369D01*
X105057D01*
X105713D01*
Y109007D01*
X105057Y108351D01*
X102433Y110975D02*
X101121D01*
X100465Y110319D01*
Y108351D01*
X102433D01*
X103089Y109007D01*
X102433Y109663D01*
X100465D01*
X99153Y108351D02*
Y112287D01*
Y109663D02*
X97185Y110975D01*
X99153Y109663D02*
X97185Y108351D01*
X94561Y110975D02*
X93249D01*
X92594Y110319D01*
Y108351D01*
X94561D01*
X95217Y109007D01*
X94561Y109663D01*
X92594D01*
X88658Y110975D02*
X90626D01*
X91282Y110319D01*
Y109007D01*
X90626Y108351D01*
X88658D01*
X87346D02*
X85378D01*
X84722Y109007D01*
X85378Y109663D01*
X86690D01*
X87346Y110319D01*
X86690Y110975D01*
X84722D01*
X81442Y109663D02*
Y110319D01*
X82098D01*
Y109663D01*
X81442D01*
X80786Y110319D01*
Y111631D01*
X81442Y112287D01*
X82754D01*
X83410Y111631D01*
Y109007D01*
X82754Y108351D01*
X80786D01*
X78162Y107039D02*
X77507D01*
X76851Y107695D01*
Y110975D01*
X78819D01*
X79475Y110319D01*
Y109007D01*
X78819Y108351D01*
X76851D01*
X73571D02*
X74883D01*
X75539Y109007D01*
Y110319D01*
X74883Y110975D01*
X73571D01*
X72915Y110319D01*
Y109663D01*
X75539D01*
X71603Y110975D02*
Y108351D01*
Y109663D01*
X70947Y110319D01*
X70291Y110975D01*
X69635D01*
X66355Y107039D02*
X65699D01*
X65043Y107695D01*
Y110975D01*
X67011D01*
X67667Y110319D01*
Y109007D01*
X67011Y108351D01*
X65043D01*
X61764D02*
X63076D01*
X63731Y109007D01*
Y110319D01*
X63076Y110975D01*
X61764D01*
X61108Y110319D01*
Y109663D01*
X63731D01*
X59796Y108351D02*
X58484D01*
X59140D01*
Y112287D01*
X59796D01*
X56516Y110975D02*
Y109007D01*
X55860Y108351D01*
X53892D01*
Y107695D01*
X54548Y107039D01*
X55204D01*
X53892Y108351D02*
Y110975D01*
X51924Y111631D02*
Y110975D01*
X52580D01*
X51268D01*
X51924D01*
Y109007D01*
X51268Y108351D01*
X48645Y110975D02*
X47333D01*
X46677Y110319D01*
Y108351D01*
X48645D01*
X49301Y109007D01*
X48645Y109663D01*
X46677D01*
X45365Y108351D02*
Y112287D01*
Y109663D02*
X43397Y110975D01*
X45365Y109663D02*
X43397Y108351D01*
X40773Y110975D02*
X39461D01*
X38805Y110319D01*
Y108351D01*
X40773D01*
X41429Y109007D01*
X40773Y109663D01*
X38805D01*
X34869Y110975D02*
X36837D01*
X37493Y110319D01*
Y109007D01*
X36837Y108351D01*
X34869D01*
X33558D02*
X31590D01*
X30934Y109007D01*
X31590Y109663D01*
X32901D01*
X33558Y110319D01*
X32901Y110975D01*
X30934D01*
X29622Y108351D02*
Y109007D01*
X28966D01*
Y108351D01*
X29622D01*
X23718Y110975D02*
X25686D01*
X26342Y110319D01*
Y109007D01*
X25686Y108351D01*
X23718D01*
X21750D02*
X20438D01*
X19782Y109007D01*
Y110319D01*
X20438Y110975D01*
X21750D01*
X22406Y110319D01*
Y109007D01*
X21750Y108351D01*
X18471D02*
Y110975D01*
X17815D01*
X17159Y110319D01*
Y108351D01*
Y110319D01*
X16503Y110975D01*
X15847Y110319D01*
Y108351D01*
X154910Y100899D02*
Y103523D01*
X154253D01*
X153598Y102867D01*
Y100899D01*
Y102867D01*
X152942Y103523D01*
X152286Y102867D01*
Y100899D01*
X150318Y103523D02*
X149006D01*
X148350Y102867D01*
Y100899D01*
X150318D01*
X150974Y101555D01*
X150318Y102211D01*
X148350D01*
X147038Y100899D02*
X145726D01*
X146382D01*
Y103523D01*
X147038D01*
X143758Y100899D02*
X142446D01*
X143102D01*
Y104835D01*
X143758D01*
X140478Y103523D02*
X139822D01*
Y102867D01*
X140478D01*
Y103523D01*
Y101555D02*
X139822D01*
Y100899D01*
X140478D01*
Y101555D01*
X131951Y99587D02*
X131295D01*
X130639Y100243D01*
Y103523D01*
X132607D01*
X133263Y102867D01*
Y101555D01*
X132607Y100899D01*
X130639D01*
X127359D02*
X128671D01*
X129327Y101555D01*
Y102867D01*
X128671Y103523D01*
X127359D01*
X126703Y102867D01*
Y102211D01*
X129327D01*
X125391Y103523D02*
Y100899D01*
Y102211D01*
X124735Y102867D01*
X124080Y103523D01*
X123424D01*
X120144Y99587D02*
X119488D01*
X118832Y100243D01*
Y103523D01*
X120800D01*
X121456Y102867D01*
Y101555D01*
X120800Y100899D01*
X118832D01*
X115552D02*
X116864D01*
X117520Y101555D01*
Y102867D01*
X116864Y103523D01*
X115552D01*
X114896Y102867D01*
Y102211D01*
X117520D01*
X113584Y100899D02*
X112272D01*
X112928D01*
Y104835D01*
X113584D01*
X110304Y103523D02*
Y101555D01*
X109649Y100899D01*
X107681D01*
Y100243D01*
X108337Y99587D01*
X108993D01*
X107681Y100899D02*
Y103523D01*
X106369Y100899D02*
Y101555D01*
X105713D01*
Y100899D01*
X106369D01*
X102433Y104179D02*
Y103523D01*
X103089D01*
X101777D01*
X102433D01*
Y101555D01*
X101777Y100899D01*
X99153Y103523D02*
X97841D01*
X97185Y102867D01*
Y100899D01*
X99153D01*
X99809Y101555D01*
X99153Y102211D01*
X97185D01*
X95873Y100899D02*
Y104835D01*
Y102211D02*
X93906Y103523D01*
X95873Y102211D02*
X93906Y100899D01*
X91282Y103523D02*
X89970D01*
X89314Y102867D01*
Y100899D01*
X91282D01*
X91938Y101555D01*
X91282Y102211D01*
X89314D01*
X85378Y103523D02*
X87346D01*
X88002Y102867D01*
Y101555D01*
X87346Y100899D01*
X85378D01*
X84066D02*
X82098D01*
X81442Y101555D01*
X82098Y102211D01*
X83410D01*
X84066Y102867D01*
X83410Y103523D01*
X81442D01*
X78162Y102211D02*
Y102867D01*
X78819D01*
Y102211D01*
X78162D01*
X77507Y102867D01*
Y104179D01*
X78162Y104835D01*
X79475D01*
X80130Y104179D01*
Y101555D01*
X79475Y100899D01*
X77507D01*
X76195D02*
X74227D01*
X73571Y101555D01*
X74227Y102211D01*
X75539D01*
X76195Y102867D01*
X75539Y103523D01*
X73571D01*
X71603Y104179D02*
Y103523D01*
X72259D01*
X70947D01*
X71603D01*
Y101555D01*
X70947Y100899D01*
X68979Y103523D02*
Y101555D01*
X68323Y100899D01*
X66355D01*
Y103523D01*
X65043Y104835D02*
Y100899D01*
X63076D01*
X62420Y101555D01*
Y102211D01*
Y102867D01*
X63076Y103523D01*
X65043D01*
X60452D02*
X59140D01*
X58484Y102867D01*
Y100899D01*
X60452D01*
X61108Y101555D01*
X60452Y102211D01*
X58484D01*
X57172Y100899D02*
Y101555D01*
X56516D01*
Y100899D01*
X57172D01*
X53892D02*
X51924D01*
X51268Y101555D01*
X51924Y102211D01*
X53236D01*
X53892Y102867D01*
X53236Y103523D01*
X51268D01*
X49956Y100899D02*
Y104835D01*
Y102211D02*
X47989Y103523D01*
X49956Y102211D02*
X47989Y100899D01*
X152286Y96071D02*
X154253D01*
X154910Y95415D01*
Y94103D01*
X154253Y93447D01*
X152286D01*
X149006D02*
X150318D01*
X150974Y94103D01*
Y95415D01*
X150318Y96071D01*
X149006D01*
X148350Y95415D01*
Y94759D01*
X150974D01*
X147038Y93447D02*
X145726D01*
X146382D01*
Y97382D01*
X147038D01*
X143758Y93447D02*
X142446D01*
X143102D01*
Y97382D01*
X143758D01*
X140478Y96071D02*
X139822D01*
Y95415D01*
X140478D01*
Y96071D01*
Y94103D02*
X139822D01*
Y93447D01*
X140478D01*
Y94103D01*
X133263Y95415D02*
X130639D01*
X131951Y96727D02*
Y94103D01*
X127359Y93447D02*
Y97382D01*
X129327Y95415D01*
X126703D01*
X122768Y93447D02*
X125391D01*
X122768Y96071D01*
Y96727D01*
X123424Y97382D01*
X124735D01*
X125391Y96727D01*
X121456Y93447D02*
X120144D01*
X120800D01*
Y97382D01*
X121456Y96727D01*
X114240Y94103D02*
X113584Y93447D01*
X112272D01*
X111616Y94103D01*
Y96727D01*
X112272Y97382D01*
X113584D01*
X114240Y96727D01*
Y96071D01*
X113584Y95415D01*
X111616D01*
X110304Y96727D02*
X109649Y97382D01*
X108337D01*
X107681Y96727D01*
Y94103D01*
X108337Y93447D01*
X109649D01*
X110304Y94103D01*
Y96727D01*
X106369Y97382D02*
X103745D01*
Y96727D01*
X106369Y94103D01*
Y93447D01*
X98497D02*
X97185D01*
X97841D01*
Y97382D01*
X98497Y96727D01*
X92594Y97382D02*
X93906Y96727D01*
X95217Y95415D01*
Y94103D01*
X94561Y93447D01*
X93249D01*
X92594Y94103D01*
Y94759D01*
X93249Y95415D01*
X95217D01*
X88658Y97382D02*
X91282D01*
Y95415D01*
X89970Y96071D01*
X89314D01*
X88658Y95415D01*
Y94103D01*
X89314Y93447D01*
X90626D01*
X91282Y94103D01*
X83410Y97382D02*
X80786D01*
Y96727D01*
X83410Y94103D01*
Y93447D01*
X76851D02*
X79475D01*
X76851Y96071D01*
Y96727D01*
X77507Y97382D01*
X78819D01*
X79475Y96727D01*
X75539D02*
X74883Y97382D01*
X73571D01*
X72915Y96727D01*
Y94103D01*
X73571Y93447D01*
X74883D01*
X75539Y94103D01*
Y96727D01*
X154253Y90586D02*
Y89930D01*
X154910D01*
X153598D01*
X154253D01*
Y87963D01*
X153598Y87307D01*
X149662D02*
X150974D01*
X151630Y87963D01*
Y89275D01*
X150974Y89930D01*
X149662D01*
X149006Y89275D01*
Y88618D01*
X151630D01*
X147694Y87307D02*
X146382D01*
X147038D01*
Y91242D01*
X147694D01*
X144414Y89930D02*
X143758D01*
Y89275D01*
X144414D01*
Y89930D01*
Y87963D02*
X143758D01*
Y87307D01*
X144414D01*
Y87963D01*
X133263Y89275D02*
X130639D01*
X131951Y90586D02*
Y87963D01*
X127359Y87307D02*
Y91242D01*
X129327Y89275D01*
X126703D01*
X122768Y87307D02*
X125391D01*
X122768Y89930D01*
Y90586D01*
X123424Y91242D01*
X124735D01*
X125391Y90586D01*
X121456Y87307D02*
X120144D01*
X120800D01*
Y91242D01*
X121456Y90586D01*
X111616Y87307D02*
X114240D01*
X111616Y89930D01*
Y90586D01*
X112272Y91242D01*
X113584D01*
X114240Y90586D01*
X103745Y91242D02*
X106369D01*
Y89275D01*
X105057Y89930D01*
X104401D01*
X103745Y89275D01*
Y87963D01*
X104401Y87307D01*
X105713D01*
X106369Y87963D01*
X102433Y91242D02*
X99809D01*
Y90586D01*
X102433Y87963D01*
Y87307D01*
X95873D02*
X98497D01*
X95873Y89930D01*
Y90586D01*
X96529Y91242D01*
X97841D01*
X98497Y90586D01*
X94561Y87963D02*
X93906Y87307D01*
X92594D01*
X91938Y87963D01*
Y90586D01*
X92594Y91242D01*
X93906D01*
X94561Y90586D01*
Y89930D01*
X93906Y89275D01*
X91938D01*
X84066Y91242D02*
X85378Y90586D01*
X86690Y89275D01*
Y87963D01*
X86034Y87307D01*
X84722D01*
X84066Y87963D01*
Y88618D01*
X84722Y89275D01*
X86690D01*
X82754Y91242D02*
X80130D01*
Y90586D01*
X82754Y87963D01*
Y87307D01*
X78819D02*
X77507D01*
X78162D01*
Y91242D01*
X78819Y90586D01*
X72915Y87307D02*
X75539D01*
X72915Y89930D01*
Y90586D01*
X73571Y91242D01*
X74883D01*
X75539Y90586D01*
D66*
X148678Y180560D02*
X149989Y181871D01*
X152613D01*
X153925Y180560D01*
Y175312D01*
X152613Y174000D01*
X149989D01*
X148678Y175312D01*
Y177936D01*
X151301D01*
X142118Y174000D02*
X144742D01*
X146054Y175312D01*
Y177936D01*
X144742Y179248D01*
X142118D01*
X140806Y177936D01*
Y176624D01*
X146054D01*
X138182Y179248D02*
Y174000D01*
Y176624D01*
X136870Y177936D01*
X135558Y179248D01*
X134247D01*
X127687Y171376D02*
X126375D01*
X125063Y172688D01*
Y179248D01*
X128999D01*
X130311Y177936D01*
Y175312D01*
X128999Y174000D01*
X125063D01*
X118503D02*
X121127D01*
X122439Y175312D01*
Y177936D01*
X121127Y179248D01*
X118503D01*
X117192Y177936D01*
Y176624D01*
X122439D01*
X114568Y174000D02*
X111944D01*
X113256D01*
Y181871D01*
X114568D01*
X108008Y179248D02*
Y175312D01*
X106696Y174000D01*
X102761D01*
Y172688D01*
X104072Y171376D01*
X105384D01*
X102761Y174000D02*
Y179248D01*
X92265Y181871D02*
X87018D01*
X89641D01*
Y174000D01*
X83082Y179248D02*
X80458D01*
X79146Y177936D01*
Y174000D01*
X83082D01*
X84394Y175312D01*
X83082Y176624D01*
X79146D01*
X76522Y174000D02*
Y181871D01*
Y176624D02*
X72587Y179248D01*
X76522Y176624D02*
X72587Y174000D01*
X67339Y179248D02*
X64715D01*
X63403Y177936D01*
Y174000D01*
X67339D01*
X68651Y175312D01*
X67339Y176624D01*
X63403D01*
X55532Y179248D02*
X59467D01*
X60779Y177936D01*
Y175312D01*
X59467Y174000D01*
X55532D01*
X52908D02*
X48972D01*
X47660Y175312D01*
X48972Y176624D01*
X51596D01*
X52908Y177936D01*
X51596Y179248D01*
X47660D01*
X324752Y180560D02*
X326064Y181871D01*
X328688D01*
X330000Y180560D01*
Y175312D01*
X328688Y174000D01*
X326064D01*
X324752Y175312D01*
X320817Y179248D02*
X318193D01*
X316881Y177936D01*
Y174000D01*
X320817D01*
X322129Y175312D01*
X320817Y176624D01*
X316881D01*
X314257Y179248D02*
Y174000D01*
Y176624D01*
X312945Y177936D01*
X311633Y179248D01*
X310321D01*
X301138Y181871D02*
Y174000D01*
X305074D01*
X306386Y175312D01*
Y177936D01*
X305074Y179248D01*
X301138D01*
X298514D02*
Y175312D01*
X297202Y174000D01*
X293266D01*
Y179248D01*
X290643Y174000D02*
X288019D01*
X289331D01*
Y179248D01*
X290643D01*
X284083Y174000D02*
Y179248D01*
X280147D01*
X278835Y177936D01*
Y174000D01*
X274900D02*
X272276D01*
X270964Y175312D01*
Y177936D01*
X272276Y179248D01*
X274900D01*
X276212Y177936D01*
Y175312D01*
X274900Y174000D01*
D67*
X172250Y118500D02*
D03*
M02*
