G04 Layer_Color=128*
%FSLAX25Y25*%
%MOIN*%
G70*
G01*
G75*
%ADD31C,0.00787*%
%ADD68C,0.00200*%
D31*
X3Y-32D02*
X350397D01*
X3D02*
Y200755D01*
X350397D01*
Y-32D02*
Y200755D01*
D68*
X123046Y43642D02*
X126944D01*
X124995Y41693D02*
Y45591D01*
X97456Y43642D02*
X101354D01*
X99405Y41693D02*
Y45591D01*
X123046Y61358D02*
X126944D01*
X124995Y59409D02*
Y63307D01*
X97456Y61358D02*
X101354D01*
X99405Y59409D02*
Y63307D01*
X120231Y17800D02*
X124169D01*
X122200Y15831D02*
Y19768D01*
X120231Y7800D02*
X124169D01*
X122200Y5831D02*
Y9768D01*
X110231Y17800D02*
X114169D01*
X112200Y15831D02*
Y19768D01*
X110231Y7800D02*
X114169D01*
X112200Y5831D02*
Y9768D01*
X100231Y17800D02*
X104168D01*
X102200Y15831D02*
Y19768D01*
X100231Y7800D02*
X104168D01*
X102200Y5831D02*
Y9768D01*
X8428Y172700D02*
X11972D01*
X10200Y170928D02*
Y174472D01*
X8428Y162700D02*
X11972D01*
X10200Y160928D02*
Y164472D01*
X8428Y152700D02*
X11972D01*
X10200Y150928D02*
Y154472D01*
X8428Y142700D02*
X11972D01*
X10200Y140928D02*
Y144472D01*
X8428Y132700D02*
X11972D01*
X10200Y130928D02*
Y134472D01*
X8428Y122700D02*
X11972D01*
X10200Y120928D02*
Y124472D01*
X8428Y112700D02*
X11972D01*
X10200Y110928D02*
Y114472D01*
X8428Y102700D02*
X11972D01*
X10200Y100928D02*
Y104472D01*
X8428Y92700D02*
X11972D01*
X10200Y90928D02*
Y94472D01*
X8428Y82700D02*
X11972D01*
X10200Y80928D02*
Y84472D01*
X8428Y72700D02*
X11972D01*
X10200Y70928D02*
Y74472D01*
X8428Y62700D02*
X11972D01*
X10200Y60928D02*
Y64472D01*
X8428Y52700D02*
X11972D01*
X10200Y50928D02*
Y54472D01*
X8428Y42700D02*
X11972D01*
X10200Y40928D02*
Y44472D01*
X8428Y32700D02*
X11972D01*
X10200Y30928D02*
Y34472D01*
X8428Y22700D02*
X11972D01*
X10200Y20928D02*
Y24472D01*
X338428Y172700D02*
X341972D01*
X340200Y170928D02*
Y174472D01*
X338428Y162700D02*
X341972D01*
X340200Y160928D02*
Y164472D01*
X338428Y152700D02*
X341972D01*
X340200Y150928D02*
Y154472D01*
X338428Y142700D02*
X341972D01*
X340200Y140928D02*
Y144472D01*
X338428Y132700D02*
X341972D01*
X340200Y130928D02*
Y134472D01*
X338428Y122700D02*
X341972D01*
X340200Y120928D02*
Y124472D01*
X338428Y112700D02*
X341972D01*
X340200Y110928D02*
Y114472D01*
X338428Y102700D02*
X341972D01*
X340200Y100928D02*
Y104472D01*
X338428Y92700D02*
X341972D01*
X340200Y90928D02*
Y94472D01*
X338428Y82700D02*
X341972D01*
X340200Y80928D02*
Y84472D01*
X338428Y72700D02*
X341972D01*
X340200Y70928D02*
Y74472D01*
X338428Y62700D02*
X341972D01*
X340200Y60928D02*
Y64472D01*
X338428Y52700D02*
X341972D01*
X340200Y50928D02*
Y54472D01*
X338428Y42700D02*
X341972D01*
X340200Y40928D02*
Y44472D01*
X338428Y32700D02*
X341972D01*
X340200Y30928D02*
Y34472D01*
X338428Y22700D02*
X341972D01*
X340200Y20928D02*
Y24472D01*
X116600Y123500D02*
X119400D01*
X118000Y122100D02*
Y124900D01*
X204100Y137000D02*
X206900D01*
X205500Y135600D02*
Y138400D01*
X101403Y37718D02*
X104203D01*
X102803Y36318D02*
Y39118D01*
X133703Y72700D02*
X136503D01*
X135103Y71300D02*
Y74100D01*
X14803Y37718D02*
X17603D01*
X16203Y36318D02*
Y39118D01*
X80882Y37718D02*
X83682D01*
X82282Y36318D02*
Y39118D01*
X189203Y34718D02*
X192003D01*
X190603Y33318D02*
Y36118D01*
X193603Y79918D02*
X196403D01*
X195003Y78518D02*
Y81318D01*
X145978Y30343D02*
X148778D01*
X147378Y28943D02*
Y31743D01*
X216203Y55118D02*
X219003D01*
X217603Y53718D02*
Y56518D01*
X176353Y56118D02*
X179153D01*
X177753Y54718D02*
Y57518D01*
X151716Y68005D02*
X154516D01*
X153116Y66605D02*
Y69405D01*
X190003Y69365D02*
X192803D01*
X191403Y67965D02*
Y70765D01*
X288348Y14818D02*
X291148D01*
X289748Y13418D02*
Y16218D01*
X208503Y12318D02*
X211303D01*
X209903Y10918D02*
Y13718D01*
X182503Y40718D02*
X185303D01*
X183903Y39318D02*
Y42118D01*
X169103Y27818D02*
X171903D01*
X170503Y26418D02*
Y29218D01*
X257303Y5618D02*
X260103D01*
X258703Y4218D02*
Y7018D01*
X262403Y31168D02*
X265203D01*
X263803Y29768D02*
Y32568D01*
X142310Y52700D02*
X145110D01*
X143710Y51300D02*
Y54100D01*
X178869Y50368D02*
X181669D01*
X180269Y48968D02*
Y51768D01*
X342903Y16218D02*
X345703D01*
X344303Y14818D02*
Y17618D01*
X311403Y88418D02*
X314203D01*
X312803Y87018D02*
Y89818D01*
X155003Y25918D02*
X157803D01*
X156403Y24518D02*
Y27318D01*
X195503Y16918D02*
X198303D01*
X196903Y15518D02*
Y18318D01*
X88803Y41818D02*
X91603D01*
X90203Y40418D02*
Y43218D01*
X237353Y17218D02*
X240153D01*
X238753Y15818D02*
Y18618D01*
X260503Y17118D02*
X263303D01*
X261903Y15718D02*
Y18518D01*
X217203Y19518D02*
X220003D01*
X218603Y18118D02*
Y20918D01*
X251903Y17118D02*
X254703D01*
X253303Y15718D02*
Y18518D01*
X297403Y18218D02*
X300203D01*
X298803Y16818D02*
Y19618D01*
X110703Y66718D02*
X113503D01*
X112103Y65318D02*
Y68118D01*
X219803Y68743D02*
X222603D01*
X221203Y67343D02*
Y70143D01*
X262003Y49818D02*
X264803D01*
X263403Y48418D02*
Y51218D01*
X81600Y6500D02*
X84400D01*
X83000Y5100D02*
Y7900D01*
X183600Y59500D02*
X186400D01*
X185000Y58100D02*
Y60900D01*
X172600Y42000D02*
X175400D01*
X174000Y40600D02*
Y43400D01*
X165600Y47000D02*
X168400D01*
X167000Y45600D02*
Y48400D01*
X223100Y27000D02*
X225900D01*
X224500Y25600D02*
Y28400D01*
X228600Y15500D02*
X231400D01*
X230000Y14100D02*
Y16900D01*
X201600Y40500D02*
X204400D01*
X203000Y39100D02*
Y41900D01*
X198100Y35500D02*
X200900D01*
X199500Y34100D02*
Y36900D01*
X209100Y40500D02*
X211900D01*
X210500Y39100D02*
Y41900D01*
X62100Y16000D02*
X64900D01*
X63500Y14600D02*
Y17400D01*
X141100Y170500D02*
X143900D01*
X142500Y169100D02*
Y171900D01*
X110100Y169500D02*
X112900D01*
X111500Y168100D02*
Y170900D01*
X152100Y86500D02*
X154900D01*
X153500Y85100D02*
Y87900D01*
X177600Y84000D02*
X180400D01*
X179000Y82600D02*
Y85400D01*
M02*
