G04 Layer_Color=2752767*
%FSLAX25Y25*%
%MOIN*%
G70*
G01*
G75*
%ADD31C,0.00787*%
%ADD68C,0.00200*%
%ADD69C,0.00267*%
D31*
X3Y-32D02*
X350397D01*
X3D02*
Y200755D01*
X350397D01*
Y-32D02*
Y200755D01*
D68*
X124195Y42842D02*
Y44442D01*
X125795D01*
Y42842D01*
X124195D01*
X98605D02*
Y44442D01*
X100205D01*
Y42842D01*
X98605D01*
X124195Y60558D02*
Y62158D01*
X125795D01*
Y60558D01*
X124195D01*
X98605D02*
Y62158D01*
X100205D01*
Y60558D01*
X98605D01*
X10200Y171900D02*
X9400Y173500D01*
X11000D01*
X10200Y171900D01*
Y161900D02*
X9400Y163500D01*
X11000D01*
X10200Y161900D01*
Y151900D02*
X9400Y153500D01*
X11000D01*
X10200Y151900D01*
Y141900D02*
X9400Y143500D01*
X11000D01*
X10200Y141900D01*
Y131900D02*
X9400Y133500D01*
X11000D01*
X10200Y131900D01*
Y121900D02*
X9400Y123500D01*
X11000D01*
X10200Y121900D01*
Y111900D02*
X9400Y113500D01*
X11000D01*
X10200Y111900D01*
Y101900D02*
X9400Y103500D01*
X11000D01*
X10200Y101900D01*
Y91900D02*
X9400Y93500D01*
X11000D01*
X10200Y91900D01*
Y81900D02*
X9400Y83500D01*
X11000D01*
X10200Y81900D01*
Y71900D02*
X9400Y73500D01*
X11000D01*
X10200Y71900D01*
Y61900D02*
X9400Y63500D01*
X11000D01*
X10200Y61900D01*
Y51900D02*
X9400Y53500D01*
X11000D01*
X10200Y51900D01*
Y41900D02*
X9400Y43500D01*
X11000D01*
X10200Y41900D01*
Y31900D02*
X9400Y33500D01*
X11000D01*
X10200Y31900D01*
Y21900D02*
X9400Y23500D01*
X11000D01*
X10200Y21900D01*
X340200Y171900D02*
X339400Y173500D01*
X341000D01*
X340200Y171900D01*
Y161900D02*
X339400Y163500D01*
X341000D01*
X340200Y161900D01*
Y151900D02*
X339400Y153500D01*
X341000D01*
X340200Y151900D01*
Y141900D02*
X339400Y143500D01*
X341000D01*
X340200Y141900D01*
Y131900D02*
X339400Y133500D01*
X341000D01*
X340200Y131900D01*
Y121900D02*
X339400Y123500D01*
X341000D01*
X340200Y121900D01*
Y111900D02*
X339400Y113500D01*
X341000D01*
X340200Y111900D01*
Y101900D02*
X339400Y103500D01*
X341000D01*
X340200Y101900D01*
Y91900D02*
X339400Y93500D01*
X341000D01*
X340200Y91900D01*
Y81900D02*
X339400Y83500D01*
X341000D01*
X340200Y81900D01*
Y71900D02*
X339400Y73500D01*
X341000D01*
X340200Y71900D01*
Y61900D02*
X339400Y63500D01*
X341000D01*
X340200Y61900D01*
Y51900D02*
X339400Y53500D01*
X341000D01*
X340200Y51900D01*
Y41900D02*
X339400Y43500D01*
X341000D01*
X340200Y41900D01*
Y31900D02*
X339400Y33500D01*
X341000D01*
X340200Y31900D01*
Y21900D02*
X339400Y23500D01*
X341000D01*
X340200Y21900D01*
X118000Y122700D02*
X118400Y123100D01*
X118800D01*
X118400Y123500D01*
X118800Y123900D01*
X118400D01*
X118000Y124300D01*
X117600Y123900D01*
X117200D01*
X117600Y123500D01*
X117200Y123100D01*
X117600D01*
X118000Y122700D01*
X205500Y136200D02*
X205900Y136600D01*
X206300D01*
X205900Y137000D01*
X206300Y137400D01*
X205900D01*
X205500Y137800D01*
X205100Y137400D01*
X204700D01*
X205100Y137000D01*
X204700Y136600D01*
X205100D01*
X205500Y136200D01*
X102803Y36918D02*
X103203Y37318D01*
X103603D01*
X103203Y37718D01*
X103603Y38118D01*
X103203D01*
X102803Y38518D01*
X102403Y38118D01*
X102003D01*
X102403Y37718D01*
X102003Y37318D01*
X102403D01*
X102803Y36918D01*
X135103Y71900D02*
X135503Y72300D01*
X135903D01*
X135503Y72700D01*
X135903Y73100D01*
X135503D01*
X135103Y73500D01*
X134703Y73100D01*
X134303D01*
X134703Y72700D01*
X134303Y72300D01*
X134703D01*
X135103Y71900D01*
X16203Y36918D02*
X16603Y37318D01*
X17003D01*
X16603Y37718D01*
X17003Y38118D01*
X16603D01*
X16203Y38518D01*
X15803Y38118D01*
X15403D01*
X15803Y37718D01*
X15403Y37318D01*
X15803D01*
X16203Y36918D01*
X82282D02*
X82682Y37318D01*
X83082D01*
X82682Y37718D01*
X83082Y38118D01*
X82682D01*
X82282Y38518D01*
X81882Y38118D01*
X81482D01*
X81882Y37718D01*
X81482Y37318D01*
X81882D01*
X82282Y36918D01*
X190603Y33918D02*
X191003Y34318D01*
X191403D01*
X191003Y34718D01*
X191403Y35118D01*
X191003D01*
X190603Y35518D01*
X190203Y35118D01*
X189803D01*
X190203Y34718D01*
X189803Y34318D01*
X190203D01*
X190603Y33918D01*
X195003Y79118D02*
X195403Y79518D01*
X195803D01*
X195403Y79918D01*
X195803Y80318D01*
X195403D01*
X195003Y80718D01*
X194603Y80318D01*
X194203D01*
X194603Y79918D01*
X194203Y79518D01*
X194603D01*
X195003Y79118D01*
X147378Y29543D02*
X147778Y29943D01*
X148178D01*
X147778Y30343D01*
X148178Y30743D01*
X147778D01*
X147378Y31143D01*
X146978Y30743D01*
X146578D01*
X146978Y30343D01*
X146578Y29943D01*
X146978D01*
X147378Y29543D01*
X217603Y54318D02*
X218003Y54718D01*
X218403D01*
X218003Y55118D01*
X218403Y55518D01*
X218003D01*
X217603Y55918D01*
X217203Y55518D01*
X216803D01*
X217203Y55118D01*
X216803Y54718D01*
X217203D01*
X217603Y54318D01*
X177753Y55318D02*
X178153Y55718D01*
X178553D01*
X178153Y56118D01*
X178553Y56518D01*
X178153D01*
X177753Y56918D01*
X177353Y56518D01*
X176953D01*
X177353Y56118D01*
X176953Y55718D01*
X177353D01*
X177753Y55318D01*
X153116Y67204D02*
X153516Y67605D01*
X153916D01*
X153516Y68005D01*
X153916Y68405D01*
X153516D01*
X153116Y68805D01*
X152716Y68405D01*
X152316D01*
X152716Y68005D01*
X152316Y67605D01*
X152716D01*
X153116Y67204D01*
X191403Y68565D02*
X191803Y68965D01*
X192203D01*
X191803Y69365D01*
X192203Y69765D01*
X191803D01*
X191403Y70165D01*
X191003Y69765D01*
X190603D01*
X191003Y69365D01*
X190603Y68965D01*
X191003D01*
X191403Y68565D01*
X289748Y14018D02*
X290148Y14418D01*
X290548D01*
X290148Y14818D01*
X290548Y15218D01*
X290148D01*
X289748Y15618D01*
X289348Y15218D01*
X288948D01*
X289348Y14818D01*
X288948Y14418D01*
X289348D01*
X289748Y14018D01*
X209903Y11518D02*
X210303Y11918D01*
X210703D01*
X210303Y12318D01*
X210703Y12718D01*
X210303D01*
X209903Y13118D01*
X209503Y12718D01*
X209103D01*
X209503Y12318D01*
X209103Y11918D01*
X209503D01*
X209903Y11518D01*
X183903Y39918D02*
X184303Y40318D01*
X184703D01*
X184303Y40718D01*
X184703Y41118D01*
X184303D01*
X183903Y41518D01*
X183503Y41118D01*
X183103D01*
X183503Y40718D01*
X183103Y40318D01*
X183503D01*
X183903Y39918D01*
X170503Y27018D02*
X170903Y27418D01*
X171303D01*
X170903Y27818D01*
X171303Y28218D01*
X170903D01*
X170503Y28618D01*
X170103Y28218D01*
X169703D01*
X170103Y27818D01*
X169703Y27418D01*
X170103D01*
X170503Y27018D01*
X258703Y4818D02*
X259103Y5218D01*
X259503D01*
X259103Y5618D01*
X259503Y6018D01*
X259103D01*
X258703Y6418D01*
X258303Y6018D01*
X257903D01*
X258303Y5618D01*
X257903Y5218D01*
X258303D01*
X258703Y4818D01*
X263803Y30368D02*
X264203Y30768D01*
X264603D01*
X264203Y31168D01*
X264603Y31568D01*
X264203D01*
X263803Y31968D01*
X263403Y31568D01*
X263003D01*
X263403Y31168D01*
X263003Y30768D01*
X263403D01*
X263803Y30368D01*
X143710Y51900D02*
X144110Y52300D01*
X144510D01*
X144110Y52700D01*
X144510Y53100D01*
X144110D01*
X143710Y53500D01*
X143310Y53100D01*
X142910D01*
X143310Y52700D01*
X142910Y52300D01*
X143310D01*
X143710Y51900D01*
X180269Y49568D02*
X180669Y49968D01*
X181069D01*
X180669Y50368D01*
X181069Y50768D01*
X180669D01*
X180269Y51168D01*
X179869Y50768D01*
X179469D01*
X179869Y50368D01*
X179469Y49968D01*
X179869D01*
X180269Y49568D01*
X344303Y15418D02*
X344703Y15818D01*
X345103D01*
X344703Y16218D01*
X345103Y16618D01*
X344703D01*
X344303Y17018D01*
X343903Y16618D01*
X343503D01*
X343903Y16218D01*
X343503Y15818D01*
X343903D01*
X344303Y15418D01*
X312803Y87618D02*
X313203Y88018D01*
X313603D01*
X313203Y88418D01*
X313603Y88818D01*
X313203D01*
X312803Y89218D01*
X312403Y88818D01*
X312003D01*
X312403Y88418D01*
X312003Y88018D01*
X312403D01*
X312803Y87618D01*
X156403Y25118D02*
X156803Y25518D01*
X157203D01*
X156803Y25918D01*
X157203Y26318D01*
X156803D01*
X156403Y26718D01*
X156003Y26318D01*
X155603D01*
X156003Y25918D01*
X155603Y25518D01*
X156003D01*
X156403Y25118D01*
X196903Y16118D02*
X197303Y16518D01*
X197703D01*
X197303Y16918D01*
X197703Y17318D01*
X197303D01*
X196903Y17718D01*
X196503Y17318D01*
X196103D01*
X196503Y16918D01*
X196103Y16518D01*
X196503D01*
X196903Y16118D01*
X90203Y41018D02*
X90603Y41418D01*
X91003D01*
X90603Y41818D01*
X91003Y42218D01*
X90603D01*
X90203Y42618D01*
X89803Y42218D01*
X89403D01*
X89803Y41818D01*
X89403Y41418D01*
X89803D01*
X90203Y41018D01*
X238753Y16418D02*
X239153Y16818D01*
X239553D01*
X239153Y17218D01*
X239553Y17618D01*
X239153D01*
X238753Y18018D01*
X238353Y17618D01*
X237953D01*
X238353Y17218D01*
X237953Y16818D01*
X238353D01*
X238753Y16418D01*
X261903Y16318D02*
X262303Y16718D01*
X262703D01*
X262303Y17118D01*
X262703Y17518D01*
X262303D01*
X261903Y17918D01*
X261503Y17518D01*
X261103D01*
X261503Y17118D01*
X261103Y16718D01*
X261503D01*
X261903Y16318D01*
X218603Y18718D02*
X219003Y19118D01*
X219403D01*
X219003Y19518D01*
X219403Y19918D01*
X219003D01*
X218603Y20318D01*
X218203Y19918D01*
X217803D01*
X218203Y19518D01*
X217803Y19118D01*
X218203D01*
X218603Y18718D01*
X253303Y16318D02*
X253703Y16718D01*
X254103D01*
X253703Y17118D01*
X254103Y17518D01*
X253703D01*
X253303Y17918D01*
X252903Y17518D01*
X252503D01*
X252903Y17118D01*
X252503Y16718D01*
X252903D01*
X253303Y16318D01*
X298803Y17418D02*
X299203Y17818D01*
X299603D01*
X299203Y18218D01*
X299603Y18618D01*
X299203D01*
X298803Y19018D01*
X298403Y18618D01*
X298003D01*
X298403Y18218D01*
X298003Y17818D01*
X298403D01*
X298803Y17418D01*
X112103Y65918D02*
X112503Y66318D01*
X112903D01*
X112503Y66718D01*
X112903Y67118D01*
X112503D01*
X112103Y67518D01*
X111703Y67118D01*
X111303D01*
X111703Y66718D01*
X111303Y66318D01*
X111703D01*
X112103Y65918D01*
X221203Y67943D02*
X221603Y68343D01*
X222003D01*
X221603Y68743D01*
X222003Y69143D01*
X221603D01*
X221203Y69542D01*
X220803Y69143D01*
X220403D01*
X220803Y68743D01*
X220403Y68343D01*
X220803D01*
X221203Y67943D01*
X263403Y49018D02*
X263803Y49418D01*
X264203D01*
X263803Y49818D01*
X264203Y50218D01*
X263803D01*
X263403Y50618D01*
X263003Y50218D01*
X262603D01*
X263003Y49818D01*
X262603Y49418D01*
X263003D01*
X263403Y49018D01*
X83000Y5700D02*
X83400Y6100D01*
X83800D01*
X83400Y6500D01*
X83800Y6900D01*
X83400D01*
X83000Y7300D01*
X82600Y6900D01*
X82200D01*
X82600Y6500D01*
X82200Y6100D01*
X82600D01*
X83000Y5700D01*
X185000Y58700D02*
X185400Y59100D01*
X185800D01*
X185400Y59500D01*
X185800Y59900D01*
X185400D01*
X185000Y60300D01*
X184600Y59900D01*
X184200D01*
X184600Y59500D01*
X184200Y59100D01*
X184600D01*
X185000Y58700D01*
X174000Y41200D02*
X174400Y41600D01*
X174800D01*
X174400Y42000D01*
X174800Y42400D01*
X174400D01*
X174000Y42800D01*
X173600Y42400D01*
X173200D01*
X173600Y42000D01*
X173200Y41600D01*
X173600D01*
X174000Y41200D01*
X167000Y46200D02*
X167400Y46600D01*
X167800D01*
X167400Y47000D01*
X167800Y47400D01*
X167400D01*
X167000Y47800D01*
X166600Y47400D01*
X166200D01*
X166600Y47000D01*
X166200Y46600D01*
X166600D01*
X167000Y46200D01*
X224500Y26200D02*
X224900Y26600D01*
X225300D01*
X224900Y27000D01*
X225300Y27400D01*
X224900D01*
X224500Y27800D01*
X224100Y27400D01*
X223700D01*
X224100Y27000D01*
X223700Y26600D01*
X224100D01*
X224500Y26200D01*
X230000Y14700D02*
X230400Y15100D01*
X230800D01*
X230400Y15500D01*
X230800Y15900D01*
X230400D01*
X230000Y16300D01*
X229600Y15900D01*
X229200D01*
X229600Y15500D01*
X229200Y15100D01*
X229600D01*
X230000Y14700D01*
X203000Y39700D02*
X203400Y40100D01*
X203800D01*
X203400Y40500D01*
X203800Y40900D01*
X203400D01*
X203000Y41300D01*
X202600Y40900D01*
X202200D01*
X202600Y40500D01*
X202200Y40100D01*
X202600D01*
X203000Y39700D01*
X199500Y34700D02*
X199900Y35100D01*
X200300D01*
X199900Y35500D01*
X200300Y35900D01*
X199900D01*
X199500Y36300D01*
X199100Y35900D01*
X198700D01*
X199100Y35500D01*
X198700Y35100D01*
X199100D01*
X199500Y34700D01*
X210500Y39700D02*
X210900Y40100D01*
X211300D01*
X210900Y40500D01*
X211300Y40900D01*
X210900D01*
X210500Y41300D01*
X210100Y40900D01*
X209700D01*
X210100Y40500D01*
X209700Y40100D01*
X210100D01*
X210500Y39700D01*
X63500Y15200D02*
X63900Y15600D01*
X64300D01*
X63900Y16000D01*
X64300Y16400D01*
X63900D01*
X63500Y16800D01*
X63100Y16400D01*
X62700D01*
X63100Y16000D01*
X62700Y15600D01*
X63100D01*
X63500Y15200D01*
X142500Y169700D02*
X142900Y170100D01*
X143300D01*
X142900Y170500D01*
X143300Y170900D01*
X142900D01*
X142500Y171300D01*
X142100Y170900D01*
X141700D01*
X142100Y170500D01*
X141700Y170100D01*
X142100D01*
X142500Y169700D01*
X111500Y168700D02*
X111900Y169100D01*
X112300D01*
X111900Y169500D01*
X112300Y169900D01*
X111900D01*
X111500Y170300D01*
X111100Y169900D01*
X110700D01*
X111100Y169500D01*
X110700Y169100D01*
X111100D01*
X111500Y168700D01*
X153500Y85700D02*
X153900Y86100D01*
X154300D01*
X153900Y86500D01*
X154300Y86900D01*
X153900D01*
X153500Y87300D01*
X153100Y86900D01*
X152700D01*
X153100Y86500D01*
X152700Y86100D01*
X153100D01*
X153500Y85700D01*
X179000Y83200D02*
X179400Y83600D01*
X179800D01*
X179400Y84000D01*
X179800Y84400D01*
X179400D01*
X179000Y84800D01*
X178600Y84400D01*
X178200D01*
X178600Y84000D01*
X178200Y83600D01*
X178600D01*
X179000Y83200D01*
D69*
X123000Y17800D02*
G03*
X123000Y17800I-800J0D01*
G01*
Y7800D02*
G03*
X123000Y7800I-800J0D01*
G01*
X113000Y17800D02*
G03*
X113000Y17800I-800J0D01*
G01*
Y7800D02*
G03*
X113000Y7800I-800J0D01*
G01*
X103000Y17800D02*
G03*
X103000Y17800I-800J0D01*
G01*
Y7800D02*
G03*
X103000Y7800I-800J0D01*
G01*
M02*
