M48
;Layer_Color=9474304
;FILE_FORMAT=2:5
INCH,TZ
;TYPE=PLATED
T1F00S00C0.02800
T2F00S00C0.03543
T3F00S00C0.03898
T4F00S00C0.03937
%
T01
X16203Y37718
X82282
X90203Y41818
X102803Y37718
X83000Y6500
X63500Y16000
X147378Y30343
X156403Y25918
X170503Y27818
X174000Y42000
X183903Y40718
X180269Y50368
X177753Y56118
X167000Y47000
X143710Y52700
X190603Y34718
X199500Y35500
X203000Y40500
X210500
X217603Y55118
X224500Y27000
X218603Y19518
X230000Y15500
X238753Y17218
X253303Y17118
X261903
X258703Y5618
X263803Y31168
X263403Y49818
X289748Y14818
X298803Y18218
X344303Y16218
X209903Y12318
X196903Y16918
X191403Y69365
X195003Y79918
X221203Y68743
X205500Y137000
X312803Y88418
X179000Y84000
X153500Y86500
X153116Y68005
X135103Y72700
X112103Y66718
X118000Y123500
X111500Y169500
X142500Y170500
X185000Y59500
T02
X10200Y22700
Y32700
Y42700
Y52700
X340200
Y42700
Y32700
Y22700
Y62700
Y72700
Y82700
Y92700
Y102700
Y112700
Y122700
Y132700
Y142700
Y152700
Y162700
Y172700
X10200
Y162700
Y152700
Y142700
Y132700
Y122700
Y112700
Y102700
Y92700
Y82700
Y72700
Y62700
T03
X99405Y43642
X124995
Y61358
X99405
T04
X102200Y7800
X112200
X122200
Y17800
X112200
X102200
M30
