G04 Layer_Color=16711935*
%FSLAX25Y25*%
%MOIN*%
G70*
G01*
G75*
%ADD31C,0.00787*%
%ADD39C,0.00394*%
%ADD68R,0.01959X0.11811*%
D31*
X3Y-32D02*
X350397D01*
X3D02*
Y200755D01*
X350397D01*
Y-32D02*
Y200755D01*
D39*
X254228Y28563D02*
G03*
X254228Y28563I-1969J0D01*
G01*
X187805Y61417D02*
G03*
X187805Y61417I-1969J0D01*
G01*
X190945Y-1146D02*
Y22082D01*
X159449Y-1146D02*
Y22082D01*
X190945D01*
X159449Y-1146D02*
X190945D01*
X200347Y5809D02*
X206253D01*
X200347Y14471D02*
X206253D01*
X200347Y5809D02*
Y14471D01*
X206253Y5809D02*
Y14471D01*
X141756Y5669D02*
Y14331D01*
X136244Y5669D02*
Y14331D01*
X141756D01*
X136244Y5669D02*
X141756D01*
X146646Y14231D02*
X152354D01*
X146646Y5569D02*
X152354D01*
Y14231D01*
X146646Y5569D02*
Y14231D01*
X214465Y10059D02*
Y32106D01*
X255803Y10059D02*
Y32106D01*
X214465Y10059D02*
X255803D01*
X214465Y32106D02*
X255803D01*
X266649Y37655D02*
X272358D01*
X266649Y28994D02*
X272358D01*
Y37655D01*
X266649Y28994D02*
Y37655D01*
X285614Y26151D02*
X311992D01*
X285614Y11584D02*
X311992D01*
Y26151D01*
X285614Y11584D02*
Y26151D01*
X42666Y59320D02*
X50934D01*
X42666Y64280D02*
X50934D01*
Y59320D02*
Y64280D01*
X42666Y59320D02*
Y64280D01*
Y41320D02*
X50934D01*
X42666Y46280D02*
X50934D01*
Y41320D02*
Y46280D01*
X42666Y41320D02*
Y46280D01*
Y23320D02*
X50934D01*
X42666Y28280D02*
X50934D01*
Y23320D02*
Y28280D01*
X42666Y23320D02*
Y28280D01*
Y7320D02*
X50934D01*
X42666Y12280D02*
X50934D01*
Y7320D02*
Y12280D01*
X42666Y7320D02*
Y12280D01*
X204969Y47544D02*
X213631D01*
X204969Y53056D02*
X213631D01*
Y47544D02*
Y53056D01*
X204969Y47544D02*
Y53056D01*
X204624Y63456D02*
X213286D01*
X204624Y57944D02*
X213286D01*
X204624D02*
Y63456D01*
X213286Y57944D02*
Y63456D01*
X256773Y48664D02*
Y69136D01*
X228427Y48664D02*
Y69136D01*
Y48664D02*
X256773D01*
X228427Y69136D02*
X256773D01*
X161820Y64961D02*
X189379D01*
X161820Y37402D02*
X189379D01*
Y64961D01*
X161820Y37402D02*
Y64961D01*
X282472Y44013D02*
Y49722D01*
X291134Y44013D02*
Y49722D01*
X282472D02*
X291134D01*
X282472Y44013D02*
X291134D01*
X272106Y60962D02*
Y72773D01*
X286673Y60962D02*
Y72773D01*
X272106D02*
X286673D01*
X272106Y60962D02*
X286673D01*
X321600Y3700D02*
X336600D01*
X321600Y13600D02*
X336600D01*
Y3700D02*
Y13600D01*
X321600Y3700D02*
Y13600D01*
X302016Y44013D02*
Y49722D01*
X310677Y44013D02*
Y49722D01*
X302016D02*
X310677D01*
X302016Y44013D02*
X310677D01*
X266646Y7213D02*
X272354D01*
X266646Y15874D02*
X272354D01*
X266646Y7213D02*
Y15874D01*
X272354Y7213D02*
Y15874D01*
X68800Y41044D02*
X77461D01*
X68800Y46556D02*
X77461D01*
Y41044D02*
Y46556D01*
X68800Y41044D02*
Y46556D01*
X68800Y23044D02*
X77461D01*
X68800Y28556D02*
X77461D01*
Y23044D02*
Y28556D01*
X68800Y23044D02*
Y28556D01*
Y59044D02*
X77461D01*
X68800Y64556D02*
X77461D01*
Y59044D02*
Y64556D01*
X68800Y59044D02*
Y64556D01*
X68800Y7044D02*
X77461D01*
X68800Y12556D02*
X77461D01*
Y7044D02*
Y12556D01*
X68800Y7044D02*
Y12556D01*
X300106Y60962D02*
Y72773D01*
X314673Y60962D02*
Y72773D01*
X300106D02*
X314673D01*
X300106Y60962D02*
X314673D01*
D68*
X273086Y66868D02*
D03*
X301086D02*
D03*
M02*
